<?xml version="1.0" encoding="UTF-8" standalone="no"?>
<!DOCTYPE svg PUBLIC "-//W3C//DTD SVG 1.1//EN"
"http://www.w3.org/Graphics/SVG/1.1/DTD/svg11.dtd">
<svg viewBox="0 0 909 1286" version="1.1" xmlns="http://www.w3.org/2000/svg" xmlns:xlink="http://www.w3.org/1999/xlink">
<defs>
<style type="text/css"><![CDATA[
.g0_19{
}
.g1_19{
fill: #404040;
}
.g2_19{
fill: #FFFFFF;
}
]]></style>
</defs>
<path fill-rule="evenodd" d="M56.5,115.3H157.3v33H56.5v-33Z" class="g0_19" />
<path fill-rule="evenodd" d="M55.4,114.2h103v35.2H55.4V114.2L56.8,148H156.9V115.7H56.8V148L55.4,114.2Z" class="g0_19" />
<g fill="#FFFFFF" >
<use xlink:href="#f0_s6" transform="matrix(12,0,0,12,62.5,138)" />
<use xlink:href="#f0_nt" transform="matrix(12,0,0,12,71.7,138)" />
<use xlink:href="#f0_14" transform="matrix(12,0,0,12,80.9,138)" />
<use xlink:href="#f0_2j" transform="matrix(12,0,0,12,92.4,138)" />
<use xlink:href="#f0_5" transform="matrix(12,0,0,12,102.8,138)" />
<use xlink:href="#f0_2g" transform="matrix(12,0,0,12,113.8,138)" />
<use xlink:href="#f0_19" transform="matrix(12,0,0,12,123.6,138)" />
<use xlink:href="#f0_2n" transform="matrix(12,0,0,12,135.1,138)" />
</g>
<g fill="#000000" >
<use xlink:href="#f1_t" transform="matrix(10,0,0,10,80.7,185.2)" />
<use xlink:href="#f1_i" transform="matrix(10,0,0,10,88.4,185.2)" />
<use xlink:href="#f1_l" transform="matrix(10,0,0,10,92.2,185.2)" />
<use xlink:href="#f1_1l" transform="matrix(10,0,0,10,103.6,185.2)" />
<use xlink:href="#f1_2a" transform="matrix(10,0,0,10,114.6,185.2)" />
<use xlink:href="#f1_25" transform="matrix(10,0,0,10,122.8,185.2)" />
<use xlink:href="#f1_22" transform="matrix(10,0,0,10,127,185.2)" />
<use xlink:href="#f1_2b" transform="matrix(10,0,0,10,132.4,185.2)" />
<use xlink:href="#f1_2e" transform="matrix(10,0,0,10,139.9,185.2)" />
<use xlink:href="#f1_29" transform="matrix(10,0,0,10,146.8,185.2)" />
<use xlink:href="#f1_29" transform="matrix(10,0,0,10,163,185.2)" />
<use xlink:href="#f1_2b" transform="matrix(10,0,0,10,175.3,185.2)" />
<use xlink:href="#f1_2g" transform="matrix(10,0,0,10,182.8,185.2)" />
<use xlink:href="#f1_25" transform="matrix(10,0,0,10,188.1,185.2)" />
<use xlink:href="#f1_2b" transform="matrix(10,0,0,10,192.3,185.2)" />
<use xlink:href="#f1_2a" transform="matrix(10,0,0,10,200,185.2)" />
<use xlink:href="#f2_3d" transform="matrix(12,0,0,12,108.2,227.9)" />
<use xlink:href="#f3_19" transform="matrix(10,0,0,10,139.2,227.9)" />
<use xlink:href="#f3_2a" transform="matrix(10,0,0,10,144.3,227.9)" />
<use xlink:href="#f3_1x" transform="matrix(10,0,0,10,155.5,227.9)" />
<use xlink:href="#f3_2a" transform="matrix(10,0,0,10,162.3,227.9)" />
<use xlink:href="#f3_2h" transform="matrix(10,0,0,10,173.4,227.9)" />
<use xlink:href="#f3_2a" transform="matrix(10,0,0,10,181.1,227.9)" />
<use xlink:href="#f3_25" transform="matrix(10,0,0,10,188.5,227.9)" />
<use xlink:href="#f3_22" transform="matrix(10,0,0,10,192.7,227.9)" />
<use xlink:href="#f3_2b" transform="matrix(10,0,0,10,197.8,227.9)" />
<use xlink:href="#f3_2e" transform="matrix(10,0,0,10,205.3,227.9)" />
<use xlink:href="#f3_29" transform="matrix(10,0,0,10,210.7,227.9)" />
<use xlink:href="#f3_29" transform="matrix(10,0,0,10,226.1,227.9)" />
<use xlink:href="#f3_2b" transform="matrix(10,0,0,10,237.6,227.9)" />
<use xlink:href="#f3_2g" transform="matrix(10,0,0,10,245.1,227.9)" />
<use xlink:href="#f3_25" transform="matrix(10,0,0,10,249.3,227.9)" />
<use xlink:href="#f3_2b" transform="matrix(10,0,0,10,253.6,227.9)" />
<use xlink:href="#f3_2a" transform="matrix(10,0,0,10,261.4,227.9)" />
<use xlink:href="#f3_1x" transform="matrix(10,0,0,10,272.8,227.9)" />
<use xlink:href="#f3_1y" transform="matrix(10,0,0,10,283.3,227.9)" />
<use xlink:href="#f3_2b" transform="matrix(10,0,0,10,291,227.9)" />
<use xlink:href="#f3_20" transform="matrix(10,0,0,10,298.5,227.9)" />
<use xlink:href="#f3_2l" transform="matrix(10,0,0,10,306.4,227.9)" />
<use xlink:href="#f3_1z" transform="matrix(10,0,0,10,317.4,227.9)" />
<use xlink:href="#f3_2b" transform="matrix(10,0,0,10,324.3,227.9)" />
<use xlink:href="#f3_2i" transform="matrix(10,0,0,10,331.9,227.9)" />
<use xlink:href="#f3_21" transform="matrix(10,0,0,10,339.6,227.9)" />
<use xlink:href="#f3_2e" transform="matrix(10,0,0,10,346.3,227.9)" />
<use xlink:href="#f3_2f" transform="matrix(10,0,0,10,351.5,227.9)" />
<use xlink:href="#f3_21" transform="matrix(10,0,0,10,361.2,227.9)" />
<use xlink:href="#f3_2d" transform="matrix(10,0,0,10,368,227.9)" />
<use xlink:href="#f3_2h" transform="matrix(10,0,0,10,375.5,227.9)" />
<use xlink:href="#f3_1x" transform="matrix(10,0,0,10,383.2,227.9)" />
<use xlink:href="#f3_28" transform="matrix(10,0,0,10,390,227.9)" />
<use xlink:href="#f3_20" transform="matrix(10,0,0,10,397.9,227.9)" />
<use xlink:href="#f3_25" transform="matrix(10,0,0,10,405.7,227.9)" />
<use xlink:href="#f3_2f" transform="matrix(10,0,0,10,410,227.9)" />
<use xlink:href="#f3_2g" transform="matrix(10,0,0,10,415.6,227.9)" />
<use xlink:href="#f3_1x" transform="matrix(10,0,0,10,419.9,227.9)" />
<use xlink:href="#f3_2a" transform="matrix(10,0,0,10,426.8,227.9)" />
<use xlink:href="#f3_1z" transform="matrix(10,0,0,10,434.2,227.9)" />
<use xlink:href="#f3_21" transform="matrix(10,0,0,10,441.1,227.9)" />
<use xlink:href="#f3_25" transform="matrix(10,0,0,10,451.4,227.9)" />
<use xlink:href="#f3_2a" transform="matrix(10,0,0,10,455.8,227.9)" />
<use xlink:href="#f3_21" transform="matrix(10,0,0,10,467.1,227.9)" />
<use xlink:href="#f3_2d" transform="matrix(10,0,0,10,473.9,227.9)" />
<use xlink:href="#f3_2h" transform="matrix(10,0,0,10,481.4,227.9)" />
<use xlink:href="#f3_1x" transform="matrix(10,0,0,10,489.1,227.9)" />
<use xlink:href="#f3_28" transform="matrix(10,0,0,10,495.7,227.9)" />
<use xlink:href="#f3_25" transform="matrix(10,0,0,10,503.8,227.9)" />
<use xlink:href="#f3_2a" transform="matrix(10,0,0,10,508,227.9)" />
<use xlink:href="#f3_2g" transform="matrix(10,0,0,10,515.7,227.9)" />
<use xlink:href="#f3_21" transform="matrix(10,0,0,10,519.8,227.9)" />
<use xlink:href="#f3_2e" transform="matrix(10,0,0,10,526.7,227.9)" />
<use xlink:href="#f3_2i" transform="matrix(10,0,0,10,531.9,227.9)" />
<use xlink:href="#f3_1x" transform="matrix(10,0,0,10,539.4,227.9)" />
<use xlink:href="#f3_28" transform="matrix(10,0,0,10,546.2,227.9)" />
<use xlink:href="#f3_2b" transform="matrix(10,0,0,10,553.9,227.9)" />
<use xlink:href="#f3_22" transform="matrix(10,0,0,10,561.8,227.9)" />
<use xlink:href="#f3_2g" transform="matrix(10,0,0,10,570.6,227.9)" />
<use xlink:href="#f3_25" transform="matrix(10,0,0,10,574.6,227.9)" />
<use xlink:href="#f3_29" transform="matrix(10,0,0,10,578.8,227.9)" />
<use xlink:href="#f3_21" transform="matrix(10,0,0,10,590.4,227.9)" />
<use xlink:href="#f3_i" transform="matrix(10,0,0,10,597.3,227.9)" />
<use xlink:href="#f2_3d" transform="matrix(12,0,0,12,108.2,260.9)" />
<use xlink:href="#f3_1m" transform="matrix(10,0,0,10,139.2,260.9)" />
<use xlink:href="#f3_21" transform="matrix(10,0,0,10,148.3,260.9)" />
<use xlink:href="#f3_28" transform="matrix(10,0,0,10,155.1,260.9)" />
<use xlink:href="#f3_2b" transform="matrix(10,0,0,10,159.5,260.9)" />
<use xlink:href="#f3_1z" transform="matrix(10,0,0,10,167.2,260.9)" />
<use xlink:href="#f3_25" transform="matrix(10,0,0,10,174,260.9)" />
<use xlink:href="#f3_2g" transform="matrix(10,0,0,10,178,260.9)" />
<use xlink:href="#f3_2l" transform="matrix(10,0,0,10,182.2,260.9)" />
<use xlink:href="#f3_25" transform="matrix(10,0,0,10,193.6,260.9)" />
<use xlink:href="#f3_2f" transform="matrix(10,0,0,10,197.8,260.9)" />
<use xlink:href="#f3_1z" transform="matrix(10,0,0,10,207.2,260.9)" />
<use xlink:href="#f3_2b" transform="matrix(10,0,0,10,214,260.9)" />
<use xlink:href="#f3_2a" transform="matrix(10,0,0,10,221.8,260.9)" />
<use xlink:href="#f3_2f" transform="matrix(10,0,0,10,229.2,260.9)" />
<use xlink:href="#f3_2g" transform="matrix(10,0,0,10,235.2,260.9)" />
<use xlink:href="#f3_1x" transform="matrix(10,0,0,10,239.3,260.9)" />
<use xlink:href="#f3_2a" transform="matrix(10,0,0,10,246.2,260.9)" />
<use xlink:href="#f3_2g" transform="matrix(10,0,0,10,253.6,260.9)" />
<use xlink:href="#f3_20" transform="matrix(10,0,0,10,261.8,260.9)" />
<use xlink:href="#f3_2h" transform="matrix(10,0,0,10,269.3,260.9)" />
<use xlink:href="#f3_2e" transform="matrix(10,0,0,10,277,260.9)" />
<use xlink:href="#f3_25" transform="matrix(10,0,0,10,282.2,260.9)" />
<use xlink:href="#f3_2a" transform="matrix(10,0,0,10,286.4,260.9)" />
<use xlink:href="#f3_23" transform="matrix(10,0,0,10,293.7,260.9)" />
<use xlink:href="#f3_2g" transform="matrix(10,0,0,10,305.1,260.9)" />
<use xlink:href="#f3_24" transform="matrix(10,0,0,10,309.5,260.9)" />
<use xlink:href="#f3_21" transform="matrix(10,0,0,10,316.8,260.9)" />
<use xlink:href="#f3_1z" transform="matrix(10,0,0,10,327.5,260.9)" />
<use xlink:href="#f3_2b" transform="matrix(10,0,0,10,334.4,260.9)" />
<use xlink:href="#f3_2h" transform="matrix(10,0,0,10,341.9,260.9)" />
<use xlink:href="#f3_2e" transform="matrix(10,0,0,10,349.6,260.9)" />
<use xlink:href="#f3_2f" transform="matrix(10,0,0,10,354.8,260.9)" />
<use xlink:href="#f3_21" transform="matrix(10,0,0,10,360.5,260.9)" />
<use xlink:href="#f3_2b" transform="matrix(10,0,0,10,371.1,260.9)" />
<use xlink:href="#f3_22" transform="matrix(10,0,0,10,378.6,260.9)" />
<use xlink:href="#f3_29" transform="matrix(10,0,0,10,387.6,260.9)" />
<use xlink:href="#f3_2b" transform="matrix(10,0,0,10,399.1,260.9)" />
<use xlink:href="#f3_2g" transform="matrix(10,0,0,10,406.7,260.9)" />
<use xlink:href="#f3_25" transform="matrix(10,0,0,10,410.9,260.9)" />
<use xlink:href="#f3_2b" transform="matrix(10,0,0,10,415.1,260.9)" />
<use xlink:href="#f3_2a" transform="matrix(10,0,0,10,423,260.9)" />
<use xlink:href="#f2_3d" transform="matrix(12,0,0,12,108.2,294.1)" />
<use xlink:href="#f3_11" transform="matrix(10,0,0,10,139.2,294.1)" />
<use xlink:href="#f3_1z" transform="matrix(10,0,0,10,149.8,294.1)" />
<use xlink:href="#f3_1z" transform="matrix(10,0,0,10,156.7,294.1)" />
<use xlink:href="#f3_21" transform="matrix(10,0,0,10,163.5,294.1)" />
<use xlink:href="#f3_28" transform="matrix(10,0,0,10,170.1,294.1)" />
<use xlink:href="#f3_21" transform="matrix(10,0,0,10,174.5,294.1)" />
<use xlink:href="#f3_2e" transform="matrix(10,0,0,10,181.3,294.1)" />
<use xlink:href="#f3_1x" transform="matrix(10,0,0,10,186.5,294.1)" />
<use xlink:href="#f3_2g" transform="matrix(10,0,0,10,193.2,294.1)" />
<use xlink:href="#f3_25" transform="matrix(10,0,0,10,197.3,294.1)" />
<use xlink:href="#f3_2b" transform="matrix(10,0,0,10,201.5,294.1)" />
<use xlink:href="#f3_2a" transform="matrix(10,0,0,10,209.4,294.1)" />
<use xlink:href="#f3_25" transform="matrix(10,0,0,10,220.6,294.1)" />
<use xlink:href="#f3_2f" transform="matrix(10,0,0,10,224.8,294.1)" />
<use xlink:href="#f3_2m" transform="matrix(10,0,0,10,234.3,294.1)" />
<use xlink:href="#f3_21" transform="matrix(10,0,0,10,241.3,294.1)" />
<use xlink:href="#f3_2e" transform="matrix(10,0,0,10,248.1,294.1)" />
<use xlink:href="#f3_2b" transform="matrix(10,0,0,10,253.2,294.1)" />
<use xlink:href="#f3_20" transform="matrix(10,0,0,10,264.8,294.1)" />
<use xlink:href="#f3_2h" transform="matrix(10,0,0,10,272.3,294.1)" />
<use xlink:href="#f3_2e" transform="matrix(10,0,0,10,280,294.1)" />
<use xlink:href="#f3_25" transform="matrix(10,0,0,10,285.1,294.1)" />
<use xlink:href="#f3_2a" transform="matrix(10,0,0,10,289.3,294.1)" />
<use xlink:href="#f3_23" transform="matrix(10,0,0,10,296.7,294.1)" />
<use xlink:href="#f3_2g" transform="matrix(10,0,0,10,308.2,294.1)" />
<use xlink:href="#f3_24" transform="matrix(10,0,0,10,312.4,294.1)" />
<use xlink:href="#f3_21" transform="matrix(10,0,0,10,319.8,294.1)" />
<use xlink:href="#f3_1z" transform="matrix(10,0,0,10,330.4,294.1)" />
<use xlink:href="#f3_2b" transform="matrix(10,0,0,10,337.4,294.1)" />
<use xlink:href="#f3_2h" transform="matrix(10,0,0,10,344.9,294.1)" />
<use xlink:href="#f3_2e" transform="matrix(10,0,0,10,352.6,294.1)" />
<use xlink:href="#f3_2f" transform="matrix(10,0,0,10,357.7,294.1)" />
<use xlink:href="#f3_21" transform="matrix(10,0,0,10,363.4,294.1)" />
<use xlink:href="#f3_2b" transform="matrix(10,0,0,10,374,294.1)" />
<use xlink:href="#f3_22" transform="matrix(10,0,0,10,381.5,294.1)" />
<use xlink:href="#f3_29" transform="matrix(10,0,0,10,390.5,294.1)" />
<use xlink:href="#f3_2b" transform="matrix(10,0,0,10,402.1,294.1)" />
<use xlink:href="#f3_2g" transform="matrix(10,0,0,10,409.6,294.1)" />
<use xlink:href="#f3_25" transform="matrix(10,0,0,10,413.8,294.1)" />
<use xlink:href="#f3_2b" transform="matrix(10,0,0,10,418,294.1)" />
<use xlink:href="#f3_2a" transform="matrix(10,0,0,10,425.9,294.1)" />
<use xlink:href="#f3_19" transform="matrix(10,0,0,10,108.2,327.1)" />
<use xlink:href="#f3_22" transform="matrix(10,0,0,10,113.3,327.1)" />
<use xlink:href="#f3_2j" transform="matrix(10,0,0,10,122.1,327.1)" />
<use xlink:href="#f3_21" transform="matrix(10,0,0,10,132.5,327.1)" />
<use xlink:href="#f3_2g" transform="matrix(10,0,0,10,143,327.1)" />
<use xlink:href="#f3_2e" transform="matrix(10,0,0,10,147.2,327.1)" />
<use xlink:href="#f3_2l" transform="matrix(10,0,0,10,152.5,327.1)" />
<use xlink:href="#f3_2g" transform="matrix(10,0,0,10,163.5,327.1)" />
<use xlink:href="#f3_2b" transform="matrix(10,0,0,10,167.8,327.1)" />
<use xlink:href="#f3_2e" transform="matrix(10,0,0,10,179.3,327.1)" />
<use xlink:href="#f3_21" transform="matrix(10,0,0,10,184.6,327.1)" />
<use xlink:href="#f3_2c" transform="matrix(10,0,0,10,191.2,327.1)" />
<use xlink:href="#f3_2e" transform="matrix(10,0,0,10,199.1,327.1)" />
<use xlink:href="#f3_21" transform="matrix(10,0,0,10,204.1,327.1)" />
<use xlink:href="#f3_2f" transform="matrix(10,0,0,10,211,327.1)" />
<use xlink:href="#f3_21" transform="matrix(10,0,0,10,216.7,327.1)" />
<use xlink:href="#f3_2a" transform="matrix(10,0,0,10,223.7,327.1)" />
<use xlink:href="#f3_2g" transform="matrix(10,0,0,10,231,327.1)" />
<use xlink:href="#f3_2g" transform="matrix(10,0,0,10,238.9,327.1)" />
<use xlink:href="#f3_24" transform="matrix(10,0,0,10,243.1,327.1)" />
<use xlink:href="#f3_21" transform="matrix(10,0,0,10,250.8,327.1)" />
<use xlink:href="#f3_2f" transform="matrix(10,0,0,10,261.4,327.1)" />
<use xlink:href="#f3_1x" transform="matrix(10,0,0,10,267.3,327.1)" />
<use xlink:href="#f3_29" transform="matrix(10,0,0,10,274.1,327.1)" />
<use xlink:href="#f3_21" transform="matrix(10,0,0,10,285.7,327.1)" />
<use xlink:href="#f3_2b" transform="matrix(10,0,0,10,296.1,327.1)" />
<use xlink:href="#f3_2a" transform="matrix(10,0,0,10,304,327.1)" />
<use xlink:href="#f3_2g" transform="matrix(10,0,0,10,315.4,327.1)" />
<use xlink:href="#f3_24" transform="matrix(10,0,0,10,319.4,327.1)" />
<use xlink:href="#f3_21" transform="matrix(10,0,0,10,327.1,327.1)" />
<use xlink:href="#f3_2a" transform="matrix(10,0,0,10,337.5,327.1)" />
<use xlink:href="#f3_2h" transform="matrix(10,0,0,10,344.9,327.1)" />
<use xlink:href="#f3_29" transform="matrix(10,0,0,10,352.6,327.1)" />
<use xlink:href="#f3_1y" transform="matrix(10,0,0,10,364.1,327.1)" />
<use xlink:href="#f3_21" transform="matrix(10,0,0,10,371.6,327.1)" />
<use xlink:href="#f3_2e" transform="matrix(10,0,0,10,378.6,327.1)" />
<use xlink:href="#f3_28" transform="matrix(10,0,0,10,387.6,327.1)" />
<use xlink:href="#f3_25" transform="matrix(10,0,0,10,391.8,327.1)" />
<use xlink:href="#f3_2a" transform="matrix(10,0,0,10,395.9,327.1)" />
<use xlink:href="#f3_21" transform="matrix(10,0,0,10,403.6,327.1)" />
<use xlink:href="#f3_2j" transform="matrix(10,0,0,10,414,327.1)" />
<use xlink:href="#f3_25" transform="matrix(10,0,0,10,424.6,327.1)" />
<use xlink:href="#f3_2g" transform="matrix(10,0,0,10,428.8,327.1)" />
<use xlink:href="#f3_24" transform="matrix(10,0,0,10,433,327.1)" />
<use xlink:href="#f3_2k" transform="matrix(10,0,0,10,444.4,327.1)" />
<use xlink:href="#f3_g" transform="matrix(10,0,0,10,451.9,327.1)" />
<use xlink:href="#f3_2i" transform="matrix(10,0,0,10,459.6,327.1)" />
<use xlink:href="#f3_g" transform="matrix(10,0,0,10,466.2,327.1)" />
<use xlink:href="#f3_1x" transform="matrix(10,0,0,10,473.9,327.1)" />
<use xlink:href="#f3_2b" transform="matrix(10,0,0,10,484.4,327.1)" />
<use xlink:href="#f3_2a" transform="matrix(10,0,0,10,491.9,327.1)" />
<use xlink:href="#f3_2g" transform="matrix(10,0,0,10,503.3,327.1)" />
<use xlink:href="#f3_24" transform="matrix(10,0,0,10,507.5,327.1)" />
<use xlink:href="#f3_21" transform="matrix(10,0,0,10,515,327.1)" />
<use xlink:href="#f3_1p" transform="matrix(10,0,0,10,525.3,327.1)" />
<use xlink:href="#f3_h" transform="matrix(10,0,0,10,534.4,327.1)" />
<use xlink:href="#f3_1x" transform="matrix(10,0,0,10,539.6,327.1)" />
<use xlink:href="#f3_2k" transform="matrix(10,0,0,10,546.3,327.1)" />
<use xlink:href="#f3_25" transform="matrix(10,0,0,10,553.9,327.1)" />
<use xlink:href="#f3_2f" transform="matrix(10,0,0,10,558.1,327.1)" />
<use xlink:href="#f3_1x" transform="matrix(10,0,0,10,567.6,327.1)" />
<use xlink:href="#f3_2a" transform="matrix(10,0,0,10,574.4,327.1)" />
<use xlink:href="#f3_20" transform="matrix(10,0,0,10,581.7,327.1)" />
<use xlink:href="#f3_2g" transform="matrix(10,0,0,10,593.3,327.1)" />
<use xlink:href="#f3_2b" transform="matrix(10,0,0,10,601.3,327.1)" />
<use xlink:href="#f3_2a" transform="matrix(10,0,0,10,609.2,327.1)" />
<use xlink:href="#f3_2g" transform="matrix(10,0,0,10,620.6,327.1)" />
<use xlink:href="#f3_24" transform="matrix(10,0,0,10,624.6,327.1)" />
<use xlink:href="#f3_21" transform="matrix(10,0,0,10,632.3,327.1)" />
<use xlink:href="#f3_1o" transform="matrix(10,0,0,10,642.8,327.1)" />
<use xlink:href="#f3_h" transform="matrix(10,0,0,10,653.8,327.1)" />
<use xlink:href="#f3_1x" transform="matrix(10,0,0,10,658.7,327.1)" />
<use xlink:href="#f3_2k" transform="matrix(10,0,0,10,665.5,327.1)" />
<use xlink:href="#f3_25" transform="matrix(10,0,0,10,673,327.1)" />
<use xlink:href="#f3_2f" transform="matrix(10,0,0,10,677.3,327.1)" />
<use xlink:href="#f3_2g" transform="matrix(10,0,0,10,687,327.1)" />
<use xlink:href="#f3_24" transform="matrix(10,0,0,10,691,327.1)" />
<use xlink:href="#f3_21" transform="matrix(10,0,0,10,698.7,327.1)" />
<use xlink:href="#f3_2a" transform="matrix(10,0,0,10,705.5,327.1)" />
<use xlink:href="#f3_2j" transform="matrix(10,0,0,10,716.8,327.1)" />
<use xlink:href="#f3_21" transform="matrix(10,0,0,10,727.5,327.1)" />
<use xlink:href="#f3_2j" transform="matrix(10,0,0,10,737.9,327.1)" />
<use xlink:href="#f3_25" transform="matrix(10,0,0,10,748.5,327.1)" />
<use xlink:href="#f3_28" transform="matrix(10,0,0,10,752.6,327.1)" />
<use xlink:href="#f3_28" transform="matrix(10,0,0,10,756.8,327.1)" />
<use xlink:href="#f3_24" transform="matrix(10,0,0,10,765.1,327.1)" />
<use xlink:href="#f3_1x" transform="matrix(10,0,0,10,772.6,327.1)" />
<use xlink:href="#f3_2i" transform="matrix(10,0,0,10,779.4,327.1)" />
<use xlink:href="#f3_21" transform="matrix(10,0,0,10,786.9,327.1)" />
<use xlink:href="#f1_20" transform="matrix(10,0,0,10,66.9,404.2)" />
<use xlink:href="#f1_25" transform="matrix(10,0,0,10,75.2,404.2)" />
<use xlink:href="#f1_2f" transform="matrix(10,0,0,10,79.4,404.2)" />
<use xlink:href="#f1_2c" transform="matrix(10,0,0,10,85.4,404.2)" />
<use xlink:href="#f1_28" transform="matrix(10,0,0,10,93.7,404.2)" />
<use xlink:href="#f1_1x" transform="matrix(10,0,0,10,97.9,404.2)" />
<use xlink:href="#f1_1z" transform="matrix(10,0,0,10,105.8,404.2)" />
<use xlink:href="#f1_21" transform="matrix(10,0,0,10,112.6,404.2)" />
<use xlink:href="#f1_29" transform="matrix(10,0,0,10,119.4,404.2)" />
<use xlink:href="#f1_21" transform="matrix(10,0,0,10,131.5,404.2)" />
<use xlink:href="#f1_2a" transform="matrix(10,0,0,10,138.4,404.2)" />
<use xlink:href="#f1_2g" transform="matrix(10,0,0,10,146.7,404.2)" />
<use xlink:href="#f1_4y" transform="matrix(10,0,0,10,155.5,404.2)" />
<use xlink:href="#f1_2g" transform="matrix(10,0,0,10,167,404.2)" />
<use xlink:href="#f1_25" transform="matrix(10,0,0,10,172.3,404.2)" />
<use xlink:href="#f1_29" transform="matrix(10,0,0,10,176.6,404.2)" />
<use xlink:href="#f1_21" transform="matrix(10,0,0,10,188.8,404.2)" />
<use xlink:href="#f1_23" transform="matrix(10,0,0,10,199.3,404.2)" />
<use xlink:href="#f1_2e" transform="matrix(10,0,0,10,206.8,404.2)" />
<use xlink:href="#f1_1x" transform="matrix(10,0,0,10,213.8,404.2)" />
<use xlink:href="#f1_2c" transform="matrix(10,0,0,10,221.5,404.2)" />
<use xlink:href="#f1_24" transform="matrix(10,0,0,10,229.7,404.2)" />
<use xlink:href="#f1_2i" transform="matrix(10,0,0,10,383,404.2)" />
<use xlink:href="#f1_21" transform="matrix(10,0,0,10,390.9,404.2)" />
<use xlink:href="#f1_28" transform="matrix(10,0,0,10,397.7,404.2)" />
<use xlink:href="#f1_2b" transform="matrix(10,0,0,10,401.9,404.2)" />
<use xlink:href="#f1_1z" transform="matrix(10,0,0,10,409.6,404.2)" />
<use xlink:href="#f1_25" transform="matrix(10,0,0,10,416.4,404.2)" />
<use xlink:href="#f1_2g" transform="matrix(10,0,0,10,420.4,404.2)" />
<use xlink:href="#f1_2l" transform="matrix(10,0,0,10,425.5,404.2)" />
<use xlink:href="#f1_4y" transform="matrix(10,0,0,10,437.1,404.2)" />
<use xlink:href="#f1_2g" transform="matrix(10,0,0,10,448.6,404.2)" />
<use xlink:href="#f1_25" transform="matrix(10,0,0,10,453.6,404.2)" />
<use xlink:href="#f1_29" transform="matrix(10,0,0,10,457.8,404.2)" />
<use xlink:href="#f1_21" transform="matrix(10,0,0,10,470.3,404.2)" />
<use xlink:href="#f1_23" transform="matrix(10,0,0,10,480.7,404.2)" />
<use xlink:href="#f1_2e" transform="matrix(10,0,0,10,488.6,404.2)" />
<use xlink:href="#f1_1x" transform="matrix(10,0,0,10,495.4,404.2)" />
<use xlink:href="#f1_2c" transform="matrix(10,0,0,10,502.9,404.2)" />
<use xlink:href="#f1_24" transform="matrix(10,0,0,10,511.5,404.2)" />
<use xlink:href="#f1_1x" transform="matrix(10,0,0,10,647.7,404.2)" />
<use xlink:href="#f1_1z" transform="matrix(10,0,0,10,655.6,404.2)" />
<use xlink:href="#f1_1z" transform="matrix(10,0,0,10,662.2,404.2)" />
<use xlink:href="#f1_21" transform="matrix(10,0,0,10,669.2,404.2)" />
<use xlink:href="#f1_28" transform="matrix(10,0,0,10,676,404.2)" />
<use xlink:href="#f1_21" transform="matrix(10,0,0,10,680.2,404.2)" />
<use xlink:href="#f1_2e" transform="matrix(10,0,0,10,687,404.2)" />
<use xlink:href="#f1_1x" transform="matrix(10,0,0,10,693.7,404.2)" />
<use xlink:href="#f1_2g" transform="matrix(10,0,0,10,701.3,404.2)" />
<use xlink:href="#f1_25" transform="matrix(10,0,0,10,706.6,404.2)" />
<use xlink:href="#f1_2b" transform="matrix(10,0,0,10,710.8,404.2)" />
<use xlink:href="#f1_2a" transform="matrix(10,0,0,10,718.3,404.2)" />
<use xlink:href="#f1_4y" transform="matrix(10,0,0,10,730.8,404.2)" />
<use xlink:href="#f1_2g" transform="matrix(10,0,0,10,742,404.2)" />
<use xlink:href="#f1_25" transform="matrix(10,0,0,10,747.3,404.2)" />
<use xlink:href="#f1_29" transform="matrix(10,0,0,10,751.5,404.2)" />
<use xlink:href="#f1_21" transform="matrix(10,0,0,10,763.8,404.2)" />
<use xlink:href="#f1_23" transform="matrix(10,0,0,10,774.2,404.2)" />
<use xlink:href="#f1_2e" transform="matrix(10,0,0,10,782.1,404.2)" />
<use xlink:href="#f1_1x" transform="matrix(10,0,0,10,788.9,404.2)" />
<use xlink:href="#f1_2c" transform="matrix(10,0,0,10,796.4,404.2)" />
<use xlink:href="#f1_24" transform="matrix(10,0,0,10,804.8,404.2)" />
<use xlink:href="#f1_2i" transform="matrix(10,0,0,10,383,429.9)" />
<use xlink:href="#f1_21" transform="matrix(10,0,0,10,390.9,429.9)" />
<use xlink:href="#f1_28" transform="matrix(10,0,0,10,397.7,429.9)" />
<use xlink:href="#f1_2b" transform="matrix(10,0,0,10,401.9,429.9)" />
<use xlink:href="#f1_1z" transform="matrix(10,0,0,10,409.4,429.9)" />
<use xlink:href="#f1_25" transform="matrix(10,0,0,10,416.4,429.9)" />
<use xlink:href="#f1_2g" transform="matrix(10,0,0,10,420.6,429.9)" />
<use xlink:href="#f1_2l" transform="matrix(10,0,0,10,425.7,429.9)" />
<use xlink:href="#f1_x" transform="matrix(10,0,0,10,437.1,429.9)" />
<use xlink:href="#f1_2f" transform="matrix(10,0,0,10,449.5,429.9)" />
<use xlink:href="#f1_28" transform="matrix(10,0,0,10,455.4,429.9)" />
<use xlink:href="#f1_2b" transform="matrix(10,0,0,10,459.8,429.9)" />
<use xlink:href="#f1_2c" transform="matrix(10,0,0,10,467.5,429.9)" />
<use xlink:href="#f1_21" transform="matrix(10,0,0,10,475.9,429.9)" />
<use xlink:href="#f1_2b" transform="matrix(10,0,0,10,486.6,429.9)" />
<use xlink:href="#f1_22" transform="matrix(10,0,0,10,494.1,429.9)" />
<use xlink:href="#f1_2k" transform="matrix(10,0,0,10,502.9,429.9)" />
<use xlink:href="#f1_4y" transform="matrix(10,0,0,10,514.5,429.9)" />
<use xlink:href="#f1_2g" transform="matrix(10,0,0,10,526,429.9)" />
<use xlink:href="#f1_23" transform="matrix(10,0,0,10,535,429.9)" />
<use xlink:href="#f1_2e" transform="matrix(10,0,0,10,542.7,429.9)" />
<use xlink:href="#f1_1x" transform="matrix(10,0,0,10,549.5,429.9)" />
<use xlink:href="#f1_2c" transform="matrix(10,0,0,10,557,429.9)" />
<use xlink:href="#f1_24" transform="matrix(10,0,0,10,565.4,429.9)" />
<use xlink:href="#f1_1x" transform="matrix(10,0,0,10,647.7,429.9)" />
<use xlink:href="#f1_1z" transform="matrix(10,0,0,10,655.6,429.9)" />
<use xlink:href="#f1_1z" transform="matrix(10,0,0,10,662.4,429.9)" />
<use xlink:href="#f1_2a" transform="matrix(7,0,0,7,669.2,422.2)" />
<use xlink:href="#f1_x" transform="matrix(10,0,0,10,678.5,429.9)" />
<use xlink:href="#f1_2f" transform="matrix(10,0,0,10,691,429.9)" />
<use xlink:href="#f1_28" transform="matrix(10,0,0,10,697,429.9)" />
<use xlink:href="#f1_2b" transform="matrix(10,0,0,10,701.3,429.9)" />
<use xlink:href="#f1_2c" transform="matrix(10,0,0,10,708.8,429.9)" />
<use xlink:href="#f1_21" transform="matrix(10,0,0,10,717.2,429.9)" />
<use xlink:href="#f1_2b" transform="matrix(10,0,0,10,727.8,429.9)" />
<use xlink:href="#f1_22" transform="matrix(10,0,0,10,735.7,429.9)" />
<use xlink:href="#f1_2i" transform="matrix(10,0,0,10,744.3,429.9)" />
<use xlink:href="#f1_4y" transform="matrix(10,0,0,10,755.9,429.9)" />
<use xlink:href="#f1_2g" transform="matrix(10,0,0,10,767.4,429.9)" />
<use xlink:href="#f1_23" transform="matrix(10,0,0,10,776.4,429.9)" />
<use xlink:href="#f1_2e" transform="matrix(10,0,0,10,784.3,429.9)" />
<use xlink:href="#f1_1x" transform="matrix(10,0,0,10,791.1,429.9)" />
<use xlink:href="#f1_2c" transform="matrix(10,0,0,10,798.6,429.9)" />
<use xlink:href="#f1_24" transform="matrix(10,0,0,10,807,429.9)" />
<use xlink:href="#f1_c" transform="matrix(10,0,0,10,66.9,536.4)" />
<use xlink:href="#f1_25" transform="matrix(10,0,0,10,72,536.4)" />
<use xlink:href="#f1_d" transform="matrix(10,0,0,10,76.1,536.4)" />
</g>
<path d="M183.9,469.3l-68.8,49.9L114,518.1l68.8,-49.9l1.1,1.1Z" class="g1_19" />
<path d="M234.3,519.6H114.4v-1.5H234.3v1.5Zm1.8,0l-.7,-1.1v1.1l-6.2,-4.1l.7,-1.1l6.2,4.1v1.1Zm0,0v-1.1l1.1,.3l-1.1,.8Zm-6.6,3.3l-.3,-.8l6.2,-3.6l.7,1.1l-6.2,4l-.4,-.7Z" class="g0_19" />
<path d="M113.3,466.4h1.1l4,6.2l-1.1,.8l-4,-5.9h1.1l-1.1,-1.1Zm0,0l.7,-.7l.4,.7h-1.1ZM110,473l-.7,-.4l4,-6.2l1.1,1.1l-3.7,5.9L110,473Zm3.3,97.9V468.2h1.5V570.9h-1.5Z" class="g0_19" />
<path d="M99.6,468.6h3.3v.2c-.4,0,-.4,.2,-.6,.2c0,0,-.2,.1,-.2,.3c0,0,.2,.2,.4,.6c0,0,.2,.2,.2,.3l.5,.8l.6,-.8c.3,-.5,.5,-.9,.5,-1.1c0,0,0,-.1,-.2,-.1c0,0,-.1,-.2,-.3,-.2v-.2h2.4v.2c-.2,.2,-.6,.2,-.8,.3c-.2,0,-.5,.4,-.9,1.1l-.9,1.1l1.6,2.6c.6,.6,.8,.9,1,1.1c.1,.2,.3,.2,.7,.2v.2h-3.3v-.2c.2,0,.4,0,.5,-.2c.2,0,.2,-.2,.2,-.2c0,-.2,-.2,-.5,-.5,-.9l-.9,-1.5l-1.3,1.5c-.2,.4,-.4,.7,-.4,.7c0,.2,0,.4,.2,.4c0,.2,.2,.2,.4,.2v.2H99.6v-.2c.1,0,.3,0,.5,-.2c.2,-.2,.4,-.5,.9,-1.1l1.5,-2l-1.3,-1.8c-.4,-.6,-.7,-1,-.9,-1c-.2,-.1,-.6,-.3,-.7,-.3Z" class="g0_19" />
<path d="M228.1,526.9v2.2h1.6v.5h-1.6v4.5c0,.5,.1,.7,.1,.9c.2,.2,.4,.2,.6,.2c.2,0,.4,0,.5,0c.2,-.2,.2,-.4,.4,-.6h.2c-.2,.6,-.4,.9,-.7,1.1c-.4,.2,-.6,.4,-1,.4c-.3,0,-.5,0,-.7,-.2c-.2,-.2,-.4,-.4,-.5,-.6c0,-.1,-.2,-.5,-.2,-1.1v-4.6h-1.1v-.3c.3,0,.5,-.2,.9,-.6c.4,-.2,.5,-.5,.7,-.9c.2,-.2,.4,-.5,.6,-.9Z" class="g0_19" />
<path d="M167.4,506.7l-.8,-.7V480.7h1.5V506l-.7,.7Zm.7,-.7v.7h-.7l.7,-.7Zm-35.7,-.7h35v1.4h-35v-1.4Z" class="g1_19" />
<path d="M144.7,506.4l-1.7,-.8l.5,-.7l.4,-.4l.4,-.3v-1.1l.4,-.4v-.4l-.4,-.3v-.4l-.4,-.4v-.3l-.4,-.4H143l-.7,-.4l-.4,-.3l.7,-1.5l.4,.4l.9,.3l.4,.4l.4,.4l.3,.3l.4,.8l.4,.3v.8l.3,.3v.8l-.3,.3v1.1l-.4,.8l-.4,.3l-.3,.8Z" class="g1_19" />
<path d="M148.3,500.1l.4,-2.2l.7,-1.4l.7,-.8l1.2,-.3l.7,.3l.7,.8l.8,1.4l.3,1.9l-.3,2.2l-.8,1.1l-.7,.7l-1.1,.4h-.4l-.4,-.4l-.3,-.4l-.4,-.3l-.3,-.4l-.4,-.7l-.4,-.8v-1.1Zm4.4,-.3l-.3,-1.5v-1.1l-.4,-.7l-.4,-.4h-.3l-.4,-.4l-.4,.4h-.4v.4l-.3,.7v1.1l-.4,1.5h3.3Zm-3.3,.3v1.1l.4,.8v.7l.3,.4v.3h.4l.4,.4h.7l.4,-.4v-.3l.4,-.8v-1.1l.3,-1.1h-3.3Z" class="g0_19" />
<path d="M429.4,490.2h74.4v-1.8H429.4v1.8Z" class="g1_19" />
<path d="M549.6,519.6H430.1v-1.5H549.6v1.5Zm1.9,0l-.8,-1.1v1.1l-6.2,-4.1l.7,-1.1l6.3,4.1v1.1Zm0,0v-1.1l1.1,.3l-1.1,.8Zm-6.6,3.3l-.4,-.8l6.2,-3.6l.8,1.1l-6.3,4l-.3,-.7Z" class="g0_19" />
<path d="M429,466.4h1.1l4.2,6.2l-1.1,.8L429,467.5h1.1L429,466.4Zm0,0l.7,-.7l.4,.7H429Zm-3.3,6.6l-.7,-.4l4,-6.2l1.1,1.1l-3.7,5.9l-.7,-.4Zm3.3,97.9V468.2h1.5V570.9H429Z" class="g0_19" />
<path d="M415.6,467.9h3.3v.1h-.2c-.1,0,-.3,.2,-.5,.2q0,.2,0,.4c0,.2,0,.4,0,.7l1.6,3.7l1.7,-3.8c.2,-.4,.2,-.6,.2,-.8q-.2,-.2,-.2,-.2c-.2,0,-.4,-.2,-.6,-.2v-.1h2.2v.1c-.2,.2,-.3,.2,-.5,.2c-.2,.2,-.4,.6,-.6,.8l-2.3,6h-.4l-2.4,-5.8c-.2,-.4,-.2,-.6,-.4,-.6c0,-.2,-.1,-.2,-.3,-.4q-.2,0,-.6,-.2Z" class="g0_19" />
<path d="M541,523.6v2.2h1.7v.5H541v4.4c0,.6,0,.8,.2,1c.2,.1,.4,.1,.6,.1c.1,0,.3,0,.5,0c0,-.1,.2,-.3,.4,-.5h.2c-.2,.5,-.4,.9,-.8,1.1c-.3,.2,-.7,.4,-.9,.4c-.4,0,-.5,0,-.7,-.2c-.2,-.2,-.4,-.4,-.6,-.6c0,-.2,-.2,-.5,-.2,-1.1v-4.6h-1.1V526c.4,0,.6,-.2,1,-.6c.3,-.2,.5,-.5,.7,-.9c.2,-.2,.4,-.5,.5,-.9Z" class="g0_19" />
<path d="M691,519.2h74.4v-4.8H691v4.8Z" class="g1_19" />
<path d="M810.9,519.6H691.4v-1.5H810.9v1.5Zm1.8,0l-.7,-1.1v1.1l-6.2,-4.1l.7,-1.1l6.2,4.1v1.1Zm0,0v-1.1l1.1,.3l-1.1,.8Zm-6.6,3.3l-.3,-.8l6.2,-3.6l.7,1.1l-6.2,4l-.4,-.7Z" class="g0_19" />
<path d="M690.2,466.4h1.1l4.1,6.2l-1.1,.8l-4.1,-5.9h1.1l-1.1,-1.1Zm0,0l.8,-.7l.3,.7h-1.1Zm-3.3,6.6l-.7,-.4l4,-6.2l1.1,1.1l-3.6,5.9l-.8,-.4Zm3.3,97.9V468.2h1.5V570.9h-1.5Z" class="g0_19" />
<path d="M681.3,473.7c-.8,.6,-1.3,.9,-1.5,.9c-.2,.2,-.5,.2,-.7,.2c-.6,0,-.9,-.2,-1.3,-.3c-.4,-.4,-.4,-.8,-.4,-1.3c0,-.4,0,-.8,.2,-.9c.2,-.4,.6,-.8,1.1,-.9c.4,-.4,1.3,-.8,2.6,-1.2v-.3c0,-.7,-.2,-1.1,-.4,-1.5c-.2,-.2,-.5,-.3,-.9,-.3c-.4,0,-.7,.1,-.9,.3c-.2,.2,-.2,.4,-.2,.6v.3c0,.4,0,.6,-.2,.6q-.2,.2,-.5,.2q-.2,0,-.4,-.2c-.2,-.2,-.2,-.4,-.2,-.6c0,-.3,.2,-.7,.7,-1.1c.4,-.3,1,-.5,1.9,-.5c.5,0,1.1,0,1.4,.4c.4,0,.6,.3,.8,.5c0,.4,0,.7,0,1.5v2.2c0,.7,.2,1.1,.2,1.3q0,.1,0,.3q.1,0,.1,0q.2,0,.4,0c0,-.2,.2,-.3,.6,-.5v.3c-.6,.8,-1.1,1.1,-1.7,1.1c-.2,0,-.4,0,-.5,-.2c-.2,-.1,-.2,-.5,-.2,-.9Zm0,-.5v-2.6c-.9,.4,-1.3,.6,-1.5,.8c-.5,.1,-.7,.3,-.9,.5c-.2,.4,-.4,.5,-.4,.9c0,.4,.2,.6,.4,.9c.2,.2,.5,.4,.7,.4c.4,0,.9,-.4,1.7,-.9Z" class="g0_19" />
<path d="M802.3,523.6v2.2h1.6v.5h-1.6v4.4c0,.6,.1,.8,.1,1c.2,.1,.4,.1,.6,.1c.2,0,.4,0,.6,0c0,-.1,.1,-.3,.3,-.5h.2c-.2,.5,-.4,.9,-.7,1.1c-.4,.2,-.8,.4,-1,.4c-.3,0,-.5,0,-.7,-.2c-.2,-.2,-.3,-.4,-.5,-.6c0,-.2,-.2,-.5,-.2,-1.1v-4.6h-1.1V526c.3,0,.5,-.2,.9,-.6c.4,-.2,.6,-.5,.7,-.9c.2,-.2,.4,-.5,.6,-.9Z" class="g0_19" />
<g fill="#000000" >
<use xlink:href="#f3_1e" transform="matrix(10,0,0,10,97.9,641.1)" />
<use xlink:href="#f3_1x" transform="matrix(10,0,0,10,108.7,641.1)" />
<use xlink:href="#f3_2h" transform="matrix(10,0,0,10,115.7,641.1)" />
<use xlink:href="#f3_2g" transform="matrix(10,0,0,10,123,641.1)" />
<use xlink:href="#f3_2e" transform="matrix(10,0,0,10,127.4,641.1)" />
<use xlink:href="#f3_21" transform="matrix(10,0,0,10,132.6,641.1)" />
<use xlink:href="#f3_2b" transform="matrix(10,0,0,10,143,641.1)" />
<use xlink:href="#f3_22" transform="matrix(10,0,0,10,150.9,641.1)" />
<use xlink:href="#f3_2f" transform="matrix(10,0,0,10,159.3,641.1)" />
<use xlink:href="#f3_28" transform="matrix(10,0,0,10,165.2,641.1)" />
<use xlink:href="#f3_2b" transform="matrix(10,0,0,10,169.6,641.1)" />
<use xlink:href="#f3_2c" transform="matrix(10,0,0,10,177.3,641.1)" />
<use xlink:href="#f3_21" transform="matrix(10,0,0,10,184.8,641.1)" />
<use xlink:href="#f3_u" transform="matrix(10,0,0,10,195.4,641.1)" />
<use xlink:href="#f3_2c" transform="matrix(10,0,0,10,203.5,641.1)" />
<use xlink:href="#f3_2b" transform="matrix(10,0,0,10,211.4,641.1)" />
<use xlink:href="#f3_2f" transform="matrix(10,0,0,10,219.1,641.1)" />
<use xlink:href="#f3_25" transform="matrix(10,0,0,10,224.8,641.1)" />
<use xlink:href="#f3_2g" transform="matrix(10,0,0,10,229.2,641.1)" />
<use xlink:href="#f3_25" transform="matrix(10,0,0,10,233.4,641.1)" />
<use xlink:href="#f3_2i" transform="matrix(10,0,0,10,237.6,641.1)" />
<use xlink:href="#f3_21" transform="matrix(10,0,0,10,244.9,641.1)" />
<use xlink:href="#f3_2a" transform="matrix(10,0,0,10,383,641.1)" />
<use xlink:href="#f3_1x" transform="matrix(10,0,0,10,390.7,641.1)" />
<use xlink:href="#f3_2g" transform="matrix(10,0,0,10,397.5,641.1)" />
<use xlink:href="#f3_2h" transform="matrix(10,0,0,10,401.7,641.1)" />
<use xlink:href="#f3_2e" transform="matrix(10,0,0,10,409,641.1)" />
<use xlink:href="#f3_21" transform="matrix(10,0,0,10,414.2,641.1)" />
<use xlink:href="#f3_2b" transform="matrix(10,0,0,10,425,641.1)" />
<use xlink:href="#f3_22" transform="matrix(10,0,0,10,432.7,641.1)" />
<use xlink:href="#f3_2f" transform="matrix(10,0,0,10,441.3,641.1)" />
<use xlink:href="#f3_28" transform="matrix(10,0,0,10,447.4,641.1)" />
<use xlink:href="#f3_2b" transform="matrix(10,0,0,10,451.6,641.1)" />
<use xlink:href="#f3_2c" transform="matrix(10,0,0,10,459.3,641.1)" />
<use xlink:href="#f3_21" transform="matrix(10,0,0,10,466.8,641.1)" />
<use xlink:href="#f3_u" transform="matrix(10,0,0,10,477.4,641.1)" />
<use xlink:href="#f3_2m" transform="matrix(10,0,0,10,485.5,641.1)" />
<use xlink:href="#f3_21" transform="matrix(10,0,0,10,492.5,641.1)" />
<use xlink:href="#f3_2e" transform="matrix(10,0,0,10,499.2,641.1)" />
<use xlink:href="#f3_2b" transform="matrix(10,0,0,10,504.4,641.1)" />
<use xlink:href="#f3_2a" transform="matrix(10,0,0,10,647.7,641.1)" />
<use xlink:href="#f3_1x" transform="matrix(10,0,0,10,655.3,641.1)" />
<use xlink:href="#f3_2g" transform="matrix(10,0,0,10,662.1,641.1)" />
<use xlink:href="#f3_2h" transform="matrix(10,0,0,10,666.4,641.1)" />
<use xlink:href="#f3_2e" transform="matrix(10,0,0,10,673.7,641.1)" />
<use xlink:href="#f3_21" transform="matrix(10,0,0,10,678.9,641.1)" />
<use xlink:href="#f3_2b" transform="matrix(10,0,0,10,689.7,641.1)" />
<use xlink:href="#f3_22" transform="matrix(10,0,0,10,697.4,641.1)" />
<use xlink:href="#f3_2f" transform="matrix(10,0,0,10,706,641.1)" />
<use xlink:href="#f3_28" transform="matrix(10,0,0,10,711.9,641.1)" />
<use xlink:href="#f3_2b" transform="matrix(10,0,0,10,716.3,641.1)" />
<use xlink:href="#f3_2c" transform="matrix(10,0,0,10,724,641.1)" />
<use xlink:href="#f3_21" transform="matrix(10,0,0,10,731.5,641.1)" />
<use xlink:href="#f3_2b" transform="matrix(10,0,0,10,742.1,641.1)" />
<use xlink:href="#f3_22" transform="matrix(10,0,0,10,749.7,641.1)" />
<use xlink:href="#f3_1x" transform="matrix(10,0,0,10,758.6,641.1)" />
<use xlink:href="#f3_4y" transform="matrix(10,0,0,10,769.3,641.1)" />
<use xlink:href="#f3_2g" transform="matrix(10,0,0,10,780.8,641.1)" />
<use xlink:href="#f3_29" transform="matrix(10,0,0,10,97.9,667.9)" />
<use xlink:href="#f3_1x" transform="matrix(10,0,0,10,109.5,667.9)" />
<use xlink:href="#f3_23" transform="matrix(10,0,0,10,116.1,667.9)" />
<use xlink:href="#f3_2a" transform="matrix(10,0,0,10,123.6,667.9)" />
<use xlink:href="#f3_25" transform="matrix(10,0,0,10,131.3,667.9)" />
<use xlink:href="#f3_2g" transform="matrix(10,0,0,10,135.5,667.9)" />
<use xlink:href="#f3_2h" transform="matrix(10,0,0,10,139.7,667.9)" />
<use xlink:href="#f3_20" transform="matrix(10,0,0,10,147,667.9)" />
<use xlink:href="#f3_21" transform="matrix(10,0,0,10,154.9,667.9)" />
<use xlink:href="#f3_2b" transform="matrix(10,0,0,10,165.4,667.9)" />
<use xlink:href="#f3_22" transform="matrix(10,0,0,10,173.3,667.9)" />
<use xlink:href="#f3_2f" transform="matrix(10,0,0,10,181.7,667.9)" />
<use xlink:href="#f3_28" transform="matrix(10,0,0,10,187.6,667.9)" />
<use xlink:href="#f3_2b" transform="matrix(10,0,0,10,191.8,667.9)" />
<use xlink:href="#f3_2c" transform="matrix(10,0,0,10,199.7,667.9)" />
<use xlink:href="#f3_21" transform="matrix(10,0,0,10,207.2,667.9)" />
<use xlink:href="#f3_u" transform="matrix(10,0,0,10,217.8,667.9)" />
<use xlink:href="#f3_1z" transform="matrix(10,0,0,10,225.9,667.9)" />
<use xlink:href="#f3_2b" transform="matrix(10,0,0,10,232.9,667.9)" />
<use xlink:href="#f3_2a" transform="matrix(10,0,0,10,240.6,667.9)" />
<use xlink:href="#f3_2f" transform="matrix(10,0,0,10,248.1,667.9)" />
<use xlink:href="#f3_2g" transform="matrix(10,0,0,10,253.7,667.9)" />
<use xlink:href="#f3_1x" transform="matrix(10,0,0,10,258,667.9)" />
<use xlink:href="#f3_2a" transform="matrix(10,0,0,10,264.9,667.9)" />
<use xlink:href="#f3_2g" transform="matrix(10,0,0,10,272.3,667.9)" />
<use xlink:href="#f3_29" transform="matrix(10,0,0,10,383,667.9)" />
<use xlink:href="#f3_1x" transform="matrix(10,0,0,10,394.7,667.9)" />
<use xlink:href="#f3_23" transform="matrix(10,0,0,10,401.5,667.9)" />
<use xlink:href="#f3_2a" transform="matrix(10,0,0,10,409,667.9)" />
<use xlink:href="#f3_25" transform="matrix(10,0,0,10,416.4,667.9)" />
<use xlink:href="#f3_2g" transform="matrix(10,0,0,10,420.6,667.9)" />
<use xlink:href="#f3_2h" transform="matrix(10,0,0,10,424.8,667.9)" />
<use xlink:href="#f3_20" transform="matrix(10,0,0,10,432.5,667.9)" />
<use xlink:href="#f3_21" transform="matrix(10,0,0,10,440,667.9)" />
<use xlink:href="#f3_2b" transform="matrix(10,0,0,10,450.7,667.9)" />
<use xlink:href="#f3_22" transform="matrix(10,0,0,10,458.6,667.9)" />
<use xlink:href="#f3_2f" transform="matrix(10,0,0,10,467,667.9)" />
<use xlink:href="#f3_28" transform="matrix(10,0,0,10,473,667.9)" />
<use xlink:href="#f3_2b" transform="matrix(10,0,0,10,477.3,667.9)" />
<use xlink:href="#f3_2c" transform="matrix(10,0,0,10,484.8,667.9)" />
<use xlink:href="#f3_21" transform="matrix(10,0,0,10,492.5,667.9)" />
<use xlink:href="#f3_u" transform="matrix(10,0,0,10,503.3,667.9)" />
<use xlink:href="#f3_1z" transform="matrix(10,0,0,10,511.2,667.9)" />
<use xlink:href="#f3_2b" transform="matrix(10,0,0,10,518.1,667.9)" />
<use xlink:href="#f3_2a" transform="matrix(10,0,0,10,525.6,667.9)" />
<use xlink:href="#f3_2f" transform="matrix(10,0,0,10,533.3,667.9)" />
<use xlink:href="#f3_2g" transform="matrix(10,0,0,10,539,667.9)" />
<use xlink:href="#f3_1x" transform="matrix(10,0,0,10,543.2,667.9)" />
<use xlink:href="#f3_2a" transform="matrix(10,0,0,10,550.2,667.9)" />
<use xlink:href="#f3_2g" transform="matrix(10,0,0,10,557.5,667.9)" />
<use xlink:href="#f1_c" transform="matrix(10,0,0,10,66.9,774.9)" />
<use xlink:href="#f1_25" transform="matrix(10,0,0,10,72,774.9)" />
<use xlink:href="#f1_25" transform="matrix(10,0,0,10,76.1,774.9)" />
<use xlink:href="#f1_d" transform="matrix(10,0,0,10,80.3,774.9)" />
</g>
<path d="M195.1,768.5l-1.5,.4v-.7l-.4,-.8l-.3,-.7V766l-.4,-.8l-.4,-.3l-.7,-.8l-.6,-.3l-.3,-.8l-.4,-.3l-.7,-.4l-.4,-.4l-.7,-.3l-.7,-.4l-.4,-.4h-.7l-.8,-.3h-.3l-.8,-.4h-3.7l-.7,.4h-.4l-.7,.3h-.7l-.8,.4l-.7,.4l-.7,.3l-.8,.4l-.7,-1.1l.7,-.4l.8,-.7l.7,-.4l.7,-.3h.8l.7,-.4h1.1l.7,-.4h3.7l.8,.4h1.1l.7,.4l.4,.3h.7l.7,.4l.7,.7l.8,.4l.3,.4l1,.3l.3,.8l.8,.7l.3,.4l.4,.7l.4,.7l.3,.8l.4,.7l.4,1.1v.7Z" class="g1_19" />
<path d="M183.5,768.9L114.8,719l.7,-1.1l68.8,49.9l-.8,1.1Z" class="g1_19" />
<path d="M235.4,769.6H115.5v-1.8H235.4v1.8Zm1.8,-.3l-.7,-1.1v1.1l-6.2,-4.1l.7,-1.1l6.2,4.1v1.1Zm0,0v-1.1l1.3,.3l-1.3,.8Zm-6.6,3.3l-.3,-.8l6.2,-3.6l.7,1.1l-6.2,4l-.4,-.7Z" class="g0_19" />
<path d="M114.4,705.1h1.1l4,6.2l-1.1,.8l-4,-5.9h1.1l-1.1,-1.1Zm0,0l.7,-.7l.4,.7h-1.1Zm-3.3,6.6l-.7,-.4l4,-6.2l1.1,1.1l-3.7,5.9l-.7,-.4Zm3.3,97.9V706.9h1.5V809.6h-1.5Z" class="g0_19" />
<path d="M99.6,709.1h3.3v.2c-.4,0,-.4,.2,-.6,.2c0,0,-.2,.2,-.2,.4c0,0,.2,.2,.4,.5c0,0,.2,.2,.2,.4l.5,.7l.6,-.7c.3,-.6,.5,-.9,.5,-1.1c0,0,0,-.2,-.2,-.2c0,0,-.1,-.2,-.3,-.2v-.2h2.4v.2c-.2,.2,-.6,.2,-.8,.4c-.2,0,-.5,.5,-.9,1.1l-.9,1.1l1.6,2.6c.6,.5,.8,.9,1,1.1c.1,.1,.3,.1,.7,.1v.2h-3.3v-.2c.2,0,.4,0,.5,-.1c.2,0,.2,-.2,.2,-.2c0,-.2,-.2,-.6,-.5,-.9l-.9,-1.5l-1.3,1.5c-.2,.3,-.4,.7,-.4,.7c0,.2,0,.4,.2,.4c0,.1,.2,.1,.4,.1v.2H99.6v-.2c.1,0,.3,0,.5,-.1c.2,-.2,.4,-.6,.9,-1.1l1.5,-2.1l-1.3,-1.8c-.4,-.5,-.7,-.9,-.9,-.9c-.2,-.2,-.6,-.4,-.7,-.4Z" class="g0_19" />
<path d="M229.2,776.6v2.2h1.6v.5h-1.6v4.5c0,.5,.1,.7,.1,.9c.2,.2,.4,.2,.6,.2c.2,0,.4,0,.5,0c.2,-.2,.2,-.4,.4,-.6h.2c-.2,.6,-.4,.9,-.7,1.1c-.4,.2,-.6,.4,-1,.4c-.3,0,-.5,0,-.7,-.2c-.2,-.2,-.4,-.4,-.5,-.6c0,-.1,-.2,-.5,-.2,-1.1v-4.6h-1.1V779c.3,0,.5,-.2,.9,-.6c.4,-.2,.5,-.5,.7,-.9c.2,-.2,.4,-.5,.6,-.9Z" class="g0_19" />
<path d="M190.5,757.5l.3,-2.2l1,-1.4l.7,-.8l1.1,-.3l.7,.3l.8,.8l.7,1.4l.4,1.9l-.4,1.8l-.7,1.5l-.8,.7l-.7,.4h-.7l-.4,-.4l-.4,-.4l-.3,-.3l-.4,-.4l-.6,-.7v-1.1l-.3,-.8Zm4.6,-.7v-1.1l-.4,-1.1l-.4,-.7l-.3,-.4v-.4h-.8l-.3,.4l-.4,.4l-.4,.7v2.2h3Zm-3,.7v2.2l.4,.8v.3h.4l.3,.4h.4l.4,-.4h.3l.4,-.7v-.4l.4,-1.1v-1.1h-3Z" class="g0_19" />
<path d="M429.4,793.5h74.4V792H429.4v1.5Z" class="g1_19" />
<path d="M549.6,757.2H430.1v-1.5H549.6v1.5Zm1.9,-.4l-.8,-1.1v1.1l-6.2,-3.7l.7,-1.4l6.3,4v1.1Zm0,0v-1.1l1.1,.7l-1.1,.4Zm-6.6,3.3l-.4,-.4l6.2,-4l.8,1.1l-6.3,4l-.3,-.7Z" class="g0_19" />
<path d="M429,705.1h1.1l4.2,6.2l-1.1,.8L429,706.2h1.1L429,705.1Zm0,0l.7,-.7l.4,.7H429Zm-3.3,6.6l-.7,-.4l4,-6.2l1.1,1.1l-3.7,5.9l-.7,-.4Zm3.3,97.9V706.9h1.5V809.6H429Z" class="g0_19" />
<path d="M415.6,705.1h3.3v.2h-.2c-.1,0,-.3,.2,-.5,.2q0,.1,0,.3c0,.2,0,.4,0,.8l1.6,3.8l1.7,-4c.2,-.4,.2,-.6,.2,-.8q-.2,-.1,-.2,-.1c-.2,0,-.4,-.2,-.6,-.2v-.2h2.2v.2c-.2,.2,-.3,.2,-.5,.2c-.2,.1,-.4,.5,-.6,.7l-2.3,6h-.4l-2.4,-5.8c-.2,-.4,-.2,-.6,-.4,-.6c0,-.2,-.1,-.2,-.3,-.3q-.2,0,-.6,-.2Z" class="g0_19" />
<path d="M541,760.8V763h1.7v.6H541V768c0,.5,0,.7,.2,.9c.2,.2,.4,.2,.6,.2c.1,0,.3,0,.5,0c0,-.2,.2,-.4,.4,-.6h.2c-.2,.6,-.4,1,-.8,1.1c-.3,.2,-.7,.4,-.9,.4c-.4,0,-.5,0,-.7,-.2c-.2,-.2,-.4,-.3,-.6,-.5c0,-.2,-.2,-.6,-.2,-1.1v-4.6h-1.1v-.4c.4,0,.6,-.2,1,-.5c.3,-.2,.5,-.6,.7,-.9c.2,-.2,.4,-.6,.5,-1Z" class="g0_19" />
<path d="M691.2,762.7h74.6v-4.8H691.2v4.8Z" class="g1_19" />
<path d="M809.4,758.3H691.5v-1.5H809.4v1.5Zm1.9,0l-.8,-1.1v1.1l-6.2,-4.1l.7,-1.1l6.3,4.1v1.1Zm0,0v-1.1l1.2,.3l-1.2,.8Zm-6.7,3.3l-.3,-.8l6.2,-3.6l.8,1.1l-6.3,4l-.4,-.7Z" class="g0_19" />
<path d="M690.4,705.1h1.1l4.1,6.2l-1.1,.8l-4.1,-5.9h1.1l-1.1,-1.1Zm0,0l.8,-.7l.3,.7h-1.1Zm-3.3,6.6l-.7,-.4l4,-6.2l1.1,1.1l-3.6,5.9l-.8,-.4Zm3.3,97.9V706.9h1.5V809.6h-1.5Z" class="g0_19" />
<path d="M681.3,712.4c-.8,.6,-1.3,1,-1.5,1c-.2,.1,-.5,.1,-.7,.1c-.6,0,-.9,-.1,-1.3,-.3c-.4,-.4,-.4,-.8,-.4,-1.3c0,-.4,0,-.7,.2,-.9c.2,-.4,.6,-.8,1.1,-.9c.6,-.4,1.3,-.8,2.6,-1.1v-.4c0,-.7,-.2,-1.1,-.4,-1.5c-.2,-.2,-.5,-.3,-.9,-.3c-.4,0,-.6,.1,-.9,.3c-.2,.2,-.2,.4,-.2,.6v.3c0,.4,0,.6,-.2,.6q-.2,.2,-.5,.2q-.2,0,-.4,-.2q-.2,-.2,-.2,-.6c0,-.3,.2,-.7,.7,-1.1c.4,-.3,1,-.5,1.9,-.5c.5,0,1.1,0,1.4,.4c.4,0,.6,.3,.8,.7c0,.2,.2,.5,.2,1.3V711c0,.7,0,1.1,0,1.3q0,.1,0,.3q.1,0,.3,0h.2c0,-.2,.2,-.3,.6,-.5v.3c-.6,.8,-1.1,1.1,-1.7,1.1c-.2,0,-.4,0,-.5,-.1c-.2,-.2,-.2,-.6,-.2,-1Zm0,-.5v-2.6c-.8,.4,-1.3,.6,-1.5,.8c-.5,.1,-.7,.3,-.9,.5c-.2,.4,-.2,.6,-.2,.9c0,.4,0,.6,.2,.9c.2,.2,.5,.4,.7,.4c.6,0,.9,-.4,1.7,-.9Z" class="g0_19" />
<path d="M801,762.3v2.2h1.6v.5H801v4.4c0,.6,.2,.8,.2,1c.2,.1,.3,.1,.5,.1c.2,0,.4,0,.6,0c0,-.1,.2,-.3,.3,-.5h.2c-.2,.5,-.3,.9,-.7,1.1c-.4,.2,-.6,.4,-.9,.4c-.4,0,-.6,0,-.8,-.2c-.1,-.2,-.3,-.4,-.5,-.6c0,-.2,-.2,-.5,-.2,-1.1V765h-1.1v-.3c.4,0,.6,-.2,.9,-.6c.4,-.2,.6,-.5,.8,-.9c.1,-.2,.3,-.5,.5,-.9Z" class="g0_19" />
<g fill="#000000" >
<use xlink:href="#f3_2a" transform="matrix(10,0,0,10,97.9,851.9)" />
<use xlink:href="#f3_1x" transform="matrix(10,0,0,10,105.2,851.9)" />
<use xlink:href="#f3_2g" transform="matrix(10,0,0,10,112.2,851.9)" />
<use xlink:href="#f3_2h" transform="matrix(10,0,0,10,116.4,851.9)" />
<use xlink:href="#f3_2e" transform="matrix(10,0,0,10,123.8,851.9)" />
<use xlink:href="#f3_21" transform="matrix(10,0,0,10,128.9,851.9)" />
<use xlink:href="#f3_2b" transform="matrix(10,0,0,10,139.7,851.9)" />
<use xlink:href="#f3_22" transform="matrix(10,0,0,10,147.4,851.9)" />
<use xlink:href="#f3_2f" transform="matrix(10,0,0,10,155.8,851.9)" />
<use xlink:href="#f3_28" transform="matrix(10,0,0,10,161.9,851.9)" />
<use xlink:href="#f3_2b" transform="matrix(10,0,0,10,165.9,851.9)" />
<use xlink:href="#f3_2c" transform="matrix(10,0,0,10,173.6,851.9)" />
<use xlink:href="#f3_21" transform="matrix(10,0,0,10,181.5,851.9)" />
<use xlink:href="#f3_u" transform="matrix(10,0,0,10,192,851.9)" />
<use xlink:href="#f3_2a" transform="matrix(10,0,0,10,200,851.9)" />
<use xlink:href="#f3_21" transform="matrix(10,0,0,10,207.7,851.9)" />
<use xlink:href="#f3_23" transform="matrix(10,0,0,10,214.5,851.9)" />
<use xlink:href="#f3_1x" transform="matrix(10,0,0,10,221.8,851.9)" />
<use xlink:href="#f3_2g" transform="matrix(10,0,0,10,228.8,851.9)" />
<use xlink:href="#f3_25" transform="matrix(10,0,0,10,233,851.9)" />
<use xlink:href="#f3_2i" transform="matrix(10,0,0,10,237.3,851.9)" />
<use xlink:href="#f3_21" transform="matrix(10,0,0,10,244.6,851.9)" />
<use xlink:href="#f3_2a" transform="matrix(10,0,0,10,383.2,851.9)" />
<use xlink:href="#f3_1x" transform="matrix(10,0,0,10,390.5,851.9)" />
<use xlink:href="#f3_2g" transform="matrix(10,0,0,10,397.5,851.9)" />
<use xlink:href="#f3_2h" transform="matrix(10,0,0,10,401.7,851.9)" />
<use xlink:href="#f3_2e" transform="matrix(10,0,0,10,409,851.9)" />
<use xlink:href="#f3_21" transform="matrix(10,0,0,10,414.4,851.9)" />
<use xlink:href="#f3_2b" transform="matrix(10,0,0,10,424.8,851.9)" />
<use xlink:href="#f3_22" transform="matrix(10,0,0,10,432.7,851.9)" />
<use xlink:href="#f3_2f" transform="matrix(10,0,0,10,441.5,851.9)" />
<use xlink:href="#f3_28" transform="matrix(10,0,0,10,447.2,851.9)" />
<use xlink:href="#f3_2b" transform="matrix(10,0,0,10,451.4,851.9)" />
<use xlink:href="#f3_2c" transform="matrix(10,0,0,10,459.3,851.9)" />
<use xlink:href="#f3_21" transform="matrix(10,0,0,10,466.8,851.9)" />
<use xlink:href="#f3_u" transform="matrix(10,0,0,10,477.4,851.9)" />
<use xlink:href="#f3_2m" transform="matrix(10,0,0,10,485.7,851.9)" />
<use xlink:href="#f3_21" transform="matrix(10,0,0,10,492.5,851.9)" />
<use xlink:href="#f3_2e" transform="matrix(10,0,0,10,499.3,851.9)" />
<use xlink:href="#f3_2b" transform="matrix(10,0,0,10,504.4,851.9)" />
<use xlink:href="#f3_29" transform="matrix(10,0,0,10,97.9,877.1)" />
<use xlink:href="#f3_1x" transform="matrix(10,0,0,10,109.5,877.1)" />
<use xlink:href="#f3_23" transform="matrix(10,0,0,10,116.1,877.1)" />
<use xlink:href="#f3_2a" transform="matrix(10,0,0,10,123.6,877.1)" />
<use xlink:href="#f3_25" transform="matrix(10,0,0,10,131.3,877.1)" />
<use xlink:href="#f3_2g" transform="matrix(10,0,0,10,135.5,877.1)" />
<use xlink:href="#f3_2h" transform="matrix(10,0,0,10,139.7,877.1)" />
<use xlink:href="#f3_20" transform="matrix(10,0,0,10,147,877.1)" />
<use xlink:href="#f3_21" transform="matrix(10,0,0,10,154.9,877.1)" />
<use xlink:href="#f3_2b" transform="matrix(10,0,0,10,165.4,877.1)" />
<use xlink:href="#f3_22" transform="matrix(10,0,0,10,173.3,877.1)" />
<use xlink:href="#f3_2f" transform="matrix(10,0,0,10,181.7,877.1)" />
<use xlink:href="#f3_28" transform="matrix(10,0,0,10,187.6,877.1)" />
<use xlink:href="#f3_2b" transform="matrix(10,0,0,10,191.8,877.1)" />
<use xlink:href="#f3_2c" transform="matrix(10,0,0,10,199.7,877.1)" />
<use xlink:href="#f3_21" transform="matrix(10,0,0,10,207.2,877.1)" />
<use xlink:href="#f3_u" transform="matrix(10,0,0,10,217.8,877.1)" />
<use xlink:href="#f3_1z" transform="matrix(10,0,0,10,225.9,877.1)" />
<use xlink:href="#f3_2b" transform="matrix(10,0,0,10,232.9,877.1)" />
<use xlink:href="#f3_2a" transform="matrix(10,0,0,10,240.6,877.1)" />
<use xlink:href="#f3_2f" transform="matrix(10,0,0,10,248.1,877.1)" />
<use xlink:href="#f3_2g" transform="matrix(10,0,0,10,253.8,877.1)" />
<use xlink:href="#f3_1x" transform="matrix(10,0,0,10,258,877.1)" />
<use xlink:href="#f3_2a" transform="matrix(10,0,0,10,264.9,877.1)" />
<use xlink:href="#f3_2g" transform="matrix(10,0,0,10,272.3,877.1)" />
<use xlink:href="#f3_29" transform="matrix(10,0,0,10,383,877.1)" />
<use xlink:href="#f3_1x" transform="matrix(10,0,0,10,394.7,877.1)" />
<use xlink:href="#f3_23" transform="matrix(10,0,0,10,401.5,877.1)" />
<use xlink:href="#f3_2a" transform="matrix(10,0,0,10,409,877.1)" />
<use xlink:href="#f3_25" transform="matrix(10,0,0,10,416.4,877.1)" />
<use xlink:href="#f3_2g" transform="matrix(10,0,0,10,420.6,877.1)" />
<use xlink:href="#f3_2h" transform="matrix(10,0,0,10,424.8,877.1)" />
<use xlink:href="#f3_20" transform="matrix(10,0,0,10,432.5,877.1)" />
<use xlink:href="#f3_21" transform="matrix(10,0,0,10,440,877.1)" />
<use xlink:href="#f3_2b" transform="matrix(10,0,0,10,450.7,877.1)" />
<use xlink:href="#f3_22" transform="matrix(10,0,0,10,458.6,877.1)" />
<use xlink:href="#f3_2f" transform="matrix(10,0,0,10,467,877.1)" />
<use xlink:href="#f3_28" transform="matrix(10,0,0,10,473,877.1)" />
<use xlink:href="#f3_2b" transform="matrix(10,0,0,10,477.3,877.1)" />
<use xlink:href="#f3_2c" transform="matrix(10,0,0,10,484.8,877.1)" />
<use xlink:href="#f3_21" transform="matrix(10,0,0,10,492.5,877.1)" />
<use xlink:href="#f3_u" transform="matrix(10,0,0,10,503.3,877.1)" />
<use xlink:href="#f3_1z" transform="matrix(10,0,0,10,511.2,877.1)" />
<use xlink:href="#f3_2b" transform="matrix(10,0,0,10,518.1,877.1)" />
<use xlink:href="#f3_2a" transform="matrix(10,0,0,10,525.6,877.1)" />
<use xlink:href="#f3_2f" transform="matrix(10,0,0,10,533.3,877.1)" />
<use xlink:href="#f3_2g" transform="matrix(10,0,0,10,539,877.1)" />
<use xlink:href="#f3_1x" transform="matrix(10,0,0,10,543.2,877.1)" />
<use xlink:href="#f3_2a" transform="matrix(10,0,0,10,550.2,877.1)" />
<use xlink:href="#f3_2g" transform="matrix(10,0,0,10,557.5,877.1)" />
</g>
<path fill-rule="evenodd" d="M73.5,163H217.3v35.4H73.5V163l2.4,33.2H215.1v-31H75.9v31L73.5,163Z" class="g0_19" />
<path fill-rule="evenodd" d="M55.6,380.4H855.1V908.2H55.6V380.4l3.1,524.7H852V383.5H58.7V905.1L55.6,380.4Z" class="g0_19" />
<path fill-rule="evenodd" d="M55.6,445.5H855.1v3.7H55.6v-3.7Z" class="g0_19" />
<path fill-rule="evenodd" d="M55.6,452.3H855.1v.9H55.6v-.9Z" class="g0_19" />
<path fill-rule="evenodd" d="M330.6,907.3V380.4H332V907.3h-1.4Z" class="g0_19" />
<path fill-rule="evenodd" d="M611.6,906.8V381.7h1.3V906.8h-1.3Z" class="g0_19" />
<path fill-rule="evenodd" d="M55.6,684.2H855.1v1.6H55.6v-1.6Z" class="g0_19" />
<path fill-rule="evenodd" d="M53.9,69.5H856.2V97.9H53.9V69.5l1.5,26.8H854.5V71H55.4V96.3L53.9,69.5Z" class="g2_19" />
<g fill="#000000" >
<use xlink:href="#f4_1b" transform="matrix(10,0,0,10,743.8,87.6)" />
<use xlink:href="#f4_19" transform="matrix(10,0,0,10,756.1,87.6)" />
<use xlink:href="#f4_1e" transform="matrix(10,0,0,10,762.3,87.6)" />
<use xlink:href="#f4_15" transform="matrix(10,0,0,10,773.3,87.6)" />
<use xlink:href="#f4_1d" transform="matrix(10,0,0,10,784.7,87.6)" />
<use xlink:href="#f4_11" transform="matrix(10,0,0,10,799,87.6)" />
<use xlink:href="#f4_1k" transform="matrix(10,0,0,10,810,87.6)" />
<use xlink:href="#f4_19" transform="matrix(10,0,0,10,820.6,87.6)" />
<use xlink:href="#f4_13" transform="matrix(10,0,0,10,826.8,87.6)" />
<use xlink:href="#f4_1j" transform="matrix(10,0,0,10,838.2,87.6)" />
</g>
<path fill-rule="evenodd" d="M55.2,94.6H854.7v3.1H55.2V94.6Z" class="g0_19" />
<path fill-rule="evenodd" d="M55.2,69.7H854.7v3.1H55.2V69.7Z" class="g0_19" />
<path fill-rule="evenodd" d="M57.6,1177.4H854.8v2.4H57.6v-2.4Z" class="g0_19" />
<defs>
<path d="M370,506c0,0,44,0,82,13c0,0,38,13,68,34c0,0,0,80,-9,134c0,0,-9,54,-27,86c0,0,-17,32,-44,46c0,0,-27,13,-63,13c0,0,-35,0,-60,-12c0,0,-26,-13,-42,-35c0,0,-17,-22,-25,-53c0,0,-8,-31,-8,-67c0,0,0,-40,7,-70c0,0,7,-30,22,-50c0,0,15,-20,40,-30c0,0,24,-9,59,-9ZM293,-17c0,0,-32,0,-64,5c0,0,-31,4,-57,11c0,0,-27,6,-45,13c0,0,-18,8,-26,16c0,0,-8,7,-12,22c0,0,-4,15,-4,42c0,0,0,25,1,40c0,0,1,15,5,23c0,0,3,8,8,11c0,0,5,2,11,2c0,0,9,0,26,-5c0,0,16,-5,40,-12c0,0,23,-7,53,-12c0,0,30,-5,66,-5c0,0,63,0,106,22c0,0,43,23,70,61c0,0,27,38,40,88c0,0,12,49,14,105c0,0,-35,-22,-83,-38c0,0,-49,-16,-111,-16c0,0,-77,0,-131,20c0,0,-53,20,-87,58c0,0,-34,38,-49,93c0,0,-15,55,-15,123c0,0,0,73,22,134c0,0,21,60,64,105c0,0,42,44,106,69c0,0,63,25,146,25c0,0,68,0,118,-16c0,0,50,-16,86,-45c0,0,37,-29,61,-70c0,0,24,-42,38,-93c0,0,14,-50,19,-109c0,0,6,-59,6,-123c0,0,0,-59,-6,-122c0,0,-6,-64,-23,-124c0,0,-17,-60,-46,-115c0,0,-30,-54,-76,-95C564,71,517,30,451,6c0,0,-67,-23,-158,-23Z" 
id="f0_s6"
transform="scale(0.001,-0.001)" />

<path d="M204,-9c0,0,-63,0,-87,23c0,0,-24,23,-24,89c0,0,0,70,24,94c0,0,25,24,88,24c0,0,62,0,86,-24c0,0,24,-23,24,-90c0,0,0,-69,-24,-93c0,0,-25,-23,-87,-23Z" 
id="f0_nt"
transform="scale(0.001,-0.001)" />

<path d="M547,-16c0,0,-115,0,-207,33c0,0,-91,33,-155,96c0,0,-63,63,-97,154c0,0,-33,91,-33,206c0,0,0,118,36,213c0,0,35,94,101,160c0,0,66,66,159,102c0,0,92,35,207,35c0,0,62,0,114,-9c0,0,51,-8,90,-21c0,0,38,-12,64,-26c0,0,25,-14,35,-25c0,0,10,-10,15,-29c0,0,4,-19,4,-57c0,0,0,-21,-2,-37c0,0,-2,-16,-5,-25c0,0,-3,-9,-8,-13c0,0,-5,-4,-12,-4c0,0,-10,0,-31,14c0,0,-22,13,-58,29c0,0,-35,15,-85,29c0,0,-50,13,-115,13c0,0,-71,0,-127,-24c0,0,-57,-24,-97,-69c0,0,-41,-44,-62,-107c0,0,-22,-62,-22,-138c0,0,0,-82,22,-146c0,0,22,-63,62,-105c0,0,39,-43,95,-65c0,0,56,-21,123,-21c0,0,33,0,65,7c0,0,32,8,60,23V401H500c0,0,-14,0,-21,17c0,0,-8,17,-8,57c0,0,0,21,2,35c0,0,2,14,6,23c0,0,3,8,9,12c0,0,5,5,12,5H826c0,0,12,0,21,-5c0,0,9,-4,16,-12c0,0,8,-8,11,-20c0,0,4,-11,4,-26V102c0,0,0,-22,-8,-39c0,0,-8,-17,-32,-27c0,0,-24,-9,-60,-20C778,16,742,6,704,-1c0,0,-39,-7,-78,-11c0,0,-39,-4,-79,-4Z" 
id="f0_14"
transform="scale(0.001,-0.001)" />

<path d="M402,542c0,0,41,0,72,10c0,0,32,10,52,28c0,0,21,18,32,44c0,0,10,25,10,56c0,0,0,48,-21,81c0,0,-22,33,-71,46c0,0,-15,4,-34,6c0,0,-19,2,-52,2H302V542ZM203,-4c0,0,-28,0,-47,2c0,0,-19,2,-30,5c0,0,-11,4,-16,10c0,0,-4,6,-4,13V903c0,0,0,33,16,48c0,0,17,14,42,14H414c0,0,38,0,62,-1c0,0,25,-2,45,-4c0,0,58,-8,105,-28c0,0,46,-21,79,-53c0,0,32,-32,49,-77c0,0,17,-44,17,-101c0,0,0,-49,-12,-89c0,0,-12,-40,-36,-71c0,0,-24,-31,-59,-54c0,0,-35,-23,-80,-38c0,0,22,-10,41,-25c0,0,19,-15,36,-36c0,0,17,-22,31,-49c0,0,15,-27,30,-61L803,87c0,0,11,-28,15,-41c0,0,3,-14,3,-21c0,0,0,-8,-3,-14c0,0,-3,-5,-14,-9c0,0,-11,-3,-33,-4c0,0,-21,-2,-59,-2c0,0,-31,0,-50,2c0,0,-18,1,-29,4c0,0,-11,4,-15,11c0,0,-5,6,-8,15L524,244c0,0,-16,37,-31,65c0,0,-14,28,-33,48c0,0,-18,19,-42,28c0,0,-24,10,-55,10H302V27c0,0,0,-8,-5,-14c0,0,-5,-6,-16,-10c0,0,-11,-3,-30,-5c0,0,-18,-2,-48,-2Z" 
id="f0_2j"
transform="scale(0.001,-0.001)" />

<path d="M589,371L453,782h-1L317,371ZM106,-4c0,0,-35,0,-54,2C52,-2,32,0,25,8c0,0,-7,9,-5,24c0,0,2,16,11,42L329,931c0,0,4,13,10,21c0,0,6,7,19,12c0,0,13,4,36,5c0,0,23,1,61,1c0,0,44,0,71,-1c0,0,26,-1,40,-5c0,0,15,-5,21,-13c0,0,6,-8,11,-22L896,73c0,0,9,-27,11,-43c0,0,3,-15,-6,-23c0,0,-8,-7,-29,-9c0,0,-21,-2,-57,-2c0,0,-38,0,-59,1c0,0,-22,1,-33,4c0,0,-11,3,-16,9c0,0,-4,6,-7,16L635,220H272L211,31c0,0,-2,-11,-7,-18c0,0,-5,-7,-16,-11c0,0,-11,-3,-31,-4c0,0,-19,-2,-51,-2Z" 
id="f0_5"
transform="scale(0.001,-0.001)" />

<path d="M390,486c0,0,47,0,79,13c0,0,31,12,51,35c0,0,20,23,31,55c0,0,10,31,10,69c0,0,0,50,-18,83c0,0,-17,33,-44,49c0,0,-26,15,-54,19c0,0,-29,5,-59,5H302V486ZM203,-4c0,0,-28,0,-47,2c0,0,-19,2,-30,5c0,0,-11,4,-16,10c0,0,-4,6,-4,13V895c0,0,0,35,18,53c0,0,18,17,48,17H400c0,0,34,0,65,-3c0,0,31,-2,74,-11c0,0,43,-8,88,-31c0,0,44,-24,75,-59c0,0,32,-36,48,-83c0,0,17,-47,17,-106c0,0,0,-82,-26,-144c0,0,-25,-63,-74,-106c0,0,-48,-43,-118,-65c0,0,-71,-23,-166,-23H302V26c0,0,0,-7,-5,-13c0,0,-5,-6,-16,-10c0,0,-11,-3,-30,-5c0,0,-18,-2,-48,-2Z" 
id="f0_2g"
transform="scale(0.001,-0.001)" />

<path d="M204,-4c0,0,-28,0,-47,2c0,0,-19,2,-30,5c0,0,-12,4,-17,10c0,0,-4,6,-4,13V939c0,0,0,7,4,13c0,0,5,6,17,10c0,0,11,3,30,6c0,0,19,2,47,2c0,0,29,0,48,-2c0,0,19,-3,30,-6c0,0,11,-4,16,-10c0,0,4,-6,4,-13V584H663V939c0,0,0,7,5,13c0,0,5,6,15,10c0,0,11,3,30,6c0,0,19,2,49,2c0,0,28,0,47,-2c0,0,18,-3,30,-6c0,0,11,-4,16,-10c0,0,4,-6,4,-13V26c0,0,0,-7,-4,-13c0,0,-5,-6,-16,-10c0,0,-12,-3,-30,-5c0,0,-19,-2,-47,-2c0,0,-30,0,-49,2c0,0,-19,2,-30,5c0,0,-10,4,-15,10c0,0,-5,6,-5,13V417H302V26c0,0,0,-7,-4,-13c0,0,-5,-6,-16,-10c0,0,-11,-3,-30,-5c0,0,-19,-2,-48,-2Z" 
id="f0_19"
transform="scale(0.001,-0.001)" />

<path d="M320,-17c0,0,-50,0,-93,9c0,0,-43,8,-76,19c0,0,-32,11,-54,24C97,35,75,48,65,58c0,0,-10,9,-14,28c0,0,-4,18,-4,52c0,0,0,23,1,39c0,0,2,15,5,25c0,0,4,10,9,14c0,0,6,4,13,4c0,0,11,0,30,-12c0,0,19,-13,49,-28c0,0,30,-15,71,-27c0,0,42,-12,96,-12c0,0,36,0,64,8c0,0,29,9,49,25c0,0,19,15,30,38c0,0,10,23,10,52c0,0,0,33,-18,56c0,0,-18,24,-46,42c0,0,-29,18,-66,34c0,0,-36,16,-75,34c0,0,-39,18,-76,41c0,0,-36,23,-65,54c0,0,-29,32,-47,75c0,0,-17,44,-17,104c0,0,0,70,25,122c0,0,26,53,70,88c0,0,43,34,103,51c0,0,59,18,125,18c0,0,35,0,69,-6c0,0,34,-5,64,-14c0,0,30,-9,53,-20c0,0,23,-11,31,-18c0,0,7,-8,10,-13c0,0,3,-5,4,-14c0,0,2,-8,3,-21c0,0,1,-13,1,-33c0,0,0,-21,-1,-36c0,0,-1,-15,-4,-25c0,0,-3,-9,-7,-14c0,0,-5,-4,-14,-4c0,0,-8,0,-26,10c0,0,-18,10,-44,23c0,0,-26,12,-60,22c0,0,-34,10,-75,10c0,0,-32,0,-56,-8c0,0,-24,-8,-40,-21c0,0,-16,-14,-24,-34c0,0,-8,-19,-8,-41c0,0,0,-32,18,-56c0,0,17,-23,46,-42c0,0,30,-18,67,-34c0,0,38,-16,76,-34c0,0,39,-18,76,-41c0,0,38,-22,67,-54c0,0,29,-32,47,-75c0,0,18,-43,18,-101c0,0,0,-76,-29,-133c0,0,-28,-58,-77,-96C572,60,524,21,459,2c0,0,-65,-19,-139,-19Z" 
id="f0_2n"
transform="scale(0.001,-0.001)" />

<path d="M398,446c0,0,30,0,77,24c0,0,8,83,8,147c0,0,0,136,-31,253c0,0,-18,65,-53,95c0,0,-19,17,-49,17c0,0,-38,0,-59,-32c0,0,-29,-44,-29,-168c0,0,0,-207,49,-285c0,0,33,-51,87,-51ZM47,-20V0c0,0,124,28,210,84c0,0,86,55,137,136c0,0,50,81,70,187c0,0,-46,-24,-79,-33c0,0,-32,-9,-68,-9c0,0,-115,0,-192,83c0,0,-76,82,-76,226c0,0,0,100,41,184c0,0,42,83,119,129c0,0,76,46,159,46c0,0,89,0,168,-51c0,0,79,-51,126,-147c0,0,47,-96,47,-219c0,0,0,-160,-76,-306C633,310,556,164,405,75C405,75,254,-12,47,-20Z" 
id="f1_t"
transform="scale(0.001,-0.001)" />

<path d="M191,-18c0,0,-51,0,-87,36c0,0,-37,36,-37,87c0,0,0,52,37,88c0,0,36,37,87,37c0,0,52,0,89,-37c0,0,36,-36,36,-88c0,0,0,-51,-37,-87c0,0,-36,-36,-88,-36Z" 
id="f1_i"
transform="scale(0.001,-0.001)" />

<path d="M114,0V27h27c0,0,65,0,93,15c0,0,27,15,37,41c0,0,10,27,10,122V729c0,0,0,71,-7,89c0,0,-7,17,-25,30c0,0,-18,12,-42,12c0,0,-38,0,-93,-24l-13,26l372,171h25V205c0,0,0,-93,8,-119c0,0,8,-26,34,-42c0,0,27,-17,84,-17h23V0Z" 
id="f1_l"
transform="scale(0.001,-0.001)" />

<path d="M549,-22c0,0,-132,0,-203,34c0,0,-98,47,-138,122c0,0,-41,75,-41,201V830c0,0,0,87,-9,109c0,0,-10,21,-34,34c0,0,-22,12,-82,12c-2,0,-4,0,-6,0v27H558V985H532c0,0,-59,0,-81,-13c0,0,-22,-12,-31,-34c0,0,-9,-21,-9,-108V335c0,0,0,-136,20,-180c0,0,21,-44,68,-73c0,0,47,-29,118,-29c0,0,82,0,140,37c0,0,58,37,87,102c0,0,29,64,29,226V830c0,0,0,68,-15,97c0,0,-14,29,-35,40c0,0,-34,18,-95,18v27h350V985h-21c0,0,-43,0,-71,-18c0,0,-28,-17,-41,-51c0,0,-10,-24,-10,-86V446c0,0,0,-178,-23,-258c0,0,-24,-79,-115,-145c0,0,-91,-65,-248,-65Z" 
id="f1_1l"
transform="scale(0.001,-0.001)" />

<path d="M52,0V26c0,0,44,5,62,29c0,0,13,16,13,97V546c0,0,0,79,-14,98c0,0,-15,20,-61,26v27H336V607c0,0,54,59,104,85c0,0,49,27,106,27c0,0,68,0,113,-38c0,0,44,-38,59,-94c0,0,12,-42,12,-163V152c0,0,0,-81,15,-101c0,0,14,-19,61,-25V0H452V26c0,0,40,6,57,33c0,0,12,19,12,93V462c0,0,0,86,-7,109c0,0,-6,22,-22,35c0,0,-16,12,-36,12c0,0,-64,0,-120,-92V152c0,0,0,-79,15,-100c0,0,15,-20,55,-26V0Z" 
id="f1_2a"
transform="scale(0.001,-0.001)" />

<path d="M32,0V26c0,0,46,2,69,27c0,0,14,18,14,92V551c0,0,0,75,-17,95c0,0,-17,21,-66,24v27H325V145c0,0,0,-74,17,-95c0,0,17,-21,68,-24V0ZM220,804c0,0,-48,0,-82,33c0,0,-33,34,-33,82c0,0,0,48,33,82c0,0,34,33,82,33c0,0,48,0,82,-33c0,0,33,-34,33,-82c0,0,0,-48,-34,-82c0,0,-34,-33,-81,-33Z" 
id="f1_25"
transform="scale(0.001,-0.001)" />

<path d="M49,0V26c0,0,47,1,67,11c0,0,20,10,28,28c0,0,7,18,7,75l-1,484H49v73H150v87c0,0,0,107,79,179c0,0,78,71,212,71c0,0,92,0,136,-34c0,0,45,-34,45,-76c0,0,0,-34,-28,-58c0,0,-28,-25,-73,-25c0,0,-39,0,-62,20c0,0,-22,20,-22,45c0,0,0,6,4,27c0,0,3,13,3,24c0,0,0,16,-9,23c0,0,-12,11,-29,11c0,0,-21,0,-36,-17c0,0,-15,-18,-15,-58l1,-130V697H460V624H356l1,-484c0,0,0,-70,15,-88c0,0,22,-26,81,-26c2,0,5,0,7,0V0Z" 
id="f1_22"
transform="scale(0.001,-0.001)" />

<path d="M381,31c0,0,33,0,56,19c0,0,29,25,38,71c0,0,15,71,15,286c0,0,0,127,-14,174c0,0,-14,48,-42,69c0,0,-19,16,-50,16c0,0,-38,0,-65,-29c0,0,-27,-29,-36,-113c0,0,-8,-85,-8,-235c0,0,0,-80,10,-150c0,0,8,-53,35,-80c0,0,27,-28,61,-28Zm2,-51c0,0,-157,0,-242,110c0,0,-85,110,-85,256c0,0,0,150,87,261c0,0,86,112,238,112c0,0,90,0,169,-47c0,0,78,-47,119,-134c0,0,40,-86,40,-189c0,0,0,-149,-75,-249c0,0,-91,-120,-251,-120Z" 
id="f1_2b"
transform="scale(0.001,-0.001)" />

<path d="M57,0V26c0,0,45,4,61,25c0,0,16,22,16,113V550c0,0,0,59,-6,76c0,0,-7,21,-22,30c0,0,-14,10,-49,14v27H342l1,-158c0,0,69,109,121,144c0,0,52,36,100,36c0,0,42,0,66,-26c0,0,25,-26,25,-73c0,0,0,-50,-24,-77c0,0,-25,-28,-59,-28c0,0,-39,0,-68,25c0,0,-28,26,-33,29c0,0,-8,4,-17,4c0,0,-22,0,-41,-16c0,0,-31,-26,-46,-73c0,0,-24,-72,-24,-159V122c0,0,0,-42,5,-54c0,0,9,-21,27,-30c0,0,17,-9,59,-12V0Z" 
id="f1_2e"
transform="scale(0.001,-0.001)" />

<path d="M56,0V26c0,0,44,5,63,29c0,0,13,16,13,97V546c0,0,0,79,-15,98c0,0,-14,20,-61,26v27H341V606c0,0,57,63,106,88c0,0,49,25,108,25c0,0,67,0,112,-32c0,0,46,-31,71,-95c0,0,59,67,114,97c0,0,55,30,115,30c0,0,72,0,115,-34c0,0,43,-33,60,-84c0,0,16,-51,16,-163V152c0,0,0,-81,15,-100c0,0,14,-20,61,-26V0H873V26c0,0,42,4,63,33c0,0,13,20,13,93V452c0,0,0,93,-7,119c0,0,-8,25,-24,38c0,0,-16,12,-37,12c0,0,-32,0,-65,-24c0,0,-33,-23,-66,-70V152c0,0,0,-76,12,-95c0,0,17,-28,66,-31V0H466V26c0,0,29,2,46,15c0,0,17,13,23,31c0,0,5,18,5,80V452c0,0,0,95,-7,119c0,0,-8,24,-25,37c0,0,-18,14,-38,14c0,0,-30,0,-54,-16c0,0,-35,-23,-75,-79V152c0,0,0,-74,14,-98c0,0,15,-23,61,-28V0Z" 
id="f1_29"
transform="scale(0.001,-0.001)" />

<path d="M298,-9c0,0,-67,0,-113,36c0,0,-46,37,-58,83c0,0,-8,25,-8,137V624H28v26c0,0,94,66,161,139c0,0,66,73,115,163h25V697H494V624H329V193c0,0,0,-60,5,-78c0,0,6,-17,20,-28c0,0,14,-11,26,-11c0,0,48,0,92,75l22,-17C494,134,434,-9,298,-9Z" 
id="f1_2g"
transform="scale(0.001,-0.001)" />

<path d="M273,157c0,0,-114,0,-193,80C80,237,0,317,0,431c0,0,0,112,80,192c0,0,79,80,193,80c0,0,113,0,192,-80c0,0,80,-80,80,-192c0,0,0,-114,-80,-194c0,0,-79,-80,-192,-80Z" 
id="f2_3d"
transform="scale(0.001,-0.001)" />

<path d="M38,0V27H74c0,0,63,0,91,37c0,0,18,24,18,115V833c0,0,0,77,-10,102c0,0,-7,18,-30,32c0,0,-33,18,-69,18H38v27H470V985H434c0,0,-62,0,-90,-37c0,0,-18,-24,-18,-115V179c0,0,0,-77,9,-102c0,0,8,-18,31,-32c0,0,32,-18,68,-18h36V0Z" 
id="f3_19"
transform="scale(0.001,-0.001)" />

<path d="M21,0V26H35c0,0,53,0,71,27c0,0,18,27,18,101V408c0,0,0,123,-5,150c0,0,-6,27,-17,37c0,0,-12,10,-31,10c0,0,-21,0,-50,-11L10,620l206,83h32V558c0,0,120,145,229,145c0,0,56,0,96,-28c0,0,40,-28,64,-92c0,0,16,-45,16,-137V154c0,0,0,-65,11,-88c0,0,8,-19,26,-29c0,0,18,-11,68,-11V0H419V26h14c0,0,47,0,66,15c0,0,20,15,27,43c0,0,3,11,3,70V434c0,0,0,93,-24,135c0,0,-24,42,-81,42c0,0,-88,0,-176,-97V154c0,0,0,-69,9,-86c0,0,10,-21,28,-31c0,0,19,-11,75,-11V0Z" 
id="f3_2a"
transform="scale(0.001,-0.001)" />

<path d="M286,72c0,0,57,0,149,75V407c0,0,-113,-45,-145,-64c0,0,-59,-32,-85,-68c0,0,-25,-36,-25,-78c0,0,0,-54,32,-89c0,0,32,-36,74,-36ZM217,-13c0,0,-71,0,-116,48c0,0,-46,48,-46,127c0,0,0,50,22,87c0,0,31,50,106,95c0,0,76,45,252,109v26c0,0,0,102,-32,140c0,0,-32,38,-94,38c0,0,-47,0,-74,-25c0,0,-28,-25,-28,-58l1,-43c0,0,0,-34,-17,-53c0,0,-18,-18,-47,-18c0,0,-28,0,-45,19c0,0,-18,19,-18,53c0,0,0,64,66,117c0,0,65,54,184,54c0,0,91,0,149,-31c0,0,44,-23,65,-72c0,0,13,-32,13,-131V238c0,0,0,-98,4,-120c0,0,4,-22,12,-29c0,0,9,-8,20,-8c0,0,12,0,21,5c0,0,16,10,61,55V99C676,99,592,-12,516,-12c0,0,-37,0,-58,24c0,0,-22,26,-23,86C435,98,330,17,303,5c0,0,-40,-18,-86,-18Z" 
id="f3_1x"
transform="scale(0.001,-0.001)" />

<path d="M292,-20c0,0,-57,0,-100,33c0,0,-42,33,-58,85c0,0,-17,52,-17,148V551c0,0,0,49,-10,68c0,0,-11,18,-31,29c0,0,-19,9,-68,9c-2,0,-4,0,-6,0v26H242V226c0,0,0,-95,33,-125c0,0,33,-30,80,-30c0,0,32,0,73,21c0,0,40,20,96,76V555c0,0,0,59,-21,80c0,0,-22,21,-89,22v26H647V269c0,0,0,-119,6,-145c0,0,6,-27,18,-37c0,0,12,-11,29,-11c0,0,23,0,52,13L763,63L558,-20H524V124C524,124,436,29,390,4c0,0,-47,-24,-98,-24Z" 
id="f3_2h"
transform="scale(0.001,-0.001)" />

<path d="M55,0V26c0,0,50,0,67,10c0,0,17,10,27,32c0,0,10,23,10,86V418c0,0,0,111,-6,144c0,0,-6,24,-17,33c0,0,-11,10,-30,10c0,0,-21,0,-51,-11L45,620l206,83h33V154c0,0,0,-64,9,-85c0,0,9,-22,27,-32c0,0,19,-11,67,-11V0ZM222,909c0,0,-32,0,-54,23c0,0,-22,22,-22,53c0,0,0,32,22,54c0,0,22,22,54,22c0,0,31,0,53,-22c0,0,22,-22,22,-54c0,0,0,-31,-22,-53c0,0,-22,-23,-53,-23Z" 
id="f3_25"
transform="scale(0.001,-0.001)" />

<path d="M63,0V26H93c0,0,30,0,54,15c0,0,25,15,34,41c0,0,10,25,10,99V630H58v53H191v45c0,0,0,102,33,173c0,0,32,71,100,114c0,0,68,44,152,44c0,0,79,0,145,-51c0,0,43,-33,43,-75c0,0,0,-22,-19,-42c0,0,-20,-20,-42,-20c0,0,-17,0,-36,12c0,0,-19,13,-47,53c0,0,-28,41,-51,55c0,0,-23,14,-51,14c0,0,-35,0,-58,-18c0,0,-24,-18,-35,-57c0,0,-10,-38,-10,-197V683H491V630H315V181c0,0,0,-96,21,-122c0,0,27,-33,73,-33h62V0Z" 
id="f3_22"
transform="scale(0.001,-0.001)" />

<path d="M406,32c0,0,72,0,119,60c0,0,47,59,47,205c0,0,0,181,-78,286c0,0,-53,71,-135,71c0,0,-40,0,-79,-23c0,0,-40,-24,-65,-83c0,0,-24,-58,-24,-151c0,0,0,-149,59,-257c0,0,59,-108,156,-108ZM374,-20c0,0,-154,0,-245,122c0,0,-77,104,-77,233c0,0,0,94,46,187c0,0,47,92,123,137c0,0,76,44,161,44c0,0,155,0,249,-118c0,0,80,-100,80,-231c0,0,0,-91,-44,-185C667,169,623,75,546,27c0,0,-77,-47,-172,-47Z" 
id="f3_2b"
transform="scale(0.001,-0.001)" />

<path d="M17,0V26c0,0,52,0,77,17c0,0,19,12,26,38c0,0,4,13,4,73V419c0,0,0,119,-5,142c0,0,-4,23,-17,33c0,0,-13,11,-33,11c0,0,-23,0,-52,-11l-7,26l207,83h31V549c0,0,86,154,176,154c0,0,41,0,68,-25c0,0,27,-25,27,-58c0,0,0,-29,-20,-49c0,0,-19,-20,-46,-20c0,0,-26,0,-58,25c0,0,-33,26,-48,26c0,0,-14,0,-29,-15c0,0,-34,-30,-70,-101V159c0,0,0,-56,15,-85c0,0,9,-20,34,-34c0,0,24,-14,71,-14V0Z" 
id="f3_2e"
transform="scale(0.001,-0.001)" />

<path d="M23,0V26c0,0,47,0,66,10c0,0,19,11,28,33c0,0,10,22,10,85V416c0,0,0,112,-7,145c0,0,-5,25,-16,34c0,0,-11,10,-31,10c0,0,-21,0,-50,-11L12,620l207,83h32V557c0,0,75,75,88,86c0,0,34,29,72,44c0,0,39,16,77,16c0,0,64,0,110,-37c0,0,47,-38,62,-109c0,0,77,90,130,118c0,0,53,28,109,28c0,0,54,0,96,-28c0,0,42,-28,67,-91c0,0,16,-43,16,-136V154c0,0,0,-64,10,-88c0,0,8,-16,28,-28c0,0,20,-12,65,-12V0H844V26h14c0,0,44,0,69,18c0,0,17,12,24,38c0,0,3,13,3,72V448c0,0,0,83,-20,117c0,0,-29,48,-93,48c0,0,-39,0,-79,-20c0,0,-40,-19,-97,-73l-1,-8l2,-32V154c0,0,0,-70,8,-87c0,0,7,-17,29,-29c0,0,21,-12,73,-12V0H431V26c0,0,57,0,78,14c0,0,21,13,29,40c0,0,4,13,4,74V448c0,0,0,83,-25,120c0,0,-33,48,-91,48c0,0,-40,0,-80,-22c0,0,-61,-33,-95,-74V154c0,0,0,-67,10,-87c0,0,9,-20,27,-30c0,0,18,-11,74,-11V0Z" 
id="f3_29"
transform="scale(0.001,-0.001)" />

<path d="M255,-10c0,0,-35,0,-68,18c0,0,-32,19,-48,55c0,0,-16,35,-16,109V632H15v24c0,0,41,16,84,56c0,0,43,39,77,92c0,0,17,29,48,104h23V683H407V632H247V188c0,0,0,-66,19,-90c0,0,19,-23,49,-23c0,0,24,0,47,16c0,0,23,15,36,45h29c0,0,-26,-73,-74,-110c0,0,-47,-36,-98,-36Z" 
id="f3_2g"
transform="scale(0.001,-0.001)" />

<path d="M397,34c0,0,67,0,126,75c0,0,58,74,58,216c0,0,0,131,-58,201c0,0,-59,70,-133,70c0,0,-39,0,-79,-20c0,0,-29,-14,-75,-59V109c0,0,37,-37,78,-56c0,0,40,-19,83,-19ZM358,-20c0,0,-59,0,-121,21c0,0,-61,22,-126,65V773c0,0,0,117,-5,144c0,0,-6,27,-18,37c0,0,-12,9,-29,9c0,0,-21,0,-53,-12l-9,27l205,83h34V564c0,0,98,139,213,139c0,0,105,0,183,-90c0,0,78,-90,78,-245c0,0,0,-182,-121,-293c0,0,-103,-95,-231,-95Z" 
id="f3_1y"
transform="scale(0.001,-0.001)" />

<path d="M399,62c0,0,68,0,131,68V481c0,0,-5,51,-27,93c0,0,-22,42,-59,63c0,0,-37,21,-72,21c0,0,-65,0,-117,-59c0,0,-67,-77,-67,-226c0,0,0,-151,65,-231c0,0,66,-80,146,-80ZM330,-20c0,0,-112,0,-196,93c0,0,-83,94,-83,240c0,0,0,147,92,269c0,0,93,122,238,122c0,0,90,0,149,-58V773c0,0,0,117,-6,144c0,0,-5,27,-17,37c0,0,-12,9,-30,9c0,0,-20,0,-52,-12l-9,27l204,83h33V270c0,0,0,-120,6,-146c0,0,5,-27,18,-37c0,0,12,-11,28,-11c0,0,21,0,54,13l9,-26L564,-20H530V78C530,78,480,25,432,2c0,0,-47,-22,-102,-22Z" 
id="f3_20"
transform="scale(0.001,-0.001)" />

<path d="M145,-328c0,0,-44,0,-73,25c0,0,-28,25,-28,58c0,0,0,31,21,50c0,0,20,19,56,19c0,0,25,0,67,-16c0,0,30,-11,38,-11c0,0,22,0,49,23c0,0,26,23,53,89L376,28L131,542c0,0,-11,24,-36,58c0,0,-19,27,-30,36c0,0,-18,12,-56,21v26H328V657H312c0,0,-33,0,-50,-15c0,0,-17,-14,-17,-36c0,0,0,-30,25,-81L437,179L589,557c0,0,12,31,12,62c0,0,0,13,-5,20c0,0,-6,8,-19,13c0,0,-12,5,-44,5v26H754V657c0,0,-27,-3,-42,-12c0,0,-15,-9,-33,-34c0,0,-7,-10,-25,-58L376,-128c0,0,-40,-99,-105,-150c0,0,-66,-50,-126,-50Z" 
id="f3_2l"
transform="scale(0.001,-0.001)" />

<path d="M342,-20c0,0,-116,0,-203,97c0,0,-86,98,-86,264c0,0,0,161,96,261c0,0,95,101,230,101c0,0,100,0,165,-53c0,0,65,-54,65,-111c0,0,0,-29,-18,-46c0,0,-18,-18,-51,-18c0,0,-44,0,-66,29c0,0,-13,15,-17,59c0,0,-4,45,-30,68c0,0,-26,22,-73,22c0,0,-74,0,-120,-55c0,0,-60,-73,-60,-193c0,0,0,-122,60,-216c0,0,60,-93,162,-93c0,0,73,0,131,49c0,0,41,35,80,126l22,-10C629,261,601,125,521,52c0,0,-81,-72,-179,-72Z" 
id="f3_1z"
transform="scale(0.001,-0.001)" />

<path d="M376,-20L133,556c0,0,-17,41,-31,58c0,0,-15,18,-39,30c0,0,-12,7,-50,13v26H335V657H314c0,0,-29,0,-44,-14c0,0,-16,-14,-15,-38c0,0,-1,-26,15,-62L429,165L588,557c0,0,17,42,17,64c0,0,0,10,-6,17c0,0,-8,11,-21,15c0,0,-13,4,-52,4v26H750V657c0,0,-39,-3,-54,-16c0,0,-26,-23,-47,-76L409,-20Z" 
id="f3_2i"
transform="scale(0.001,-0.001)" />

<path d="M479,469c0,0,-4,66,-16,93c0,0,-18,42,-55,65c0,0,-37,24,-78,24c0,0,-62,0,-111,-48c0,0,-48,-48,-57,-134ZM355,-20c0,0,-123,0,-211,95c0,0,-87,96,-87,258c0,0,0,175,90,273c0,0,89,98,225,98c0,0,115,0,189,-76c0,0,74,-75,74,-202H162c0,0,0,-152,74,-239c0,0,75,-86,175,-86c0,0,67,0,117,36c0,0,50,37,83,127l24,-15c0,0,-16,-102,-91,-186c0,0,-76,-83,-189,-83Z" 
id="f3_21"
transform="scale(0.001,-0.001)" />

<path d="M312,-20c0,0,-62,0,-143,22c0,0,-25,8,-40,8c0,0,-18,0,-27,-19H77V234h25c0,0,21,-105,80,-158c0,0,59,-53,132,-53c0,0,51,0,84,31c0,0,32,30,32,72c0,0,0,52,-36,87c0,0,-36,35,-144,88c0,0,-109,54,-142,97c0,0,-34,43,-34,107c0,0,0,85,58,141c0,0,58,57,150,57c0,0,40,0,97,-17c0,0,38,-11,51,-11c0,0,12,0,19,5c0,0,7,5,15,23h25V470H464c0,0,-28,110,-72,149c0,0,-45,40,-113,40c0,0,-53,0,-85,-28c0,0,-32,-27,-32,-61c0,0,0,-41,24,-71c0,0,23,-31,94,-65L389,381c0,0,152,-74,152,-194c0,0,0,-94,-71,-151c0,0,-70,-56,-158,-56Z" 
id="f3_2f"
transform="scale(0.001,-0.001)" />

<path d="M384,85c0,0,44,0,78,19c0,0,35,19,68,62V487c0,0,0,55,-15,87c0,0,-14,33,-51,55c0,0,-38,22,-85,22c0,0,-84,0,-143,-71c0,0,-60,-70,-60,-214c0,0,0,-138,61,-209c0,0,61,-72,147,-72Zm35,-411v27h15c0,0,41,0,63,12c0,0,15,8,24,30c0,0,9,21,9,83V119C530,119,462,39,411,9c0,0,-50,-29,-105,-29c0,0,-99,0,-177,90c0,0,-78,90,-78,241c0,0,0,174,103,283c0,0,103,109,248,109c0,0,43,0,78,-12c0,0,36,-12,65,-35c0,0,43,20,83,47h25V-174c0,0,0,-66,9,-85c0,0,9,-19,28,-30c0,0,19,-10,74,-10v-27Z" 
id="f3_2d"
transform="scale(0.001,-0.001)" />

<path d="M58,0V26c0,0,47,0,64,10c0,0,18,10,28,32c0,0,9,23,9,86V775c0,0,0,116,-5,142c0,0,-5,27,-17,37c0,0,-11,9,-29,9c0,0,-20,0,-49,-12L46,978l204,83h34V154c0,0,0,-64,9,-85c0,0,9,-21,29,-32c0,0,19,-11,72,-11V0Z" 
id="f3_28"
transform="scale(0.001,-0.001)" />

<path d="M191,-20c0,0,-34,0,-58,24c0,0,-24,24,-24,58c0,0,0,35,24,59c0,0,24,24,58,24c0,0,35,0,59,-24c0,0,24,-25,24,-59c0,0,0,-34,-24,-58c0,0,-25,-24,-59,-24Z" 
id="f3_i"
transform="scale(0.001,-0.001)" />

<path d="M553,-21L174,849c0,0,-29,67,-41,82c0,0,-19,24,-46,37c0,0,-27,13,-73,17v27H427V985c0,0,-70,-7,-91,-24c0,0,-21,-17,-21,-44c0,0,0,-38,34,-117L607,207L846,793c0,0,35,86,35,120c0,0,0,22,-22,41c0,0,-21,20,-73,28c0,0,-4,1,-13,3v27h311V985c0,0,-53,-10,-81,-35c0,0,-39,-37,-70,-112L581,-21Z" 
id="f3_1m"
transform="scale(0.001,-0.001)" />

<path d="M411,-239c0,0,134,0,198,48c0,0,64,47,64,100c0,0,0,39,-38,55c0,0,-39,16,-154,19c0,0,-167,5,-258,17c0,0,-35,-37,-53,-70c0,0,-17,-32,-17,-60c0,0,0,-36,43,-62c0,0,74,-47,215,-47ZM380,257c0,0,56,0,93,43c0,0,36,42,36,133c0,0,0,118,-51,185c0,0,-38,49,-98,49c0,0,-55,0,-92,-44c0,0,-37,-44,-37,-135c0,0,0,-117,50,-182c0,0,39,-49,99,-49ZM345,-328c0,0,-144,0,-243,64c0,0,-56,38,-56,78c0,0,0,18,8,36c0,0,13,27,52,76c0,0,5,7,76,80c0,0,-39,23,-55,41c0,0,-16,19,-16,42c0,0,0,26,22,61c0,0,21,35,98,100c0,0,-63,30,-97,85c0,0,-33,55,-33,121c0,0,0,101,76,174c0,0,77,73,196,73c0,0,98,0,170,-48H688c0,0,32,0,37,-2c0,0,6,-2,8,-6c0,0,4,-7,4,-24c0,0,0,-20,-4,-27c0,0,-2,-4,-7,-6c0,0,-6,-2,-38,-2H599c0,0,41,-54,41,-137c0,0,0,-96,-73,-163c0,0,-73,-68,-196,-68c0,0,-51,0,-104,15c0,0,-33,-28,-44,-49c0,0,-12,-22,-12,-37c0,0,0,-12,13,-24c0,0,12,-12,48,-17c0,0,21,-4,104,-6c0,0,154,-4,199,-11c0,0,70,-10,111,-51c0,0,42,-41,42,-102c0,0,0,-84,-79,-158c0,0,-117,-108,-304,-108Z" 
id="f3_23"
transform="scale(0.001,-0.001)" />

<path d="M20,0V26c0,0,45,0,71,15c0,0,15,7,24,28c0,0,9,21,9,85V773c0,0,0,117,-5,144c0,0,-6,27,-17,37c0,0,-12,9,-31,9c0,0,-16,0,-51,-12L10,978l204,83h34V561c0,0,83,91,131,116c0,0,49,26,97,26c0,0,58,0,100,-32c0,0,42,-32,62,-101c0,0,14,-47,14,-174V154c0,0,0,-65,11,-89c0,0,7,-18,25,-28c0,0,18,-11,66,-11V0H418V26h15c0,0,48,0,67,15c0,0,18,15,26,43c0,0,2,12,2,70V396c0,0,0,112,-12,147c0,0,-11,35,-36,53c0,0,-26,17,-61,17c0,0,-37,0,-76,-19c0,0,-40,-20,-95,-79V154c0,0,0,-70,8,-87c0,0,8,-17,29,-29c0,0,22,-12,74,-12V0Z" 
id="f3_24"
transform="scale(0.001,-0.001)" />

<path d="M678,393L506,802L330,393ZM11,0V27c0,0,63,12,82,30c0,0,38,35,84,145l356,832h27L912,193c0,0,43,-101,77,-132c0,0,35,-30,97,-34V0H687V27c0,0,60,3,82,21c0,0,21,17,21,41c0,0,0,33,-30,104L700,338H307L239,179c0,0,-26,-59,-26,-88c0,0,0,-23,22,-41c0,0,22,-17,95,-23V0Z" 
id="f3_11"
transform="scale(0.001,-0.001)" />

<path d="M30,0V27L485,632H260c0,0,-72,0,-94,-10c0,0,-22,-9,-36,-35c0,0,-20,-37,-23,-92H76l5,188H654V656L196,51H445c0,0,79,0,106,13c0,0,28,13,45,46c0,0,12,23,21,100h25L634,0Z" 
id="f3_2m"
transform="scale(0.001,-0.001)" />

<path d="M336,-20L117,554c0,0,-21,55,-42,74c0,0,-21,19,-66,29v26H296V657c0,0,-40,-3,-52,-14c0,0,-13,-12,-13,-33c0,0,0,-23,13,-56L390,162L537,481L498,581c0,0,-18,46,-47,63c0,0,-17,11,-61,13v26H716V657c0,0,-54,-2,-77,-20c0,0,-15,-12,-15,-39c0,0,0,-15,6,-30L785,177L929,554c0,0,15,40,15,65c0,0,0,14,-15,25c0,0,-14,12,-57,13v26h216V657c0,0,-65,-10,-95,-89L764,-20H733L563,415L363,-20Z" 
id="f3_2j"
transform="scale(0.001,-0.001)" />

<path d="M398,24c0,0,74,0,120,58c0,0,61,76,61,214c0,0,0,156,-69,240c0,0,-47,59,-113,59c0,0,-36,0,-71,-18c0,0,-27,-14,-88,-81V242c0,0,0,-83,6,-109c0,0,11,-43,51,-76c0,0,41,-33,103,-33ZM-4,-326v27H15c5,0,42,0,69,16c0,0,14,8,22,26c0,0,7,19,7,94V481c0,0,0,67,-6,85c0,0,-5,18,-18,27c0,0,-13,9,-36,9c0,0,-18,0,-45,-10L0,615l209,85h29V540c0,0,53,91,106,127c0,0,53,36,112,36c0,0,103,0,172,-80c0,0,84,-99,84,-257c0,0,0,-176,-102,-292c0,0,-83,-94,-210,-94c0,0,-55,0,-95,16c0,0,-30,10,-67,44V-167c0,0,0,-71,8,-90c0,0,9,-20,30,-31c0,0,21,-11,77,-11v-27Z" 
id="f3_2c"
transform="scale(0.001,-0.001)" />

<path d="M25,0V26c0,0,27,4,47,19c0,0,29,22,96,111L311,346L182,535c0,0,-55,81,-86,102c0,0,-30,20,-75,20v26H341V657c0,0,-30,0,-42,-10c0,0,-13,-11,-13,-28c0,0,0,-19,27,-56c0,0,8,-12,25,-37l48,-78l56,77c0,0,55,74,55,94c0,0,0,16,0,27c0,0,0,11,0,11v26H674V657c0,0,-37,-2,-64,-20c0,0,-37,-26,-100,-111L416,402L587,156c0,0,63,-91,89,-109c0,0,27,-18,70,-21V0H423V26c0,0,34,0,53,15c0,0,14,11,14,28c0,0,0,17,-48,87L341,302L232,157c0,0,-50,-69,-50,-82c0,0,0,-18,17,-32c0,0,17,-15,50,-17V0Z" 
id="f3_2k"
transform="scale(0.001,-0.001)" />

<path d="M82,-253v33c0,0,77,25,119,78c0,0,42,54,42,114c0,0,0,14,-7,23c0,0,-5,6,-11,6c0,0,-8,0,-35,-14c0,0,-14,-7,-28,-7c0,0,-37,0,-58,21C104,1,82,23,82,61c0,0,0,36,28,62c0,0,28,27,68,27c0,0,49,0,88,-43c0,0,38,-43,38,-113c0,0,0,-77,-53,-143c0,0,-53,-66,-169,-104Z" 
id="f3_g"
transform="scale(0.001,-0.001)" />

<path d="M332,0V27h36c0,0,64,0,91,39c0,0,16,24,16,109V414L198,839c0,0,-49,75,-67,94c0,0,-17,18,-72,44c0,0,-15,8,-44,8v27H447V985H425c0,0,-35,0,-65,-17c0,0,-29,-16,-29,-49c0,0,0,-27,46,-97L587,496L786,808c0,0,44,70,44,104c0,0,0,21,-10,37c0,0,-11,17,-31,26c0,0,-20,10,-61,10v27h353V985h-19c0,0,-19,0,-57,-18c0,0,-37,-17,-67,-49c0,0,-31,-32,-76,-105L618,430V175c0,0,0,-93,21,-116c0,0,28,-32,89,-32h33V0Z" 
id="f3_1p"
transform="scale(0.001,-0.001)" />

<path d="M62,286V399H448V286Z" 
id="f3_h"
transform="scale(0.001,-0.001)" />

<path d="M12,0V27c0,0,38,4,66,16c0,0,46,19,88,52c0,0,41,33,95,101L496,496L300,789c0,0,-81,119,-138,156c0,0,-57,37,-130,40v27H499V985c0,0,-59,-3,-81,-20c0,0,-22,-17,-22,-38c0,0,0,-28,35,-81L588,613L767,841c0,0,31,41,38,56c0,0,7,15,7,31c0,0,0,15,-9,27c0,0,-11,16,-28,22c0,0,-17,7,-71,8v27h359V985c0,0,-42,-3,-69,-14c0,0,-40,-17,-74,-46c0,0,-34,-29,-95,-108L624,560L842,236c0,0,90,-134,134,-169c0,0,43,-36,111,-40V0H652V27c0,0,43,1,64,9c0,0,16,7,26,21c0,0,10,14,10,28c0,0,0,17,-7,35c0,0,-5,12,-41,66L532,443L320,173c0,0,-33,-44,-40,-58c0,0,-7,-15,-7,-30c0,0,0,-24,21,-40c0,0,20,-15,76,-18V0Z" 
id="f3_1o"
transform="scale(0.001,-0.001)" />

<path d="M397,69c0,0,65,0,123,103V539c0,0,-55,105,-134,105c0,0,-28,0,-46,-15c0,0,-27,-23,-45,-81c0,0,-17,-58,-17,-178c0,0,0,-132,19,-195c0,0,19,-63,53,-91c0,0,17,-15,47,-15ZM332,-20c0,0,-133,0,-211,119c0,0,-62,97,-62,238c0,0,0,112,38,202c0,0,39,89,107,134c0,0,67,46,145,46c0,0,50,0,88,-20c0,0,39,-19,83,-67V842c0,0,0,80,-7,96c0,0,-8,22,-26,32c0,0,-18,11,-68,11v31H729V209c0,0,0,-81,5,-96c0,0,6,-25,22,-36c0,0,17,-12,58,-15V37L520,-20V90C520,90,467,26,426,3c0,0,-42,-23,-94,-23Z" 
id="f1_20"
transform="scale(0.001,-0.001)" />

<path d="M312,-20c0,0,-50,0,-134,30c0,0,-22,9,-30,9c0,0,-25,0,-41,-37H82L70,232H97c0,0,33,-99,91,-148c0,0,59,-49,111,-49c0,0,35,0,58,22c0,0,22,22,22,54c0,0,0,35,-22,61c0,0,-22,27,-100,80c0,0,-114,79,-147,120c0,0,-49,62,-49,136c0,0,0,80,55,145c0,0,56,66,161,66c0,0,56,0,109,-28c0,0,20,-11,33,-11c0,0,13,0,21,5c0,0,9,6,27,32h26L504,479H477c0,0,-45,106,-94,145c0,0,-48,39,-96,39c0,0,-31,0,-52,-21c0,0,-22,-20,-22,-47c0,0,0,-20,15,-39c0,0,24,-30,133,-105c0,0,110,-74,144,-126c0,0,35,-52,35,-116c0,0,0,-58,-29,-114C511,95,482,39,429,9c0,0,-53,-29,-117,-29Z" 
id="f1_2f"
transform="scale(0.001,-0.001)" />

<path d="M459,56c0,0,40,0,66,42c0,0,39,63,39,239c0,0,0,180,-42,247c0,0,-29,44,-76,44c0,0,-76,0,-124,-109V147c0,0,64,-91,137,-91ZM29,-326v28c0,0,46,1,69,26c0,0,14,17,14,89V551c0,0,0,75,-17,95c0,0,-17,21,-66,24v27H322V605c0,0,36,54,74,78c0,0,55,36,119,36c0,0,77,0,140,-49c0,0,63,-48,95,-134c0,0,33,-85,33,-184c0,0,0,-106,-34,-193c0,0,-34,-88,-98,-134c0,0,-65,-45,-144,-45c0,0,-57,0,-107,25c0,0,-37,19,-78,66V-188c0,0,0,-53,8,-73c0,0,9,-19,27,-28c0,0,18,-9,70,-9v-28Z" 
id="f1_2c"
transform="scale(0.001,-0.001)" />

<path d="M32,0V26c0,0,46,2,69,27c0,0,14,18,14,92V867c0,0,0,74,-17,94c0,0,-17,21,-66,24v27H325V145c0,0,0,-74,17,-95c0,0,17,-21,68,-24V0Z" 
id="f1_28"
transform="scale(0.001,-0.001)" />

<path d="M350,115c0,0,37,0,86,42V391c0,0,-90,-53,-134,-113c0,0,-29,-41,-29,-82c0,0,0,-34,24,-60c0,0,19,-21,53,-21ZM207,-9c0,0,-59,0,-99,38c0,0,-40,40,-40,99c0,0,0,80,69,143c0,0,69,64,299,170v70c0,0,0,79,-8,100c0,0,-9,20,-33,36c0,0,-23,15,-53,15c0,0,-49,0,-80,-22c0,0,-19,-13,-19,-31c0,0,0,-16,21,-39c0,0,28,-32,28,-62c0,0,0,-36,-27,-62c0,0,-27,-26,-71,-26c0,0,-47,0,-79,29c0,0,-32,28,-32,66c0,0,0,54,43,103c0,0,42,48,118,75c0,0,76,26,158,26c0,0,99,0,157,-42c0,0,58,-43,75,-92c0,0,11,-31,11,-144V170c0,0,0,-47,3,-60c0,0,4,-12,11,-18c0,0,8,-6,18,-6c0,0,19,0,39,28L738,96c0,0,-37,-56,-77,-81c0,0,-40,-24,-90,-24c0,0,-60,0,-94,27c0,0,-33,28,-41,85C436,103,309,-9,207,-9Z" 
id="f1_1x"
transform="scale(0.001,-0.001)" />

<path d="M365,-20c0,0,-139,0,-223,105c0,0,-83,105,-83,253c0,0,0,142,76,250c0,0,92,131,253,131c0,0,108,0,172,-55c0,0,63,-54,63,-121c0,0,0,-43,-25,-68c0,0,-26,-25,-68,-25c0,0,-44,0,-73,29c0,0,-28,29,-35,104c0,0,-5,47,-22,65c0,0,-17,19,-40,19c0,0,-36,0,-61,-38c0,0,-39,-58,-39,-176c0,0,0,-99,31,-188c0,0,32,-90,86,-134c0,0,41,-32,97,-32c0,0,36,0,69,17c0,0,33,17,78,65l23,-18C644,163,595,70,521,25c0,0,-73,-45,-156,-45Z" 
id="f1_1z"
transform="scale(0.001,-0.001)" />

<path d="M458,424c0,0,0,120,-13,165c0,0,-13,44,-40,67c0,0,-16,14,-42,14c0,0,-39,0,-63,-38c0,0,-44,-66,-44,-182V424ZM358,-20c0,0,-155,0,-235,119c0,0,-64,96,-64,239c0,0,0,174,94,277c0,0,94,104,221,104c0,0,106,0,184,-87c0,0,78,-87,84,-257H259c0,0,7,-139,74,-220c0,0,51,-62,124,-62c0,0,45,0,81,25c0,0,37,25,79,90l25,-16C642,192,585,76,517,28c0,0,-69,-48,-159,-48Z" 
id="f1_21"
transform="scale(0.001,-0.001)" />

<path d="M-12,307v90H775V307Z" 
id="f1_4y"
transform="scale(0.001,-0.001)" />

<path d="M393,-277c0,0,104,0,164,28c0,0,59,27,59,77c0,0,0,19,-11,32c0,0,-20,22,-61,30c0,0,-41,8,-218,8c0,0,-76,0,-101,-12c0,0,-42,-23,-42,-63c0,0,0,-38,44,-69c0,0,44,-31,166,-31ZM366,253c0,0,45,0,75,41c0,0,30,41,30,160c0,0,0,134,-33,183c0,0,-24,36,-68,36c0,0,-43,0,-73,-44c0,0,-30,-44,-30,-181c0,0,0,-112,29,-153c0,0,30,-42,70,-42Zm8,-581c0,0,-94,0,-171,18c0,0,-78,18,-112,51c0,0,-33,32,-33,68c0,0,0,34,25,61c0,0,26,28,96,46c0,0,-97,48,-97,132c0,0,0,51,40,100c0,0,39,48,125,84c0,0,-100,36,-145,96c0,0,-44,60,-44,138c0,0,0,103,83,178c0,0,84,75,215,75c0,0,70,0,144,-30H734V607H601c0,0,37,-36,51,-66c0,0,18,-40,18,-85c0,0,0,-74,-42,-129c0,0,-41,-55,-112,-86c0,0,-72,-31,-127,-31c0,0,-5,0,-90,4c0,0,-33,0,-56,-22c0,0,-23,-22,-23,-52c0,0,0,-27,21,-44c0,0,20,-17,66,-17l130,1c0,0,157,0,216,-34c0,0,84,-47,84,-146c0,0,0,-64,-39,-115c0,0,-38,-52,-102,-77c0,0,-96,-36,-222,-36Z" 
id="f1_23"
transform="scale(0.001,-0.001)" />

<path d="M52,0V26c0,0,44,5,62,29c0,0,13,16,13,97V860c0,0,0,80,-14,99c0,0,-15,20,-61,26v27H336V608c0,0,58,61,106,86c0,0,47,25,99,25c0,0,65,0,112,-38c0,0,47,-37,62,-87c0,0,15,-51,15,-170V152c0,0,0,-81,15,-100c0,0,15,-20,61,-26V0H452V26c0,0,37,6,56,30c0,0,13,20,13,96V463c0,0,0,86,-7,108c0,0,-6,22,-22,35c0,0,-16,12,-36,12c0,0,-30,0,-59,-21c0,0,-28,-20,-61,-72V152c0,0,0,-75,12,-94c0,0,14,-26,58,-32V0Z" 
id="f1_24"
transform="scale(0.001,-0.001)" />

<path d="M367,-20L133,520c0,0,-43,98,-67,124c0,0,-17,19,-50,26v27H386V670c0,0,-35,0,-48,-13c0,0,-18,-16,-18,-39c0,0,0,-27,33,-103L468,253l91,226c0,0,40,97,40,137c0,0,0,23,-17,38c0,0,-17,14,-59,16v27H750V670c0,0,-33,-5,-54,-25c0,0,-20,-20,-62,-118L402,-20Z" 
id="f1_2i"
transform="scale(0.001,-0.001)" />

<path d="M182,-328c0,0,-62,0,-101,35c0,0,-38,35,-38,85c0,0,0,44,26,72c0,0,27,28,66,28c0,0,37,0,60,-23c0,0,22,-24,23,-74c0,0,1,-29,7,-37c0,0,6,-8,17,-8c0,0,18,0,38,21c0,0,30,32,70,144l22,57L146,488c0,0,-50,118,-74,144c0,0,-25,27,-59,38v27H384V670c0,0,-36,-2,-51,-14c0,0,-15,-13,-15,-31c0,0,0,-28,37,-112L475,239l81,212c0,0,44,113,44,157c0,0,0,27,-18,44c0,0,-18,16,-65,18v27H750V670c0,0,-34,-4,-56,-27c0,0,-22,-22,-72,-155L422,-27c0,0,-75,-194,-111,-239c0,0,-52,-62,-129,-62Z" 
id="f1_2l"
transform="scale(0.001,-0.001)" />

<path d="M29,335v96H845V335Zm0,243v96H845V578Z" 
id="f1_x"
transform="scale(0.001,-0.001)" />

<path d="M34,0V26c0,0,51,0,93,28c0,0,42,28,123,147l58,85L188,509c0,0,-59,109,-88,133c0,0,-29,25,-65,28v27H419V669L362,656c0,0,-6,-6,-6,-18c0,0,0,-11,4,-23c0,0,2,-5,20,-40L435,473l27,41c0,0,60,82,60,115c0,0,0,15,-13,26c0,0,-13,11,-47,15v27H710V670c0,0,-46,-2,-85,-28c0,0,-40,-27,-89,-103L460,427L584,198c0,0,62,-121,99,-153c0,0,20,-17,55,-19V0H349V26c0,0,46,4,57,12c0,0,11,9,11,23c0,0,0,21,-24,66L332,240L281,165c0,0,-35,-52,-39,-62c0,0,-6,-14,-6,-25c0,0,0,-17,7,-29c0,0,7,-11,19,-17c0,0,13,-6,45,-6V0Z" 
id="f1_2k"
transform="scale(0.001,-0.001)" />

<path d="M491,-305c0,0,-180,60,-305,247C186,-58,61,127,61,368c0,0,0,239,124,423c0,0,125,184,306,243v-34c0,0,-78,-50,-115,-99c0,0,-50,-67,-79,-172c0,0,-36,-131,-36,-365c0,0,0,-221,33,-343c0,0,32,-122,88,-197c0,0,39,-52,109,-92v-37Z" 
id="f1_c"
transform="scale(0.001,-0.001)" />

<path d="M19,-305v34c0,0,77,52,114,100c0,0,50,67,79,171c0,0,36,131,36,365c0,0,0,221,-33,343c0,0,-32,122,-88,198c0,0,-39,52,-108,91v37c0,0,179,-60,304,-246c0,0,125,-186,125,-428c0,0,0,-238,-125,-421c0,0,-125,-184,-304,-244Z" 
id="f1_d"
transform="scale(0.001,-0.001)" />

<path d="M911,-16L244,799V175c0,0,0,-93,21,-116c0,0,28,-32,86,-32h36V0H36V27H71c0,0,65,0,92,39c0,0,16,24,16,109V879c0,0,-44,52,-67,68c0,0,-23,17,-67,31c0,0,-21,7,-64,7v27H253L873,253V837c0,0,0,93,-21,116c0,0,-28,32,-87,32H730v27h351V985h-36c0,0,-64,0,-91,-39c0,0,-16,-24,-16,-109V-16Z" 
id="f3_1e"
transform="scale(0.001,-0.001)" />

<path d="M213,-20c0,0,-34,0,-58,24c0,0,-24,24,-24,58c0,0,0,34,24,58c0,0,24,25,58,25c0,0,35,0,59,-25c0,0,24,-24,24,-58c0,0,0,-34,-24,-58c0,0,-25,-24,-59,-24Zm3,559c0,0,-35,0,-59,24c0,0,-24,24,-24,58c0,0,0,35,24,59c0,0,24,24,59,24c0,0,34,0,58,-24c0,0,24,-24,24,-59c0,0,0,-34,-24,-58c0,0,-24,-24,-58,-24Z" 
id="f3_u"
transform="scale(0.001,-0.001)" />

<path d="M-12,338v55H777V338Z" 
id="f3_4y"
transform="scale(0.001,-0.001)" />

<path d="M55,0l1,144H94c0,0,44,0,59,7c0,0,15,7,22,23c0,0,6,12,6,61V803c0,0,0,47,-7,62c0,0,-7,16,-22,24c0,0,-15,8,-54,8H56v143H564V897H531c0,0,-49,0,-60,-6c0,0,-18,-8,-26,-23c0,0,-8,-14,-8,-55V537L761,836c0,0,22,21,26,28c0,0,5,7,5,12c0,0,0,10,-9,15c0,0,-8,6,-43,6H698v143h470V897h-15c0,0,-33,0,-46,-4c0,0,-12,-3,-31,-14c0,0,-18,-11,-47,-37L778,625L1078,219c0,0,38,-52,56,-62c0,0,24,-13,69,-13h20V0H698V144h21c0,0,57,0,70,5c0,0,12,5,12,13c0,0,0,9,-23,43L594,466L437,330V225c0,0,0,-39,8,-54c0,0,7,-15,21,-21c0,0,14,-6,56,-6h42V0Z" 
id="f4_1b"
transform="scale(0.001,-0.001)" />

<path d="M52,0V144H93c0,0,44,0,58,6c0,0,13,6,20,20c0,0,6,14,6,55V803c0,0,0,49,-6,64c0,0,-7,15,-22,24c0,0,-10,6,-51,6H52v143H559V897H513c0,0,-40,0,-53,-7c0,0,-13,-8,-20,-23c0,0,-6,-15,-6,-58V233c0,0,0,-47,5,-61c0,0,6,-13,18,-19c0,0,16,-9,47,-9h55V0Z" 
id="f4_19"
transform="scale(0.001,-0.001)" />

<path d="M59,0V144h44c0,0,37,0,51,6c0,0,14,6,22,22c0,0,8,16,8,47V816c0,0,0,34,-8,50c0,0,-7,16,-20,24c0,0,-12,7,-42,7H59v143H480L786,433V805c0,0,0,48,-5,60c0,0,-8,17,-20,25c0,0,-13,7,-49,7H661v143h428V897h-47c0,0,-36,0,-51,-9c0,0,-15,-8,-21,-22c0,0,-6,-14,-6,-61V0H750L364,767V230c0,0,0,-46,5,-59c0,0,6,-12,20,-20c0,0,15,-7,50,-7h50V0Z" 
id="f4_1e"
transform="scale(0.001,-0.001)" />

<path d="M59,0V144H85c0,0,52,0,70,7c0,0,18,8,25,26c0,0,4,11,4,64V808c0,0,0,46,-7,60c0,0,-6,14,-19,22c0,0,-14,7,-53,7H59v143H928L1046,712L911,663c0,0,-34,81,-80,130c0,0,-46,49,-102,65c0,0,-55,16,-129,16H441V615h52c0,0,59,0,80,9c0,0,20,8,29,26c0,0,9,19,9,73v40H744V322H611v45c0,0,0,45,-11,66c0,0,-11,21,-29,29c0,0,-19,7,-83,7H441V230c0,0,0,-38,4,-47c0,0,3,-8,14,-12c0,0,11,-5,47,-5h87c0,0,98,0,165,28c0,0,67,28,120,91c0,0,53,63,81,149l136,-47L959,0Z" 
id="f4_15"
transform="scale(0.001,-0.001)" />

<path d="M59,0V144h42c0,0,39,0,54,7c0,0,15,7,22,22c0,0,7,15,7,57V813c0,0,0,40,-5,52c0,0,-7,17,-21,24c0,0,-13,8,-42,8H59v143H530L711,408l185,632h481V897h-52c0,0,-41,0,-57,-18c0,0,-16,-17,-16,-66V222c0,0,0,-39,4,-48c0,0,7,-15,19,-21c0,0,16,-9,43,-9h59V0H876V144h39c0,0,42,0,57,6c0,0,15,7,22,21c0,0,7,14,7,51V862L748,0H604L359,835V202c0,0,0,-22,8,-34c0,0,8,-12,22,-18c0,0,15,-6,47,-6h50V0Z" 
id="f4_1d"
transform="scale(0.001,-0.001)" />

<path d="M610,480L509,765L404,480ZM2,0V144c0,0,39,0,56,6c0,0,18,7,30,21c0,0,11,13,25,49l322,820H669L981,237c0,0,25,-64,45,-79c0,0,19,-14,68,-14c2,0,3,0,5,0V0H606V144h30c0,0,41,0,58,11c0,0,16,11,16,27c0,0,0,13,-14,55l-32,94H349L310,226c0,0,-12,-33,-12,-44c0,0,0,-11,8,-21c0,0,9,-10,28,-14c0,0,13,-3,71,-3V0Z" 
id="f4_11"
transform="scale(0.001,-0.001)" />

<path d="M280,0V144h30c0,0,51,0,66,6c0,0,14,6,21,22c0,0,8,17,8,67V851c0,0,0,26,-6,33c0,0,-6,7,-26,7c0,0,-38,0,-86,-29c0,0,-48,-29,-85,-82c0,0,-15,-21,-63,-118L2,711l128,365h99l10,-36H826l13,36h99L1067,711L928,662c0,0,-46,91,-66,119c0,0,-40,55,-92,86c0,0,-38,24,-77,24c0,0,-18,0,-24,-9c0,0,-7,-8,-7,-39V244c0,0,0,-53,4,-66c0,0,3,-13,12,-21c0,0,9,-8,25,-11c0,0,16,-2,84,-2V0Z" 
id="f4_1k"
transform="scale(0.001,-0.001)" />

<path d="M579,-17c0,0,-147,0,-266,70c0,0,-119,70,-189,197c0,0,-71,127,-71,277c0,0,0,149,69,271c0,0,69,123,187,191c0,0,119,69,265,69c0,0,149,0,260,-62l25,44H965L1067,667L928,627c0,0,-69,133,-130,189c0,0,-85,77,-185,77c0,0,-72,0,-135,-41c0,0,-63,-40,-100,-118c0,0,-37,-78,-37,-183c0,0,0,-161,85,-276c0,0,85,-116,222,-116c0,0,87,0,168,50c0,0,100,62,173,167l116,-86C1105,290,992,136,899,76c0,0,-144,-93,-320,-93Z" 
id="f4_13"
transform="scale(0.001,-0.001)" />

<path d="M567,-17c0,0,-83,0,-152,21c0,0,-70,21,-145,71L237,0H126L52,404l140,33c0,0,49,-123,153,-205c0,0,104,-82,228,-82c0,0,56,0,93,14c0,0,37,14,56,39c0,0,18,25,18,52c0,0,0,45,-43,77c0,0,-44,32,-154,63L369,446c0,0,-40,11,-107,42c0,0,-68,31,-104,64c0,0,-36,34,-60,86c0,0,-24,53,-24,111c0,0,0,83,46,153c0,0,46,69,138,113c0,0,92,43,204,43c0,0,135,0,244,-70l29,52H842L932,692L792,652c0,0,-69,125,-157,183c0,0,-88,58,-187,58c0,0,-64,0,-101,-26c0,0,-37,-27,-37,-59c0,0,0,-36,34,-67c0,0,32,-32,121,-56L665,626c0,0,166,-47,237,-126c0,0,70,-80,70,-186c0,0,0,-135,-107,-229C865,85,745,-17,567,-17Z" 
id="f4_1j"
transform="scale(0.001,-0.001)" />


</defs>
</svg>