<?xml version="1.0" encoding="UTF-8" standalone="no"?>
<!DOCTYPE svg PUBLIC "-//W3C//DTD SVG 1.1//EN"
"http://www.w3.org/Graphics/SVG/1.1/DTD/svg11.dtd">
<svg viewBox="0 0 909 1286" version="1.1" xmlns="http://www.w3.org/2000/svg" xmlns:xlink="http://www.w3.org/1999/xlink">
<defs>
<style type="text/css"><![CDATA[
.g0_21{
fill: #404040;
}
.g1_21{
}
.g2_21{
fill: none;
stroke: #000000;
stroke-width: 1.1;
stroke-linecap: round;
stroke-linejoin: round;
}
.g3_21{
fill: #FFFFFF;
}
]]></style>
</defs>
<g fill="#000000" >
<use xlink:href="#f0_20" transform="matrix(10,0,0,10,68.6,141.7)" />
<use xlink:href="#f0_25" transform="matrix(10,0,0,10,76.8,141.7)" />
<use xlink:href="#f0_2f" transform="matrix(10,0,0,10,81,141.7)" />
<use xlink:href="#f0_2c" transform="matrix(10,0,0,10,87.1,141.7)" />
<use xlink:href="#f0_28" transform="matrix(10,0,0,10,95.3,141.7)" />
<use xlink:href="#f0_1x" transform="matrix(10,0,0,10,99.5,141.7)" />
<use xlink:href="#f0_1z" transform="matrix(10,0,0,10,107.4,141.7)" />
<use xlink:href="#f0_21" transform="matrix(10,0,0,10,114.2,141.7)" />
<use xlink:href="#f0_29" transform="matrix(10,0,0,10,121,141.7)" />
<use xlink:href="#f0_21" transform="matrix(10,0,0,10,133.1,141.7)" />
<use xlink:href="#f0_2a" transform="matrix(10,0,0,10,140.1,141.7)" />
<use xlink:href="#f0_2g" transform="matrix(10,0,0,10,148.3,141.7)" />
<use xlink:href="#f0_4y" transform="matrix(10,0,0,10,157.1,141.7)" />
<use xlink:href="#f0_2g" transform="matrix(10,0,0,10,168.7,141.7)" />
<use xlink:href="#f0_25" transform="matrix(10,0,0,10,174,141.7)" />
<use xlink:href="#f0_29" transform="matrix(10,0,0,10,178.2,141.7)" />
<use xlink:href="#f0_21" transform="matrix(10,0,0,10,190.5,141.7)" />
<use xlink:href="#f0_23" transform="matrix(10,0,0,10,200.9,141.7)" />
<use xlink:href="#f0_2e" transform="matrix(10,0,0,10,208.5,141.7)" />
<use xlink:href="#f0_1x" transform="matrix(10,0,0,10,215.4,141.7)" />
<use xlink:href="#f0_2c" transform="matrix(10,0,0,10,223.1,141.7)" />
<use xlink:href="#f0_24" transform="matrix(10,0,0,10,231.4,141.7)" />
<use xlink:href="#f0_2i" transform="matrix(10,0,0,10,384.6,141.7)" />
<use xlink:href="#f0_21" transform="matrix(10,0,0,10,392.5,141.7)" />
<use xlink:href="#f0_28" transform="matrix(10,0,0,10,399.3,141.7)" />
<use xlink:href="#f0_2b" transform="matrix(10,0,0,10,403.5,141.7)" />
<use xlink:href="#f0_1z" transform="matrix(10,0,0,10,411.2,141.7)" />
<use xlink:href="#f0_25" transform="matrix(10,0,0,10,418,141.7)" />
<use xlink:href="#f0_2g" transform="matrix(10,0,0,10,422,141.7)" />
<use xlink:href="#f0_2l" transform="matrix(10,0,0,10,427.2,141.7)" />
<use xlink:href="#f0_4y" transform="matrix(10,0,0,10,438.7,141.7)" />
<use xlink:href="#f0_2g" transform="matrix(10,0,0,10,450.3,141.7)" />
<use xlink:href="#f0_25" transform="matrix(10,0,0,10,455.2,141.7)" />
<use xlink:href="#f0_29" transform="matrix(10,0,0,10,459.5,141.7)" />
<use xlink:href="#f0_21" transform="matrix(10,0,0,10,471.9,141.7)" />
<use xlink:href="#f0_23" transform="matrix(10,0,0,10,482.4,141.7)" />
<use xlink:href="#f0_2e" transform="matrix(10,0,0,10,490.3,141.7)" />
<use xlink:href="#f0_1x" transform="matrix(10,0,0,10,497,141.7)" />
<use xlink:href="#f0_2c" transform="matrix(10,0,0,10,504.6,141.7)" />
<use xlink:href="#f0_24" transform="matrix(10,0,0,10,513.2,141.7)" />
<use xlink:href="#f0_1x" transform="matrix(10,0,0,10,649.4,141.7)" />
<use xlink:href="#f0_1z" transform="matrix(10,0,0,10,657.3,141.7)" />
<use xlink:href="#f0_1z" transform="matrix(10,0,0,10,663.9,141.7)" />
<use xlink:href="#f0_21" transform="matrix(10,0,0,10,670.8,141.7)" />
<use xlink:href="#f0_28" transform="matrix(10,0,0,10,677.6,141.7)" />
<use xlink:href="#f0_21" transform="matrix(10,0,0,10,681.8,141.7)" />
<use xlink:href="#f0_2e" transform="matrix(10,0,0,10,688.6,141.7)" />
<use xlink:href="#f0_1x" transform="matrix(10,0,0,10,695.4,141.7)" />
<use xlink:href="#f0_2g" transform="matrix(10,0,0,10,702.9,141.7)" />
<use xlink:href="#f0_25" transform="matrix(10,0,0,10,708.2,141.7)" />
<use xlink:href="#f0_2b" transform="matrix(10,0,0,10,712.4,141.7)" />
<use xlink:href="#f0_2a" transform="matrix(10,0,0,10,720,141.7)" />
<use xlink:href="#f0_4y" transform="matrix(10,0,0,10,732.4,141.7)" />
<use xlink:href="#f0_2g" transform="matrix(10,0,0,10,743.6,141.7)" />
<use xlink:href="#f0_25" transform="matrix(10,0,0,10,748.9,141.7)" />
<use xlink:href="#f0_29" transform="matrix(10,0,0,10,753.1,141.7)" />
<use xlink:href="#f0_21" transform="matrix(10,0,0,10,765.4,141.7)" />
<use xlink:href="#f0_23" transform="matrix(10,0,0,10,775.9,141.7)" />
<use xlink:href="#f0_2e" transform="matrix(10,0,0,10,783.8,141.7)" />
<use xlink:href="#f0_1x" transform="matrix(10,0,0,10,790.5,141.7)" />
<use xlink:href="#f0_2c" transform="matrix(10,0,0,10,798.1,141.7)" />
<use xlink:href="#f0_24" transform="matrix(10,0,0,10,806.5,141.7)" />
<use xlink:href="#f0_2i" transform="matrix(10,0,0,10,384.6,166.8)" />
<use xlink:href="#f0_21" transform="matrix(10,0,0,10,392.5,166.8)" />
<use xlink:href="#f0_28" transform="matrix(10,0,0,10,399.3,166.8)" />
<use xlink:href="#f0_2b" transform="matrix(10,0,0,10,403.5,166.8)" />
<use xlink:href="#f0_1z" transform="matrix(10,0,0,10,411,166.8)" />
<use xlink:href="#f0_25" transform="matrix(10,0,0,10,418,166.8)" />
<use xlink:href="#f0_2g" transform="matrix(10,0,0,10,422.2,166.8)" />
<use xlink:href="#f0_2l" transform="matrix(10,0,0,10,427.4,166.8)" />
<use xlink:href="#f0_x" transform="matrix(10,0,0,10,438.7,166.8)" />
<use xlink:href="#f0_2f" transform="matrix(10,0,0,10,451.2,166.8)" />
<use xlink:href="#f0_28" transform="matrix(10,0,0,10,457.1,166.8)" />
<use xlink:href="#f0_2b" transform="matrix(10,0,0,10,461.5,166.8)" />
<use xlink:href="#f0_2c" transform="matrix(10,0,0,10,469.2,166.8)" />
<use xlink:href="#f0_21" transform="matrix(10,0,0,10,477.6,166.8)" />
<use xlink:href="#f0_2b" transform="matrix(10,0,0,10,488.2,166.8)" />
<use xlink:href="#f0_22" transform="matrix(10,0,0,10,495.7,166.8)" />
<use xlink:href="#f0_2k" transform="matrix(10,0,0,10,504.5,166.8)" />
<use xlink:href="#f0_4y" transform="matrix(10,0,0,10,516.1,166.8)" />
<use xlink:href="#f0_2g" transform="matrix(10,0,0,10,527.6,166.8)" />
<use xlink:href="#f0_23" transform="matrix(10,0,0,10,536.6,166.8)" />
<use xlink:href="#f0_2e" transform="matrix(10,0,0,10,544.3,166.8)" />
<use xlink:href="#f0_1x" transform="matrix(10,0,0,10,551.1,166.8)" />
<use xlink:href="#f0_2c" transform="matrix(10,0,0,10,558.6,166.8)" />
<use xlink:href="#f0_24" transform="matrix(10,0,0,10,567.1,166.8)" />
<use xlink:href="#f0_1x" transform="matrix(10,0,0,10,649.4,166.8)" />
<use xlink:href="#f0_1z" transform="matrix(10,0,0,10,657.3,166.8)" />
<use xlink:href="#f0_1z" transform="matrix(10,0,0,10,664,166.8)" />
<use xlink:href="#f0_2a" transform="matrix(7,0,0,7,670.8,159.1)" />
<use xlink:href="#f0_x" transform="matrix(10,0,0,10,680.2,166.8)" />
<use xlink:href="#f0_2f" transform="matrix(10,0,0,10,692.6,166.8)" />
<use xlink:href="#f0_28" transform="matrix(10,0,0,10,698.7,166.8)" />
<use xlink:href="#f0_2b" transform="matrix(10,0,0,10,702.9,166.8)" />
<use xlink:href="#f0_2c" transform="matrix(10,0,0,10,710.4,166.8)" />
<use xlink:href="#f0_21" transform="matrix(10,0,0,10,718.9,166.8)" />
<use xlink:href="#f0_2b" transform="matrix(10,0,0,10,729.5,166.8)" />
<use xlink:href="#f0_22" transform="matrix(10,0,0,10,737.4,166.8)" />
<use xlink:href="#f0_2i" transform="matrix(10,0,0,10,746,166.8)" />
<use xlink:href="#f0_4y" transform="matrix(10,0,0,10,757.5,166.8)" />
<use xlink:href="#f0_2g" transform="matrix(10,0,0,10,769.1,166.8)" />
<use xlink:href="#f0_23" transform="matrix(10,0,0,10,778.1,166.8)" />
<use xlink:href="#f0_2e" transform="matrix(10,0,0,10,786,166.8)" />
<use xlink:href="#f0_1x" transform="matrix(10,0,0,10,792.7,166.8)" />
<use xlink:href="#f0_2c" transform="matrix(10,0,0,10,800.3,166.8)" />
<use xlink:href="#f0_24" transform="matrix(10,0,0,10,808.7,166.8)" />
<use xlink:href="#f0_c" transform="matrix(10,0,0,10,68.6,282.7)" />
<use xlink:href="#f0_2i" transform="matrix(10,0,0,10,73.7,282.7)" />
<use xlink:href="#f0_d" transform="matrix(10,0,0,10,81.2,282.7)" />
</g>
<path d="M205.5,288.6l-81,-62l1.1,-1.1l80.7,62l-.8,1.1Z" class="g0_21" />
<path d="M197.1,289.7l-.7,-1.5H196v-.7l-.4,-.4l-.3,-.4l-.4,-.7l-.7,-.7l-.4,-.4l-.7,-.4l-1,-.3l-.7,-.4h-2.2l-.4,.4h-.3l-.8,-1.1l.8,-.4h.3l.4,-.4h2.6l1.3,.4l.7,.4l.7,.7l.8,.4l.7,.7l.7,.7l.4,.8l.4,.7v.4l.3,.7v.4l-.3,.3v.4l-.4,.4Z" class="g1_21" />
<path d="M180,288.2l-1.4,.4l-.8,-3l-1.1,-3.3l-1.1,-2.9l-1.1,-2.6l-1.1,-2.9l-1.1,-2.6l-1.4,-2.2l-1.1,-2.5l-1.5,-2.2l-1.5,-1.9l-.7,-1.1l-.7,-1.1l-1.1,-.7l-.8,-1.1l-.7,-.7l-.7,-1.1l-1.1,-.8l-.8,-.7l-1.1,-1.1l-.7,-.7l-1.1,-.8l-.7,-.7l-1.1,-.4l-1.1,-.7l-.8,-.7l-1.1,-.4l-1.1,-.7l-1.1,-.8l-1.1,-.3l-1.1,-.4l-1.1,-.7l-1.1,-.4l-1.3,-.4l-1.1,-.3l-1.1,-.4l-1.4,-.4l-1.1,-.3h-1.1l-2.6,-.8l-2.6,-.3h-2.9l-2.6,-.4h-5.8l-3,.4l-2.9,.3L116,242h3.3l3,-.4h5.8l3,.4h2.5l2.6,.4l2.6,.7h1.4l1.1,.4l1.5,.3l1.1,.4l1.1,.4l1.7,.3l1.1,.8l1.1,.3l1.1,.4l1.1,.7l1.1,.4l1.1,.7l1.1,.8l1.1,.3l.7,.8l1.1,.7l1.1,.7l.7,.8l1.1,.7l1.1,1.1l.8,.7l1.1,.8l.7,1.1l.7,.7l1.1,1.1l.8,.7l.7,1.1l.7,1.1l1.5,2.2l1.5,2.2l1.4,2.6l1.5,2.6l1.1,2.5l1.1,2.6l1.1,2.9l1.1,3l1.1,2.9l.7,3.3Z" class="g1_21" />
<path d="M237.1,289.3H115.3v-1.5H237.1v1.5Zm1.8,0l-.7,-1.5v1.5l-6.3,-4l.8,-1.1l6.2,3.6v1.5Zm0,0v-1.5l1.3,.8l-1.3,.7Zm-6.6,3.3l-.4,-.7l6.3,-4.1l.7,1.5l-6.2,4l-.4,-.7Z" class="g1_21" />
<path d="M114.9,225.9h1.5l4,5.8l-1.4,.8l-4.1,-5.9h1.5l-1.5,-.7Zm0,0l.8,-1.1l.7,1.1h-1.5Zm-3.3,6.2l-.3,-.4l3.6,-5.8l1.5,.7l-4,5.9l-.8,-.4Zm3.3,98.5V227.3h1.5V330.6h-1.5Z" class="g1_21" />
<path d="M192.1,288.9L132.5,220.7" class="g2_21" />
<path d="M101.2,226.6h3.3v.2c-.4,0,-.4,.2,-.5,.2c0,0,-.2,.1,-.2,.1c0,.2,.2,.4,.3,.8c0,0,.2,.2,.2,.4l.6,.7l.5,-.7c.4,-.6,.6,-1,.6,-1.2c0,0,0,-.1,-.2,-.1c0,0,-.2,-.2,-.4,-.2v-.2h2.4v.2c-.2,0,-.6,.2,-.7,.2c-.2,.1,-.6,.5,-1,1.3l-.9,1l1.7,2.6c.5,.6,.7,.9,.9,1.1c.2,.2,.4,.2,.7,.2v.2h-3.3v-.2c.2,0,.4,0,.6,-.2c.2,0,.2,-.2,.2,-.2c0,-.1,-.2,-.5,-.6,-.9l-.9,-1.4l-1.3,1.4c-.2,.4,-.3,.8,-.3,.8c0,.1,0,.3,.1,.3c0,.2,.2,.2,.4,.2v.2h-2.2v-.2c.2,0,.4,0,.5,-.2c.2,-.2,.4,-.5,1,-1.1l1.4,-2l-1.2,-1.8c-.4,-.6,-.8,-1,-1,-1c-.2,-.1,-.5,-.3,-.7,-.3Z" class="g1_21" />
<path d="M229.3,296.3v2.3H231v.6h-1.7v4.4c0,.5,.2,.7,.2,.9c.2,.2,.4,.2,.6,.2c.2,0,.3,0,.5,-.2c.2,0,.2,-.2,.4,-.4h.2c-.2,.6,-.4,1,-.8,1.1c-.3,.2,-.5,.4,-.9,.4c-.3,0,-.5,0,-.7,-.2c-.2,-.2,-.4,-.3,-.6,-.5c0,-.2,-.1,-.6,-.1,-1.1v-4.6H227v-.4c.3,0,.5,-.2,.9,-.5c.3,-.2,.5,-.6,.7,-.9c.2,-.2,.4,-.6,.6,-1.1Z" class="g1_21" />
<path d="M212.9,287.8l-1.5,.8l-.7,-1.1l-.4,-.8l-.7,-1.1l-.8,-.7l-.7,-.7l-.7,-.4l-.8,-.4l-.7,-.7h-.7l-.8,-.4h-1.1l-.7,-.3l-1.1,.3h-1.8l-1.1,.4l-.4,-1.5l1.1,-.3h1.1l1.1,-.4h2.2l1.1,.4l.7,.3l1.1,.4l.8,.4l1.1,.3l.7,.8l.7,.7l.8,1.1l.7,.7l.7,1.1l.8,1.1Z" class="g1_21" />
<path d="M207.7,279l.4,-1.8l.7,-1.5l.8,-.3l.7,-.4l.7,.4l.8,.3l.3,1.5l.4,1.5l-.4,1.8l-.3,1.1l-.8,.7l-.7,.4l-.7,-.4h-.4l-.4,-.3l-.3,-.4v-.4l-.4,-.3v-1.1l-.4,-.8Zm3.7,-.3v-2.2l-.4,-.8l-.3,-.3h-.8l-.3,.3l-.4,.4v.4l-.4,.7v1.5h2.6Zm-2.6,.3v1.5l.4,.7v.4l.4,.4h.3l.4,.3l.4,-.3h.3v-.4l.4,-.7V279h-2.6Zm4.4,.8l1.1,-.4v3.3h.4v.4h-1.5v-.4h.8v-2.9h-.8Z" class="g1_21" />
<path d="M185.5,279l.4,-1.8l.7,-1.1l.4,-.7h1.5l.7,.7l.7,1.1v3.3l-.7,1.1l-.7,.7h-1.1L187,282h-.4l-.3,-.4v-.4l-.4,-.7v-.7l-.4,-.8Zm3.7,-.3v-1.1l-.4,-1.1l-.3,-.4v-.4h-1.1l-.4,.4l-.4,.7v1.9h2.6Zm-2.6,.3v1.5l.4,.7v.4h.4v.4h.7l.4,-.4l.3,-.4v-.3l.4,-.8V279h-2.6Z" class="g1_21" />
<path d="M193.2,281.8l-.1,.7h-1.9v-.2c.6,-.5,.9,-.9,1.1,-1.2c.2,-.2,.4,-.6,.4,-.8c0,-.2,0,-.4,-.2,-.5c-.2,-.2,-.4,-.2,-.4,-.2c-.1,0,-.3,0,-.5,.2c0,0,-.2,.1,-.2,.3c0,-.3,0,-.5,.2,-.7c.2,-.2,.4,-.2,.5,-.2c.4,0,.6,0,.8,.2c.2,.2,.2,.4,.2,.5c0,.2,0,.4,-.2,.6c0,.2,-.2,.6,-.6,.7c-.3,.6,-.5,.8,-.5,.9h.7q.2,0,.4,-.1h.2l.1,-.2Z" class="g1_21" />
<path d="M469.7,318.8L401,268.6l.7,-1.1l68.7,49.8l-.7,1.5Z" class="g0_21" />
<path d="M521.2,268.2H401.3v-1.5H521.2v1.5Zm1.9,0l-.8,-1.5v1.5l-6.2,-4l.7,-1.1l6.3,3.6v1.5Zm0,0v-1.5l1.1,.8l-1.1,.7Zm-6.6,3.3l-.4,-.7l6.2,-4.1l.8,1.5l-6.3,4.1l-.3,-.8Z" class="g1_21" />
<path d="M400.2,217.3h1.1l4,6.2l-1,.7l-4.1,-5.9h1.1l-1.1,-1Zm0,0l.8,-.8l.3,.8h-1.1Zm-3.3,6.6l-.7,-.4l4,-6.2l1.1,1l-3.6,5.9l-.8,-.3Zm3.3,97.9V219.1h1.5V321.8h-1.5Z" class="g1_21" />
<path d="M386.3,219.5h3.3v.1h-.2c-.2,0,-.4,.2,-.6,.2q0,.2,0,.4c0,.2,0,.3,0,.7l1.7,3.7l1.6,-3.9c.2,-.3,.2,-.5,.2,-.7v-.2c0,0,-.2,0,-.2,0c-.1,0,-.3,-.2,-.5,-.2v-.1h2.2v.1c-.2,.2,-.4,.2,-.6,.2c-.1,.2,-.3,.4,-.3,.7l-2.6,6.1h-.4l-2.3,-5.9c-.2,-.3,-.2,-.5,-.4,-.5c0,-.2,-.2,-.2,-.4,-.4c0,0,-.1,0,-.5,-.2Z" class="g1_21" />
<path d="M513.5,273.3v2.2h1.7v.6h-1.7v4.4c0,.5,.2,.7,.2,.9c.2,.2,.4,.2,.6,.2c.1,0,.3,0,.5,0c0,-.2,.2,-.4,.4,-.6h.2c-.2,.6,-.4,1,-.8,1.1c-.3,.2,-.5,.4,-.9,.4c-.4,0,-.5,0,-.7,-.2c-.2,-.2,-.4,-.3,-.6,-.5c0,-.2,-.2,-.6,-.2,-1.1v-4.6h-1.1v-.4c.4,0,.6,-.2,1,-.5c.3,-.2,.5,-.6,.7,-.9c.2,-.2,.4,-.6,.5,-1Z" class="g1_21" />
<path d="M424.4,288l.8,1.1l-2.3,7l-1.4,-.7l2.2,-6.6l1.1,.7l-.4,-1.5Zm0,0h1.1l-.3,1.1l-.8,-1.1Zm-7,1.5v-.7l7,-.8l.4,1.5l-7.4,.7v-.7Zm-6.9,5.5v-1.5h1.8l.7,-.3h1.9l.7,-.4l.7,-.4h1.1l.8,-.3l.7,-.4l.7,-.4l.8,-.3l.7,-.4l.7,-.4l.8,-.7l.7,-.4l.7,1.1l-.7,.4l-.7,.7l-.8,.4l-.7,.7l-.7,.4l-.8,.4l-1.1,.3l-.7,.4h-.7l-1.1,.4l-.8,.3h-1.1l-.7,.4h-2.9ZM389.2,273.7h1.5v.8l.3,1.1v2.2l.4,.7l.4,1.1l.3,.7l.4,1.1l.4,.7l.3,.8l.4,1.1l.4,.7l.7,.8l.7,.7l.4,.7l.7,.8l.8,.7l.7,.4l.8,.7l.7,.7l.7,.4l1.1,.4l.7,.7l.8,.4l1.1,.3h.7l1.1,.4l.7,.4h1.1l1.1,.3h1.9V295h-2.2l-.8,-.4h-1.1l-1.1,-.3l-1.1,-.4h-1.1l-.7,-.7l-1.1,-.4l-.7,-.4l-1.1,-.3l-.7,-.8l-.8,-.7l-1.1,-.4l-.7,-.7l-.8,-.7l-.7,-.8l-.7,-.7l-.4,-.8l-.7,-1l-.4,-.8l-.7,-1.1l-.4,-.7l-.4,-1.1l-.3,-.7l-.4,-1.2l-.4,-1l-.3,-1.1V277l-.4,-1.1v-2.2Zm21.3,-21.6v1.5h-.8l-1.1,.3h-2.2l-.7,.4l-1.1,.3l-.7,.4l-1.1,.4l-.8,.4l-.7,.3l-1.1,.4l-.7,.7l-.7,.4l-.8,.7l-.7,.4l-.8,.7l-.7,.8l-.4,.7l-.7,.7l-.7,.8l-.4,.7l-.4,1.1l-.3,.7l-.4,.8l-.4,1.1l-.3,.7l-.4,1.1l-.4,1.1v1.8l-.3,1.1v1.1h-1.5v-2.2l.4,-1.1v-1.1l.3,-1.1l.4,-1.1l.4,-.7l.3,-1.1l.4,-1.1l.4,-.7l.7,-1.1l.4,-.8l.7,-.7l.4,-1.1l.7,-.8l.7,-.7l.8,-.7l.7,-.4l1.1,-.7l.8,-.7l.7,-.4l1.1,-.8l.7,-.3l1.1,-.4l.7,-.3l1.1,-.4l1.1,-.4l1.1,-.4h1.1l.8,-.3h2.2Zm20.7,14.7l-1.7,.3l-.3,-.7l-.4,-.7l-.3,-.8l-.4,-.7l-.4,-.7l-.3,-.4l-.4,-.7l-.4,-.8l-1.1,-1.1l-1.1,-1.1l-1.1,-1.1l-1.1,-1.1l-1.5,-.7l-1.1,-.7l-1.4,-.8l-1.5,-.4l-.7,-.3h-.8l-.7,-.4h-2.2l-.7,-.3h-1.1v-1.5h1.8l.7,.3h1.9l.7,.4h.7l.8,.4l1.8,.7l1.5,.4l1.4,1.1l1.1,.7l1.5,1.1l1.1,1.1l1.1,1.1l1.1,1.5l.4,.4l.7,.7l.4,.7l.3,.8l.4,.7l.6,.7l.3,1.1l.4,.8Z" class="g0_21" />
<path d="M431.6,258.3v-2.5l.3,-1.2l.8,-1l1.1,-.8l1.1,-.4l1.1,.4l.7,.8l.7,1l.4,.8l.4,1.4V258l-.4,2.5l-.7,1.9l-1.1,.7l-1.1,.4h-.8l-.7,-.4l-.4,-.4l-.3,-.7l-.4,-.4l-.4,-.7l-.3,-1.5v-1.1Zm5.1,-.7v-1.5l-.4,-1.5l-.3,-.7l-.4,-.7h-1.5l-.3,.4l-.4,.3l-.4,.7v3h3.7Zm-3.7,.7v2.2l.4,.8v.7l.4,.4l.3,.3h1.1l.4,-.3l.4,-.4l.3,-1.1l.4,-1.1v-1.5H433Z" class="g1_21" />
<path d="M784.8,275H665.3v-1.5H784.8V275Zm1.9,-.4l-.8,-1.1v1.1L779.7,271l.7,-1.5l6.3,4v1.1Zm0,0v-1.1l1.1,.8l-1.1,.3Zm-6.6,3.3l-.4,-.3l6.2,-4.1l.8,1.1l-6.3,4.1l-.3,-.8Z" class="g1_21" />
<path d="M664.4,222.9h1.1l4,6.3l-1.1,.7l-4,-5.9h1.1l-1.1,-1.1Zm0,0l.7,-.7l.4,.7h-1.1Zm-3.3,6.6l-.7,-.3l4,-6.3l1.1,1.1l-3.7,5.9l-.7,-.4Zm3.3,97.9V224.8h1.5V327.4h-1.5Z" class="g1_21" />
<path d="M655.4,228.8c-.7,.5,-1.3,.9,-1.4,.9c-.2,.2,-.6,.2,-.8,.2c-.5,0,-.9,-.2,-1.3,-.4c-.3,-.3,-.3,-.7,-.3,-1.2c0,-.4,0,-.8,.2,-1c.1,-.3,.5,-.7,1.1,-.9c.3,-.3,1.2,-.7,2.5,-1.1v-.4c0,-.7,-.2,-1,-.3,-1.4c-.2,-.2,-.6,-.4,-1,-.4c-.3,0,-.7,.2,-.9,.4c-.2,.2,-.2,.4,-.2,.5v.4c0,.4,0,.5,-.1,.5c-.2,.2,-.4,.2,-.6,.2q-.2,0,-.4,-.2c-.1,-.1,-.1,-.3,-.1,-.5c0,-.4,.1,-.7,.7,-1.1c.4,-.4,.9,-.6,1.8,-.6c.6,0,1.1,0,1.5,.4c.4,0,.5,.4,.7,.6c0,.3,0,.7,0,1.4v2.2c0,.8,0,1.1,.2,1.3q0,.2,0,.4q.2,0,.2,0q.2,0,.4,0c0,-.2,.1,-.4,.5,-.6v.4c-.5,.7,-1.1,1.1,-1.6,1.1c-.2,0,-.4,0,-.6,-.2c-.2,-.2,-.2,-.5,-.2,-.9Zm0,-.5v-2.6c-.9,.4,-1.3,.5,-1.4,.7c-.6,.2,-.8,.4,-1,.6c-.1,.3,-.3,.5,-.3,.9c0,.4,.2,.5,.3,.9c.2,.2,.6,.4,.8,.4c.3,0,.9,-.4,1.6,-.9Z" class="g1_21" />
<path d="M776.2,278.7v2.2h1.7v.5h-1.7v4.4c0,.6,0,.7,.2,.9c.2,.2,.4,.2,.6,.2c.1,0,.3,0,.5,0c0,-.2,.2,-.4,.2,-.5h.4c-.2,.5,-.4,.9,-.8,1.1c-.3,.2,-.7,.3,-.9,.3c-.4,0,-.5,0,-.7,-.1c-.2,-.2,-.4,-.4,-.6,-.6c0,-.2,-.2,-.6,-.2,-1.1v-4.6h-1.1v-.3c.4,0,.6,-.2,1,-.6c.3,-.2,.5,-.5,.7,-.9c.2,-.2,.4,-.6,.5,-.9Z" class="g1_21" />
<path d="M664.8,311.3H739v-1.5H664.8v1.5Z" class="g0_21" />
<g fill="#000000" >
<use xlink:href="#f1_2a" transform="matrix(10,0,0,10,99.4,367.9)" />
<use xlink:href="#f1_1x" transform="matrix(10,0,0,10,106.9,367.9)" />
<use xlink:href="#f1_2g" transform="matrix(10,0,0,10,113.9,367.9)" />
<use xlink:href="#f1_2h" transform="matrix(10,0,0,10,118.1,367.9)" />
<use xlink:href="#f1_2e" transform="matrix(10,0,0,10,125.4,367.9)" />
<use xlink:href="#f1_21" transform="matrix(10,0,0,10,130.5,367.9)" />
<use xlink:href="#f1_2b" transform="matrix(10,0,0,10,141.4,367.9)" />
<use xlink:href="#f1_22" transform="matrix(10,0,0,10,149.1,367.9)" />
<use xlink:href="#f1_2f" transform="matrix(10,0,0,10,157.5,367.9)" />
<use xlink:href="#f1_28" transform="matrix(10,0,0,10,163.5,367.9)" />
<use xlink:href="#f1_2b" transform="matrix(10,0,0,10,167.6,367.9)" />
<use xlink:href="#f1_2c" transform="matrix(10,0,0,10,175.3,367.9)" />
<use xlink:href="#f1_21" transform="matrix(10,0,0,10,183.2,367.9)" />
<use xlink:href="#f1_u" transform="matrix(10,0,0,10,193.6,367.9)" />
<use xlink:href="#f1_2a" transform="matrix(10,0,0,10,201.7,367.9)" />
<use xlink:href="#f1_21" transform="matrix(10,0,0,10,209.4,367.9)" />
<use xlink:href="#f1_23" transform="matrix(10,0,0,10,216.2,367.9)" />
<use xlink:href="#f1_1x" transform="matrix(10,0,0,10,223.5,367.9)" />
<use xlink:href="#f1_2g" transform="matrix(10,0,0,10,230.5,367.9)" />
<use xlink:href="#f1_25" transform="matrix(10,0,0,10,234.7,367.9)" />
<use xlink:href="#f1_2i" transform="matrix(10,0,0,10,238.9,367.9)" />
<use xlink:href="#f1_21" transform="matrix(10,0,0,10,246.2,367.9)" />
<use xlink:href="#f1_2a" transform="matrix(10,0,0,10,384.8,367.9)" />
<use xlink:href="#f1_1x" transform="matrix(10,0,0,10,392.2,367.9)" />
<use xlink:href="#f1_2g" transform="matrix(10,0,0,10,399.1,367.9)" />
<use xlink:href="#f1_2h" transform="matrix(10,0,0,10,403.4,367.9)" />
<use xlink:href="#f1_2e" transform="matrix(10,0,0,10,410.7,367.9)" />
<use xlink:href="#f1_21" transform="matrix(10,0,0,10,416,367.9)" />
<use xlink:href="#f1_2b" transform="matrix(10,0,0,10,426.5,367.9)" />
<use xlink:href="#f1_22" transform="matrix(10,0,0,10,434.3,367.9)" />
<use xlink:href="#f1_2f" transform="matrix(10,0,0,10,443,367.9)" />
<use xlink:href="#f1_28" transform="matrix(10,0,0,10,448.6,367.9)" />
<use xlink:href="#f1_2b" transform="matrix(10,0,0,10,452.9,367.9)" />
<use xlink:href="#f1_2c" transform="matrix(10,0,0,10,460.8,367.9)" />
<use xlink:href="#f1_21" transform="matrix(10,0,0,10,468.3,367.9)" />
<use xlink:href="#f1_u" transform="matrix(10,0,0,10,478.9,367.9)" />
<use xlink:href="#f1_2a" transform="matrix(10,0,0,10,487,367.9)" />
<use xlink:href="#f1_21" transform="matrix(10,0,0,10,494.7,367.9)" />
<use xlink:href="#f1_23" transform="matrix(10,0,0,10,501.5,367.9)" />
<use xlink:href="#f1_1x" transform="matrix(10,0,0,10,508.8,367.9)" />
<use xlink:href="#f1_2g" transform="matrix(10,0,0,10,515.8,367.9)" />
<use xlink:href="#f1_25" transform="matrix(10,0,0,10,520,367.9)" />
<use xlink:href="#f1_2i" transform="matrix(10,0,0,10,524.2,367.9)" />
<use xlink:href="#f1_21" transform="matrix(10,0,0,10,531.5,367.9)" />
<use xlink:href="#f1_29" transform="matrix(10,0,0,10,99.4,394.3)" />
<use xlink:href="#f1_1x" transform="matrix(10,0,0,10,111.1,394.3)" />
<use xlink:href="#f1_23" transform="matrix(10,0,0,10,117.7,394.3)" />
<use xlink:href="#f1_2a" transform="matrix(10,0,0,10,125.2,394.3)" />
<use xlink:href="#f1_25" transform="matrix(10,0,0,10,132.9,394.3)" />
<use xlink:href="#f1_2g" transform="matrix(10,0,0,10,137.1,394.3)" />
<use xlink:href="#f1_2h" transform="matrix(10,0,0,10,141.4,394.3)" />
<use xlink:href="#f1_20" transform="matrix(10,0,0,10,148.7,394.3)" />
<use xlink:href="#f1_21" transform="matrix(10,0,0,10,156.6,394.3)" />
<use xlink:href="#f1_2b" transform="matrix(10,0,0,10,167,394.3)" />
<use xlink:href="#f1_22" transform="matrix(10,0,0,10,174.9,394.3)" />
<use xlink:href="#f1_2f" transform="matrix(10,0,0,10,183.3,394.3)" />
<use xlink:href="#f1_28" transform="matrix(10,0,0,10,189.2,394.3)" />
<use xlink:href="#f1_2b" transform="matrix(10,0,0,10,193.4,394.3)" />
<use xlink:href="#f1_2c" transform="matrix(10,0,0,10,201.3,394.3)" />
<use xlink:href="#f1_21" transform="matrix(10,0,0,10,208.8,394.3)" />
<use xlink:href="#f1_u" transform="matrix(10,0,0,10,219.5,394.3)" />
<use xlink:href="#f1_25" transform="matrix(10,0,0,10,227.5,394.3)" />
<use xlink:href="#f1_2a" transform="matrix(10,0,0,10,231.8,394.3)" />
<use xlink:href="#f1_1z" transform="matrix(10,0,0,10,239.5,394.3)" />
<use xlink:href="#f1_2e" transform="matrix(10,0,0,10,246.2,394.3)" />
<use xlink:href="#f1_21" transform="matrix(10,0,0,10,251.4,394.3)" />
<use xlink:href="#f1_1x" transform="matrix(10,0,0,10,258.2,394.3)" />
<use xlink:href="#f1_2f" transform="matrix(10,0,0,10,264.9,394.3)" />
<use xlink:href="#f1_25" transform="matrix(10,0,0,10,270.8,394.3)" />
<use xlink:href="#f1_2a" transform="matrix(10,0,0,10,274.8,394.3)" />
<use xlink:href="#f1_23" transform="matrix(10,0,0,10,282.5,394.3)" />
<use xlink:href="#f1_29" transform="matrix(10,0,0,10,384.8,394.3)" />
<use xlink:href="#f1_1x" transform="matrix(10,0,0,10,396.4,394.3)" />
<use xlink:href="#f1_23" transform="matrix(10,0,0,10,403,394.3)" />
<use xlink:href="#f1_2a" transform="matrix(10,0,0,10,410.5,394.3)" />
<use xlink:href="#f1_25" transform="matrix(10,0,0,10,418.2,394.3)" />
<use xlink:href="#f1_2g" transform="matrix(10,0,0,10,422.4,394.3)" />
<use xlink:href="#f1_2h" transform="matrix(10,0,0,10,426.7,394.3)" />
<use xlink:href="#f1_20" transform="matrix(10,0,0,10,434,394.3)" />
<use xlink:href="#f1_21" transform="matrix(10,0,0,10,441.9,394.3)" />
<use xlink:href="#f1_2b" transform="matrix(10,0,0,10,452.3,394.3)" />
<use xlink:href="#f1_22" transform="matrix(10,0,0,10,460.2,394.3)" />
<use xlink:href="#f1_2f" transform="matrix(10,0,0,10,468.6,394.3)" />
<use xlink:href="#f1_28" transform="matrix(10,0,0,10,474.5,394.3)" />
<use xlink:href="#f1_2b" transform="matrix(10,0,0,10,478.9,394.3)" />
<use xlink:href="#f1_2c" transform="matrix(10,0,0,10,486.6,394.3)" />
<use xlink:href="#f1_21" transform="matrix(10,0,0,10,494.1,394.3)" />
<use xlink:href="#f1_u" transform="matrix(10,0,0,10,504.8,394.3)" />
<use xlink:href="#f1_1z" transform="matrix(10,0,0,10,512.8,394.3)" />
<use xlink:href="#f1_2b" transform="matrix(10,0,0,10,519.8,394.3)" />
<use xlink:href="#f1_2a" transform="matrix(10,0,0,10,527.3,394.3)" />
<use xlink:href="#f1_2f" transform="matrix(10,0,0,10,535,394.3)" />
<use xlink:href="#f1_2g" transform="matrix(10,0,0,10,540.7,394.3)" />
<use xlink:href="#f1_1x" transform="matrix(10,0,0,10,544.9,394.3)" />
<use xlink:href="#f1_2a" transform="matrix(10,0,0,10,551.8,394.3)" />
<use xlink:href="#f1_2g" transform="matrix(10,0,0,10,559.2,394.3)" />
<use xlink:href="#f0_c" transform="matrix(10,0,0,10,68.6,512.4)" />
<use xlink:href="#f0_2i" transform="matrix(10,0,0,10,73.7,512.4)" />
<use xlink:href="#f0_25" transform="matrix(10,0,0,10,81.2,512.4)" />
<use xlink:href="#f0_d" transform="matrix(10,0,0,10,85.4,512.4)" />
</g>
<path d="M114.8,464.8l1.4,-.8l2.2,5.2l2.2,4.7l1.1,2.2l1.1,2.2l.8,2.2l1.1,1.9l1.1,1.8l1.1,1.5l1.1,1.8l1.1,1.5l1.1,1.4l1.1,1.5l1.1,1.4l1.4,1.2l1.5,1.4l1.5,1.1l1.4,1.1l1.9,1.1l1.4,1.1l2.2,1.1l1.9,1.1l2.2,1.1l2.5,1.1l2.2,1.1l3,1.1l2.9,1.1l2.9,1.1l3.3,1.1l3.3,1.1l3.7,1.1l-.4,1.5l-3.6,-1.1l-3.7,-1.1l-3.3,-1.1l-2.9,-1.1l-3,-1.1l-2.5,-1.1l-2.6,-1.1L147,505.1L144.8,504L143,502.9l-2.2,-1.1L139,500.7l-1.5,-1.1l-1.8,-1.5L134.2,497l-1.5,-1.5l-1.4,-1L130.2,493l-1.1,-1.5l-1.5,-1.4l-1.1,-1.9l-1.1,-1.4l-1.1,-1.9l-.7,-1.8l-1.1,-1.8l-1.1,-2.2l-1.1,-2.3l-1.1,-2.2L117,469.9l-2.2,-5.1Z" class="g0_21" />
<path d="M221.1,514.3H115.5v-1.5H221.1v1.5Zm1.8,-.4l-.7,-1.1v1.1L216,510.2l.7,-1.4l6.2,4v1.1Zm0,0v-1.1l1.1,.7l-1.1,.4Zm-6.6,3.3l-.3,-.4l6.2,-4l.7,1.1l-6.2,4l-.4,-.7Z" class="g1_21" />
<path d="M114.8,451.6h1.4l4.1,6.2l-1.5,.7l-4,-5.9h1.4l-1.4,-1Zm0,0l.7,-.8l.7,.8h-1.4Zm-3.3,6.6l-.4,-.4l3.7,-6.2l1.4,1l-4,5.9l-.7,-.3Zm3.3,97.8V453.4h1.4V556h-1.4Z" class="g1_21" />
<path d="M101.2,452.7h3.1v.1c-.2,0,-.2,.2,-.3,.2c0,0,-.2,.2,-.2,.4c0,0,.2,.2,.3,.5c0,0,.2,.2,.2,.4l.6,.7l.5,-.7c.4,-.5,.6,-.9,.6,-1.1c0,0,0,-.2,-.2,-.2c0,0,-.2,-.2,-.4,-.2v-.1h2.4v.1c-.4,.2,-.6,.2,-.7,.4c-.2,0,-.6,.6,-1,1.1l-.9,1.1l1.7,2.6c.3,.5,.7,.9,.9,1.1c.2,.2,.4,.2,.7,.2v.1h-3.3v-.1c.2,0,.4,0,.6,-.2c0,0,.2,-.2,.2,-.2c0,-.2,-.2,-.6,-.6,-.9l-1.1,-1.5l-1.1,1.5c-.3,.3,-.3,.7,-.3,.7c0,.2,0,.4,0,.4c.1,.2,.3,.2,.5,.2v.1h-2.2v-.1c.2,0,.4,0,.4,-.2c.3,-.2,.5,-.6,1.1,-1.1l1.4,-2l-1.2,-1.9c-.6,-.5,-.8,-.9,-1,-.9c-.2,-.2,-.5,-.4,-.7,-.4Z" class="g1_21" />
<path d="M213.6,519.8V522h1.6v.5h-1.6v4.4c0,.6,.2,.7,.2,.9c.2,.2,.3,.2,.5,.2c.2,0,.4,0,.6,0c0,-.2,.2,-.4,.3,-.5h.2c-.2,.5,-.3,.9,-.7,1.1c-.4,.1,-.7,.3,-.9,.3c-.4,0,-.6,0,-.8,-.2c-.1,-.1,-.3,-.3,-.5,-.5c0,-.2,-.2,-.6,-.2,-1.1v-4.6h-1.1v-.4c.4,0,.6,-.1,.9,-.5c.4,-.2,.6,-.6,.8,-.9c.1,-.2,.3,-.6,.5,-.9Z" class="g1_21" />
<path d="M151.1,513.9L106.7,474.3l1.1,-1.1l44,39.6l-.7,1.1Z" class="g1_21" />
<path d="M153.3,501.4v-1.5l.7,-1.4l.4,-.4l.7,-.4l.7,.4l.8,.4l.7,1.4v3l-.7,1.1l-.8,.7h-1.4l-.4,-.3l-.4,-.4v-.4l-.3,-.3v-1.9Zm3.3,-.3v-1.2l-.4,-.7v-.3l-.4,-.4l-.3,-.4h-.8v.4l-.3,.4v.3l-.4,.7v1.2h2.6Zm-2.6,.3v1.9l.4,.3v.4l.3,.4h.4l.4,.3v-.3h.3l.4,-.4v-.7l.4,-.8v-1.1H154Z" class="g1_21" />
<path d="M155.8,512.8h-1.4v-1.1l-.4,-.4V511l-.4,-.4l-.3,-.4l-.4,-.3h-.4l-.3,-.4h-3l-.7,.4l-.7,.3l-.8,-1.4l.8,-.4l1.1,-.4h.7l.7,-.3h.8l.7,.3h.7l.8,.4l.7,.4l.4,.3l.3,.4l.4,.4l.4,.7l.3,.7v1.5Z" class="g1_21" />
<path d="M470.2,498.7l-68.5,50.2l-.8,-1.5l68.2,-49.8l1.1,1.1Z" class="g0_21" />
<path d="M515.7,499H401.3v-1.4H515.7V499Zm1.9,0l-.8,-1.4V499l-6.2,-4l.7,-1.1l6.3,3.7V499Zm0,0v-1.4l1.1,.7l-1.1,.7Zm-6.6,3.3l-.4,-.7l6.2,-4l.8,1.4l-6.3,4.1l-.3,-.8Z" class="g1_21" />
<path d="M400.2,448.1h1.1l4,6.2l-1,.7l-4.1,-5.8h1.1l-1.1,-1.1Zm0,0l.8,-.8l.3,.8h-1.1Zm-3.5,6.6l-.7,-.4l4.2,-6.2l1.1,1.1l-3.8,5.8l-.8,-.3Zm3.5,97.9V449.9h1.5V552.6h-1.5Z" class="g1_21" />
<path d="M386.3,450.3h3.3v.1h-.2c-.2,0,-.4,.2,-.6,.2q0,.2,0,.4c0,.2,0,.4,0,.7l1.7,3.7l1.6,-3.8c.2,-.4,.2,-.6,.2,-.8q-.2,-.2,-.2,-.2c-.1,0,-.3,-.2,-.5,-.2v-.1h2.2v.1c-.2,.2,-.4,.2,-.6,.2c-.1,.2,-.3,.4,-.3,.8l-2.6,6h-.4l-2.3,-5.8c-.2,-.4,-.2,-.6,-.4,-.6c0,-.2,-.2,-.2,-.4,-.4c0,0,-.1,0,-.5,-.2Z" class="g1_21" />
<path d="M509.3,506.7v2.2h1.6v.6h-1.6v4.4c0,.5,.2,.7,.2,.9c.2,.2,.3,.2,.5,.2c.2,0,.4,0,.6,0c0,-.2,.2,-.4,.3,-.6h.2c-.2,.6,-.3,1,-.7,1.1c-.4,.2,-.6,.4,-.9,.4c-.4,0,-.6,0,-.7,-.2c-.2,-.2,-.4,-.3,-.6,-.5c0,-.2,-.2,-.6,-.2,-1.1v-4.6h-1.1v-.4c.4,0,.6,-.2,.9,-.5c.4,-.2,.6,-.6,.8,-.9c.2,-.2,.3,-.6,.5,-1Z" class="g1_21" />
<path d="M462.9,544.5l-.7,-1.1v-40h1.5v40l-.8,1.1Zm.8,-1.1v1.1h-.8l.8,-1.1Zm-55.8,-1.1h55v2.2h-55v-2.2Z" class="g0_21" />
<path d="M425.2,537.5l.3,-1.8l.4,-1.1l.7,-.7l.8,-.4l.7,.4l.7,.3l.8,1.5v2.9l-.8,1.5l-.7,.4l-.7,.3H427l-.4,-.3l-.3,-.4l-.4,-.4l-.4,-.3V539l-.3,-.7v-.8Zm3.6,-.3l-.3,-1.1V535l-.4,-.4v-.4l-.4,-.3H427l-.4,.3v.4l-.3,.4v2.2h2.5Zm-2.5,.3v1.9l.3,.3v.4h.4l.4,.4h.3l.4,-.4l.4,-.4v-1.4l.3,-.8h-2.5Z" class="g1_21" />
<path d="M422.6,543.4l-1.5,-.7l.4,-.8l.3,-.3l.4,-.8v-2.5l-.4,-.4l-.3,-.4l-.4,-.3l-.4,-.4l-.7,-.4l-.7,-.3l-.4,-.4l.4,-1.5l.7,.4l.7,.4l.8,.3l.7,.8l.4,.3l.3,.8l.4,.3l.4,.8v.3l.3,.8v.7l-.3,.7v.8l-.4,.7l-.4,.7l-.3,.4Z" class="g0_21" />
<path d="M664.8,473H739v-1.8H664.8V473Z" class="g0_21" />
<path d="M784.8,502.3H665.3v-1.4H784.8v1.4Zm1.9,0l-.8,-1.1v1.1l-6.2,-4l.7,-1.1l6.3,4v1.1Zm0,0v-1.1l1.1,.4l-1.1,.7Zm-6.6,3.3l-.4,-.7l6.2,-3.7l.8,1.1l-6.3,4.1l-.3,-.8Z" class="g1_21" />
<path d="M664.4,449.3h1.1l4,6.1l-1.1,.7l-4,-5.8h1.1l-1.1,-1Zm0,0l.7,-.7l.4,.7h-1.1Zm-3.3,6.5l-.7,-.4l4,-6.1l1.1,1l-3.7,5.8l-.7,-.3Zm3.3,97.9V451h1.5V553.7h-1.5Z" class="g1_21" />
<path d="M655.4,456.7c-.7,.5,-1.3,.9,-1.4,.9c-.2,.2,-.6,.2,-.8,.2c-.5,0,-.9,-.2,-1.3,-.4c-.3,-.4,-.3,-.7,-.3,-1.3c0,-.3,0,-.7,.2,-.9c.1,-.4,.5,-.7,1.1,-.9c.3,-.4,1.2,-.7,2.5,-1.1v-.4c0,-.7,-.2,-1.1,-.3,-1.4c-.2,-.2,-.6,-.4,-1,-.4c-.3,0,-.7,.2,-.9,.4c-.2,.2,-.2,.3,-.2,.5v.4c0,.3,0,.5,-.1,.5c-.2,.2,-.4,.2,-.6,.2q-.2,0,-.4,-.2c-.1,0,-.1,-.2,-.1,-.5c0,-.4,.1,-.7,.7,-1.1c.4,-.4,.9,-.6,1.8,-.6c.6,0,1.1,0,1.5,.4c.4,0,.5,.4,.7,.7c0,.2,0,.6,0,1.3v2.2c0,.8,0,1.1,.2,1.3q0,.2,0,.4q.2,0,.2,0q.2,0,.4,0c0,-.2,.1,-.4,.5,-.6v.4c-.5,.7,-1.1,1.1,-1.6,1.1c-.2,0,-.4,0,-.6,-.2c-.2,-.2,-.2,-.6,-.2,-.9Zm0,-.6v-2.5c-.9,.3,-1.3,.5,-1.4,.7c-.6,.2,-.8,.4,-1,.5c-.1,.4,-.3,.6,-.3,1c0,.3,.2,.5,.3,.9c.2,.2,.6,.3,.8,.3c.3,0,.9,-.3,1.6,-.9Z" class="g1_21" />
<path d="M776.2,506.4v2.2h1.7v.5h-1.7v4.4c0,.6,0,.8,.2,.9c.2,.2,.4,.2,.6,.2c.1,0,.3,0,.5,0c0,-.2,.2,-.3,.2,-.5h.4c-.2,.5,-.4,.9,-.8,1.1c-.3,.2,-.7,.3,-.9,.3c-.4,0,-.5,0,-.7,-.1c-.2,-.2,-.4,-.4,-.6,-.6c0,-.2,-.2,-.5,-.2,-1.1v-4.6h-1.1v-.2c.4,-.1,.6,-.3,1,-.7c.3,-.2,.5,-.5,.7,-.9c.2,-.2,.4,-.6,.5,-.9Z" class="g1_21" />
<g fill="#000000" >
<use xlink:href="#f1_2a" transform="matrix(10,0,0,10,99.4,578.2)" />
<use xlink:href="#f1_1x" transform="matrix(10,0,0,10,106.9,578.2)" />
<use xlink:href="#f1_2g" transform="matrix(10,0,0,10,113.9,578.2)" />
<use xlink:href="#f1_2h" transform="matrix(10,0,0,10,118.1,578.2)" />
<use xlink:href="#f1_2e" transform="matrix(10,0,0,10,125.4,578.2)" />
<use xlink:href="#f1_21" transform="matrix(10,0,0,10,130.5,578.2)" />
<use xlink:href="#f1_2b" transform="matrix(10,0,0,10,141.4,578.2)" />
<use xlink:href="#f1_22" transform="matrix(10,0,0,10,149.1,578.2)" />
<use xlink:href="#f1_2f" transform="matrix(10,0,0,10,157.5,578.2)" />
<use xlink:href="#f1_28" transform="matrix(10,0,0,10,163.5,578.2)" />
<use xlink:href="#f1_2b" transform="matrix(10,0,0,10,167.6,578.2)" />
<use xlink:href="#f1_2c" transform="matrix(10,0,0,10,175.3,578.2)" />
<use xlink:href="#f1_21" transform="matrix(10,0,0,10,183.2,578.2)" />
<use xlink:href="#f1_u" transform="matrix(10,0,0,10,193.6,578.2)" />
<use xlink:href="#f1_2a" transform="matrix(10,0,0,10,201.7,578.2)" />
<use xlink:href="#f1_21" transform="matrix(10,0,0,10,209.4,578.2)" />
<use xlink:href="#f1_23" transform="matrix(10,0,0,10,216.2,578.2)" />
<use xlink:href="#f1_1x" transform="matrix(10,0,0,10,223.5,578.2)" />
<use xlink:href="#f1_2g" transform="matrix(10,0,0,10,230.5,578.2)" />
<use xlink:href="#f1_25" transform="matrix(10,0,0,10,234.7,578.2)" />
<use xlink:href="#f1_2i" transform="matrix(10,0,0,10,238.9,578.2)" />
<use xlink:href="#f1_21" transform="matrix(10,0,0,10,246.2,578.2)" />
<use xlink:href="#f1_2a" transform="matrix(10,0,0,10,384.8,578.2)" />
<use xlink:href="#f1_1x" transform="matrix(10,0,0,10,392.2,578.2)" />
<use xlink:href="#f1_2g" transform="matrix(10,0,0,10,399.1,578.2)" />
<use xlink:href="#f1_2h" transform="matrix(10,0,0,10,403.4,578.2)" />
<use xlink:href="#f1_2e" transform="matrix(10,0,0,10,410.7,578.2)" />
<use xlink:href="#f1_21" transform="matrix(10,0,0,10,416,578.2)" />
<use xlink:href="#f1_2b" transform="matrix(10,0,0,10,426.5,578.2)" />
<use xlink:href="#f1_22" transform="matrix(10,0,0,10,434.3,578.2)" />
<use xlink:href="#f1_2f" transform="matrix(10,0,0,10,443,578.2)" />
<use xlink:href="#f1_28" transform="matrix(10,0,0,10,448.6,578.2)" />
<use xlink:href="#f1_2b" transform="matrix(10,0,0,10,452.9,578.2)" />
<use xlink:href="#f1_2c" transform="matrix(10,0,0,10,460.8,578.2)" />
<use xlink:href="#f1_21" transform="matrix(10,0,0,10,468.3,578.2)" />
<use xlink:href="#f1_u" transform="matrix(10,0,0,10,478.9,578.2)" />
<use xlink:href="#f1_2c" transform="matrix(10,0,0,10,487,578.2)" />
<use xlink:href="#f1_2b" transform="matrix(10,0,0,10,494.9,578.2)" />
<use xlink:href="#f1_2f" transform="matrix(10,0,0,10,502.6,578.2)" />
<use xlink:href="#f1_25" transform="matrix(10,0,0,10,508.2,578.2)" />
<use xlink:href="#f1_2g" transform="matrix(10,0,0,10,512.5,578.2)" />
<use xlink:href="#f1_25" transform="matrix(10,0,0,10,516.9,578.2)" />
<use xlink:href="#f1_2i" transform="matrix(10,0,0,10,521.1,578.2)" />
<use xlink:href="#f1_21" transform="matrix(10,0,0,10,528.4,578.2)" />
<use xlink:href="#f1_29" transform="matrix(10,0,0,10,99.4,603.7)" />
<use xlink:href="#f1_1x" transform="matrix(10,0,0,10,111.1,603.7)" />
<use xlink:href="#f1_23" transform="matrix(10,0,0,10,117.7,603.7)" />
<use xlink:href="#f1_2a" transform="matrix(10,0,0,10,125.2,603.7)" />
<use xlink:href="#f1_25" transform="matrix(10,0,0,10,132.9,603.7)" />
<use xlink:href="#f1_2g" transform="matrix(10,0,0,10,137.1,603.7)" />
<use xlink:href="#f1_2h" transform="matrix(10,0,0,10,141.4,603.7)" />
<use xlink:href="#f1_20" transform="matrix(10,0,0,10,148.7,603.7)" />
<use xlink:href="#f1_21" transform="matrix(10,0,0,10,156.6,603.7)" />
<use xlink:href="#f1_2b" transform="matrix(10,0,0,10,167,603.7)" />
<use xlink:href="#f1_22" transform="matrix(10,0,0,10,174.9,603.7)" />
<use xlink:href="#f1_2f" transform="matrix(10,0,0,10,183.3,603.7)" />
<use xlink:href="#f1_28" transform="matrix(10,0,0,10,189.2,603.7)" />
<use xlink:href="#f1_2b" transform="matrix(10,0,0,10,193.4,603.7)" />
<use xlink:href="#f1_2c" transform="matrix(10,0,0,10,201.3,603.7)" />
<use xlink:href="#f1_21" transform="matrix(10,0,0,10,208.8,603.7)" />
<use xlink:href="#f1_u" transform="matrix(10,0,0,10,219.5,603.7)" />
<use xlink:href="#f1_20" transform="matrix(10,0,0,10,227.5,603.7)" />
<use xlink:href="#f1_21" transform="matrix(10,0,0,10,235.4,603.7)" />
<use xlink:href="#f1_1z" transform="matrix(10,0,0,10,242.2,603.7)" />
<use xlink:href="#f1_2e" transform="matrix(10,0,0,10,249,603.7)" />
<use xlink:href="#f1_21" transform="matrix(10,0,0,10,253.9,603.7)" />
<use xlink:href="#f1_1x" transform="matrix(10,0,0,10,260.9,603.7)" />
<use xlink:href="#f1_2f" transform="matrix(10,0,0,10,267.7,603.7)" />
<use xlink:href="#f1_25" transform="matrix(10,0,0,10,273.4,603.7)" />
<use xlink:href="#f1_2a" transform="matrix(10,0,0,10,277.6,603.7)" />
<use xlink:href="#f1_23" transform="matrix(10,0,0,10,285.3,603.7)" />
<use xlink:href="#f1_29" transform="matrix(10,0,0,10,384.8,603.7)" />
<use xlink:href="#f1_1x" transform="matrix(10,0,0,10,396.4,603.7)" />
<use xlink:href="#f1_23" transform="matrix(10,0,0,10,403,603.7)" />
<use xlink:href="#f1_2a" transform="matrix(10,0,0,10,410.5,603.7)" />
<use xlink:href="#f1_25" transform="matrix(10,0,0,10,418.2,603.7)" />
<use xlink:href="#f1_2g" transform="matrix(10,0,0,10,422.4,603.7)" />
<use xlink:href="#f1_2h" transform="matrix(10,0,0,10,426.7,603.7)" />
<use xlink:href="#f1_20" transform="matrix(10,0,0,10,434,603.7)" />
<use xlink:href="#f1_21" transform="matrix(10,0,0,10,441.9,603.7)" />
<use xlink:href="#f1_2b" transform="matrix(10,0,0,10,452.3,603.7)" />
<use xlink:href="#f1_22" transform="matrix(10,0,0,10,460.2,603.7)" />
<use xlink:href="#f1_2f" transform="matrix(10,0,0,10,468.6,603.7)" />
<use xlink:href="#f1_28" transform="matrix(10,0,0,10,474.5,603.7)" />
<use xlink:href="#f1_2b" transform="matrix(10,0,0,10,478.9,603.7)" />
<use xlink:href="#f1_2c" transform="matrix(10,0,0,10,486.6,603.7)" />
<use xlink:href="#f1_21" transform="matrix(10,0,0,10,494.1,603.7)" />
<use xlink:href="#f1_u" transform="matrix(10,0,0,10,504.8,603.7)" />
<use xlink:href="#f1_1z" transform="matrix(10,0,0,10,512.8,603.7)" />
<use xlink:href="#f1_2b" transform="matrix(10,0,0,10,519.8,603.7)" />
<use xlink:href="#f1_2a" transform="matrix(10,0,0,10,527.3,603.7)" />
<use xlink:href="#f1_2f" transform="matrix(10,0,0,10,535,603.7)" />
<use xlink:href="#f1_2g" transform="matrix(10,0,0,10,540.6,603.7)" />
<use xlink:href="#f1_1x" transform="matrix(10,0,0,10,544.9,603.7)" />
<use xlink:href="#f1_2a" transform="matrix(10,0,0,10,551.8,603.7)" />
<use xlink:href="#f1_2g" transform="matrix(10,0,0,10,559.2,603.7)" />
</g>
<path fill-rule="evenodd" d="M54.8,116.4H854.3V634.9H54.8V116.4L57.9,632H851.2V119.3H57.9V632L54.8,116.4Z" class="g1_21" />
<path fill-rule="evenodd" d="M54.8,181.3H854.3v3.9H54.8v-3.9Z" class="g1_21" />
<path fill-rule="evenodd" d="M54.8,188.3H854.3v.9H54.8v-.9Z" class="g1_21" />
<path fill-rule="evenodd" d="M329.8,633.2V116.8h1.7V633.2h-1.7Z" class="g1_21" />
<path fill-rule="evenodd" d="M610.9,633.4V117.5h1.4V633.4h-1.4Z" class="g1_21" />
<path fill-rule="evenodd" d="M54.8,403.7H854.3v1.5H54.8v-1.5Z" class="g1_21" />
<path fill-rule="evenodd" d="M53.9,69.5H856.2V97.9H53.9V69.5l1.5,26.8H854.5V71H55.4V96.3L53.9,69.5Z" class="g3_21" />
<g fill="#000000" >
<use xlink:href="#f2_1b" transform="matrix(10,0,0,10,743.8,87.6)" />
<use xlink:href="#f2_19" transform="matrix(10,0,0,10,756.1,87.6)" />
<use xlink:href="#f2_1e" transform="matrix(10,0,0,10,762.3,87.6)" />
<use xlink:href="#f2_15" transform="matrix(10,0,0,10,773.3,87.6)" />
<use xlink:href="#f2_1d" transform="matrix(10,0,0,10,784.7,87.6)" />
<use xlink:href="#f2_11" transform="matrix(10,0,0,10,799,87.6)" />
<use xlink:href="#f2_1k" transform="matrix(10,0,0,10,810,87.6)" />
<use xlink:href="#f2_19" transform="matrix(10,0,0,10,820.6,87.6)" />
<use xlink:href="#f2_13" transform="matrix(10,0,0,10,826.8,87.6)" />
<use xlink:href="#f2_1j" transform="matrix(10,0,0,10,838.2,87.6)" />
</g>
<path fill-rule="evenodd" d="M55.2,94.6H854.7v3.1H55.2V94.6Z" class="g1_21" />
<path fill-rule="evenodd" d="M55.2,69.7H854.7v3.1H55.2V69.7Z" class="g1_21" />
<path fill-rule="evenodd" d="M56.8,1177.4h798v2.4H56.8v-2.4Z" class="g1_21" />
<defs>
<path d="M397,69c0,0,65,0,123,103V539c0,0,-55,105,-134,105c0,0,-28,0,-46,-15c0,0,-27,-23,-45,-81c0,0,-17,-58,-17,-178c0,0,0,-132,19,-195c0,0,19,-63,53,-91c0,0,17,-15,47,-15ZM332,-20c0,0,-133,0,-211,119c0,0,-62,97,-62,238c0,0,0,112,38,202c0,0,39,89,107,134c0,0,67,46,145,46c0,0,50,0,88,-20c0,0,39,-19,83,-67V842c0,0,0,80,-7,96c0,0,-8,22,-26,32c0,0,-18,11,-68,11v31H729V209c0,0,0,-81,5,-96c0,0,6,-25,22,-36c0,0,17,-12,58,-15V37L520,-20V90C520,90,467,26,426,3c0,0,-42,-23,-94,-23Z" 
id="f0_20"
transform="scale(0.001,-0.001)" />

<path d="M32,0V26c0,0,46,2,69,27c0,0,14,18,14,92V551c0,0,0,75,-17,95c0,0,-17,21,-66,24v27H325V145c0,0,0,-74,17,-95c0,0,17,-21,68,-24V0ZM220,804c0,0,-48,0,-82,33c0,0,-33,34,-33,82c0,0,0,48,33,82c0,0,34,33,82,33c0,0,48,0,82,-33c0,0,33,-34,33,-82c0,0,0,-48,-34,-82c0,0,-34,-33,-81,-33Z" 
id="f0_25"
transform="scale(0.001,-0.001)" />

<path d="M312,-20c0,0,-50,0,-134,30c0,0,-22,9,-30,9c0,0,-25,0,-41,-37H82L70,232H97c0,0,33,-99,91,-148c0,0,59,-49,111,-49c0,0,35,0,58,22c0,0,22,22,22,54c0,0,0,35,-22,61c0,0,-22,27,-100,80c0,0,-114,79,-147,120c0,0,-49,62,-49,136c0,0,0,80,55,145c0,0,56,66,161,66c0,0,56,0,109,-28c0,0,20,-11,33,-11c0,0,13,0,21,5c0,0,9,6,27,32h26L504,479H477c0,0,-45,106,-94,145c0,0,-48,39,-96,39c0,0,-31,0,-52,-21c0,0,-22,-20,-22,-47c0,0,0,-20,15,-39c0,0,24,-30,133,-105c0,0,110,-74,144,-126c0,0,35,-52,35,-116c0,0,0,-58,-29,-114C511,95,482,39,429,9c0,0,-53,-29,-117,-29Z" 
id="f0_2f"
transform="scale(0.001,-0.001)" />

<path d="M459,56c0,0,40,0,66,42c0,0,39,63,39,239c0,0,0,180,-42,247c0,0,-29,44,-76,44c0,0,-76,0,-124,-109V147c0,0,64,-91,137,-91ZM29,-326v28c0,0,46,1,69,26c0,0,14,17,14,89V551c0,0,0,75,-17,95c0,0,-17,21,-66,24v27H322V605c0,0,36,54,74,78c0,0,55,36,119,36c0,0,77,0,140,-49c0,0,63,-48,95,-134c0,0,33,-85,33,-184c0,0,0,-106,-34,-193c0,0,-34,-88,-98,-134c0,0,-65,-45,-144,-45c0,0,-57,0,-107,25c0,0,-37,19,-78,66V-188c0,0,0,-53,8,-73c0,0,9,-19,27,-28c0,0,18,-9,70,-9v-28Z" 
id="f0_2c"
transform="scale(0.001,-0.001)" />

<path d="M32,0V26c0,0,46,2,69,27c0,0,14,18,14,92V867c0,0,0,74,-17,94c0,0,-17,21,-66,24v27H325V145c0,0,0,-74,17,-95c0,0,17,-21,68,-24V0Z" 
id="f0_28"
transform="scale(0.001,-0.001)" />

<path d="M350,115c0,0,37,0,86,42V391c0,0,-90,-53,-134,-113c0,0,-29,-41,-29,-82c0,0,0,-34,24,-60c0,0,19,-21,53,-21ZM207,-9c0,0,-59,0,-99,38c0,0,-40,40,-40,99c0,0,0,80,69,143c0,0,69,64,299,170v70c0,0,0,79,-8,100c0,0,-9,20,-33,36c0,0,-23,15,-53,15c0,0,-49,0,-80,-22c0,0,-19,-13,-19,-31c0,0,0,-16,21,-39c0,0,28,-32,28,-62c0,0,0,-36,-27,-62c0,0,-27,-26,-71,-26c0,0,-47,0,-79,29c0,0,-32,28,-32,66c0,0,0,54,43,103c0,0,42,48,118,75c0,0,76,26,158,26c0,0,99,0,157,-42c0,0,58,-43,75,-92c0,0,11,-31,11,-144V170c0,0,0,-47,3,-60c0,0,4,-12,11,-18c0,0,8,-6,18,-6c0,0,19,0,39,28L738,96c0,0,-37,-56,-77,-81c0,0,-40,-24,-90,-24c0,0,-60,0,-94,27c0,0,-33,28,-41,85C436,103,309,-9,207,-9Z" 
id="f0_1x"
transform="scale(0.001,-0.001)" />

<path d="M365,-20c0,0,-139,0,-223,105c0,0,-83,105,-83,253c0,0,0,142,76,250c0,0,92,131,253,131c0,0,108,0,172,-55c0,0,63,-54,63,-121c0,0,0,-43,-25,-68c0,0,-26,-25,-68,-25c0,0,-44,0,-73,29c0,0,-28,29,-35,104c0,0,-5,47,-22,65c0,0,-17,19,-40,19c0,0,-36,0,-61,-38c0,0,-39,-58,-39,-176c0,0,0,-99,31,-188c0,0,32,-90,86,-134c0,0,41,-32,97,-32c0,0,36,0,69,17c0,0,33,17,78,65l23,-18C644,163,595,70,521,25c0,0,-73,-45,-156,-45Z" 
id="f0_1z"
transform="scale(0.001,-0.001)" />

<path d="M458,424c0,0,0,120,-13,165c0,0,-13,44,-40,67c0,0,-16,14,-42,14c0,0,-39,0,-63,-38c0,0,-44,-66,-44,-182V424ZM358,-20c0,0,-155,0,-235,119c0,0,-64,96,-64,239c0,0,0,174,94,277c0,0,94,104,221,104c0,0,106,0,184,-87c0,0,78,-87,84,-257H259c0,0,7,-139,74,-220c0,0,51,-62,124,-62c0,0,45,0,81,25c0,0,37,25,79,90l25,-16C642,192,585,76,517,28c0,0,-69,-48,-159,-48Z" 
id="f0_21"
transform="scale(0.001,-0.001)" />

<path d="M56,0V26c0,0,44,5,63,29c0,0,13,16,13,97V546c0,0,0,79,-15,98c0,0,-14,20,-61,26v27H341V606c0,0,57,63,106,88c0,0,49,25,108,25c0,0,67,0,112,-32c0,0,46,-31,71,-95c0,0,59,67,114,97c0,0,55,30,115,30c0,0,72,0,115,-34c0,0,43,-33,60,-84c0,0,16,-51,16,-163V152c0,0,0,-81,15,-100c0,0,14,-20,61,-26V0H873V26c0,0,42,4,63,33c0,0,13,20,13,93V452c0,0,0,93,-7,119c0,0,-8,25,-24,38c0,0,-16,12,-37,12c0,0,-32,0,-65,-24c0,0,-33,-23,-66,-70V152c0,0,0,-76,12,-95c0,0,17,-28,66,-31V0H466V26c0,0,29,2,46,15c0,0,17,13,23,31c0,0,5,18,5,80V452c0,0,0,95,-7,119c0,0,-8,24,-25,37c0,0,-18,14,-38,14c0,0,-30,0,-54,-16c0,0,-35,-23,-75,-79V152c0,0,0,-74,14,-98c0,0,15,-23,61,-28V0Z" 
id="f0_29"
transform="scale(0.001,-0.001)" />

<path d="M52,0V26c0,0,44,5,62,29c0,0,13,16,13,97V546c0,0,0,79,-14,98c0,0,-15,20,-61,26v27H336V607c0,0,54,59,104,85c0,0,49,27,106,27c0,0,68,0,113,-38c0,0,44,-38,59,-94c0,0,12,-42,12,-163V152c0,0,0,-81,15,-101c0,0,14,-19,61,-25V0H452V26c0,0,40,6,57,33c0,0,12,19,12,93V462c0,0,0,86,-7,109c0,0,-6,22,-22,35c0,0,-16,12,-36,12c0,0,-64,0,-120,-92V152c0,0,0,-79,15,-100c0,0,15,-20,55,-26V0Z" 
id="f0_2a"
transform="scale(0.001,-0.001)" />

<path d="M298,-9c0,0,-67,0,-113,36c0,0,-46,37,-58,83c0,0,-8,25,-8,137V624H28v26c0,0,94,66,161,139c0,0,66,73,115,163h25V697H494V624H329V193c0,0,0,-60,5,-78c0,0,6,-17,20,-28c0,0,14,-11,26,-11c0,0,48,0,92,75l22,-17C494,134,434,-9,298,-9Z" 
id="f0_2g"
transform="scale(0.001,-0.001)" />

<path d="M-12,307v90H775V307Z" 
id="f0_4y"
transform="scale(0.001,-0.001)" />

<path d="M393,-277c0,0,104,0,164,28c0,0,59,27,59,77c0,0,0,19,-11,32c0,0,-20,22,-61,30c0,0,-41,8,-218,8c0,0,-76,0,-101,-12c0,0,-42,-23,-42,-63c0,0,0,-38,44,-69c0,0,44,-31,166,-31ZM366,253c0,0,45,0,75,41c0,0,30,41,30,160c0,0,0,134,-33,183c0,0,-24,36,-68,36c0,0,-43,0,-73,-44c0,0,-30,-44,-30,-181c0,0,0,-112,29,-153c0,0,30,-42,70,-42Zm8,-581c0,0,-94,0,-171,18c0,0,-78,18,-112,51c0,0,-33,32,-33,68c0,0,0,34,25,61c0,0,26,28,96,46c0,0,-97,48,-97,132c0,0,0,51,40,100c0,0,39,48,125,84c0,0,-100,36,-145,96c0,0,-44,60,-44,138c0,0,0,103,83,178c0,0,84,75,215,75c0,0,70,0,144,-30H734V607H601c0,0,37,-36,51,-66c0,0,18,-40,18,-85c0,0,0,-74,-42,-129c0,0,-41,-55,-112,-86c0,0,-72,-31,-127,-31c0,0,-5,0,-90,4c0,0,-33,0,-56,-22c0,0,-23,-22,-23,-52c0,0,0,-27,21,-44c0,0,20,-17,66,-17l130,1c0,0,157,0,216,-34c0,0,84,-47,84,-146c0,0,0,-64,-39,-115c0,0,-38,-52,-102,-77c0,0,-96,-36,-222,-36Z" 
id="f0_23"
transform="scale(0.001,-0.001)" />

<path d="M57,0V26c0,0,45,4,61,25c0,0,16,22,16,113V550c0,0,0,59,-6,76c0,0,-7,21,-22,30c0,0,-14,10,-49,14v27H342l1,-158c0,0,69,109,121,144c0,0,52,36,100,36c0,0,42,0,66,-26c0,0,25,-26,25,-73c0,0,0,-50,-24,-77c0,0,-25,-28,-59,-28c0,0,-39,0,-68,25c0,0,-28,26,-33,29c0,0,-8,4,-17,4c0,0,-22,0,-41,-16c0,0,-31,-26,-46,-73c0,0,-24,-72,-24,-159V122c0,0,0,-42,5,-54c0,0,9,-21,27,-30c0,0,17,-9,59,-12V0Z" 
id="f0_2e"
transform="scale(0.001,-0.001)" />

<path d="M52,0V26c0,0,44,5,62,29c0,0,13,16,13,97V860c0,0,0,80,-14,99c0,0,-15,20,-61,26v27H336V608c0,0,58,61,106,86c0,0,47,25,99,25c0,0,65,0,112,-38c0,0,47,-37,62,-87c0,0,15,-51,15,-170V152c0,0,0,-81,15,-100c0,0,15,-20,61,-26V0H452V26c0,0,37,6,56,30c0,0,13,20,13,96V463c0,0,0,86,-7,108c0,0,-6,22,-22,35c0,0,-16,12,-36,12c0,0,-30,0,-59,-21c0,0,-28,-20,-61,-72V152c0,0,0,-75,12,-94c0,0,14,-26,58,-32V0Z" 
id="f0_24"
transform="scale(0.001,-0.001)" />

<path d="M367,-20L133,520c0,0,-43,98,-67,124c0,0,-17,19,-50,26v27H386V670c0,0,-35,0,-48,-13c0,0,-18,-16,-18,-39c0,0,0,-27,33,-103L468,253l91,226c0,0,40,97,40,137c0,0,0,23,-17,38c0,0,-17,14,-59,16v27H750V670c0,0,-33,-5,-54,-25c0,0,-20,-20,-62,-118L402,-20Z" 
id="f0_2i"
transform="scale(0.001,-0.001)" />

<path d="M381,31c0,0,33,0,56,19c0,0,29,25,38,71c0,0,15,71,15,286c0,0,0,127,-14,174c0,0,-14,48,-42,69c0,0,-19,16,-50,16c0,0,-38,0,-65,-29c0,0,-27,-29,-36,-113c0,0,-8,-85,-8,-235c0,0,0,-80,10,-150c0,0,8,-53,35,-80c0,0,27,-28,61,-28Zm2,-51c0,0,-157,0,-242,110c0,0,-85,110,-85,256c0,0,0,150,87,261c0,0,86,112,238,112c0,0,90,0,169,-47c0,0,78,-47,119,-134c0,0,40,-86,40,-189c0,0,0,-149,-75,-249c0,0,-91,-120,-251,-120Z" 
id="f0_2b"
transform="scale(0.001,-0.001)" />

<path d="M182,-328c0,0,-62,0,-101,35c0,0,-38,35,-38,85c0,0,0,44,26,72c0,0,27,28,66,28c0,0,37,0,60,-23c0,0,22,-24,23,-74c0,0,1,-29,7,-37c0,0,6,-8,17,-8c0,0,18,0,38,21c0,0,30,32,70,144l22,57L146,488c0,0,-50,118,-74,144c0,0,-25,27,-59,38v27H384V670c0,0,-36,-2,-51,-14c0,0,-15,-13,-15,-31c0,0,0,-28,37,-112L475,239l81,212c0,0,44,113,44,157c0,0,0,27,-18,44c0,0,-18,16,-65,18v27H750V670c0,0,-34,-4,-56,-27c0,0,-22,-22,-72,-155L422,-27c0,0,-75,-194,-111,-239c0,0,-52,-62,-129,-62Z" 
id="f0_2l"
transform="scale(0.001,-0.001)" />

<path d="M29,335v96H845V335Zm0,243v96H845V578Z" 
id="f0_x"
transform="scale(0.001,-0.001)" />

<path d="M49,0V26c0,0,47,1,67,11c0,0,20,10,28,28c0,0,7,18,7,75l-1,484H49v73H150v87c0,0,0,107,79,179c0,0,78,71,212,71c0,0,92,0,136,-34c0,0,45,-34,45,-76c0,0,0,-34,-28,-58c0,0,-28,-25,-73,-25c0,0,-39,0,-62,20c0,0,-22,20,-22,45c0,0,0,6,4,27c0,0,3,13,3,24c0,0,0,16,-9,23c0,0,-12,11,-29,11c0,0,-21,0,-36,-17c0,0,-15,-18,-15,-58l1,-130V697H460V624H356l1,-484c0,0,0,-70,15,-88c0,0,22,-26,81,-26c2,0,5,0,7,0V0Z" 
id="f0_22"
transform="scale(0.001,-0.001)" />

<path d="M34,0V26c0,0,51,0,93,28c0,0,42,28,123,147l58,85L188,509c0,0,-59,109,-88,133c0,0,-29,25,-65,28v27H419V669L362,656c0,0,-6,-6,-6,-18c0,0,0,-11,4,-23c0,0,2,-5,20,-40L435,473l27,41c0,0,60,82,60,115c0,0,0,15,-13,26c0,0,-13,11,-47,15v27H710V670c0,0,-46,-2,-85,-28c0,0,-40,-27,-89,-103L460,427L584,198c0,0,62,-121,99,-153c0,0,20,-17,55,-19V0H349V26c0,0,46,4,57,12c0,0,11,9,11,23c0,0,0,21,-24,66L332,240L281,165c0,0,-35,-52,-39,-62c0,0,-6,-14,-6,-25c0,0,0,-17,7,-29c0,0,7,-11,19,-17c0,0,13,-6,45,-6V0Z" 
id="f0_2k"
transform="scale(0.001,-0.001)" />

<path d="M491,-305c0,0,-180,60,-305,247C186,-58,61,127,61,368c0,0,0,239,124,423c0,0,125,184,306,243v-34c0,0,-78,-50,-115,-99c0,0,-50,-67,-79,-172c0,0,-36,-131,-36,-365c0,0,0,-221,33,-343c0,0,32,-122,88,-197c0,0,39,-52,109,-92v-37Z" 
id="f0_c"
transform="scale(0.001,-0.001)" />

<path d="M19,-305v34c0,0,77,52,114,100c0,0,50,67,79,171c0,0,36,131,36,365c0,0,0,221,-33,343c0,0,-32,122,-88,198c0,0,-39,52,-108,91v37c0,0,179,-60,304,-246c0,0,125,-186,125,-428c0,0,0,-238,-125,-421c0,0,-125,-184,-304,-244Z" 
id="f0_d"
transform="scale(0.001,-0.001)" />

<path d="M21,0V26H35c0,0,53,0,71,27c0,0,18,27,18,101V408c0,0,0,123,-5,150c0,0,-6,27,-17,37c0,0,-12,10,-31,10c0,0,-21,0,-50,-11L10,620l206,83h32V558c0,0,120,145,229,145c0,0,56,0,96,-28c0,0,40,-28,64,-92c0,0,16,-45,16,-137V154c0,0,0,-65,11,-88c0,0,8,-19,26,-29c0,0,18,-11,68,-11V0H419V26h14c0,0,47,0,66,15c0,0,20,15,27,43c0,0,3,11,3,70V434c0,0,0,93,-24,135c0,0,-24,42,-81,42c0,0,-88,0,-176,-97V154c0,0,0,-69,9,-86c0,0,10,-21,28,-31c0,0,19,-11,75,-11V0Z" 
id="f1_2a"
transform="scale(0.001,-0.001)" />

<path d="M286,72c0,0,57,0,149,75V407c0,0,-113,-45,-145,-64c0,0,-59,-32,-85,-68c0,0,-25,-36,-25,-78c0,0,0,-54,32,-89c0,0,32,-36,74,-36ZM217,-13c0,0,-71,0,-116,48c0,0,-46,48,-46,127c0,0,0,50,22,87c0,0,31,50,106,95c0,0,76,45,252,109v26c0,0,0,102,-32,140c0,0,-32,38,-94,38c0,0,-47,0,-74,-25c0,0,-28,-25,-28,-58l1,-43c0,0,0,-34,-17,-53c0,0,-18,-18,-47,-18c0,0,-28,0,-45,19c0,0,-18,19,-18,53c0,0,0,64,66,117c0,0,65,54,184,54c0,0,91,0,149,-31c0,0,44,-23,65,-72c0,0,13,-32,13,-131V238c0,0,0,-98,4,-120c0,0,4,-22,12,-29c0,0,9,-8,20,-8c0,0,12,0,21,5c0,0,16,10,61,55V99C676,99,592,-12,516,-12c0,0,-37,0,-58,24c0,0,-22,26,-23,86C435,98,330,17,303,5c0,0,-40,-18,-86,-18Z" 
id="f1_1x"
transform="scale(0.001,-0.001)" />

<path d="M255,-10c0,0,-35,0,-68,18c0,0,-32,19,-48,55c0,0,-16,35,-16,109V632H15v24c0,0,41,16,84,56c0,0,43,39,77,92c0,0,17,29,48,104h23V683H407V632H247V188c0,0,0,-66,19,-90c0,0,19,-23,49,-23c0,0,24,0,47,16c0,0,23,15,36,45h29c0,0,-26,-73,-74,-110c0,0,-47,-36,-98,-36Z" 
id="f1_2g"
transform="scale(0.001,-0.001)" />

<path d="M292,-20c0,0,-57,0,-100,33c0,0,-42,33,-58,85c0,0,-17,52,-17,148V551c0,0,0,49,-10,68c0,0,-11,18,-31,29c0,0,-19,9,-68,9c-2,0,-4,0,-6,0v26H242V226c0,0,0,-95,33,-125c0,0,33,-30,80,-30c0,0,32,0,73,21c0,0,40,20,96,76V555c0,0,0,59,-21,80c0,0,-22,21,-89,22v26H647V269c0,0,0,-119,6,-145c0,0,6,-27,18,-37c0,0,12,-11,29,-11c0,0,23,0,52,13L763,63L558,-20H524V124C524,124,436,29,390,4c0,0,-47,-24,-98,-24Z" 
id="f1_2h"
transform="scale(0.001,-0.001)" />

<path d="M17,0V26c0,0,52,0,77,17c0,0,19,12,26,38c0,0,4,13,4,73V419c0,0,0,119,-5,142c0,0,-4,23,-17,33c0,0,-13,11,-33,11c0,0,-23,0,-52,-11l-7,26l207,83h31V549c0,0,86,154,176,154c0,0,41,0,68,-25c0,0,27,-25,27,-58c0,0,0,-29,-20,-49c0,0,-19,-20,-46,-20c0,0,-26,0,-58,25c0,0,-33,26,-48,26c0,0,-14,0,-29,-15c0,0,-34,-30,-70,-101V159c0,0,0,-56,15,-85c0,0,9,-20,34,-34c0,0,24,-14,71,-14V0Z" 
id="f1_2e"
transform="scale(0.001,-0.001)" />

<path d="M479,469c0,0,-4,66,-16,93c0,0,-18,42,-55,65c0,0,-37,24,-78,24c0,0,-62,0,-111,-48c0,0,-48,-48,-57,-134ZM355,-20c0,0,-123,0,-211,95c0,0,-87,96,-87,258c0,0,0,175,90,273c0,0,89,98,225,98c0,0,115,0,189,-76c0,0,74,-75,74,-202H162c0,0,0,-152,74,-239c0,0,75,-86,175,-86c0,0,67,0,117,36c0,0,50,37,83,127l24,-15c0,0,-16,-102,-91,-186c0,0,-76,-83,-189,-83Z" 
id="f1_21"
transform="scale(0.001,-0.001)" />

<path d="M406,32c0,0,72,0,119,60c0,0,47,59,47,205c0,0,0,181,-78,286c0,0,-53,71,-135,71c0,0,-40,0,-79,-23c0,0,-40,-24,-65,-83c0,0,-24,-58,-24,-151c0,0,0,-149,59,-257c0,0,59,-108,156,-108ZM374,-20c0,0,-154,0,-245,122c0,0,-77,104,-77,233c0,0,0,94,46,187c0,0,47,92,123,137c0,0,76,44,161,44c0,0,155,0,249,-118c0,0,80,-100,80,-231c0,0,0,-91,-44,-185C667,169,623,75,546,27c0,0,-77,-47,-172,-47Z" 
id="f1_2b"
transform="scale(0.001,-0.001)" />

<path d="M63,0V26H93c0,0,30,0,54,15c0,0,25,15,34,41c0,0,10,25,10,99V630H58v53H191v45c0,0,0,102,33,173c0,0,32,71,100,114c0,0,68,44,152,44c0,0,79,0,145,-51c0,0,43,-33,43,-75c0,0,0,-22,-19,-42c0,0,-20,-20,-42,-20c0,0,-17,0,-36,12c0,0,-19,13,-47,53c0,0,-28,41,-51,55c0,0,-23,14,-51,14c0,0,-35,0,-58,-18c0,0,-24,-18,-35,-57c0,0,-10,-38,-10,-197V683H491V630H315V181c0,0,0,-96,21,-122c0,0,27,-33,73,-33h62V0Z" 
id="f1_22"
transform="scale(0.001,-0.001)" />

<path d="M312,-20c0,0,-62,0,-143,22c0,0,-25,8,-40,8c0,0,-18,0,-27,-19H77V234h25c0,0,21,-105,80,-158c0,0,59,-53,132,-53c0,0,51,0,84,31c0,0,32,30,32,72c0,0,0,52,-36,87c0,0,-36,35,-144,88c0,0,-109,54,-142,97c0,0,-34,43,-34,107c0,0,0,85,58,141c0,0,58,57,150,57c0,0,40,0,97,-17c0,0,38,-11,51,-11c0,0,12,0,19,5c0,0,7,5,15,23h25V470H464c0,0,-28,110,-72,149c0,0,-45,40,-113,40c0,0,-53,0,-85,-28c0,0,-32,-27,-32,-61c0,0,0,-41,24,-71c0,0,23,-31,94,-65L389,381c0,0,152,-74,152,-194c0,0,0,-94,-71,-151c0,0,-70,-56,-158,-56Z" 
id="f1_2f"
transform="scale(0.001,-0.001)" />

<path d="M58,0V26c0,0,47,0,64,10c0,0,18,10,28,32c0,0,9,23,9,86V775c0,0,0,116,-5,142c0,0,-5,27,-17,37c0,0,-11,9,-29,9c0,0,-20,0,-49,-12L46,978l204,83h34V154c0,0,0,-64,9,-85c0,0,9,-21,29,-32c0,0,19,-11,72,-11V0Z" 
id="f1_28"
transform="scale(0.001,-0.001)" />

<path d="M398,24c0,0,74,0,120,58c0,0,61,76,61,214c0,0,0,156,-69,240c0,0,-47,59,-113,59c0,0,-36,0,-71,-18c0,0,-27,-14,-88,-81V242c0,0,0,-83,6,-109c0,0,11,-43,51,-76c0,0,41,-33,103,-33ZM-4,-326v27H15c5,0,42,0,69,16c0,0,14,8,22,26c0,0,7,19,7,94V481c0,0,0,67,-6,85c0,0,-5,18,-18,27c0,0,-13,9,-36,9c0,0,-18,0,-45,-10L0,615l209,85h29V540c0,0,53,91,106,127c0,0,53,36,112,36c0,0,103,0,172,-80c0,0,84,-99,84,-257c0,0,0,-176,-102,-292c0,0,-83,-94,-210,-94c0,0,-55,0,-95,16c0,0,-30,10,-67,44V-167c0,0,0,-71,8,-90c0,0,9,-20,30,-31c0,0,21,-11,77,-11v-27Z" 
id="f1_2c"
transform="scale(0.001,-0.001)" />

<path d="M213,-20c0,0,-34,0,-58,24c0,0,-24,24,-24,58c0,0,0,34,24,58c0,0,24,25,58,25c0,0,35,0,59,-25c0,0,24,-24,24,-58c0,0,0,-34,-24,-58c0,0,-25,-24,-59,-24Zm3,559c0,0,-35,0,-59,24c0,0,-24,24,-24,58c0,0,0,35,24,59c0,0,24,24,59,24c0,0,34,0,58,-24c0,0,24,-24,24,-59c0,0,0,-34,-24,-58c0,0,-24,-24,-58,-24Z" 
id="f1_u"
transform="scale(0.001,-0.001)" />

<path d="M411,-239c0,0,134,0,198,48c0,0,64,47,64,100c0,0,0,39,-38,55c0,0,-39,16,-154,19c0,0,-167,5,-258,17c0,0,-35,-37,-53,-70c0,0,-17,-32,-17,-60c0,0,0,-36,43,-62c0,0,74,-47,215,-47ZM380,257c0,0,56,0,93,43c0,0,36,42,36,133c0,0,0,118,-51,185c0,0,-38,49,-98,49c0,0,-55,0,-92,-44c0,0,-37,-44,-37,-135c0,0,0,-117,50,-182c0,0,39,-49,99,-49ZM345,-328c0,0,-144,0,-243,64c0,0,-56,38,-56,78c0,0,0,18,8,36c0,0,13,27,52,76c0,0,5,7,76,80c0,0,-39,23,-55,41c0,0,-16,19,-16,42c0,0,0,26,22,61c0,0,21,35,98,100c0,0,-63,30,-97,85c0,0,-33,55,-33,121c0,0,0,101,76,174c0,0,77,73,196,73c0,0,98,0,170,-48H688c0,0,32,0,37,-2c0,0,6,-2,8,-6c0,0,4,-7,4,-24c0,0,0,-20,-4,-27c0,0,-2,-4,-7,-6c0,0,-6,-2,-38,-2H599c0,0,41,-54,41,-137c0,0,0,-96,-73,-163c0,0,-73,-68,-196,-68c0,0,-51,0,-104,15c0,0,-33,-28,-44,-49c0,0,-12,-22,-12,-37c0,0,0,-12,13,-24c0,0,12,-12,48,-17c0,0,21,-4,104,-6c0,0,154,-4,199,-11c0,0,70,-10,111,-51c0,0,42,-41,42,-102c0,0,0,-84,-79,-158c0,0,-117,-108,-304,-108Z" 
id="f1_23"
transform="scale(0.001,-0.001)" />

<path d="M55,0V26c0,0,50,0,67,10c0,0,17,10,27,32c0,0,10,23,10,86V418c0,0,0,111,-6,144c0,0,-6,24,-17,33c0,0,-11,10,-30,10c0,0,-21,0,-51,-11L45,620l206,83h33V154c0,0,0,-64,9,-85c0,0,9,-22,27,-32c0,0,19,-11,67,-11V0ZM222,909c0,0,-32,0,-54,23c0,0,-22,22,-22,53c0,0,0,32,22,54c0,0,22,22,54,22c0,0,31,0,53,-22c0,0,22,-22,22,-54c0,0,0,-31,-22,-53c0,0,-22,-23,-53,-23Z" 
id="f1_25"
transform="scale(0.001,-0.001)" />

<path d="M376,-20L133,556c0,0,-17,41,-31,58c0,0,-15,18,-39,30c0,0,-12,7,-50,13v26H335V657H314c0,0,-29,0,-44,-14c0,0,-16,-14,-15,-38c0,0,-1,-26,15,-62L429,165L588,557c0,0,17,42,17,64c0,0,0,10,-6,17c0,0,-8,11,-21,15c0,0,-13,4,-52,4v26H750V657c0,0,-39,-3,-54,-16c0,0,-26,-23,-47,-76L409,-20Z" 
id="f1_2i"
transform="scale(0.001,-0.001)" />

<path d="M23,0V26c0,0,47,0,66,10c0,0,19,11,28,33c0,0,10,22,10,85V416c0,0,0,112,-7,145c0,0,-5,25,-16,34c0,0,-11,10,-31,10c0,0,-21,0,-50,-11L12,620l207,83h32V557c0,0,75,75,88,86c0,0,34,29,72,44c0,0,39,16,77,16c0,0,64,0,110,-37c0,0,47,-38,62,-109c0,0,77,90,130,118c0,0,53,28,109,28c0,0,54,0,96,-28c0,0,42,-28,67,-91c0,0,16,-43,16,-136V154c0,0,0,-64,10,-88c0,0,8,-16,28,-28c0,0,20,-12,65,-12V0H844V26h14c0,0,44,0,69,18c0,0,17,12,24,38c0,0,3,13,3,72V448c0,0,0,83,-20,117c0,0,-29,48,-93,48c0,0,-39,0,-79,-20c0,0,-40,-19,-97,-73l-1,-8l2,-32V154c0,0,0,-70,8,-87c0,0,7,-17,29,-29c0,0,21,-12,73,-12V0H431V26c0,0,57,0,78,14c0,0,21,13,29,40c0,0,4,13,4,74V448c0,0,0,83,-25,120c0,0,-33,48,-91,48c0,0,-40,0,-80,-22c0,0,-61,-33,-95,-74V154c0,0,0,-67,10,-87c0,0,9,-20,27,-30c0,0,18,-11,74,-11V0Z" 
id="f1_29"
transform="scale(0.001,-0.001)" />

<path d="M399,62c0,0,68,0,131,68V481c0,0,-5,51,-27,93c0,0,-22,42,-59,63c0,0,-37,21,-72,21c0,0,-65,0,-117,-59c0,0,-67,-77,-67,-226c0,0,0,-151,65,-231c0,0,66,-80,146,-80ZM330,-20c0,0,-112,0,-196,93c0,0,-83,94,-83,240c0,0,0,147,92,269c0,0,93,122,238,122c0,0,90,0,149,-58V773c0,0,0,117,-6,144c0,0,-5,27,-17,37c0,0,-12,9,-30,9c0,0,-20,0,-52,-12l-9,27l204,83h33V270c0,0,0,-120,6,-146c0,0,5,-27,18,-37c0,0,12,-11,28,-11c0,0,21,0,54,13l9,-26L564,-20H530V78C530,78,480,25,432,2c0,0,-47,-22,-102,-22Z" 
id="f1_20"
transform="scale(0.001,-0.001)" />

<path d="M342,-20c0,0,-116,0,-203,97c0,0,-86,98,-86,264c0,0,0,161,96,261c0,0,95,101,230,101c0,0,100,0,165,-53c0,0,65,-54,65,-111c0,0,0,-29,-18,-46c0,0,-18,-18,-51,-18c0,0,-44,0,-66,29c0,0,-13,15,-17,59c0,0,-4,45,-30,68c0,0,-26,22,-73,22c0,0,-74,0,-120,-55c0,0,-60,-73,-60,-193c0,0,0,-122,60,-216c0,0,60,-93,162,-93c0,0,73,0,131,49c0,0,41,35,80,126l22,-10C629,261,601,125,521,52c0,0,-81,-72,-179,-72Z" 
id="f1_1z"
transform="scale(0.001,-0.001)" />

<path d="M55,0l1,144H94c0,0,44,0,59,7c0,0,15,7,22,23c0,0,6,12,6,61V803c0,0,0,47,-7,62c0,0,-7,16,-22,24c0,0,-15,8,-54,8H56v143H564V897H531c0,0,-49,0,-60,-6c0,0,-18,-8,-26,-23c0,0,-8,-14,-8,-55V537L761,836c0,0,22,21,26,28c0,0,5,7,5,12c0,0,0,10,-9,15c0,0,-8,6,-43,6H698v143h470V897h-15c0,0,-33,0,-46,-4c0,0,-12,-3,-31,-14c0,0,-18,-11,-47,-37L778,625L1078,219c0,0,38,-52,56,-62c0,0,24,-13,69,-13h20V0H698V144h21c0,0,57,0,70,5c0,0,12,5,12,13c0,0,0,9,-23,43L594,466L437,330V225c0,0,0,-39,8,-54c0,0,7,-15,21,-21c0,0,14,-6,56,-6h42V0Z" 
id="f2_1b"
transform="scale(0.001,-0.001)" />

<path d="M52,0V144H93c0,0,44,0,58,6c0,0,13,6,20,20c0,0,6,14,6,55V803c0,0,0,49,-6,64c0,0,-7,15,-22,24c0,0,-10,6,-51,6H52v143H559V897H513c0,0,-40,0,-53,-7c0,0,-13,-8,-20,-23c0,0,-6,-15,-6,-58V233c0,0,0,-47,5,-61c0,0,6,-13,18,-19c0,0,16,-9,47,-9h55V0Z" 
id="f2_19"
transform="scale(0.001,-0.001)" />

<path d="M59,0V144h44c0,0,37,0,51,6c0,0,14,6,22,22c0,0,8,16,8,47V816c0,0,0,34,-8,50c0,0,-7,16,-20,24c0,0,-12,7,-42,7H59v143H480L786,433V805c0,0,0,48,-5,60c0,0,-8,17,-20,25c0,0,-13,7,-49,7H661v143h428V897h-47c0,0,-36,0,-51,-9c0,0,-15,-8,-21,-22c0,0,-6,-14,-6,-61V0H750L364,767V230c0,0,0,-46,5,-59c0,0,6,-12,20,-20c0,0,15,-7,50,-7h50V0Z" 
id="f2_1e"
transform="scale(0.001,-0.001)" />

<path d="M59,0V144H85c0,0,52,0,70,7c0,0,18,8,25,26c0,0,4,11,4,64V808c0,0,0,46,-7,60c0,0,-6,14,-19,22c0,0,-14,7,-53,7H59v143H928L1046,712L911,663c0,0,-34,81,-80,130c0,0,-46,49,-102,65c0,0,-55,16,-129,16H441V615h52c0,0,59,0,80,9c0,0,20,8,29,26c0,0,9,19,9,73v40H744V322H611v45c0,0,0,45,-11,66c0,0,-11,21,-29,29c0,0,-19,7,-83,7H441V230c0,0,0,-38,4,-47c0,0,3,-8,14,-12c0,0,11,-5,47,-5h87c0,0,98,0,165,28c0,0,67,28,120,91c0,0,53,63,81,149l136,-47L959,0Z" 
id="f2_15"
transform="scale(0.001,-0.001)" />

<path d="M59,0V144h42c0,0,39,0,54,7c0,0,15,7,22,22c0,0,7,15,7,57V813c0,0,0,40,-5,52c0,0,-7,17,-21,24c0,0,-13,8,-42,8H59v143H530L711,408l185,632h481V897h-52c0,0,-41,0,-57,-18c0,0,-16,-17,-16,-66V222c0,0,0,-39,4,-48c0,0,7,-15,19,-21c0,0,16,-9,43,-9h59V0H876V144h39c0,0,42,0,57,6c0,0,15,7,22,21c0,0,7,14,7,51V862L748,0H604L359,835V202c0,0,0,-22,8,-34c0,0,8,-12,22,-18c0,0,15,-6,47,-6h50V0Z" 
id="f2_1d"
transform="scale(0.001,-0.001)" />

<path d="M610,480L509,765L404,480ZM2,0V144c0,0,39,0,56,6c0,0,18,7,30,21c0,0,11,13,25,49l322,820H669L981,237c0,0,25,-64,45,-79c0,0,19,-14,68,-14c2,0,3,0,5,0V0H606V144h30c0,0,41,0,58,11c0,0,16,11,16,27c0,0,0,13,-14,55l-32,94H349L310,226c0,0,-12,-33,-12,-44c0,0,0,-11,8,-21c0,0,9,-10,28,-14c0,0,13,-3,71,-3V0Z" 
id="f2_11"
transform="scale(0.001,-0.001)" />

<path d="M280,0V144h30c0,0,51,0,66,6c0,0,14,6,21,22c0,0,8,17,8,67V851c0,0,0,26,-6,33c0,0,-6,7,-26,7c0,0,-38,0,-86,-29c0,0,-48,-29,-85,-82c0,0,-15,-21,-63,-118L2,711l128,365h99l10,-36H826l13,36h99L1067,711L928,662c0,0,-46,91,-66,119c0,0,-40,55,-92,86c0,0,-38,24,-77,24c0,0,-18,0,-24,-9c0,0,-7,-8,-7,-39V244c0,0,0,-53,4,-66c0,0,3,-13,12,-21c0,0,9,-8,25,-11c0,0,16,-2,84,-2V0Z" 
id="f2_1k"
transform="scale(0.001,-0.001)" />

<path d="M579,-17c0,0,-147,0,-266,70c0,0,-119,70,-189,197c0,0,-71,127,-71,277c0,0,0,149,69,271c0,0,69,123,187,191c0,0,119,69,265,69c0,0,149,0,260,-62l25,44H965L1067,667L928,627c0,0,-69,133,-130,189c0,0,-85,77,-185,77c0,0,-72,0,-135,-41c0,0,-63,-40,-100,-118c0,0,-37,-78,-37,-183c0,0,0,-161,85,-276c0,0,85,-116,222,-116c0,0,87,0,168,50c0,0,100,62,173,167l116,-86C1105,290,992,136,899,76c0,0,-144,-93,-320,-93Z" 
id="f2_13"
transform="scale(0.001,-0.001)" />

<path d="M567,-17c0,0,-83,0,-152,21c0,0,-70,21,-145,71L237,0H126L52,404l140,33c0,0,49,-123,153,-205c0,0,104,-82,228,-82c0,0,56,0,93,14c0,0,37,14,56,39c0,0,18,25,18,52c0,0,0,45,-43,77c0,0,-44,32,-154,63L369,446c0,0,-40,11,-107,42c0,0,-68,31,-104,64c0,0,-36,34,-60,86c0,0,-24,53,-24,111c0,0,0,83,46,153c0,0,46,69,138,113c0,0,92,43,204,43c0,0,135,0,244,-70l29,52H842L932,692L792,652c0,0,-69,125,-157,183c0,0,-88,58,-187,58c0,0,-64,0,-101,-26c0,0,-37,-27,-37,-59c0,0,0,-36,34,-67c0,0,32,-32,121,-56L665,626c0,0,166,-47,237,-126c0,0,70,-80,70,-186c0,0,0,-135,-107,-229C865,85,745,-17,567,-17Z" 
id="f2_1j"
transform="scale(0.001,-0.001)" />


</defs>
</svg>