<?xml version="1.0" encoding="UTF-8" standalone="no"?>
<!DOCTYPE svg PUBLIC "-//W3C//DTD SVG 1.1//EN"
"http://www.w3.org/Graphics/SVG/1.1/DTD/svg11.dtd">
<svg viewBox="0 0 909 1286" version="1.1" xmlns="http://www.w3.org/2000/svg" xmlns:xlink="http://www.w3.org/1999/xlink">
<defs>
<clipPath id="c0_24"><path d="M199.5,407.6V394.2h88.3v13.4Z" /></clipPath>
<clipPath id="c1_24"><path d="M124.9,480.3V462h76.8v18.3Z" /></clipPath>
<clipPath id="c2_24"><path d="M102.9,472.3V459.1h87.2v13.2Z" /></clipPath>
<clipPath id="c3_24"><path d="M208.1,472.6V459.1h6.2v13.5Z" /></clipPath>
<clipPath id="c4_24"><path d="M189.9,1051.6v-17.8H310.2v17.8Z" /></clipPath>
<clipPath id="c5_24"><path d="M200.6,1051.2V1032h98.8v19.2Z" /></clipPath>
<clipPath id="c6_24"><path d="M202.6,1089v-18.3h89.5V1089Z" /></clipPath>
<clipPath id="c7_24"><path d="M511.7,654.1V640.9h21.1v13.2Z" /></clipPath>
<clipPath id="c8_24"><path d="M549.3,658.2V640.9h6v17.3Z" /></clipPath>
<clipPath id="c9_24"><path d="M511.1,731.1v-17h93v17Z" /></clipPath>
<clipPath id="c10_24"><path d="M511.7,722.5V709.1h92.4v13.4Z" /></clipPath>
<clipPath id="c11_24"><path d="M514.1,766V751.1h19.8V766Z" /></clipPath>
<clipPath id="c12_24"><path d="M513.5,828.1v-17h20.6v17Z" /></clipPath>
<clipPath id="c13_24"><path d="M514.1,819.7V804.8h20v14.9Z" /></clipPath>
<clipPath id="c14_24"><path d="M506,875V857.4h38.9V875Z" /></clipPath>
<clipPath id="c15_24"><path d="M506.4,879.6V862h38.5v17.6Z" /></clipPath>
<clipPath id="c16_24"><path d="M511.7,940.1V926.9h20v13.2Z" /></clipPath>
<clipPath id="c17_24"><path d="M511.1,991.5V974.4h20.6v17.1Z" /></clipPath>
<clipPath id="c18_24"><path d="M511.7,983V969.6h20V983Z" /></clipPath>
<clipPath id="c19_24"><path d="M595.1,990.4V972.6h5.5v17.8Z" /></clipPath>
<clipPath id="c20_24"><path d="M583,1030.9v-17.8h70.4v17.8Z" /></clipPath>
<clipPath id="c21_24"><path d="M511.1,1035.5v-17.8H653.4v17.8Z" /></clipPath>
<clipPath id="c22_24"><path d="M522.1,1035.1v-19.2H643v19.2Z" /></clipPath>
<clipPath id="c23_24"><path d="M511.7,1030.3v-17.4h6.2v17.4Z" /></clipPath>
<style type="text/css"><![CDATA[
.g0_24{
fill: #FFFFFF;
}
.g1_24{
}
.g2_24{
fill: none;
stroke: #000000;
stroke-width: 0.73333335;
stroke-linecap: round;
stroke-linejoin: round;
}
]]></style>
</defs>
<path fill-rule="evenodd" d="M54.1,68H856.2V96.4H54.1V68l1.5,27H854.7V69.7H55.6V95L54.1,68Z" class="g0_24" />
<path fill-rule="evenodd" d="M55.6,93.3H855.1v3H55.6v-3Z" class="g1_24" />
<path fill-rule="evenodd" d="M55.6,68.2H855.1v3.1H55.6V68.2Z" class="g1_24" />
<g fill="#000000" >
<use xlink:href="#f0_1b" transform="matrix(10,0,0,10,61.2,86.7)" />
<use xlink:href="#f0_19" transform="matrix(10,0,0,10,73.5,86.7)" />
<use xlink:href="#f0_1e" transform="matrix(10,0,0,10,79.6,86.7)" />
<use xlink:href="#f0_15" transform="matrix(10,0,0,10,90.8,86.7)" />
<use xlink:href="#f0_1d" transform="matrix(10,0,0,10,102.1,86.7)" />
<use xlink:href="#f0_11" transform="matrix(10,0,0,10,116.2,86.7)" />
<use xlink:href="#f0_1k" transform="matrix(10,0,0,10,127.6,86.7)" />
<use xlink:href="#f0_19" transform="matrix(10,0,0,10,138.2,86.7)" />
<use xlink:href="#f0_13" transform="matrix(10,0,0,10,144.5,86.7)" />
<use xlink:href="#f0_1j" transform="matrix(10,0,0,10,155.5,86.7)" />
</g>
<path fill-rule="evenodd" d="M55,1176.5H853.4v2.3H55v-2.3Z" class="g1_24" />
<path fill-rule="evenodd" d="M453.9,1176.3V109.8h1.7V1176.3h-1.7Z" class="g1_24" />
<g fill="#000000" >
<use xlink:href="#f1_1q" transform="matrix(10,0,0,10,99.7,123)" />
<use xlink:href="#f1_21" transform="matrix(10,0,0,10,109.5,123)" />
<use xlink:href="#f1_2e" transform="matrix(10,0,0,10,116.1,123)" />
<use xlink:href="#f1_2b" transform="matrix(10,0,0,10,122.7,123)" />
<use xlink:href="#f1_2i" transform="matrix(10,0,0,10,134.2,123)" />
<use xlink:href="#f1_21" transform="matrix(10,0,0,10,142.1,123)" />
<use xlink:href="#f1_1z" transform="matrix(10,0,0,10,148.7,123)" />
<use xlink:href="#f1_2g" transform="matrix(10,0,0,10,155.7,123)" />
<use xlink:href="#f1_2b" transform="matrix(10,0,0,10,160.6,123)" />
<use xlink:href="#f1_2e" transform="matrix(10,0,0,10,168.5,123)" />
</g>
<image preserveAspectRatio="none" x="186" y="178" width="129" height="162" xlink:href="img/1.png" />
<g fill="#000000" >
<use xlink:href="#f2_19" transform="matrix(10,0,0,10,99.7,410.1)" />
<use xlink:href="#f2_2a" transform="matrix(10,0,0,10,104.9,410.1)" />
<use xlink:href="#f2_2g" transform="matrix(10,0,0,10,117.5,410.1)" />
<use xlink:href="#f2_24" transform="matrix(10,0,0,10,121.9,410.1)" />
<use xlink:href="#f2_25" transform="matrix(10,0,0,10,129.3,410.1)" />
<use xlink:href="#f2_2f" transform="matrix(10,0,0,10,133.5,410.1)" />
<use xlink:href="#f2_2g" transform="matrix(10,0,0,10,144.7,410.1)" />
<use xlink:href="#f2_2e" transform="matrix(10,0,0,10,148.7,410.1)" />
<use xlink:href="#f2_25" transform="matrix(10,0,0,10,153.8,410.1)" />
<use xlink:href="#f2_1x" transform="matrix(10,0,0,10,158,410.1)" />
<use xlink:href="#f2_2a" transform="matrix(10,0,0,10,165,410.1)" />
<use xlink:href="#f2_23" transform="matrix(10,0,0,10,172.3,410.1)" />
<use xlink:href="#f2_28" transform="matrix(10,0,0,10,179.9,410.1)" />
<use xlink:href="#f2_21" transform="matrix(10,0,0,10,184.1,410.1)" />
<use xlink:href="#f2_1g" transform="matrix(10,0,0,10,198.9,412.1)" />
<use xlink:href="#f2_1h" transform="matrix(10,0,0,10,207.7,412.1)" />
<use xlink:href="#f2_1h" transform="matrix(10,0,0,10,232.6,412.1)" />
<use xlink:href="#f2_1i" transform="matrix(10,0,0,10,243.6,412.1)" />
<use xlink:href="#f2_1g" transform="matrix(10,0,0,10,268.9,412.1)" />
<use xlink:href="#f2_1i" transform="matrix(10,0,0,10,277.6,412.1)" />
<use xlink:href="#f3_f" transform="matrix(10,0,0,10,221.7,412.1)" />
<use xlink:href="#f3_f" transform="matrix(10,0,0,10,257.6,412.1)" />
</g>
<g clip-path="url(#c0_24)">
<g fill="#000000" >
<use xlink:href="#f4_23" transform="matrix(10,0,0,10,199.5,398.9)" />
<use xlink:href="#f4_23" transform="matrix(10,0,0,10,204.8,398.9)" />
<use xlink:href="#f4_23" transform="matrix(10,0,0,10,210.3,398.9)" />
<use xlink:href="#f4_20" transform="matrix(10,0,0,10,212.1,398.9)" />
<use xlink:href="#f4_23" transform="matrix(10,0,0,10,233,398.9)" />
<use xlink:href="#f4_23" transform="matrix(10,0,0,10,238.5,398.9)" />
<use xlink:href="#f4_23" transform="matrix(10,0,0,10,244.2,398.9)" />
<use xlink:href="#f4_20" transform="matrix(10,0,0,10,247.9,398.9)" />
<use xlink:href="#f4_23" transform="matrix(10,0,0,10,269.1,398.9)" />
<use xlink:href="#f4_23" transform="matrix(10,0,0,10,274.6,398.9)" />
<use xlink:href="#f4_23" transform="matrix(10,0,0,10,280,398.9)" />
<use xlink:href="#f4_20" transform="matrix(10,0,0,10,281.6,398.9)" />
</g>
</g>
<g fill="#000000" >
<use xlink:href="#f2_29" transform="matrix(10,0,0,10,291.3,410.1)" />
<use xlink:href="#f2_2h" transform="matrix(10,0,0,10,303.1,410.1)" />
<use xlink:href="#f2_2f" transform="matrix(10,0,0,10,310.4,410.1)" />
<use xlink:href="#f2_2g" transform="matrix(10,0,0,10,316.4,410.1)" />
<use xlink:href="#f2_1y" transform="matrix(10,0,0,10,326,410.1)" />
<use xlink:href="#f2_21" transform="matrix(10,0,0,10,333.5,410.1)" />
<use xlink:href="#f2_21" transform="matrix(10,0,0,10,345.8,410.1)" />
<use xlink:href="#f2_2d" transform="matrix(10,0,0,10,352.4,410.1)" />
<use xlink:href="#f2_2h" transform="matrix(10,0,0,10,360.3,410.1)" />
<use xlink:href="#f2_1x" transform="matrix(10,0,0,10,367.6,410.1)" />
<use xlink:href="#f2_28" transform="matrix(10,0,0,10,374.6,410.1)" />
<use xlink:href="#f2_2g" transform="matrix(10,0,0,10,383.9,410.1)" />
<use xlink:href="#f2_2b" transform="matrix(10,0,0,10,388.1,410.1)" />
<use xlink:href="#f2_2m" transform="matrix(10,0,0,10,401.3,410.1)" />
<use xlink:href="#f2_21" transform="matrix(10,0,0,10,408.1,410.1)" />
<use xlink:href="#f2_2e" transform="matrix(10,0,0,10,414.9,410.1)" />
<use xlink:href="#f2_2b" transform="matrix(10,0,0,10,420,410.1)" />
<use xlink:href="#f2_1x" transform="matrix(10,0,0,10,433.1,410.1)" />
<use xlink:href="#f2_2f" transform="matrix(10,0,0,10,439.8,410.1)" />
<use xlink:href="#f2_2g" transform="matrix(10,0,0,10,99.7,439.4)" />
<use xlink:href="#f2_24" transform="matrix(10,0,0,10,104,439.4)" />
<use xlink:href="#f2_21" transform="matrix(10,0,0,10,111.3,439.4)" />
<use xlink:href="#f2_2b" transform="matrix(10,0,0,10,121.6,439.4)" />
<use xlink:href="#f2_2i" transform="matrix(10,0,0,10,129.1,439.4)" />
<use xlink:href="#f2_21" transform="matrix(10,0,0,10,136.8,439.4)" />
<use xlink:href="#f2_2e" transform="matrix(10,0,0,10,143.6,439.4)" />
<use xlink:href="#f2_1x" transform="matrix(10,0,0,10,148.7,439.4)" />
<use xlink:href="#f2_28" transform="matrix(10,0,0,10,155.5,439.4)" />
<use xlink:href="#f2_28" transform="matrix(10,0,0,10,159.5,439.4)" />
<use xlink:href="#f2_26" transform="matrix(10,0,0,10,167,439.4)" />
<use xlink:href="#f2_2b" transform="matrix(10,0,0,10,171.6,439.4)" />
<use xlink:href="#f2_2h" transform="matrix(10,0,0,10,179.3,439.4)" />
<use xlink:href="#f2_2e" transform="matrix(10,0,0,10,186.8,439.4)" />
<use xlink:href="#f2_2a" transform="matrix(10,0,0,10,192,439.4)" />
<use xlink:href="#f2_21" transform="matrix(10,0,0,10,199.3,439.4)" />
<use xlink:href="#f2_2l" transform="matrix(10,0,0,10,206.3,439.4)" />
<use xlink:href="#f2_2e" transform="matrix(10,0,0,10,216.9,439.4)" />
<use xlink:href="#f2_21" transform="matrix(10,0,0,10,222,439.4)" />
<use xlink:href="#f2_2f" transform="matrix(10,0,0,10,228.8,439.4)" />
<use xlink:href="#f2_2h" transform="matrix(10,0,0,10,234.5,439.4)" />
<use xlink:href="#f2_28" transform="matrix(10,0,0,10,242,439.4)" />
<use xlink:href="#f2_2g" transform="matrix(10,0,0,10,246.2,439.4)" />
<use xlink:href="#f2_2f" transform="matrix(10,0,0,10,250.5,439.4)" />
<use xlink:href="#f2_25" transform="matrix(10,0,0,10,259.8,439.4)" />
<use xlink:href="#f2_2a" transform="matrix(10,0,0,10,263.8,439.4)" />
<use xlink:href="#f2_1x" transform="matrix(10,0,0,10,274.7,439.4)" />
<use xlink:href="#f2_2e" transform="matrix(10,0,0,10,285.1,439.4)" />
<use xlink:href="#f2_21" transform="matrix(10,0,0,10,290.2,439.4)" />
<use xlink:href="#f2_2g" transform="matrix(10,0,0,10,297,439.4)" />
<use xlink:href="#f2_2h" transform="matrix(10,0,0,10,301.2,439.4)" />
<use xlink:href="#f2_2e" transform="matrix(10,0,0,10,308.6,439.4)" />
<use xlink:href="#f2_2a" transform="matrix(10,0,0,10,313.9,439.4)" />
<use xlink:href="#f2_2g" transform="matrix(10,0,0,10,324.7,439.4)" />
<use xlink:href="#f2_2b" transform="matrix(10,0,0,10,328.9,439.4)" />
<use xlink:href="#f2_2g" transform="matrix(10,0,0,10,339.8,439.4)" />
<use xlink:href="#f2_24" transform="matrix(10,0,0,10,344,439.4)" />
<use xlink:href="#f2_21" transform="matrix(10,0,0,10,351.7,439.4)" />
<use xlink:href="#f2_2f" transform="matrix(10,0,0,10,361.6,439.4)" />
<use xlink:href="#f2_2g" transform="matrix(10,0,0,10,367.4,439.4)" />
<use xlink:href="#f2_1x" transform="matrix(10,0,0,10,371.8,439.4)" />
<use xlink:href="#f2_2e" transform="matrix(10,0,0,10,378.6,439.4)" />
<use xlink:href="#f2_2g" transform="matrix(10,0,0,10,383.7,439.4)" />
<use xlink:href="#f2_25" transform="matrix(10,0,0,10,387.9,439.4)" />
<use xlink:href="#f2_2a" transform="matrix(10,0,0,10,392.2,439.4)" />
<use xlink:href="#f2_23" transform="matrix(10,0,0,10,399.5,439.4)" />
<use xlink:href="#f2_2c" transform="matrix(10,0,0,10,410.3,439.4)" />
<use xlink:href="#f2_2b" transform="matrix(10,0,0,10,418.2,439.4)" />
<use xlink:href="#f2_25" transform="matrix(10,0,0,10,425.9,439.4)" />
<use xlink:href="#f2_2a" transform="matrix(10,0,0,10,429.9,439.4)" />
<use xlink:href="#f2_2g" transform="matrix(10,0,0,10,437.6,439.4)" />
<use xlink:href="#f2_i" transform="matrix(10,0,0,10,441.7,439.4)" />
<use xlink:href="#f2_1g" transform="matrix(9.8,0,0,9.8,102.5,477)" />
<use xlink:href="#f2_1h" transform="matrix(9.8,0,0,9.8,110.9,477)" />
<use xlink:href="#f2_1h" transform="matrix(9.8,0,0,9.8,135.7,477)" />
<use xlink:href="#f2_1i" transform="matrix(9.8,0,0,9.8,146.5,477)" />
<use xlink:href="#f2_1i" transform="matrix(9.8,0,0,9.8,171.4,477)" />
<use xlink:href="#f2_1g" transform="matrix(9.8,0,0,9.8,181.9,477)" />
<use xlink:href="#f2_1f" transform="matrix(9.8,0,0,9.8,205.5,477)" />
</g>
<g clip-path="url(#c1_24)">
<g fill="#000000" >
<use xlink:href="#f3_f" transform="matrix(9.8,0,0,9.8,124.7,477)" />
<use xlink:href="#f3_f" transform="matrix(9.8,0,0,9.8,160.4,477)" />
<use xlink:href="#f3_x" transform="matrix(9.8,0,0,9.8,193.8,477)" />
</g>
</g>
<g clip-path="url(#c2_24)">
<g fill="#000000" >
<use xlink:href="#f4_23" transform="matrix(9.8,0,0,9.8,102.9,463.6)" />
<use xlink:href="#f4_23" transform="matrix(9.8,0,0,9.8,108,463.6)" />
<use xlink:href="#f4_23" transform="matrix(9.8,0,0,9.8,113.5,463.6)" />
<use xlink:href="#f4_20" transform="matrix(9.8,0,0,9.8,115.1,463.6)" />
<use xlink:href="#f4_23" transform="matrix(9.8,0,0,9.8,136,463.6)" />
<use xlink:href="#f4_23" transform="matrix(9.8,0,0,9.8,141.7,463.6)" />
<use xlink:href="#f4_23" transform="matrix(9.8,0,0,9.8,147.2,463.6)" />
<use xlink:href="#f4_20" transform="matrix(9.8,0,0,9.8,150.9,463.6)" />
<use xlink:href="#f4_23" transform="matrix(9.8,0,0,9.8,171.8,463.6)" />
<use xlink:href="#f4_23" transform="matrix(9.8,0,0,9.8,177.3,463.6)" />
<use xlink:href="#f4_23" transform="matrix(9.8,0,0,9.8,182.2,463.6)" />
<use xlink:href="#f4_20" transform="matrix(9.8,0,0,9.8,183.9,463.6)" />
</g>
</g>
<g clip-path="url(#c3_24)">
<g fill="#000000" >
<use xlink:href="#f4_20" transform="matrix(9.8,0,0,9.8,208.1,464)" />
</g>
</g>
<image preserveAspectRatio="none" x="135" y="543" width="231" height="186" xlink:href="img/2.png" />
<image preserveAspectRatio="none" x="133" y="825" width="235" height="153" xlink:href="img/3.png" />
<path d="M189.6,1037.9h7.7m14.8,-3.7h7.7m14.7,3.7h7.7m14.8,-3.7h7.7m14.7,3.7h7.7" class="g2_24" />
<g clip-path="url(#c4_24)">
<g fill="#000000" >
<use xlink:href="#f2_1x" transform="matrix(10.2,0,0,10.2,189.8,1047.7)" />
<use xlink:href="#f2_1y" transform="matrix(10.2,0,0,10.2,212.3,1047.7)" />
<use xlink:href="#f2_1z" transform="matrix(10.2,0,0,10.2,234.9,1047.7)" />
<use xlink:href="#f2_20" transform="matrix(10.2,0,0,10.2,257,1047.7)" />
<use xlink:href="#f2_21" transform="matrix(10.2,0,0,10.2,280.1,1047.7)" />
<use xlink:href="#f2_k" transform="matrix(10.2,0,0,10.2,303.1,1047.7)" />
</g>
</g>
<g clip-path="url(#c5_24)">
<g fill="#000000" >
<use xlink:href="#f3_f" transform="matrix(10.2,0,0,10.2,200.4,1047.7)" />
<use xlink:href="#f3_f" transform="matrix(10.2,0,0,10.2,223.1,1047.7)" />
<use xlink:href="#f3_f" transform="matrix(10.2,0,0,10.2,245.3,1047.7)" />
<use xlink:href="#f3_f" transform="matrix(10.2,0,0,10.2,268,1047.7)" />
<use xlink:href="#f3_x" transform="matrix(10.2,0,0,10.2,291.1,1047.7)" />
</g>
</g>
<path d="M190.8,1076.4h7.7m30.1,0h7.7m14.7,-3.7h7.7m14.6,3.7h7.6m14.8,-3.7h7.5" class="g2_24" />
<g fill="#000000" >
<use xlink:href="#f2_21" transform="matrix(10,0,0,10,191.2,1085.7)" />
<use xlink:href="#f2_c" transform="matrix(10,0,0,10,223.1,1085.7)" />
<use xlink:href="#f2_1x" transform="matrix(10,0,0,10,228.8,1085.7)" />
<use xlink:href="#f2_1y" transform="matrix(10,0,0,10,251,1085.7)" />
<use xlink:href="#f2_1z" transform="matrix(10,0,0,10,273.7,1085.7)" />
<use xlink:href="#f2_20" transform="matrix(10,0,0,10,295.7,1085.7)" />
<use xlink:href="#f2_d" transform="matrix(10,0,0,10,304,1085.7)" />
</g>
<g clip-path="url(#c6_24)">
<g fill="#000000" >
<use xlink:href="#f3_x" transform="matrix(10,0,0,10,202.6,1085.7)" />
<use xlink:href="#f3_h" transform="matrix(10,0,0,10,214.5,1085.7)" />
<use xlink:href="#f3_f" transform="matrix(10,0,0,10,239.6,1085.7)" />
<use xlink:href="#f3_f" transform="matrix(10,0,0,10,262,1085.7)" />
<use xlink:href="#f3_f" transform="matrix(10,0,0,10,284,1085.7)" />
</g>
</g>
<image preserveAspectRatio="none" x="540" y="131" width="125" height="128" xlink:href="img/4.png" />
<path d="M700.5,194.5h7.7m14.7,-3.7h7.7m14.6,3.7H753" class="g2_24" />
<g fill="#000000" >
<use xlink:href="#f2_1x" transform="matrix(10.1,0,0,10.1,700.7,204.2)" />
<use xlink:href="#f2_1y" transform="matrix(10.1,0,0,10.1,723.3,204.2)" />
<use xlink:href="#f2_1z" transform="matrix(10.1,0,0,10.1,745.8,204.2)" />
<use xlink:href="#f2_k" transform="matrix(10.1,0,0,10.1,768.7,204.2)" />
<use xlink:href="#f3_f" transform="matrix(10.1,0,0,10.1,711.5,204.2)" />
<use xlink:href="#f3_f" transform="matrix(10.1,0,0,10.1,733.9,204.2)" />
<use xlink:href="#f3_x" transform="matrix(10.1,0,0,10.1,757,204.2)" />
<use xlink:href="#f1_1i" transform="matrix(10,0,0,10,488,315)" />
<use xlink:href="#f1_21" transform="matrix(10,0,0,10,498.8,315)" />
<use xlink:href="#f1_2f" transform="matrix(10,0,0,10,505.8,315)" />
<use xlink:href="#f1_2b" transform="matrix(10,0,0,10,511.5,315)" />
<use xlink:href="#f1_28" transform="matrix(10,0,0,10,519.4,315)" />
<use xlink:href="#f1_2h" transform="matrix(10,0,0,10,523.6,315)" />
<use xlink:href="#f1_2g" transform="matrix(10,0,0,10,531.8,315)" />
<use xlink:href="#f1_25" transform="matrix(10,0,0,10,537.2,315)" />
<use xlink:href="#f1_2b" transform="matrix(10,0,0,10,541.4,315)" />
<use xlink:href="#f1_2a" transform="matrix(10,0,0,10,548.9,315)" />
<use xlink:href="#f1_2b" transform="matrix(10,0,0,10,561.4,315)" />
<use xlink:href="#f1_22" transform="matrix(10,0,0,10,568.9,315)" />
<use xlink:href="#f1_2i" transform="matrix(10,0,0,10,577.9,315)" />
<use xlink:href="#f1_21" transform="matrix(10,0,0,10,585.7,315)" />
<use xlink:href="#f1_1z" transform="matrix(10,0,0,10,592.5,315)" />
<use xlink:href="#f1_2g" transform="matrix(10,0,0,10,599.3,315)" />
<use xlink:href="#f1_2b" transform="matrix(10,0,0,10,604.5,315)" />
<use xlink:href="#f1_2e" transform="matrix(10,0,0,10,612.2,315)" />
<use xlink:href="#f1_2f" transform="matrix(10,0,0,10,618.9,315)" />
</g>
<image preserveAspectRatio="none" x="517" y="364" width="284" height="229" xlink:href="img/5.png" />
<g fill="#000000" >
<use xlink:href="#f2_1f" transform="matrix(10,0,0,10,511,659.1)" />
<use xlink:href="#f2_11" transform="matrix(10,0,0,10,522.1,659.1)" />
<use xlink:href="#f2_1x" transform="matrix(10,0,0,10,548.7,659.1)" />
<use xlink:href="#f3_x" transform="matrix(10,0,0,10,537,659.1)" />
</g>
<g clip-path="url(#c7_24)">
<g fill="#000000" >
<use xlink:href="#f4_23" transform="matrix(10,0,0,10,511.5,645.7)" />
<use xlink:href="#f4_23" transform="matrix(10,0,0,10,517,645.7)" />
<use xlink:href="#f4_23" transform="matrix(10,0,0,10,522.5,645.7)" />
<use xlink:href="#f4_20" transform="matrix(10,0,0,10,526.5,645.7)" />
</g>
</g>
<g clip-path="url(#c8_24)">
<g fill="#000000" >
<use xlink:href="#f4_20" transform="matrix(10,0,0,10,549.1,649.5)" />
</g>
</g>
<g fill="#000000" >
<use xlink:href="#f2_12" transform="matrix(10,0,0,10,488,690.2)" />
<use xlink:href="#f2_2l" transform="matrix(10,0,0,10,498.1,690.2)" />
<use xlink:href="#f2_2i" transform="matrix(10,0,0,10,509.3,690.2)" />
<use xlink:href="#f2_21" transform="matrix(10,0,0,10,517,690.2)" />
<use xlink:href="#f2_1z" transform="matrix(10,0,0,10,523.8,690.2)" />
<use xlink:href="#f2_2g" transform="matrix(10,0,0,10,530.4,690.2)" />
<use xlink:href="#f2_2b" transform="matrix(10,0,0,10,534.8,690.2)" />
<use xlink:href="#f2_2e" transform="matrix(10,0,0,10,542.5,690.2)" />
<use xlink:href="#f2_1x" transform="matrix(10,0,0,10,551.1,690.2)" />
<use xlink:href="#f2_20" transform="matrix(10,0,0,10,558.1,690.2)" />
<use xlink:href="#f2_20" transform="matrix(10,0,0,10,565.6,690.2)" />
<use xlink:href="#f2_25" transform="matrix(10,0,0,10,573.5,690.2)" />
<use xlink:href="#f2_2g" transform="matrix(10,0,0,10,577.7,690.2)" />
<use xlink:href="#f2_25" transform="matrix(10,0,0,10,581.9,690.2)" />
<use xlink:href="#f2_2b" transform="matrix(10,0,0,10,586,690.2)" />
<use xlink:href="#f2_2a" transform="matrix(10,0,0,10,593.7,690.2)" />
<use xlink:href="#f2_2e" transform="matrix(10,0,0,10,605.2,690.2)" />
<use xlink:href="#f2_2h" transform="matrix(10,0,0,10,610.2,690.2)" />
<use xlink:href="#f2_28" transform="matrix(10,0,0,10,617.9,690.2)" />
<use xlink:href="#f2_21" transform="matrix(10,0,0,10,621.9,690.2)" />
<use xlink:href="#f2_g" transform="matrix(10,0,0,10,628.9,690.2)" />
</g>
<g clip-path="url(#c9_24)">
<g fill="#000000" >
<use xlink:href="#f2_1f" transform="matrix(10,0,0,10,511,727.5)" />
<use xlink:href="#f2_11" transform="matrix(10,0,0,10,522.1,727.5)" />
<use xlink:href="#f2_1f" transform="matrix(10,0,0,10,548.7,727.5)" />
<use xlink:href="#f2_12" transform="matrix(10,0,0,10,559.9,727.5)" />
<use xlink:href="#f2_1f" transform="matrix(10,0,0,10,583.5,727.5)" />
<use xlink:href="#f2_13" transform="matrix(10,0,0,10,594.5,727.5)" />
</g>
</g>
<g fill="#000000" >
<use xlink:href="#f3_x" transform="matrix(10,0,0,10,537,727.5)" />
<use xlink:href="#f3_f" transform="matrix(10,0,0,10,572.4,727.5)" />
</g>
<g clip-path="url(#c10_24)">
<g fill="#000000" >
<use xlink:href="#f4_23" transform="matrix(10,0,0,10,511.5,714.1)" />
<use xlink:href="#f4_23" transform="matrix(10,0,0,10,517.2,714.1)" />
<use xlink:href="#f4_23" transform="matrix(10,0,0,10,522.5,714.1)" />
<use xlink:href="#f4_20" transform="matrix(10,0,0,10,526.5,714.1)" />
<use xlink:href="#f4_23" transform="matrix(10,0,0,10,549.3,714.1)" />
<use xlink:href="#f4_23" transform="matrix(10,0,0,10,554.8,714.1)" />
<use xlink:href="#f4_23" transform="matrix(10,0,0,10,560.3,714.1)" />
<use xlink:href="#f4_20" transform="matrix(10,0,0,10,563,714.1)" />
<use xlink:href="#f4_23" transform="matrix(10,0,0,10,583.9,714.1)" />
<use xlink:href="#f4_23" transform="matrix(10,0,0,10,589.4,714.1)" />
<use xlink:href="#f4_23" transform="matrix(10,0,0,10,594.9,714.1)" />
<use xlink:href="#f4_20" transform="matrix(10,0,0,10,597.9,714.1)" />
</g>
</g>
<path d="M511.9,755v24.2M535.7,755v24.2" class="g2_24" />
<g fill="#000000" >
<use xlink:href="#f2_1f" transform="matrix(10,0,0,10,513.5,770.7)" />
<use xlink:href="#f2_12" transform="matrix(10,0,0,10,524.5,770.7)" />
</g>
<g clip-path="url(#c11_24)">
<g fill="#000000" >
<use xlink:href="#f4_23" transform="matrix(10,0,0,10,514.1,757.3)" />
<use xlink:href="#f4_23" transform="matrix(10,0,0,10,519.4,757.3)" />
<use xlink:href="#f4_23" transform="matrix(10,0,0,10,524.9,757.3)" />
<use xlink:href="#f4_20" transform="matrix(10,0,0,10,527.6,757.3)" />
</g>
</g>
<g fill="#000000" >
<use xlink:href="#f2_x" transform="matrix(10,0,0,10,544.3,772.4)" />
<use xlink:href="#f2_1x" transform="matrix(10,0,0,10,556.8,772.4)" />
<use xlink:href="#f2_1z" transform="matrix(10,0,0,10,567.4,772.4)" />
<use xlink:href="#f2_2b" transform="matrix(10,0,0,10,574.4,772.4)" />
<use xlink:href="#f2_2f" transform="matrix(10,0,0,10,581.9,772.4)" />
<use xlink:href="#f3_2d" transform="matrix(10,0,0,10,591.6,772.4)" />
</g>
<path d="M511.9,808.7v24.2m24,-24.2v24.2" class="g2_24" />
<g clip-path="url(#c12_24)">
<g fill="#000000" >
<use xlink:href="#f2_1f" transform="matrix(10,0,0,10,513.5,824.4)" />
<use xlink:href="#f2_13" transform="matrix(10,0,0,10,524.5,824.4)" />
</g>
</g>
<g clip-path="url(#c13_24)">
<g fill="#000000" >
<use xlink:href="#f4_23" transform="matrix(10,0,0,10,514.1,811.1)" />
<use xlink:href="#f4_23" transform="matrix(10,0,0,10,519.4,811.1)" />
<use xlink:href="#f4_23" transform="matrix(10,0,0,10,524.9,811.1)" />
<use xlink:href="#f4_20" transform="matrix(10,0,0,10,527.8,811.1)" />
</g>
</g>
<g fill="#000000" >
<use xlink:href="#f2_x" transform="matrix(10,0,0,10,544.3,826.1)" />
<use xlink:href="#f2_1x" transform="matrix(10,0,0,10,556.6,826.1)" />
<use xlink:href="#f2_2f" transform="matrix(10,0,0,10,567.4,826.1)" />
<use xlink:href="#f2_25" transform="matrix(10,0,0,10,573.1,826.1)" />
<use xlink:href="#f2_2a" transform="matrix(10,0,0,10,577.3,826.1)" />
<use xlink:href="#f3_2d" transform="matrix(10,0,0,10,588.7,826.1)" />
<use xlink:href="#f2_19" transform="matrix(10,0,0,10,488,874.9)" />
<use xlink:href="#f2_22" transform="matrix(10,0,0,10,493.2,874.9)" />
</g>
<g clip-path="url(#c14_24)">
<g fill="#000000" >
<use xlink:href="#f2_5z" transform="matrix(10.2,0,0,10.2,506,871.2)" />
<use xlink:href="#f2_5z" transform="matrix(10.2,0,0,10.2,540.3,871.2)" />
</g>
</g>
<g clip-path="url(#c15_24)">
<g fill="#000000" >
<use xlink:href="#f2_25" transform="matrix(10.2,0,0,10.2,506.4,875.8)" />
<use xlink:href="#f2_1x" transform="matrix(10.2,0,0,10.2,514.4,875.8)" />
<use xlink:href="#f2_2a" transform="matrix(10.2,0,0,10.2,521.2,875.8)" />
<use xlink:href="#f2_20" transform="matrix(10.2,0,0,10.2,528.9,875.8)" />
<use xlink:href="#f2_26" transform="matrix(10.2,0,0,10.2,541.9,875.8)" />
</g>
</g>
<g fill="#000000" >
<use xlink:href="#f2_20" transform="matrix(10,0,0,10,553.5,874.9)" />
<use xlink:href="#f2_21" transform="matrix(10,0,0,10,561.4,874.9)" />
<use xlink:href="#f2_2a" transform="matrix(10,0,0,10,568.2,874.9)" />
<use xlink:href="#f2_2b" transform="matrix(10,0,0,10,575.5,874.9)" />
<use xlink:href="#f2_2g" transform="matrix(10,0,0,10,583.4,874.9)" />
<use xlink:href="#f2_21" transform="matrix(10,0,0,10,587.6,874.9)" />
<use xlink:href="#f2_2i" transform="matrix(10,0,0,10,599.7,874.9)" />
<use xlink:href="#f2_21" transform="matrix(10,0,0,10,607.4,874.9)" />
<use xlink:href="#f2_1z" transform="matrix(10,0,0,10,614.2,874.9)" />
<use xlink:href="#f2_2g" transform="matrix(10,0,0,10,621,874.9)" />
<use xlink:href="#f2_2b" transform="matrix(10,0,0,10,625.2,874.9)" />
<use xlink:href="#f2_2e" transform="matrix(10,0,0,10,632.9,874.9)" />
<use xlink:href="#f2_2f" transform="matrix(10,0,0,10,638,874.9)" />
<use xlink:href="#f2_2b" transform="matrix(10,0,0,10,649.4,874.9)" />
<use xlink:href="#f2_22" transform="matrix(10,0,0,10,656.9,874.9)" />
<use xlink:href="#f2_2h" transform="matrix(10,0,0,10,667.5,874.9)" />
<use xlink:href="#f2_2a" transform="matrix(10,0,0,10,675,874.9)" />
<use xlink:href="#f2_25" transform="matrix(10,0,0,10,682.4,874.9)" />
<use xlink:href="#f2_2g" transform="matrix(10,0,0,10,686.6,874.9)" />
<use xlink:href="#f2_29" transform="matrix(10,0,0,10,696.3,874.9)" />
<use xlink:href="#f2_1x" transform="matrix(10,0,0,10,707.9,874.9)" />
<use xlink:href="#f2_23" transform="matrix(10,0,0,10,714.8,874.9)" />
<use xlink:href="#f2_2a" transform="matrix(10,0,0,10,722.2,874.9)" />
<use xlink:href="#f2_25" transform="matrix(10,0,0,10,729.9,874.9)" />
<use xlink:href="#f2_2g" transform="matrix(10,0,0,10,733.9,874.9)" />
<use xlink:href="#f2_2h" transform="matrix(10,0,0,10,738.1,874.9)" />
<use xlink:href="#f2_20" transform="matrix(10,0,0,10,745.8,874.9)" />
<use xlink:href="#f2_21" transform="matrix(10,0,0,10,753.3,874.9)" />
<use xlink:href="#f2_1x" transform="matrix(10,0,0,10,765.6,874.9)" />
<use xlink:href="#f2_28" transform="matrix(10,0,0,10,772.6,874.9)" />
<use xlink:href="#f2_2b" transform="matrix(10,0,0,10,776.6,874.9)" />
<use xlink:href="#f2_2a" transform="matrix(10,0,0,10,784.5,874.9)" />
<use xlink:href="#f2_23" transform="matrix(10,0,0,10,791.9,874.9)" />
<use xlink:href="#f2_1f" transform="matrix(10,0,0,10,805.1,874.9)" />
<use xlink:href="#f2_1o" transform="matrix(10,0,0,10,816,874.9)" />
<use xlink:href="#f2_1x" transform="matrix(10,0,0,10,832.4,874.9)" />
<use xlink:href="#f2_2a" transform="matrix(10,0,0,10,839.3,874.9)" />
<use xlink:href="#f2_20" transform="matrix(10,0,0,10,846.7,874.9)" />
<use xlink:href="#f2_1x" transform="matrix(10,0,0,10,488,905.3)" />
<use xlink:href="#f2_28" transform="matrix(10,0,0,10,494.8,905.3)" />
<use xlink:href="#f2_2b" transform="matrix(10,0,0,10,498.9,905.3)" />
<use xlink:href="#f2_2a" transform="matrix(10,0,0,10,506.7,905.3)" />
<use xlink:href="#f2_23" transform="matrix(10,0,0,10,514.1,905.3)" />
<use xlink:href="#f2_1f" transform="matrix(10,0,0,10,525.6,905.3)" />
<use xlink:href="#f2_1p" transform="matrix(10,0,0,10,536.4,905.3)" />
<use xlink:href="#f2_2e" transform="matrix(10,0,0,10,550.7,905.3)" />
<use xlink:href="#f2_21" transform="matrix(10,0,0,10,555.9,905.3)" />
<use xlink:href="#f2_2f" transform="matrix(10,0,0,10,562.7,905.3)" />
<use xlink:href="#f2_2c" transform="matrix(10,0,0,10,568.3,905.3)" />
<use xlink:href="#f2_21" transform="matrix(10,0,0,10,576.2,905.3)" />
<use xlink:href="#f2_1z" transform="matrix(10,0,0,10,582.8,905.3)" />
<use xlink:href="#f2_25" transform="matrix(10,0,0,10,589.8,905.3)" />
<use xlink:href="#f2_2i" transform="matrix(10,0,0,10,593.8,905.3)" />
<use xlink:href="#f2_21" transform="matrix(10,0,0,10,601.5,905.3)" />
<use xlink:href="#f2_28" transform="matrix(10,0,0,10,608.3,905.3)" />
<use xlink:href="#f2_2l" transform="matrix(10,0,0,10,612.5,905.3)" />
<use xlink:href="#f2_g" transform="matrix(10,0,0,10,618.8,905.3)" />
<use xlink:href="#f2_2j" transform="matrix(10,0,0,10,626.6,905.3)" />
<use xlink:href="#f2_21" transform="matrix(10,0,0,10,637.3,905.3)" />
<use xlink:href="#f2_23" transform="matrix(10,0,0,10,647.7,905.3)" />
<use xlink:href="#f2_21" transform="matrix(10,0,0,10,655.2,905.3)" />
<use xlink:href="#f2_2g" transform="matrix(10,0,0,10,662.2,905.3)" />
<use xlink:href="#f2_1f" transform="matrix(10,0,0,10,510.9,945.3)" />
<use xlink:href="#f2_12" transform="matrix(10,0,0,10,522.1,945.3)" />
</g>
<g clip-path="url(#c16_24)">
<g fill="#000000" >
<use xlink:href="#f4_23" transform="matrix(10,0,0,10,511.5,931.5)" />
<use xlink:href="#f4_23" transform="matrix(10,0,0,10,517.2,931.5)" />
<use xlink:href="#f4_23" transform="matrix(10,0,0,10,522.7,931.5)" />
<use xlink:href="#f4_20" transform="matrix(10,0,0,10,525.4,931.5)" />
</g>
</g>
<g fill="#000000" >
<use xlink:href="#f2_x" transform="matrix(10,0,0,10,538.6,942)" />
<use xlink:href="#f2_1x" transform="matrix(10,0,0,10,551.1,942)" />
<use xlink:href="#f2_1z" transform="matrix(10,0,0,10,561.7,942)" />
<use xlink:href="#f2_2b" transform="matrix(10,0,0,10,568.7,942)" />
<use xlink:href="#f2_2f" transform="matrix(10,0,0,10,576.2,942)" />
<use xlink:href="#f3_2d" transform="matrix(10,0,0,10,585.9,942)" />
<use xlink:href="#f2_5z" transform="matrix(10.1,0,0,10.1,600.4,938.3)" />
<use xlink:href="#f2_25" transform="matrix(10.1,0,0,10.1,600.4,942.9)" />
</g>
<g clip-path="url(#c17_24)">
<g fill="#000000" >
<use xlink:href="#f2_1f" transform="matrix(10,0,0,10,511,987.8)" />
<use xlink:href="#f2_13" transform="matrix(10,0,0,10,522.1,987.8)" />
</g>
</g>
<g clip-path="url(#c18_24)">
<g fill="#000000" >
<use xlink:href="#f4_23" transform="matrix(10,0,0,10,511.5,974.4)" />
<use xlink:href="#f4_23" transform="matrix(10,0,0,10,517,974.4)" />
<use xlink:href="#f4_23" transform="matrix(10,0,0,10,522.5,974.4)" />
<use xlink:href="#f4_20" transform="matrix(10,0,0,10,525.4,974.4)" />
</g>
</g>
<g fill="#000000" >
<use xlink:href="#f2_x" transform="matrix(10,0,0,10,535.9,987.1)" />
<use xlink:href="#f2_1x" transform="matrix(10,0,0,10,548.5,987.1)" />
<use xlink:href="#f2_2f" transform="matrix(10,0,0,10,559.2,987.1)" />
<use xlink:href="#f2_25" transform="matrix(10,0,0,10,564.9,987.1)" />
<use xlink:href="#f2_2a" transform="matrix(10,0,0,10,569.1,987.1)" />
<use xlink:href="#f3_2d" transform="matrix(10,0,0,10,580.6,987.1)" />
<use xlink:href="#f2_5z" transform="matrix(10.2,0,0,10.2,594.9,981.9)" />
</g>
<g clip-path="url(#c19_24)">
<g fill="#000000" >
<use xlink:href="#f2_26" transform="matrix(10.2,0,0,10.2,596.2,986.5)" />
</g>
</g>
<g clip-path="url(#c20_24)">
<g fill="#000000" >
<use xlink:href="#f2_5z" transform="matrix(10.2,0,0,10.2,582.8,1027)" />
<use xlink:href="#f2_5z" transform="matrix(10.2,0,0,10.2,648.8,1027)" />
</g>
</g>
<g clip-path="url(#c21_24)">
<g fill="#000000" >
<use xlink:href="#f2_1x" transform="matrix(10.2,0,0,10.2,511,1031.6)" />
<use xlink:href="#f2_c" transform="matrix(10.2,0,0,10.2,533.5,1031.6)" />
<use xlink:href="#f2_1x" transform="matrix(10.2,0,0,10.2,538.8,1031.6)" />
<use xlink:href="#f2_1z" transform="matrix(10.2,0,0,10.2,547.8,1031.6)" />
<use xlink:href="#f2_2b" transform="matrix(10.2,0,0,10.2,554.6,1031.6)" />
<use xlink:href="#f2_2f" transform="matrix(10.2,0,0,10.2,562.1,1031.6)" />
<use xlink:href="#f2_d" transform="matrix(10.2,0,0,10.2,577.7,1031.6)" />
<use xlink:href="#f2_25" transform="matrix(10.2,0,0,10.2,583.2,1031.6)" />
<use xlink:href="#f2_c" transform="matrix(10.2,0,0,10.2,601.5,1031.6)" />
<use xlink:href="#f2_1x" transform="matrix(10.2,0,0,10.2,606.8,1031.6)" />
<use xlink:href="#f2_2f" transform="matrix(10.2,0,0,10.2,615.6,1031.6)" />
<use xlink:href="#f2_25" transform="matrix(10.2,0,0,10.2,621.7,1031.6)" />
<use xlink:href="#f2_2a" transform="matrix(10.2,0,0,10.2,625.9,1031.6)" />
<use xlink:href="#f2_d" transform="matrix(10.2,0,0,10.2,643.3,1031.6)" />
<use xlink:href="#f2_26" transform="matrix(10.2,0,0,10.2,650.5,1031.6)" />
</g>
</g>
<g clip-path="url(#c22_24)">
<g fill="#000000" >
<use xlink:href="#f3_x" transform="matrix(10.2,0,0,10.2,522,1031.6)" />
<use xlink:href="#f3_2d" transform="matrix(10.2,0,0,10.2,569.8,1031.6)" />
<use xlink:href="#f3_f" transform="matrix(10.2,0,0,10.2,590.7,1031.6)" />
<use xlink:href="#f3_2d" transform="matrix(10.2,0,0,10.2,635.6,1031.6)" />
</g>
</g>
<g clip-path="url(#c23_24)">
<g fill="#000000" >
<use xlink:href="#f4_20" transform="matrix(10.2,0,0,10.2,511.5,1021.5)" />
</g>
</g>
<defs>
<path d="M55,0l1,144H94c0,0,44,0,59,7c0,0,15,7,22,23c0,0,6,12,6,61V803c0,0,0,47,-7,62c0,0,-7,16,-22,24c0,0,-15,8,-54,8H56v143H564V897H531c0,0,-49,0,-60,-6c0,0,-18,-8,-26,-23c0,0,-8,-14,-8,-55V537L761,836c0,0,22,21,26,28c0,0,5,7,5,12c0,0,0,10,-9,15c0,0,-8,6,-43,6H698v143h470V897h-15c0,0,-33,0,-46,-4c0,0,-12,-3,-31,-14c0,0,-18,-11,-47,-37L778,625L1078,219c0,0,38,-52,56,-62c0,0,24,-13,69,-13h20V0H698V144h21c0,0,57,0,70,5c0,0,12,5,12,13c0,0,0,9,-23,43L594,466L437,330V225c0,0,0,-39,8,-54c0,0,7,-15,21,-21c0,0,14,-6,56,-6h42V0Z" 
id="f0_1b"
transform="scale(0.001,-0.001)" />

<path d="M52,0V144H93c0,0,44,0,58,6c0,0,13,6,20,20c0,0,6,14,6,55V803c0,0,0,49,-6,64c0,0,-7,15,-22,24c0,0,-10,6,-51,6H52v143H559V897H513c0,0,-40,0,-53,-7c0,0,-13,-8,-20,-23c0,0,-6,-15,-6,-58V233c0,0,0,-47,5,-61c0,0,6,-13,18,-19c0,0,16,-9,47,-9h55V0Z" 
id="f0_19"
transform="scale(0.001,-0.001)" />

<path d="M59,0V144h44c0,0,37,0,51,6c0,0,14,6,22,22c0,0,8,16,8,47V816c0,0,0,34,-8,50c0,0,-7,16,-20,24c0,0,-12,7,-42,7H59v143H480L786,433V805c0,0,0,48,-5,60c0,0,-8,17,-20,25c0,0,-13,7,-49,7H661v143h428V897h-47c0,0,-36,0,-51,-9c0,0,-15,-8,-21,-22c0,0,-6,-14,-6,-61V0H750L364,767V230c0,0,0,-46,5,-59c0,0,6,-12,20,-20c0,0,15,-7,50,-7h50V0Z" 
id="f0_1e"
transform="scale(0.001,-0.001)" />

<path d="M59,0V144H85c0,0,52,0,70,7c0,0,18,8,25,26c0,0,4,11,4,64V808c0,0,0,46,-7,60c0,0,-6,14,-19,22c0,0,-14,7,-53,7H59v143H928L1046,712L911,663c0,0,-34,81,-80,130c0,0,-46,49,-102,65c0,0,-55,16,-129,16H441V615h52c0,0,59,0,80,9c0,0,20,8,29,26c0,0,9,19,9,73v40H744V322H611v45c0,0,0,45,-11,66c0,0,-11,21,-29,29c0,0,-19,7,-83,7H441V230c0,0,0,-38,4,-47c0,0,3,-8,14,-12c0,0,11,-5,47,-5h87c0,0,98,0,165,28c0,0,67,28,120,91c0,0,53,63,81,149l136,-47L959,0Z" 
id="f0_15"
transform="scale(0.001,-0.001)" />

<path d="M59,0V144h42c0,0,39,0,54,7c0,0,15,7,22,22c0,0,7,15,7,57V813c0,0,0,40,-5,52c0,0,-7,17,-21,24c0,0,-13,8,-42,8H59v143H530L711,408l185,632h481V897h-52c0,0,-41,0,-57,-18c0,0,-16,-17,-16,-66V222c0,0,0,-39,4,-48c0,0,7,-15,19,-21c0,0,16,-9,43,-9h59V0H876V144h39c0,0,42,0,57,6c0,0,15,7,22,21c0,0,7,14,7,51V862L748,0H604L359,835V202c0,0,0,-22,8,-34c0,0,8,-12,22,-18c0,0,15,-6,47,-6h50V0Z" 
id="f0_1d"
transform="scale(0.001,-0.001)" />

<path d="M610,480L509,765L404,480ZM2,0V144c0,0,39,0,56,6c0,0,18,7,30,21c0,0,11,13,25,49l322,820H669L981,237c0,0,25,-64,45,-79c0,0,19,-14,68,-14c2,0,3,0,5,0V0H606V144h30c0,0,41,0,58,11c0,0,16,11,16,27c0,0,0,13,-14,55l-32,94H349L310,226c0,0,-12,-33,-12,-44c0,0,0,-11,8,-21c0,0,9,-10,28,-14c0,0,13,-3,71,-3V0Z" 
id="f0_11"
transform="scale(0.001,-0.001)" />

<path d="M280,0V144h30c0,0,51,0,66,6c0,0,14,6,21,22c0,0,8,17,8,67V851c0,0,0,26,-6,33c0,0,-6,7,-26,7c0,0,-38,0,-86,-29c0,0,-48,-29,-85,-82c0,0,-15,-21,-63,-118L2,711l128,365h99l10,-36H826l13,36h99L1067,711L928,662c0,0,-46,91,-66,119c0,0,-40,55,-92,86c0,0,-38,24,-77,24c0,0,-18,0,-24,-9c0,0,-7,-8,-7,-39V244c0,0,0,-53,4,-66c0,0,3,-13,12,-21c0,0,9,-8,25,-11c0,0,16,-2,84,-2V0Z" 
id="f0_1k"
transform="scale(0.001,-0.001)" />

<path d="M579,-17c0,0,-147,0,-266,70c0,0,-119,70,-189,197c0,0,-71,127,-71,277c0,0,0,149,69,271c0,0,69,123,187,191c0,0,119,69,265,69c0,0,149,0,260,-62l25,44H965L1067,667L928,627c0,0,-69,133,-130,189c0,0,-85,77,-185,77c0,0,-72,0,-135,-41c0,0,-63,-40,-100,-118c0,0,-37,-78,-37,-183c0,0,0,-161,85,-276c0,0,85,-116,222,-116c0,0,87,0,168,50c0,0,100,62,173,167l116,-86C1105,290,992,136,899,76c0,0,-144,-93,-320,-93Z" 
id="f0_13"
transform="scale(0.001,-0.001)" />

<path d="M567,-17c0,0,-83,0,-152,21c0,0,-70,21,-145,71L237,0H126L52,404l140,33c0,0,49,-123,153,-205c0,0,104,-82,228,-82c0,0,56,0,93,14c0,0,37,14,56,39c0,0,18,25,18,52c0,0,0,45,-43,77c0,0,-44,32,-154,63L369,446c0,0,-40,11,-107,42c0,0,-68,31,-104,64c0,0,-36,34,-60,86c0,0,-24,53,-24,111c0,0,0,83,46,153c0,0,46,69,138,113c0,0,92,43,204,43c0,0,135,0,244,-70l29,52H842L932,692L792,652c0,0,-69,125,-157,183c0,0,-88,58,-187,58c0,0,-64,0,-101,-26c0,0,-37,-27,-37,-59c0,0,0,-36,34,-67c0,0,32,-32,121,-56L665,626c0,0,166,-47,237,-126c0,0,70,-80,70,-186c0,0,0,-135,-107,-229C865,85,745,-17,567,-17Z" 
id="f0_1j"
transform="scale(0.001,-0.001)" />

<path d="M24,0L619,958L469,957c0,0,-87,0,-114,-5c0,0,-53,-10,-99,-38c0,0,-46,-29,-76,-77c0,0,-30,-48,-47,-121H105l28,296H932L337,57H530c0,0,136,0,191,17c0,0,88,27,152,99c0,0,64,72,89,193h29L950,0Z" 
id="f1_1q"
transform="scale(0.001,-0.001)" />

<path d="M458,424c0,0,0,120,-13,165c0,0,-13,44,-40,67c0,0,-16,14,-42,14c0,0,-39,0,-63,-38c0,0,-44,-66,-44,-182V424ZM358,-20c0,0,-155,0,-235,119c0,0,-64,96,-64,239c0,0,0,174,94,277c0,0,94,104,221,104c0,0,106,0,184,-87c0,0,78,-87,84,-257H259c0,0,7,-139,74,-220c0,0,51,-62,124,-62c0,0,45,0,81,25c0,0,37,25,79,90l25,-16C642,192,585,76,517,28c0,0,-69,-48,-159,-48Z" 
id="f1_21"
transform="scale(0.001,-0.001)" />

<path d="M57,0V26c0,0,45,4,61,25c0,0,16,22,16,113V550c0,0,0,59,-6,76c0,0,-7,21,-22,30c0,0,-14,10,-49,14v27H342l1,-158c0,0,69,109,121,144c0,0,52,36,100,36c0,0,42,0,66,-26c0,0,25,-26,25,-73c0,0,0,-50,-24,-77c0,0,-25,-28,-59,-28c0,0,-39,0,-68,25c0,0,-28,26,-33,29c0,0,-8,4,-17,4c0,0,-22,0,-41,-16c0,0,-31,-26,-46,-73c0,0,-24,-72,-24,-159V122c0,0,0,-42,5,-54c0,0,9,-21,27,-30c0,0,17,-9,59,-12V0Z" 
id="f1_2e"
transform="scale(0.001,-0.001)" />

<path d="M381,31c0,0,33,0,56,19c0,0,29,25,38,71c0,0,15,71,15,286c0,0,0,127,-14,174c0,0,-14,48,-42,69c0,0,-19,16,-50,16c0,0,-38,0,-65,-29c0,0,-27,-29,-36,-113c0,0,-8,-85,-8,-235c0,0,0,-80,10,-150c0,0,8,-53,35,-80c0,0,27,-28,61,-28Zm2,-51c0,0,-157,0,-242,110c0,0,-85,110,-85,256c0,0,0,150,87,261c0,0,86,112,238,112c0,0,90,0,169,-47c0,0,78,-47,119,-134c0,0,40,-86,40,-189c0,0,0,-149,-75,-249c0,0,-91,-120,-251,-120Z" 
id="f1_2b"
transform="scale(0.001,-0.001)" />

<path d="M367,-20L133,520c0,0,-43,98,-67,124c0,0,-17,19,-50,26v27H386V670c0,0,-35,0,-48,-13c0,0,-18,-16,-18,-39c0,0,0,-27,33,-103L468,253l91,226c0,0,40,97,40,137c0,0,0,23,-17,38c0,0,-17,14,-59,16v27H750V670c0,0,-33,-5,-54,-25c0,0,-20,-20,-62,-118L402,-20Z" 
id="f1_2i"
transform="scale(0.001,-0.001)" />

<path d="M365,-20c0,0,-139,0,-223,105c0,0,-83,105,-83,253c0,0,0,142,76,250c0,0,92,131,253,131c0,0,108,0,172,-55c0,0,63,-54,63,-121c0,0,0,-43,-25,-68c0,0,-26,-25,-68,-25c0,0,-44,0,-73,29c0,0,-28,29,-35,104c0,0,-5,47,-22,65c0,0,-17,19,-40,19c0,0,-36,0,-61,-38c0,0,-39,-58,-39,-176c0,0,0,-99,31,-188c0,0,32,-90,86,-134c0,0,41,-32,97,-32c0,0,36,0,69,17c0,0,33,17,78,65l23,-18C644,163,595,70,521,25c0,0,-73,-45,-156,-45Z" 
id="f1_1z"
transform="scale(0.001,-0.001)" />

<path d="M298,-9c0,0,-67,0,-113,36c0,0,-46,37,-58,83c0,0,-8,25,-8,137V624H28v26c0,0,94,66,161,139c0,0,66,73,115,163h25V697H494V624H329V193c0,0,0,-60,5,-78c0,0,6,-17,20,-28c0,0,14,-11,26,-11c0,0,48,0,92,75l22,-17C494,134,434,-9,298,-9Z" 
id="f1_2g"
transform="scale(0.001,-0.001)" />

<path d="M38,0V27H74c0,0,63,0,91,37c0,0,18,24,18,115V833c0,0,0,77,-10,102c0,0,-7,18,-30,32c0,0,-33,18,-69,18H38v27H470V985H434c0,0,-62,0,-90,-37c0,0,-18,-24,-18,-115V179c0,0,0,-77,9,-102c0,0,8,-18,31,-32c0,0,32,-18,68,-18h36V0Z" 
id="f2_19"
transform="scale(0.001,-0.001)" />

<path d="M21,0V26H35c0,0,53,0,71,27c0,0,18,27,18,101V408c0,0,0,123,-5,150c0,0,-6,27,-17,37c0,0,-12,10,-31,10c0,0,-21,0,-50,-11L10,620l206,83h32V558c0,0,120,145,229,145c0,0,56,0,96,-28c0,0,40,-28,64,-92c0,0,16,-45,16,-137V154c0,0,0,-65,11,-88c0,0,8,-19,26,-29c0,0,18,-11,68,-11V0H419V26h14c0,0,47,0,66,15c0,0,20,15,27,43c0,0,3,11,3,70V434c0,0,0,93,-24,135c0,0,-24,42,-81,42c0,0,-88,0,-176,-97V154c0,0,0,-69,9,-86c0,0,10,-21,28,-31c0,0,19,-11,75,-11V0Z" 
id="f2_2a"
transform="scale(0.001,-0.001)" />

<path d="M255,-10c0,0,-35,0,-68,18c0,0,-32,19,-48,55c0,0,-16,35,-16,109V632H15v24c0,0,41,16,84,56c0,0,43,39,77,92c0,0,17,29,48,104h23V683H407V632H247V188c0,0,0,-66,19,-90c0,0,19,-23,49,-23c0,0,24,0,47,16c0,0,23,15,36,45h29c0,0,-26,-73,-74,-110c0,0,-47,-36,-98,-36Z" 
id="f2_2g"
transform="scale(0.001,-0.001)" />

<path d="M20,0V26c0,0,45,0,71,15c0,0,15,7,24,28c0,0,9,21,9,85V773c0,0,0,117,-5,144c0,0,-6,27,-17,37c0,0,-12,9,-31,9c0,0,-16,0,-51,-12L10,978l204,83h34V561c0,0,83,91,131,116c0,0,49,26,97,26c0,0,58,0,100,-32c0,0,42,-32,62,-101c0,0,14,-47,14,-174V154c0,0,0,-65,11,-89c0,0,7,-18,25,-28c0,0,18,-11,66,-11V0H418V26h15c0,0,48,0,67,15c0,0,18,15,26,43c0,0,2,12,2,70V396c0,0,0,112,-12,147c0,0,-11,35,-36,53c0,0,-26,17,-61,17c0,0,-37,0,-76,-19c0,0,-40,-20,-95,-79V154c0,0,0,-70,8,-87c0,0,8,-17,29,-29c0,0,22,-12,74,-12V0Z" 
id="f2_24"
transform="scale(0.001,-0.001)" />

<path d="M55,0V26c0,0,50,0,67,10c0,0,17,10,27,32c0,0,10,23,10,86V418c0,0,0,111,-6,144c0,0,-6,24,-17,33c0,0,-11,10,-30,10c0,0,-21,0,-51,-11L45,620l206,83h33V154c0,0,0,-64,9,-85c0,0,9,-22,27,-32c0,0,19,-11,67,-11V0ZM222,909c0,0,-32,0,-54,23c0,0,-22,22,-22,53c0,0,0,32,22,54c0,0,22,22,54,22c0,0,31,0,53,-22c0,0,22,-22,22,-54c0,0,0,-31,-22,-53c0,0,-22,-23,-53,-23Z" 
id="f2_25"
transform="scale(0.001,-0.001)" />

<path d="M312,-20c0,0,-62,0,-143,22c0,0,-25,8,-40,8c0,0,-18,0,-27,-19H77V234h25c0,0,21,-105,80,-158c0,0,59,-53,132,-53c0,0,51,0,84,31c0,0,32,30,32,72c0,0,0,52,-36,87c0,0,-36,35,-144,88c0,0,-109,54,-142,97c0,0,-34,43,-34,107c0,0,0,85,58,141c0,0,58,57,150,57c0,0,40,0,97,-17c0,0,38,-11,51,-11c0,0,12,0,19,5c0,0,7,5,15,23h25V470H464c0,0,-28,110,-72,149c0,0,-45,40,-113,40c0,0,-53,0,-85,-28c0,0,-32,-27,-32,-61c0,0,0,-41,24,-71c0,0,23,-31,94,-65L389,381c0,0,152,-74,152,-194c0,0,0,-94,-71,-151c0,0,-70,-56,-158,-56Z" 
id="f2_2f"
transform="scale(0.001,-0.001)" />

<path d="M17,0V26c0,0,52,0,77,17c0,0,19,12,26,38c0,0,4,13,4,73V419c0,0,0,119,-5,142c0,0,-4,23,-17,33c0,0,-13,11,-33,11c0,0,-23,0,-52,-11l-7,26l207,83h31V549c0,0,86,154,176,154c0,0,41,0,68,-25c0,0,27,-25,27,-58c0,0,0,-29,-20,-49c0,0,-19,-20,-46,-20c0,0,-26,0,-58,25c0,0,-33,26,-48,26c0,0,-14,0,-29,-15c0,0,-34,-30,-70,-101V159c0,0,0,-56,15,-85c0,0,9,-20,34,-34c0,0,24,-14,71,-14V0Z" 
id="f2_2e"
transform="scale(0.001,-0.001)" />

<path d="M286,72c0,0,57,0,149,75V407c0,0,-113,-45,-145,-64c0,0,-59,-32,-85,-68c0,0,-25,-36,-25,-78c0,0,0,-54,32,-89c0,0,32,-36,74,-36ZM217,-13c0,0,-71,0,-116,48c0,0,-46,48,-46,127c0,0,0,50,22,87c0,0,31,50,106,95c0,0,76,45,252,109v26c0,0,0,102,-32,140c0,0,-32,38,-94,38c0,0,-47,0,-74,-25c0,0,-28,-25,-28,-58l1,-43c0,0,0,-34,-17,-53c0,0,-18,-18,-47,-18c0,0,-28,0,-45,19c0,0,-18,19,-18,53c0,0,0,64,66,117c0,0,65,54,184,54c0,0,91,0,149,-31c0,0,44,-23,65,-72c0,0,13,-32,13,-131V238c0,0,0,-98,4,-120c0,0,4,-22,12,-29c0,0,9,-8,20,-8c0,0,12,0,21,5c0,0,16,10,61,55V99C676,99,592,-12,516,-12c0,0,-37,0,-58,24c0,0,-22,26,-23,86C435,98,330,17,303,5c0,0,-40,-18,-86,-18Z" 
id="f2_1x"
transform="scale(0.001,-0.001)" />

<path d="M411,-239c0,0,134,0,198,48c0,0,64,47,64,100c0,0,0,39,-38,55c0,0,-39,16,-154,19c0,0,-167,5,-258,17c0,0,-35,-37,-53,-70c0,0,-17,-32,-17,-60c0,0,0,-36,43,-62c0,0,74,-47,215,-47ZM380,257c0,0,56,0,93,43c0,0,36,42,36,133c0,0,0,118,-51,185c0,0,-38,49,-98,49c0,0,-55,0,-92,-44c0,0,-37,-44,-37,-135c0,0,0,-117,50,-182c0,0,39,-49,99,-49ZM345,-328c0,0,-144,0,-243,64c0,0,-56,38,-56,78c0,0,0,18,8,36c0,0,13,27,52,76c0,0,5,7,76,80c0,0,-39,23,-55,41c0,0,-16,19,-16,42c0,0,0,26,22,61c0,0,21,35,98,100c0,0,-63,30,-97,85c0,0,-33,55,-33,121c0,0,0,101,76,174c0,0,77,73,196,73c0,0,98,0,170,-48H688c0,0,32,0,37,-2c0,0,6,-2,8,-6c0,0,4,-7,4,-24c0,0,0,-20,-4,-27c0,0,-2,-4,-7,-6c0,0,-6,-2,-38,-2H599c0,0,41,-54,41,-137c0,0,0,-96,-73,-163c0,0,-73,-68,-196,-68c0,0,-51,0,-104,15c0,0,-33,-28,-44,-49c0,0,-12,-22,-12,-37c0,0,0,-12,13,-24c0,0,12,-12,48,-17c0,0,21,-4,104,-6c0,0,154,-4,199,-11c0,0,70,-10,111,-51c0,0,42,-41,42,-102c0,0,0,-84,-79,-158c0,0,-117,-108,-304,-108Z" 
id="f2_23"
transform="scale(0.001,-0.001)" />

<path d="M58,0V26c0,0,47,0,64,10c0,0,18,10,28,32c0,0,9,23,9,86V775c0,0,0,116,-5,142c0,0,-5,27,-17,37c0,0,-11,9,-29,9c0,0,-20,0,-49,-12L46,978l204,83h34V154c0,0,0,-64,9,-85c0,0,9,-21,29,-32c0,0,19,-11,72,-11V0Z" 
id="f2_28"
transform="scale(0.001,-0.001)" />

<path d="M479,469c0,0,-4,66,-16,93c0,0,-18,42,-55,65c0,0,-37,24,-78,24c0,0,-62,0,-111,-48c0,0,-48,-48,-57,-134ZM355,-20c0,0,-123,0,-211,95c0,0,-87,96,-87,258c0,0,0,175,90,273c0,0,89,98,225,98c0,0,115,0,189,-76c0,0,74,-75,74,-202H162c0,0,0,-152,74,-239c0,0,75,-86,175,-86c0,0,67,0,117,36c0,0,50,37,83,127l24,-15c0,0,-16,-102,-91,-186c0,0,-76,-83,-189,-83Z" 
id="f2_21"
transform="scale(0.001,-0.001)" />

<path d="M435,502c0,0,78,0,134,60c0,0,57,60,57,155c0,0,0,66,-27,122c0,0,-27,56,-76,84c0,0,-50,28,-112,28c0,0,-38,0,-98,-14V517c0,0,39,-8,70,-12c0,0,31,-3,52,-3ZM25,0V27H63c0,0,65,0,92,42c0,0,15,23,15,110V833c0,0,0,96,-20,119c0,0,-29,33,-87,33H25v27H396c0,0,136,0,214,-28c0,0,78,-28,132,-94c0,0,54,-67,54,-158c0,0,0,-124,-82,-202c0,0,-82,-77,-231,-77c0,0,-36,0,-79,5c0,0,-43,5,-91,16V179c0,0,0,-96,21,-119c0,0,28,-33,85,-33h39V0Z" 
id="f2_1g"
transform="scale(0.001,-0.001)" />

<path d="M547,28c0,0,140,0,226,102c0,0,101,121,101,357c0,0,0,181,-56,304c0,0,-42,96,-112,141c0,0,-71,45,-159,45c0,0,-135,0,-218,-97C329,880,225,758,225,508c0,0,0,-245,106,-378c0,0,82,-102,216,-102Zm491,-326c0,0,-103,4,-220,41c0,0,-117,38,-222,105c0,0,-104,67,-180,142c0,0,-108,42,-171,91c0,0,-91,72,-141,178c0,0,-50,105,-50,249c0,0,0,227,147,377c0,0,147,149,355,149c0,0,199,0,344,-150c0,0,145,-150,145,-379c0,0,0,-185,-104,-326C941,179,838,39,673,-10c0,0,76,-131,164,-194c0,0,88,-62,201,-71v-23Z" 
id="f2_1h"
transform="scale(0.001,-0.001)" />

<path d="M356,519c0,0,145,0,218,63c0,0,74,63,74,160c0,0,0,95,-60,154c0,0,-59,59,-157,59c0,0,-43,0,-117,-13V520c0,0,14,0,25,0c0,0,10,-1,17,-1ZM26,0V27H64c0,0,64,0,92,42c0,0,15,23,15,110V833c0,0,0,96,-21,119c0,0,-29,33,-86,33H26v27H395c0,0,161,0,238,-24c0,0,76,-23,129,-86c0,0,54,-63,54,-151c0,0,0,-93,-61,-162c0,0,-61,-68,-189,-97L775,202c0,0,72,-100,123,-133c0,0,52,-33,134,-42V0H762L419,473c0,0,-38,-1,-61,-1c0,0,-10,0,-21,0c0,0,-11,0,-23,1V179c0,0,0,-96,21,-119c0,0,28,-33,84,-33h40V0Z" 
id="f2_1i"
transform="scale(0.001,-0.001)" />

<path d="M355,0V355H0v72H355V784h72V427H782V355H427V0Z" 
id="f3_f"
transform="scale(0.001,-0.001)" />

<path d="M0,-26V27H626V-26Z" 
id="f4_23"
transform="scale(0.001,-0.001)" />

<path d="M413,-106l30,80H0V27H443l-30,80L626,0L413,-106Z" 
id="f4_20"
transform="scale(0.001,-0.001)" />

<path d="M23,0V26c0,0,47,0,66,10c0,0,19,11,28,33c0,0,10,22,10,85V416c0,0,0,112,-7,145c0,0,-5,25,-16,34c0,0,-11,10,-31,10c0,0,-21,0,-50,-11L12,620l207,83h32V557c0,0,75,75,88,86c0,0,34,29,72,44c0,0,39,16,77,16c0,0,64,0,110,-37c0,0,47,-38,62,-109c0,0,77,90,130,118c0,0,53,28,109,28c0,0,54,0,96,-28c0,0,42,-28,67,-91c0,0,16,-43,16,-136V154c0,0,0,-64,10,-88c0,0,8,-16,28,-28c0,0,20,-12,65,-12V0H844V26h14c0,0,44,0,69,18c0,0,17,12,24,38c0,0,3,13,3,72V448c0,0,0,83,-20,117c0,0,-29,48,-93,48c0,0,-39,0,-79,-20c0,0,-40,-19,-97,-73l-1,-8l2,-32V154c0,0,0,-70,8,-87c0,0,7,-17,29,-29c0,0,21,-12,73,-12V0H431V26c0,0,57,0,78,14c0,0,21,13,29,40c0,0,4,13,4,74V448c0,0,0,83,-25,120c0,0,-33,48,-91,48c0,0,-40,0,-80,-22c0,0,-61,-33,-95,-74V154c0,0,0,-67,10,-87c0,0,9,-20,27,-30c0,0,18,-11,74,-11V0Z" 
id="f2_29"
transform="scale(0.001,-0.001)" />

<path d="M292,-20c0,0,-57,0,-100,33c0,0,-42,33,-58,85c0,0,-17,52,-17,148V551c0,0,0,49,-10,68c0,0,-11,18,-31,29c0,0,-19,9,-68,9c-2,0,-4,0,-6,0v26H242V226c0,0,0,-95,33,-125c0,0,33,-30,80,-30c0,0,32,0,73,21c0,0,40,20,96,76V555c0,0,0,59,-21,80c0,0,-22,21,-89,22v26H647V269c0,0,0,-119,6,-145c0,0,6,-27,18,-37c0,0,12,-11,29,-11c0,0,23,0,52,13L763,63L558,-20H524V124C524,124,436,29,390,4c0,0,-47,-24,-98,-24Z" 
id="f2_2h"
transform="scale(0.001,-0.001)" />

<path d="M397,34c0,0,67,0,126,75c0,0,58,74,58,216c0,0,0,131,-58,201c0,0,-59,70,-133,70c0,0,-39,0,-79,-20c0,0,-29,-14,-75,-59V109c0,0,37,-37,78,-56c0,0,40,-19,83,-19ZM358,-20c0,0,-59,0,-121,21c0,0,-61,22,-126,65V773c0,0,0,117,-5,144c0,0,-6,27,-18,37c0,0,-12,9,-29,9c0,0,-21,0,-53,-12l-9,27l205,83h34V564c0,0,98,139,213,139c0,0,105,0,183,-90c0,0,78,-90,78,-245c0,0,0,-182,-121,-293c0,0,-103,-95,-231,-95Z" 
id="f2_1y"
transform="scale(0.001,-0.001)" />

<path d="M384,85c0,0,44,0,78,19c0,0,35,19,68,62V487c0,0,0,55,-15,87c0,0,-14,33,-51,55c0,0,-38,22,-85,22c0,0,-84,0,-143,-71c0,0,-60,-70,-60,-214c0,0,0,-138,61,-209c0,0,61,-72,147,-72Zm35,-411v27h15c0,0,41,0,63,12c0,0,15,8,24,30c0,0,9,21,9,83V119C530,119,462,39,411,9c0,0,-50,-29,-105,-29c0,0,-99,0,-177,90c0,0,-78,90,-78,241c0,0,0,174,103,283c0,0,103,109,248,109c0,0,43,0,78,-12c0,0,36,-12,65,-35c0,0,43,20,83,47h25V-174c0,0,0,-66,9,-85c0,0,9,-19,28,-30c0,0,19,-10,74,-10v-27Z" 
id="f2_2d"
transform="scale(0.001,-0.001)" />

<path d="M406,32c0,0,72,0,119,60c0,0,47,59,47,205c0,0,0,181,-78,286c0,0,-53,71,-135,71c0,0,-40,0,-79,-23c0,0,-40,-24,-65,-83c0,0,-24,-58,-24,-151c0,0,0,-149,59,-257c0,0,59,-108,156,-108ZM374,-20c0,0,-154,0,-245,122c0,0,-77,104,-77,233c0,0,0,94,46,187c0,0,47,92,123,137c0,0,76,44,161,44c0,0,155,0,249,-118c0,0,80,-100,80,-231c0,0,0,-91,-44,-185C667,169,623,75,546,27c0,0,-77,-47,-172,-47Z" 
id="f2_2b"
transform="scale(0.001,-0.001)" />

<path d="M30,0V27L485,632H260c0,0,-72,0,-94,-10c0,0,-22,-9,-36,-35c0,0,-20,-37,-23,-92H76l5,188H654V656L196,51H445c0,0,79,0,106,13c0,0,28,13,45,46c0,0,12,23,21,100h25L634,0Z" 
id="f2_2m"
transform="scale(0.001,-0.001)" />

<path d="M376,-20L133,556c0,0,-17,41,-31,58c0,0,-15,18,-39,30c0,0,-12,7,-50,13v26H335V657H314c0,0,-29,0,-44,-14c0,0,-16,-14,-15,-38c0,0,-1,-26,15,-62L429,165L588,557c0,0,17,42,17,64c0,0,0,10,-6,17c0,0,-8,11,-21,15c0,0,-13,4,-52,4v26H750V657c0,0,-39,-3,-54,-16c0,0,-26,-23,-47,-76L409,-20Z" 
id="f2_2i"
transform="scale(0.001,-0.001)" />

<path d="M17,-328c0,0,-67,0,-100,24c0,0,-33,25,-33,51c0,0,0,26,18,45c0,0,18,18,43,18c0,0,19,0,40,-9c0,0,12,-6,48,-38c0,0,37,-33,61,-33c0,0,18,0,35,14c0,0,17,14,25,46c0,0,8,33,8,141V416c0,0,0,113,-6,145c0,0,-6,25,-17,34c0,0,-11,10,-31,10c0,0,-21,0,-51,-11L47,620l207,83h32V16c0,0,0,-175,-74,-260c0,0,-75,-84,-195,-84ZM223,908c0,0,-32,0,-54,23c0,0,-22,22,-22,53c0,0,0,32,22,55c0,0,22,22,54,22c0,0,32,0,54,-22c0,0,22,-23,22,-55c0,0,0,-31,-22,-53c0,0,-22,-23,-54,-23Z" 
id="f2_26"
transform="scale(0.001,-0.001)" />

<path d="M145,-328c0,0,-44,0,-73,25c0,0,-28,25,-28,58c0,0,0,31,21,50c0,0,20,19,56,19c0,0,25,0,67,-16c0,0,30,-11,38,-11c0,0,22,0,49,23c0,0,26,23,53,89L376,28L131,542c0,0,-11,24,-36,58c0,0,-19,27,-30,36c0,0,-18,12,-56,21v26H328V657H312c0,0,-33,0,-50,-15c0,0,-17,-14,-17,-36c0,0,0,-30,25,-81L437,179L589,557c0,0,12,31,12,62c0,0,0,13,-5,20c0,0,-6,8,-19,13c0,0,-12,5,-44,5v26H754V657c0,0,-27,-3,-42,-12c0,0,-15,-9,-33,-34c0,0,-7,-10,-25,-58L376,-128c0,0,-40,-99,-105,-150c0,0,-66,-50,-126,-50Z" 
id="f2_2l"
transform="scale(0.001,-0.001)" />

<path d="M398,24c0,0,74,0,120,58c0,0,61,76,61,214c0,0,0,156,-69,240c0,0,-47,59,-113,59c0,0,-36,0,-71,-18c0,0,-27,-14,-88,-81V242c0,0,0,-83,6,-109c0,0,11,-43,51,-76c0,0,41,-33,103,-33ZM-4,-326v27H15c5,0,42,0,69,16c0,0,14,8,22,26c0,0,7,19,7,94V481c0,0,0,67,-6,85c0,0,-5,18,-18,27c0,0,-13,9,-36,9c0,0,-18,0,-45,-10L0,615l209,85h29V540c0,0,53,91,106,127c0,0,53,36,112,36c0,0,103,0,172,-80c0,0,84,-99,84,-257c0,0,0,-176,-102,-292c0,0,-83,-94,-210,-94c0,0,-55,0,-95,16c0,0,-30,10,-67,44V-167c0,0,0,-71,8,-90c0,0,9,-20,30,-31c0,0,21,-11,77,-11v-27Z" 
id="f2_2c"
transform="scale(0.001,-0.001)" />

<path d="M191,-20c0,0,-34,0,-58,24c0,0,-24,24,-24,58c0,0,0,35,24,59c0,0,24,24,58,24c0,0,35,0,59,-24c0,0,24,-25,24,-59c0,0,0,-34,-24,-58c0,0,-25,-24,-59,-24Z" 
id="f2_i"
transform="scale(0.001,-0.001)" />

<path d="M545,30c0,0,143,0,236,111c0,0,93,111,93,351c0,0,0,259,-103,386c0,0,-82,102,-226,102c0,0,-136,0,-218,-101C327,879,225,754,225,512c0,0,0,-247,106,-380c0,0,81,-102,214,-102Zm2,-51c0,0,-209,0,-351,147C196,126,54,274,54,510c0,0,0,240,164,393c0,0,142,131,341,131c0,0,197,0,341,-149c0,0,145,-149,145,-373c0,0,0,-230,-146,-382C899,130,754,-21,547,-21Z" 
id="f2_1f"
transform="scale(0.001,-0.001)" />

<path d="M0,214v74H784V214ZM0,494v72H784V494Z" 
id="f3_x"
transform="scale(0.001,-0.001)" />

<path d="M342,-20c0,0,-116,0,-203,97c0,0,-86,98,-86,264c0,0,0,161,96,261c0,0,95,101,230,101c0,0,100,0,165,-53c0,0,65,-54,65,-111c0,0,0,-29,-18,-46c0,0,-18,-18,-51,-18c0,0,-44,0,-66,29c0,0,-13,15,-17,59c0,0,-4,45,-30,68c0,0,-26,22,-73,22c0,0,-74,0,-120,-55c0,0,-60,-73,-60,-193c0,0,0,-122,60,-216c0,0,60,-93,162,-93c0,0,73,0,131,49c0,0,41,35,80,126l22,-10C629,261,601,125,521,52c0,0,-81,-72,-179,-72Z" 
id="f2_1z"
transform="scale(0.001,-0.001)" />

<path d="M399,62c0,0,68,0,131,68V481c0,0,-5,51,-27,93c0,0,-22,42,-59,63c0,0,-37,21,-72,21c0,0,-65,0,-117,-59c0,0,-67,-77,-67,-226c0,0,0,-151,65,-231c0,0,66,-80,146,-80ZM330,-20c0,0,-112,0,-196,93c0,0,-83,94,-83,240c0,0,0,147,92,269c0,0,93,122,238,122c0,0,90,0,149,-58V773c0,0,0,117,-6,144c0,0,-5,27,-17,37c0,0,-12,9,-30,9c0,0,-20,0,-52,-12l-9,27l204,83h33V270c0,0,0,-120,6,-146c0,0,5,-27,18,-37c0,0,12,-11,28,-11c0,0,21,0,54,13l9,-26L564,-20H530V78C530,78,480,25,432,2c0,0,-47,-22,-102,-22Z" 
id="f2_20"
transform="scale(0.001,-0.001)" />

<path d="M379,29c0,0,41,0,84,37c0,0,43,36,65,121c0,0,34,128,34,362c0,0,0,173,-35,288c0,0,-27,86,-69,122c0,0,-31,25,-74,25c0,0,-51,0,-90,-46c0,0,-54,-62,-73,-195c0,0,-20,-132,-20,-261c0,0,0,-209,52,-341c0,0,42,-112,126,-112Zm-2,-46c0,0,-145,0,-241,170c0,0,-81,144,-81,347c0,0,0,173,52,298c0,0,52,125,139,186c0,0,67,49,139,49c0,0,116,0,208,-119c0,0,116,-147,116,-398c0,0,0,-176,-51,-299C658,217,608,94,529,38c0,0,-79,-55,-152,-55Z" 
id="f2_k"
transform="scale(0.001,-0.001)" />

<path d="M474,-326c0,0,-112,57,-188,133c0,0,-107,108,-165,254c0,0,-58,147,-58,305c0,0,0,231,114,421c0,0,114,191,297,273v-31c0,0,-92,-51,-151,-139c0,0,-59,-88,-88,-223c0,0,-30,-135,-30,-281c0,0,0,-160,25,-290c0,0,20,-102,47,-164c0,0,28,-62,75,-120c0,0,47,-57,122,-109v-29Z" 
id="f2_c"
transform="scale(0.001,-0.001)" />

<path d="M35,-326v29c0,0,92,51,151,139c0,0,60,87,89,221c0,0,28,136,28,282c0,0,0,159,-24,290c0,0,-19,103,-47,165c0,0,-28,62,-75,119c0,0,-46,57,-122,110v31c0,0,113,-56,188,-132c0,0,107,-109,165,-255c0,0,58,-147,58,-306c0,0,0,-231,-114,-420c0,0,-113,-191,-297,-273Z" 
id="f2_d"
transform="scale(0.001,-0.001)" />

<path d="M0,356v74H784V356Z" 
id="f3_h"
transform="scale(0.001,-0.001)" />

<path d="M448,514c0,0,104,0,155,19c0,0,52,19,81,69c0,0,30,50,30,129c0,0,0,116,-54,171c0,0,-54,55,-174,55H406V514ZM28,0V27c0,0,70,0,95,13c0,0,25,14,35,35c0,0,10,21,10,103V834c0,0,0,82,-10,104c0,0,-10,21,-35,34c0,0,-25,13,-95,13v27H498c0,0,184,0,269,-25c0,0,85,-26,138,-94c0,0,54,-68,54,-160c0,0,0,-112,-80,-185c0,0,-52,-46,-145,-69L977,135c0,0,48,-66,68,-82c0,0,31,-23,72,-26V0H798L472,462H406V178c0,0,0,-82,10,-104c0,0,10,-21,35,-34c0,0,25,-13,95,-13V0Z" 
id="f1_1i"
transform="scale(0.001,-0.001)" />

<path d="M312,-20c0,0,-50,0,-134,30c0,0,-22,9,-30,9c0,0,-25,0,-41,-37H82L70,232H97c0,0,33,-99,91,-148c0,0,59,-49,111,-49c0,0,35,0,58,22c0,0,22,22,22,54c0,0,0,35,-22,61c0,0,-22,27,-100,80c0,0,-114,79,-147,120c0,0,-49,62,-49,136c0,0,0,80,55,145c0,0,56,66,161,66c0,0,56,0,109,-28c0,0,20,-11,33,-11c0,0,13,0,21,5c0,0,9,6,27,32h26L504,479H477c0,0,-45,106,-94,145c0,0,-48,39,-96,39c0,0,-31,0,-52,-21c0,0,-22,-20,-22,-47c0,0,0,-20,15,-39c0,0,24,-30,133,-105c0,0,110,-74,144,-126c0,0,35,-52,35,-116c0,0,0,-58,-29,-114C511,95,482,39,429,9c0,0,-53,-29,-117,-29Z" 
id="f1_2f"
transform="scale(0.001,-0.001)" />

<path d="M32,0V26c0,0,46,2,69,27c0,0,14,18,14,92V867c0,0,0,74,-17,94c0,0,-17,21,-66,24v27H325V145c0,0,0,-74,17,-95c0,0,17,-21,68,-24V0Z" 
id="f1_28"
transform="scale(0.001,-0.001)" />

<path d="M304,-20c0,0,-59,0,-105,36c0,0,-45,36,-61,84c0,0,-16,49,-16,169V546c0,0,0,79,-14,98c0,0,-15,20,-61,26v27H331V221c0,0,0,-74,8,-96c0,0,7,-21,22,-33c0,0,15,-11,35,-11c0,0,27,0,49,14c0,0,30,20,71,78V546c0,0,0,79,-14,98c0,0,-15,20,-61,26v27H726V152c0,0,0,-81,14,-100c0,0,15,-20,61,-26V0H516V93C516,93,466,34,416,7c0,0,-50,-27,-112,-27Z" 
id="f1_2h"
transform="scale(0.001,-0.001)" />

<path d="M32,0V26c0,0,46,2,69,27c0,0,14,18,14,92V551c0,0,0,75,-17,95c0,0,-17,21,-66,24v27H325V145c0,0,0,-74,17,-95c0,0,17,-21,68,-24V0ZM220,804c0,0,-48,0,-82,33c0,0,-33,34,-33,82c0,0,0,48,33,82c0,0,34,33,82,33c0,0,48,0,82,-33c0,0,33,-34,33,-82c0,0,0,-48,-34,-82c0,0,-34,-33,-81,-33Z" 
id="f1_25"
transform="scale(0.001,-0.001)" />

<path d="M52,0V26c0,0,44,5,62,29c0,0,13,16,13,97V546c0,0,0,79,-14,98c0,0,-15,20,-61,26v27H336V607c0,0,54,59,104,85c0,0,49,27,106,27c0,0,68,0,113,-38c0,0,44,-38,59,-94c0,0,12,-42,12,-163V152c0,0,0,-81,15,-101c0,0,14,-19,61,-25V0H452V26c0,0,40,6,57,33c0,0,12,19,12,93V462c0,0,0,86,-7,109c0,0,-6,22,-22,35c0,0,-16,12,-36,12c0,0,-64,0,-120,-92V152c0,0,0,-79,15,-100c0,0,15,-20,55,-26V0Z" 
id="f1_2a"
transform="scale(0.001,-0.001)" />

<path d="M49,0V26c0,0,47,1,67,11c0,0,20,10,28,28c0,0,7,18,7,75l-1,484H49v73H150v87c0,0,0,107,79,179c0,0,78,71,212,71c0,0,92,0,136,-34c0,0,45,-34,45,-76c0,0,0,-34,-28,-58c0,0,-28,-25,-73,-25c0,0,-39,0,-62,20c0,0,-22,20,-22,45c0,0,0,6,4,27c0,0,3,13,3,24c0,0,0,16,-9,23c0,0,-12,11,-29,11c0,0,-21,0,-36,-17c0,0,-15,-18,-15,-58l1,-130V697H460V624H356l1,-484c0,0,0,-70,15,-88c0,0,22,-26,81,-26c2,0,5,0,7,0V0Z" 
id="f1_22"
transform="scale(0.001,-0.001)" />

<path d="M678,393L506,802L330,393ZM11,0V27c0,0,63,12,82,30c0,0,38,35,84,145l356,832h27L912,193c0,0,43,-101,77,-132c0,0,35,-30,97,-34V0H687V27c0,0,60,3,82,21c0,0,21,17,21,41c0,0,0,33,-30,104L700,338H307L239,179c0,0,-26,-59,-26,-88c0,0,0,-23,22,-41c0,0,22,-17,95,-23V0Z" 
id="f2_11"
transform="scale(0.001,-0.001)" />

<path d="M485,53c0,0,135,0,206,61c0,0,71,60,71,150c0,0,0,59,-32,114c0,0,-33,54,-105,85c0,0,-72,32,-179,32c0,0,-46,0,-79,-2c0,0,-33,-1,-53,-5V73c0,0,86,-20,171,-20ZM455,547c0,0,109,0,164,23c0,0,55,24,84,72c0,0,29,49,29,106c0,0,0,89,-72,151c0,0,-73,63,-212,63c0,0,-74,0,-134,-16V557c0,0,27,-5,63,-8c0,0,35,-2,78,-2ZM24,0V27H63c0,0,63,0,91,41c0,0,17,26,17,111V833c0,0,0,94,-22,119c0,0,-29,33,-86,33H24v27H462c0,0,122,0,196,-18c0,0,112,-27,171,-95c0,0,59,-68,59,-157c0,0,0,-76,-46,-136c0,0,-47,-60,-137,-89c0,0,105,-23,157,-72c0,0,73,-69,73,-168c0,0,0,-75,-48,-145C887,132,839,63,756,32C756,32,673,0,502,0Z" 
id="f2_12"
transform="scale(0.001,-0.001)" />

<path d="M82,-253v33c0,0,77,25,119,78c0,0,42,54,42,114c0,0,0,14,-7,23c0,0,-5,6,-11,6c0,0,-8,0,-35,-14c0,0,-14,-7,-28,-7c0,0,-37,0,-58,21C104,1,82,23,82,61c0,0,0,36,28,62c0,0,28,27,68,27c0,0,49,0,88,-43c0,0,38,-43,38,-113c0,0,0,-77,-53,-143c0,0,-53,-66,-169,-104Z" 
id="f2_g"
transform="scale(0.001,-0.001)" />

<path d="M548,-21c0,0,-251,0,-389,185C159,164,56,303,56,490c0,0,0,152,68,278c0,0,67,127,186,197c0,0,119,69,260,69c0,0,109,0,216,-53c0,0,31,-17,44,-17c0,0,20,0,35,14c0,0,20,21,28,56h26L943,690H919c0,0,-46,155,-131,224c0,0,-86,68,-206,68c0,0,-100,0,-181,-51c0,0,-81,-52,-128,-163c0,0,-46,-112,-46,-279c0,0,0,-137,44,-238c0,0,44,-101,132,-154c0,0,88,-54,201,-54c0,0,99,0,174,42c0,0,75,42,165,167l23,-14C966,238,890,103,789,40c0,0,-102,-61,-241,-61Z" 
id="f2_13"
transform="scale(0.001,-0.001)" />

<path d="M27,354v62H831V354Zm0,243v62H831V597Z" 
id="f2_x"
transform="scale(0.001,-0.001)" />

<path d="M338,28c0,0,48,0,91,45c0,0,43,45,65,144c0,0,22,99,26,276H143c0,0,3,-133,20,-239c0,0,13,-80,44,-140c0,0,19,-36,54,-61c0,0,36,-25,77,-25ZM522,543c0,0,-1,194,-37,312c0,0,-29,90,-76,129c0,0,-34,28,-79,28c0,0,-51,0,-93,-39c0,0,-43,-40,-65,-132c0,0,-22,-93,-29,-298ZM329,-21c0,0,-68,0,-124,31c0,0,-56,33,-99,95c0,0,-43,62,-66,131C40,236,0,356,0,489c0,0,0,294,119,453c0,0,91,119,217,119c0,0,122,0,209,-115c0,0,121,-160,121,-436c0,0,0,-263,-119,-415C547,95,455,-21,329,-21Z" 
id="f3_2d"
transform="scale(0.001,-0.001)" />

<path d="M63,0V26H93c0,0,30,0,54,15c0,0,25,15,34,41c0,0,10,25,10,99V630H58v53H191v45c0,0,0,102,33,173c0,0,32,71,100,114c0,0,68,44,152,44c0,0,79,0,145,-51c0,0,43,-33,43,-75c0,0,0,-22,-19,-42c0,0,-20,-20,-42,-20c0,0,-17,0,-36,12c0,0,-19,13,-47,53c0,0,-28,41,-51,55c0,0,-23,14,-51,14c0,0,-35,0,-58,-18c0,0,-24,-18,-35,-57c0,0,-10,-38,-10,-197V683H491V630H315V181c0,0,0,-96,21,-122c0,0,27,-33,73,-33h62V0Z" 
id="f2_22"
transform="scale(0.001,-0.001)" />

<path d="M465,786H442L239,946L67,786H45l141,248H324L465,786Z" 
id="f2_5z"
transform="scale(0.001,-0.001)" />

<path d="M12,0V27c0,0,38,4,66,16c0,0,46,19,88,52c0,0,41,33,95,101L496,496L300,789c0,0,-81,119,-138,156c0,0,-57,37,-130,40v27H499V985c0,0,-59,-3,-81,-20c0,0,-22,-17,-22,-38c0,0,0,-28,35,-81L588,613L767,841c0,0,31,41,38,56c0,0,7,15,7,31c0,0,0,15,-9,27c0,0,-11,16,-28,22c0,0,-17,7,-71,8v27h359V985c0,0,-42,-3,-69,-14c0,0,-40,-17,-74,-46c0,0,-34,-29,-95,-108L624,560L842,236c0,0,90,-134,134,-169c0,0,43,-36,111,-40V0H652V27c0,0,43,1,64,9c0,0,16,7,26,21c0,0,10,14,10,28c0,0,0,17,-7,35c0,0,-5,12,-41,66L532,443L320,173c0,0,-33,-44,-40,-58c0,0,-7,-15,-7,-30c0,0,0,-24,21,-40c0,0,20,-15,76,-18V0Z" 
id="f2_1o"
transform="scale(0.001,-0.001)" />

<path d="M332,0V27h36c0,0,64,0,91,39c0,0,16,24,16,109V414L198,839c0,0,-49,75,-67,94c0,0,-17,18,-72,44c0,0,-15,8,-44,8v27H447V985H425c0,0,-35,0,-65,-17c0,0,-29,-16,-29,-49c0,0,0,-27,46,-97L587,496L786,808c0,0,44,70,44,104c0,0,0,21,-10,37c0,0,-11,17,-31,26c0,0,-20,10,-61,10v27h353V985h-19c0,0,-19,0,-57,-18c0,0,-37,-17,-67,-49c0,0,-31,-32,-76,-105L618,430V175c0,0,0,-93,21,-116c0,0,28,-32,89,-32h33V0Z" 
id="f2_1p"
transform="scale(0.001,-0.001)" />

<path d="M336,-20L117,554c0,0,-21,55,-42,74c0,0,-21,19,-66,29v26H296V657c0,0,-40,-3,-52,-14c0,0,-13,-12,-13,-33c0,0,0,-23,13,-56L390,162L537,481L498,581c0,0,-18,46,-47,63c0,0,-17,11,-61,13v26H716V657c0,0,-54,-2,-77,-20c0,0,-15,-12,-15,-39c0,0,0,-15,6,-30L785,177L929,554c0,0,15,40,15,65c0,0,0,14,-15,25c0,0,-14,12,-57,13v26h216V657c0,0,-65,-10,-95,-89L764,-20H733L563,415L363,-20Z" 
id="f2_2j"
transform="scale(0.001,-0.001)" />


</defs>
</svg>