<?xml version="1.0" encoding="UTF-8" standalone="no"?>
<!DOCTYPE svg PUBLIC "-//W3C//DTD SVG 1.1//EN"
"http://www.w3.org/Graphics/SVG/1.1/DTD/svg11.dtd">
<svg viewBox="0 0 909 1286" version="1.1" xmlns="http://www.w3.org/2000/svg" xmlns:xlink="http://www.w3.org/1999/xlink">
<defs>
<style type="text/css"><![CDATA[
.g0_20{
fill: #404040;
}
.g1_20{
}
.g2_20{
fill: #1A1A1A;
}
.g3_20{
fill: none;
stroke: #000000;
stroke-width: 1.1;
stroke-linecap: round;
stroke-linejoin: round;
}
.g4_20{
fill: #FFFFFF;
}
]]></style>
</defs>
<g fill="#000000" >
<use xlink:href="#f0_t" transform="matrix(10,0,0,10,82.5,144.5)" />
<use xlink:href="#f0_i" transform="matrix(10,0,0,10,90.2,144.5)" />
<use xlink:href="#f0_m" transform="matrix(10,0,0,10,94.1,144.5)" />
<use xlink:href="#f0_1e" transform="matrix(10,0,0,10,105.4,144.5)" />
<use xlink:href="#f0_2b" transform="matrix(10,0,0,10,116.4,144.5)" />
<use xlink:href="#f0_2a" transform="matrix(10,0,0,10,123.9,144.5)" />
<use xlink:href="#f0_h" transform="matrix(10,0,0,10,132.4,144.5)" />
<use xlink:href="#f0_1l" transform="matrix(10,0,0,10,137.7,144.5)" />
<use xlink:href="#f0_2a" transform="matrix(10,0,0,10,148.7,144.5)" />
<use xlink:href="#f0_25" transform="matrix(10,0,0,10,156.9,144.5)" />
<use xlink:href="#f0_22" transform="matrix(10,0,0,10,161.1,144.5)" />
<use xlink:href="#f0_2b" transform="matrix(10,0,0,10,166.5,144.5)" />
<use xlink:href="#f0_2e" transform="matrix(10,0,0,10,174.2,144.5)" />
<use xlink:href="#f0_29" transform="matrix(10,0,0,10,180.9,144.5)" />
<use xlink:href="#f0_29" transform="matrix(10,0,0,10,197.1,144.5)" />
<use xlink:href="#f0_2b" transform="matrix(10,0,0,10,209.2,144.5)" />
<use xlink:href="#f0_2g" transform="matrix(10,0,0,10,216.9,144.5)" />
<use xlink:href="#f0_25" transform="matrix(10,0,0,10,222.2,144.5)" />
<use xlink:href="#f0_2b" transform="matrix(10,0,0,10,226.4,144.5)" />
<use xlink:href="#f0_2a" transform="matrix(10,0,0,10,233.9,144.5)" />
<use xlink:href="#f1_1l" transform="matrix(10,0,0,10,110,184.6)" />
<use xlink:href="#f1_2a" transform="matrix(10,0,0,10,120.8,184.6)" />
<use xlink:href="#f1_25" transform="matrix(10,0,0,10,128.3,184.6)" />
<use xlink:href="#f1_22" transform="matrix(10,0,0,10,132.5,184.6)" />
<use xlink:href="#f1_2b" transform="matrix(10,0,0,10,137.7,184.6)" />
<use xlink:href="#f1_2e" transform="matrix(10,0,0,10,145.2,184.6)" />
<use xlink:href="#f1_29" transform="matrix(10,0,0,10,150.5,184.6)" />
<use xlink:href="#f1_28" transform="matrix(10,0,0,10,162.1,184.6)" />
<use xlink:href="#f1_2l" transform="matrix(10,0,0,10,166.3,184.6)" />
<use xlink:href="#f1_1x" transform="matrix(10,0,0,10,177.3,184.6)" />
<use xlink:href="#f1_1z" transform="matrix(10,0,0,10,184.3,184.6)" />
<use xlink:href="#f1_1z" transform="matrix(10,0,0,10,190.9,184.6)" />
<use xlink:href="#f1_21" transform="matrix(10,0,0,10,197.8,184.6)" />
<use xlink:href="#f1_28" transform="matrix(10,0,0,10,204.6,184.6)" />
<use xlink:href="#f1_21" transform="matrix(10,0,0,10,208.8,184.6)" />
<use xlink:href="#f1_2e" transform="matrix(10,0,0,10,215.6,184.6)" />
<use xlink:href="#f1_1x" transform="matrix(10,0,0,10,220.8,184.6)" />
<use xlink:href="#f1_2g" transform="matrix(10,0,0,10,227.5,184.6)" />
<use xlink:href="#f1_21" transform="matrix(10,0,0,10,231.8,184.6)" />
<use xlink:href="#f1_20" transform="matrix(10,0,0,10,238.5,184.6)" />
<use xlink:href="#f1_29" transform="matrix(10,0,0,10,250.1,184.6)" />
<use xlink:href="#f1_2b" transform="matrix(10,0,0,10,261.6,184.6)" />
<use xlink:href="#f1_2g" transform="matrix(10,0,0,10,269.2,184.6)" />
<use xlink:href="#f1_25" transform="matrix(10,0,0,10,273.4,184.6)" />
<use xlink:href="#f1_2b" transform="matrix(10,0,0,10,277.6,184.6)" />
<use xlink:href="#f1_2a" transform="matrix(10,0,0,10,285.5,184.6)" />
<use xlink:href="#f1_11" transform="matrix(10,0,0,10,110,214.1)" />
<use xlink:href="#f1_1z" transform="matrix(10,0,0,10,120.6,214.1)" />
<use xlink:href="#f1_1z" transform="matrix(10,0,0,10,127.6,214.1)" />
<use xlink:href="#f1_21" transform="matrix(10,0,0,10,134.4,214.1)" />
<use xlink:href="#f1_28" transform="matrix(10,0,0,10,141,214.1)" />
<use xlink:href="#f1_21" transform="matrix(10,0,0,10,145.4,214.1)" />
<use xlink:href="#f1_2e" transform="matrix(10,0,0,10,152.2,214.1)" />
<use xlink:href="#f1_1x" transform="matrix(10,0,0,10,157.3,214.1)" />
<use xlink:href="#f1_2g" transform="matrix(10,0,0,10,164.1,214.1)" />
<use xlink:href="#f1_21" transform="matrix(10,0,0,10,168.1,214.1)" />
<use xlink:href="#f1_20" transform="matrix(10,0,0,10,175.1,214.1)" />
<use xlink:href="#f1_29" transform="matrix(10,0,0,10,186.6,214.1)" />
<use xlink:href="#f1_2b" transform="matrix(10,0,0,10,198.2,214.1)" />
<use xlink:href="#f1_2g" transform="matrix(10,0,0,10,205.7,214.1)" />
<use xlink:href="#f1_25" transform="matrix(10,0,0,10,209.9,214.1)" />
<use xlink:href="#f1_2b" transform="matrix(10,0,0,10,214.2,214.1)" />
<use xlink:href="#f1_2a" transform="matrix(10,0,0,10,222,214.1)" />
<use xlink:href="#f1_1d" transform="matrix(10,0,0,10,110,243.3)" />
<use xlink:href="#f1_1x" transform="matrix(10,0,0,10,123.4,243.3)" />
<use xlink:href="#f1_23" transform="matrix(10,0,0,10,130.3,243.3)" />
<use xlink:href="#f1_2a" transform="matrix(10,0,0,10,137.7,243.3)" />
<use xlink:href="#f1_25" transform="matrix(10,0,0,10,145.4,243.3)" />
<use xlink:href="#f1_2g" transform="matrix(10,0,0,10,149.4,243.3)" />
<use xlink:href="#f1_2h" transform="matrix(10,0,0,10,153.6,243.3)" />
<use xlink:href="#f1_20" transform="matrix(10,0,0,10,161.3,243.3)" />
<use xlink:href="#f1_21" transform="matrix(10,0,0,10,168.9,243.3)" />
<use xlink:href="#f1_2b" transform="matrix(10,0,0,10,179.5,243.3)" />
<use xlink:href="#f1_22" transform="matrix(10,0,0,10,187.4,243.3)" />
<use xlink:href="#f1_1m" transform="matrix(10,0,0,10,195.6,243.3)" />
<use xlink:href="#f1_21" transform="matrix(10,0,0,10,205.2,243.3)" />
<use xlink:href="#f1_28" transform="matrix(10,0,0,10,211.9,243.3)" />
<use xlink:href="#f1_2b" transform="matrix(10,0,0,10,216,243.3)" />
<use xlink:href="#f1_1z" transform="matrix(10,0,0,10,223.7,243.3)" />
<use xlink:href="#f1_25" transform="matrix(10,0,0,10,230.6,243.3)" />
<use xlink:href="#f1_2g" transform="matrix(10,0,0,10,234.7,243.3)" />
<use xlink:href="#f1_2l" transform="matrix(10,0,0,10,238.9,243.3)" />
<use xlink:href="#f1_25" transform="matrix(10,0,0,10,250.3,243.3)" />
<use xlink:href="#f1_2a" transform="matrix(10,0,0,10,254.5,243.3)" />
<use xlink:href="#f1_1z" transform="matrix(10,0,0,10,261.8,243.3)" />
<use xlink:href="#f1_2e" transform="matrix(10,0,0,10,268.8,243.3)" />
<use xlink:href="#f1_21" transform="matrix(10,0,0,10,273.7,243.3)" />
<use xlink:href="#f1_1x" transform="matrix(10,0,0,10,280.7,243.3)" />
<use xlink:href="#f1_2f" transform="matrix(10,0,0,10,287.5,243.3)" />
<use xlink:href="#f1_21" transform="matrix(10,0,0,10,293.2,243.3)" />
<use xlink:href="#f1_2f" transform="matrix(10,0,0,10,300,243.3)" />
<use xlink:href="#f1_2b" transform="matrix(10,0,0,10,309.9,243.3)" />
<use xlink:href="#f1_2e" transform="matrix(10,0,0,10,317.6,243.3)" />
<use xlink:href="#f1_20" transform="matrix(10,0,0,10,326.4,243.3)" />
<use xlink:href="#f1_21" transform="matrix(10,0,0,10,334.2,243.3)" />
<use xlink:href="#f1_1z" transform="matrix(10,0,0,10,340.8,243.3)" />
<use xlink:href="#f1_2e" transform="matrix(10,0,0,10,347.8,243.3)" />
<use xlink:href="#f1_21" transform="matrix(10,0,0,10,352.8,243.3)" />
<use xlink:href="#f1_1x" transform="matrix(10,0,0,10,359.7,243.3)" />
<use xlink:href="#f1_2f" transform="matrix(10,0,0,10,366.5,243.3)" />
<use xlink:href="#f1_21" transform="matrix(10,0,0,10,372.2,243.3)" />
<use xlink:href="#f1_2f" transform="matrix(10,0,0,10,379.2,243.3)" />
<use xlink:href="#f1_2j" transform="matrix(10,0,0,10,388.7,243.3)" />
<use xlink:href="#f1_25" transform="matrix(10,0,0,10,399.3,243.3)" />
<use xlink:href="#f1_2g" transform="matrix(10,0,0,10,403.4,243.3)" />
<use xlink:href="#f1_24" transform="matrix(10,0,0,10,407.6,243.3)" />
<use xlink:href="#f1_2g" transform="matrix(10,0,0,10,419.1,243.3)" />
<use xlink:href="#f1_25" transform="matrix(10,0,0,10,423.3,243.3)" />
<use xlink:href="#f1_29" transform="matrix(10,0,0,10,427.5,243.3)" />
<use xlink:href="#f1_21" transform="matrix(10,0,0,10,439.1,243.3)" />
<use xlink:href="#f0_20" transform="matrix(10,0,0,10,68.7,286.5)" />
<use xlink:href="#f0_25" transform="matrix(10,0,0,10,77,286.5)" />
<use xlink:href="#f0_2f" transform="matrix(10,0,0,10,81.2,286.5)" />
<use xlink:href="#f0_2c" transform="matrix(10,0,0,10,87.3,286.5)" />
<use xlink:href="#f0_28" transform="matrix(10,0,0,10,95.5,286.5)" />
<use xlink:href="#f0_1x" transform="matrix(10,0,0,10,99.7,286.5)" />
<use xlink:href="#f0_1z" transform="matrix(10,0,0,10,107.6,286.5)" />
<use xlink:href="#f0_21" transform="matrix(10,0,0,10,114.4,286.5)" />
<use xlink:href="#f0_29" transform="matrix(10,0,0,10,121.2,286.5)" />
<use xlink:href="#f0_21" transform="matrix(10,0,0,10,133.3,286.5)" />
<use xlink:href="#f0_2a" transform="matrix(10,0,0,10,140.3,286.5)" />
<use xlink:href="#f0_2g" transform="matrix(10,0,0,10,148.5,286.5)" />
<use xlink:href="#f0_4y" transform="matrix(10,0,0,10,157.3,286.5)" />
<use xlink:href="#f0_2g" transform="matrix(10,0,0,10,168.9,286.5)" />
<use xlink:href="#f0_25" transform="matrix(10,0,0,10,174.2,286.5)" />
<use xlink:href="#f0_29" transform="matrix(10,0,0,10,178.4,286.5)" />
<use xlink:href="#f0_21" transform="matrix(10,0,0,10,190.7,286.5)" />
<use xlink:href="#f0_23" transform="matrix(10,0,0,10,201.1,286.5)" />
<use xlink:href="#f0_2e" transform="matrix(10,0,0,10,208.6,286.5)" />
<use xlink:href="#f0_1x" transform="matrix(10,0,0,10,215.6,286.5)" />
<use xlink:href="#f0_2c" transform="matrix(10,0,0,10,223.3,286.5)" />
<use xlink:href="#f0_24" transform="matrix(10,0,0,10,231.6,286.5)" />
<use xlink:href="#f0_2i" transform="matrix(10,0,0,10,384.8,286.5)" />
<use xlink:href="#f0_21" transform="matrix(10,0,0,10,392.7,286.5)" />
<use xlink:href="#f0_28" transform="matrix(10,0,0,10,399.5,286.5)" />
<use xlink:href="#f0_2b" transform="matrix(10,0,0,10,403.7,286.5)" />
<use xlink:href="#f0_1z" transform="matrix(10,0,0,10,411.4,286.5)" />
<use xlink:href="#f0_25" transform="matrix(10,0,0,10,418.2,286.5)" />
<use xlink:href="#f0_2g" transform="matrix(10,0,0,10,422.2,286.5)" />
<use xlink:href="#f0_2l" transform="matrix(10,0,0,10,427.4,286.5)" />
<use xlink:href="#f0_4y" transform="matrix(10,0,0,10,438.9,286.5)" />
<use xlink:href="#f0_2g" transform="matrix(10,0,0,10,450.5,286.5)" />
<use xlink:href="#f0_25" transform="matrix(10,0,0,10,455.4,286.5)" />
<use xlink:href="#f0_29" transform="matrix(10,0,0,10,459.6,286.5)" />
<use xlink:href="#f0_21" transform="matrix(10,0,0,10,472.1,286.5)" />
<use xlink:href="#f0_23" transform="matrix(10,0,0,10,482.6,286.5)" />
<use xlink:href="#f0_2e" transform="matrix(10,0,0,10,490.4,286.5)" />
<use xlink:href="#f0_1x" transform="matrix(10,0,0,10,497.2,286.5)" />
<use xlink:href="#f0_2c" transform="matrix(10,0,0,10,504.7,286.5)" />
<use xlink:href="#f0_24" transform="matrix(10,0,0,10,513.4,286.5)" />
<use xlink:href="#f0_1x" transform="matrix(10,0,0,10,649.6,286.5)" />
<use xlink:href="#f0_1z" transform="matrix(10,0,0,10,657.5,286.5)" />
<use xlink:href="#f0_1z" transform="matrix(10,0,0,10,664.1,286.5)" />
<use xlink:href="#f0_21" transform="matrix(10,0,0,10,671,286.5)" />
<use xlink:href="#f0_28" transform="matrix(10,0,0,10,677.8,286.5)" />
<use xlink:href="#f0_21" transform="matrix(10,0,0,10,682,286.5)" />
<use xlink:href="#f0_2e" transform="matrix(10,0,0,10,688.8,286.5)" />
<use xlink:href="#f0_1x" transform="matrix(10,0,0,10,695.6,286.5)" />
<use xlink:href="#f0_2g" transform="matrix(10,0,0,10,703.1,286.5)" />
<use xlink:href="#f0_25" transform="matrix(10,0,0,10,708.4,286.5)" />
<use xlink:href="#f0_2b" transform="matrix(10,0,0,10,712.6,286.5)" />
<use xlink:href="#f0_2a" transform="matrix(10,0,0,10,720.1,286.5)" />
<use xlink:href="#f0_4y" transform="matrix(10,0,0,10,732.6,286.5)" />
<use xlink:href="#f0_2g" transform="matrix(10,0,0,10,743.8,286.5)" />
<use xlink:href="#f0_25" transform="matrix(10,0,0,10,749.1,286.5)" />
<use xlink:href="#f0_29" transform="matrix(10,0,0,10,753.3,286.5)" />
<use xlink:href="#f0_21" transform="matrix(10,0,0,10,765.6,286.5)" />
<use xlink:href="#f0_23" transform="matrix(10,0,0,10,776.1,286.5)" />
<use xlink:href="#f0_2e" transform="matrix(10,0,0,10,783.9,286.5)" />
<use xlink:href="#f0_1x" transform="matrix(10,0,0,10,790.7,286.5)" />
<use xlink:href="#f0_2c" transform="matrix(10,0,0,10,798.2,286.5)" />
<use xlink:href="#f0_24" transform="matrix(10,0,0,10,806.7,286.5)" />
<use xlink:href="#f0_2i" transform="matrix(10,0,0,10,385,311.8)" />
<use xlink:href="#f0_21" transform="matrix(10,0,0,10,392.7,311.8)" />
<use xlink:href="#f0_28" transform="matrix(10,0,0,10,399.5,311.8)" />
<use xlink:href="#f0_2b" transform="matrix(10,0,0,10,403.7,311.8)" />
<use xlink:href="#f0_1z" transform="matrix(10,0,0,10,411.2,311.8)" />
<use xlink:href="#f0_25" transform="matrix(10,0,0,10,418.2,311.8)" />
<use xlink:href="#f0_2g" transform="matrix(10,0,0,10,422.4,311.8)" />
<use xlink:href="#f0_2l" transform="matrix(10,0,0,10,427.5,311.8)" />
<use xlink:href="#f0_x" transform="matrix(10,0,0,10,438.9,311.8)" />
<use xlink:href="#f0_2f" transform="matrix(10,0,0,10,451.4,311.8)" />
<use xlink:href="#f0_28" transform="matrix(10,0,0,10,457.2,311.8)" />
<use xlink:href="#f0_2b" transform="matrix(10,0,0,10,461.6,311.8)" />
<use xlink:href="#f0_2c" transform="matrix(10,0,0,10,469.3,311.8)" />
<use xlink:href="#f0_21" transform="matrix(10,0,0,10,477.8,311.8)" />
<use xlink:href="#f0_2b" transform="matrix(10,0,0,10,488.4,311.8)" />
<use xlink:href="#f0_22" transform="matrix(10,0,0,10,495.9,311.8)" />
<use xlink:href="#f0_2k" transform="matrix(10,0,0,10,504.7,311.8)" />
<use xlink:href="#f0_4y" transform="matrix(10,0,0,10,516.3,311.8)" />
<use xlink:href="#f0_2g" transform="matrix(10,0,0,10,527.8,311.8)" />
<use xlink:href="#f0_23" transform="matrix(10,0,0,10,536.8,311.8)" />
<use xlink:href="#f0_2e" transform="matrix(10,0,0,10,544.5,311.8)" />
<use xlink:href="#f0_1x" transform="matrix(10,0,0,10,551.3,311.8)" />
<use xlink:href="#f0_2c" transform="matrix(10,0,0,10,558.8,311.8)" />
<use xlink:href="#f0_24" transform="matrix(10,0,0,10,567.2,311.8)" />
<use xlink:href="#f0_1x" transform="matrix(10,0,0,10,649.6,311.8)" />
<use xlink:href="#f0_1z" transform="matrix(10,0,0,10,657.4,311.8)" />
<use xlink:href="#f0_1z" transform="matrix(10,0,0,10,664.2,311.8)" />
<use xlink:href="#f0_2a" transform="matrix(7,0,0,7,670.8,304.1)" />
<use xlink:href="#f0_x" transform="matrix(10,0,0,10,680.4,311.8)" />
<use xlink:href="#f0_2f" transform="matrix(10,0,0,10,692.8,311.8)" />
<use xlink:href="#f0_28" transform="matrix(10,0,0,10,698.9,311.8)" />
<use xlink:href="#f0_2b" transform="matrix(10,0,0,10,703.1,311.8)" />
<use xlink:href="#f0_2c" transform="matrix(10,0,0,10,710.6,311.8)" />
<use xlink:href="#f0_21" transform="matrix(10,0,0,10,719,311.8)" />
<use xlink:href="#f0_2b" transform="matrix(10,0,0,10,729.7,311.8)" />
<use xlink:href="#f0_22" transform="matrix(10,0,0,10,737.6,311.8)" />
<use xlink:href="#f0_2i" transform="matrix(10,0,0,10,746.2,311.8)" />
<use xlink:href="#f0_4y" transform="matrix(10,0,0,10,757.7,311.8)" />
<use xlink:href="#f0_2g" transform="matrix(10,0,0,10,769.3,311.8)" />
<use xlink:href="#f0_23" transform="matrix(10,0,0,10,778.3,311.8)" />
<use xlink:href="#f0_2e" transform="matrix(10,0,0,10,786.1,311.8)" />
<use xlink:href="#f0_1x" transform="matrix(10,0,0,10,792.9,311.8)" />
<use xlink:href="#f0_2c" transform="matrix(10,0,0,10,800.4,311.8)" />
<use xlink:href="#f0_24" transform="matrix(10,0,0,10,808.9,311.8)" />
<use xlink:href="#f0_c" transform="matrix(10,0,0,10,68.8,419.6)" />
<use xlink:href="#f0_25" transform="matrix(10,0,0,10,73.9,419.6)" />
<use xlink:href="#f0_d" transform="matrix(10,0,0,10,77.9,419.6)" />
</g>
<image preserveAspectRatio="none" x="100" y="363" width="136" height="14" xlink:href="img/1.png" />
<image preserveAspectRatio="none" x="100" y="377" width="136" height="13" xlink:href="img/2.png" />
<image preserveAspectRatio="none" x="100" y="390" width="136" height="13" xlink:href="img/3.png" />
<image preserveAspectRatio="none" x="100" y="403" width="136" height="13" xlink:href="img/4.png" />
<image preserveAspectRatio="none" x="100" y="416" width="136" height="14" xlink:href="img/5.png" />
<image preserveAspectRatio="none" x="100" y="429" width="136" height="14" xlink:href="img/6.png" />
<image preserveAspectRatio="none" x="100" y="442" width="136" height="14" xlink:href="img/7.png" />
<image preserveAspectRatio="none" x="100" y="456" width="136" height="13" xlink:href="img/8.png" />
<path d="M529.3,369.2L428.1,460.5l-.7,-1.1L528.2,368.1l1.1,1.1Z" class="g0_20" />
<path d="M542.5,413.2H428.1v-1.4H542.5v1.4Zm1.8,0l-.7,-1.4v1.4l-6.2,-4l.7,-1.1l6.2,3.7v1.4Zm0,0v-1.4l1.1,.7l-1.1,.7Zm-6.6,3.3l-.3,-.7l6.2,-4l.7,1.4l-6.2,4.1l-.4,-.8Z" class="g1_20" />
<path d="M427,362.3h1.1l4,6.2l-1.1,.7l-4,-5.8h1.1L427,362.3Zm0,0l.7,-.8l.4,.8H427Zm-3.5,6.6l-.7,-.4l4.2,-6.2l1.1,1.1l-3.9,5.8l-.7,-.3Zm3.5,97.9V364.1h1.5V466.8H427Z" class="g1_20" />
<path d="M413,364.5h3.3v.1h-.1c-.2,0,-.4,.2,-.6,.2q0,.2,0,.4c0,.2,0,.4,0,.7l1.7,3.7l1.6,-3.8c.2,-.4,.2,-.6,.2,-.8q-.2,-.2,-.2,-.2c-.2,0,-.4,-.2,-.5,-.2v-.1h2.2v.1c-.2,.2,-.4,.2,-.6,.2c-.2,.2,-.4,.6,-.4,.8l-2.5,6h-.4l-2.4,-5.8c-.2,-.4,-.2,-.6,-.3,-.6c0,-.2,-.2,-.2,-.4,-.4q-.2,0,-.6,-.2Z" class="g1_20" />
<path d="M536.1,420.9v2.2h1.6v.6h-1.6v4.4c0,.5,.2,.7,.2,.9c.1,.2,.3,.2,.5,.2c.2,0,.4,0,.6,0c0,-.2,.1,-.4,.3,-.6h.2c-.2,.6,-.4,1,-.7,1.1c-.4,.2,-.8,.4,-.9,.4c-.4,0,-.6,0,-.8,-.2c-.2,-.2,-.3,-.3,-.5,-.5c0,-.2,-.2,-.6,-.2,-1.1v-4.6h-1.1v-.4c.4,0,.5,-.2,.9,-.5c.4,-.2,.6,-.6,.7,-1c.2,-.1,.4,-.5,.6,-.9Z" class="g1_20" />
<path d="M490.4,391.2l-.3,1.1v.8l-.4,.3l-.4,.4h-.7l-.4,.4l-.7,-.4l-.4,-.4l-.3,-.3v-1.9l.3,-1.1l1.1,-1.4l-.3,-.4l-.8,-.4l-.3,-.3h-.4l-.7,.3v.4l-.4,.4v.3h.4v.4l.3,.4v.3l-.3,.4h-.8v-.4l-.3,-.3V389l.3,-.7l.8,-1.1l.7,-.4h1.5l.3,.4l.8,.7l1.4,1.5l.4,.7l.4,.4h.7v-1.1l.4,.4l-.4,1.4l-.4,.4v.4h-.3l-.4,-.4l-.4,-.4Zm-.3,-.3L488.2,389l-.3,.8l-.4,.7V392l.4,.3l.3,.4h1.1l.4,-.7l.4,-1.1Zm9.1,-11.8l-4,7.7l-.4,-.3l3.3,-6.6l-7.3,1.8l-.4,-.4l8.4,-2.5l.4,.3Zm3.3,-2.9l-.7,-1.5l-.8,-1.1v-2.5l.4,-.8l.4,-.3l1.1,-.4h1.4l1.5,.7l1.9,1.5l.7,1.5l.7,1.1l.4,1.4l-.4,.8l-.3,1.1l-.4,.3l-.7,.4l-.4,.4l-1.1,-.4h-.8L504,377.3l-1.5,-1.1Zm1.5,-.7l1.1,1.1l1.5,1.1l.7,.3l.7,-.3l.4,-.4v-1.8l-.7,-1.5l-1.5,-1.5l-1.1,-1.1L504,370.3l-.4,-.3h-1.1l-.4,.3l-.3,.4v1.5l.7,1.1l.7,1.1l.8,1.1Z" class="g1_20" />
<path d="M500.7,405.5v-1.8l.7,-1.1l.4,-.7h1.8l.4,.7l.7,1.1V407l-.7,1.1l-.8,.7h-1.4l-.4,-.3l-.4,-.4v-.4l-.3,-.7v-1.5Zm3.3,-.3v-1.1l-.4,-1.1v-.4l-.4,-.4h-1.1l-.3,.4v.7l-.4,.8v1.1H504Zm-2.6,.3V407l.4,.7v.4h.3v.4h.8l.3,-.4l.4,-.4v-.3l.4,-.8v-1.1h-2.6Z" class="g1_20" />
<path d="M497,412.5l-1.4,-.4l.3,-1.1l.4,-1.1v-.7l.4,-.7v-.8l-.4,-.7v-.4l-.4,-.7l-.3,-.4l-.4,-.3l-.4,-.4l-.7,-.4l-.7,-.3h-1.1l-1.1,-.4h-1.1l.3,-1.5h2.2l1.1,.4l.8,.4l1.1,.3l.7,.8l.4,.3l.7,.8l.4,.7l.3,.7v3l-.3,.7l-.4,1.1l-.4,1.1Z" class="g1_20" />
<path d="M662.4,362.8h1.4l4.1,6.1l-1.5,.7l-4,-6.2h1.4l-1.4,-.6Zm0,0l.7,-1.1l.7,1.1h-1.4Zm-3.3,6.4l-.4,-.3l3.7,-6.1l1.4,.6l-4,6.2l-.7,-.4Zm3.3,78.9V364.5h1.4v83.6h-1.4Z" class="g2_20" />
<path d="M662.8,385H748v-1.8H662.8V385Z" class="g2_20" />
<path d="M783.6,415.4H663.1V414H783.6v1.4Zm1.4,0l-.7,-1.1v1.1l-5.9,-4l.8,-1.1l5.8,4v1.1Zm0,0v-1.1l1.1,.4l-1.1,.7Zm-6.2,3.3l-.4,-.7l5.9,-3.7l.7,1.1l-5.8,4.1l-.4,-.8Z" class="g2_20" />
<path d="M671.2,418.7c1.1,0,2.2,.4,2.9,1.3c.9,.9,1.5,2,1.5,3.3c0,1.3,-.6,2.4,-1.5,3.3c-.7,.9,-1.8,1.5,-3.1,1.5c-1.3,0,-2.2,-.6,-3.1,-1.5c-.9,-.7,-1.3,-2,-1.3,-3.3c0,-1.5,.5,-2.5,1.5,-3.5c.9,-.7,1.8,-1.1,3.1,-1.1Zm-.2,.4c-.7,0,-1.5,.4,-2,.9c-.6,.8,-.9,1.8,-.9,3.3c0,1.5,.3,2.6,1.1,3.3c.3,.6,1.1,.9,1.8,.9c.9,0,1.7,-.3,2.2,-.9c.6,-.7,.7,-1.8,.7,-3.1c0,-1.7,-.1,-2.7,-.9,-3.5c-.3,-.5,-1.1,-.9,-2,-.9Z" class="g2_20" />
<path d="M655.4,368.1c-.7,.4,-1.1,.8,-1.3,.8c-.1,.1,-.3,.1,-.7,.1c-.4,0,-.7,-.1,-1.1,-.3c-.2,-.4,-.4,-.7,-.4,-1.1c0,-.4,.2,-.6,.2,-.8c.2,-.3,.6,-.7,.9,-.9c.6,-.3,1.3,-.5,2.4,-.9v-.4c0,-.5,-.2,-.9,-.3,-1c-.2,-.4,-.4,-.4,-.8,-.4c-.3,0,-.5,0,-.7,.2c-.2,.2,-.2,.3,-.2,.5v.4c0,.2,-.2,.3,-.2,.3c-.2,.2,-.3,.2,-.3,.2c-.2,0,-.4,0,-.6,-.2c0,0,-.2,-.1,-.2,-.3c0,-.4,.4,-.7,.8,-1.1c.3,-.4,.9,-.4,1.6,-.4c.6,0,.9,0,1.3,.2c.2,.2,.4,.4,.5,.6c.2,.3,.2,.7,.2,1.2v2c0,.6,0,1,0,1.2q0,.1,.2,.1q0,.2,.2,.2l.2,-.2c0,0,.2,-.1,.3,-.3v.3c-.3,.6,-.9,.9,-1.2,.9c-.2,0,-.4,0,-.6,-.1c-.2,-.2,-.2,-.4,-.2,-.8Zm0,-.5v-2.2c-.7,.2,-1.1,.4,-1.3,.5c-.3,.2,-.7,.4,-.7,.6c-.2,.2,-.4,.5,-.4,.7c0,.4,.2,.6,.4,.8c.2,.1,.4,.3,.6,.3c.3,0,.9,-.2,1.4,-.7Z" class="g2_20" />
<path d="M792,410.3v1.8h1.3v.6H792v3.8c0,.6,0,.8,0,.9c.2,.2,.4,.2,.6,.2q.1,0,.3,-.2c.2,0,.4,-.1,.4,-.3h.2c0,.3,-.4,.7,-.6,.9c-.3,.2,-.5,.4,-.9,.4c-.2,0,-.4,0,-.5,-.2c-.2,0,-.4,-.2,-.6,-.4c0,-.4,0,-.5,0,-1.1v-4h-1.1v-.2c.4,-.2,.6,-.4,.7,-.5c.4,-.2,.6,-.6,.8,-.8c.2,-.2,.2,-.5,.3,-.9Z" class="g2_20" />
<g fill="#000000" >
<use xlink:href="#f0_c" transform="matrix(10,0,0,10,68.8,584.6)" />
<use xlink:href="#f0_25" transform="matrix(10,0,0,10,73.9,584.6)" />
<use xlink:href="#f0_25" transform="matrix(10,0,0,10,77.9,584.6)" />
<use xlink:href="#f0_d" transform="matrix(10,0,0,10,82.1,584.6)" />
</g>
<image preserveAspectRatio="none" x="104" y="514" width="136" height="14" xlink:href="img/9.png" />
<image preserveAspectRatio="none" x="104" y="528" width="136" height="13" xlink:href="img/10.png" />
<image preserveAspectRatio="none" x="104" y="541" width="136" height="14" xlink:href="img/11.png" />
<image preserveAspectRatio="none" x="104" y="554" width="136" height="14" xlink:href="img/12.png" />
<image preserveAspectRatio="none" x="104" y="567" width="136" height="14" xlink:href="img/13.png" />
<image preserveAspectRatio="none" x="104" y="581" width="136" height="13" xlink:href="img/14.png" />
<image preserveAspectRatio="none" x="104" y="594" width="136" height="13" xlink:href="img/15.png" />
<image preserveAspectRatio="none" x="104" y="607" width="136" height="13" xlink:href="img/16.png" />
<path d="M538.8,568.7H424.4v-1.5H538.8v1.5Zm1.9,0l-.8,-1.1v1.1l-6.2,-4l.7,-1.1l6.3,4v1.1Zm0,0v-1.1l1.1,.4l-1.1,.7Zm-6.6,3.3l-.4,-.7l6.2,-3.7l.8,1.1l-6.3,4l-.3,-.7Z" class="g1_20" />
<path d="M531.8,607.9L424,530.2l.8,-1.5l107.8,78l-.8,1.2Z" class="g0_20" />
<path d="M424,514.8h1.5l3.7,6.2l-1.1,.8L424,515.9h1.5L424,514.8Zm0,0l.8,-.7l.7,.7H424Zm-3.3,6.6L420,521l4,-6.2l1.5,1.1l-4,5.9l-.8,-.4Zm3.3,97.9V516.6h1.5V619.3H424Z" class="g1_20" />
<path d="M409.4,520.3h3.3v.2h-.2c-.2,0,-.4,.2,-.6,.2q0,.1,0,.3c0,.2,0,.4,0,.8l1.7,3.6l1.6,-3.8c.2,-.4,.2,-.6,.2,-.8q-.2,-.1,-.2,-.1c-.1,0,-.3,-.2,-.5,-.2v-.2h2.2v.2c-.2,.2,-.4,.2,-.6,.2c-.1,.1,-.3,.5,-.3,.7l-2.6,6H413l-2.3,-5.8c-.2,-.4,-.2,-.6,-.4,-.6c0,-.2,-.2,-.2,-.4,-.3q-.2,0,-.5,-.2Z" class="g1_20" />
<path d="M532.4,576.4v2.2h1.7v.5h-1.7v4.4c0,.6,.2,.8,.2,1c.2,.1,.3,.1,.5,.1c.2,0,.4,0,.6,0c0,-.1,.2,-.3,.4,-.5h.1c-.1,.5,-.3,.9,-.7,1.1c-.4,.2,-.7,.4,-.9,.4c-.4,0,-.6,0,-.7,-.2c-.2,-.2,-.4,-.4,-.6,-.6c0,-.2,-.2,-.5,-.2,-1.1v-4.6H530v-.3c.4,0,.6,-.2,.9,-.6c.4,-.2,.6,-.5,.8,-.9c.2,-.2,.3,-.5,.5,-.9Z" class="g1_20" />
<path d="M461.1,544.9c-.8,.5,-1.3,.9,-1.5,.9c-.2,.2,-.5,.2,-.7,.2c-.6,0,-.9,-.2,-1.3,-.4c-.4,-.4,-.4,-.9,-.4,-1.3c0,-.3,0,-.7,.2,-.9c.2,-.4,.6,-.7,1.1,-.9c.4,-.4,1.3,-.7,2.6,-1.1V541c0,-.7,-.2,-1.1,-.4,-1.4c-.2,-.2,-.5,-.4,-.9,-.4c-.4,0,-.7,.2,-.9,.4c-.2,.1,-.2,.3,-.2,.5v.4c0,.3,0,.5,-.2,.5c-.2,.2,-.4,.2,-.5,.2q-.2,0,-.4,-.2c-.2,-.2,-.2,-.3,-.2,-.5c0,-.4,.2,-.8,.7,-1.1c.4,-.4,1,-.6,1.9,-.6c.5,0,1.1,0,1.4,.2c.4,.2,.6,.6,.8,.7c0,.4,0,.8,0,1.5v2.2c0,.7,.2,1.1,.2,1.3q0,.2,0,.4q.1,0,.1,0q.2,0,.4,0c0,-.2,.2,-.4,.6,-.6v.4c-.6,.7,-1.1,1.1,-1.7,1.1c-.2,0,-.4,0,-.5,-.2c-.2,-.2,-.2,-.6,-.2,-.9Zm0,-.6v-2.5c-.9,.3,-1.3,.5,-1.5,.7c-.5,.2,-.7,.4,-.9,.5c-.2,.4,-.4,.6,-.4,1c0,.3,.2,.5,.4,.9c.2,.2,.5,.3,.7,.3c.4,0,.9,-.3,1.7,-.9Zm6.4,-3.6l8.1,-3.7v.7l-7,3l7,3.1v.7L467.5,541v-.3Zm12.8,.1c0,-1.1,.2,-2.2,.6,-2.9c.4,-.9,.7,-1.5,1.5,-2c.3,-.2,.9,-.4,1.2,-.4c.9,0,1.5,.4,2.2,1.1c.8,1.1,1.1,2.4,1.1,4.1c0,1.2,-.2,2.2,-.5,3.1c-.2,.7,-.8,1.3,-1.3,1.6c-.6,.4,-.9,.6,-1.5,.6c-1.1,0,-1.8,-.6,-2.5,-1.7c-.6,-.9,-.8,-2.2,-.8,-3.5Zm1.5,.2c0,1.5,.2,2.6,.6,3.5c.1,.7,.7,1.1,1.2,1.1c.2,0,.6,-.2,.9,-.4c.2,-.1,.4,-.7,.6,-1.2c.2,-.8,.4,-2.1,.4,-3.7c0,-1.1,-.2,-2,-.4,-2.9c-.2,-.6,-.4,-1,-.7,-1.1c-.2,-.2,-.4,-.4,-.8,-.4c-.3,0,-.5,.2,-.9,.5c-.3,.4,-.5,1.1,-.7,2.1c-.2,.9,-.2,1.6,-.2,2.5Z" class="g1_20" />
<path d="M483.8,557.3l.4,-1.4l.4,-1.5l.7,-.4l.7,-.3l.8,.3l.7,.4l.4,1.1l.3,1.8l-.3,1.5l-.4,1.1l-.7,.7h-1.5l-.4,-.3l-.3,-.4l-.4,-.4v-.3l-.4,-1.1v-.8Zm3.3,-.3v-1.9l-.3,-.7l-.4,-.4h-.7l-.4,.4v.4l-.4,.3V557h2.2Zm-2.2,.3v2.2l.4,.4l.4,.4h1.1v-.4l.3,-.7v-1.9h-2.2Z" class="g1_20" />
<path d="M488.2,567.6l-1.1,.7l-.7,-1.4l-1.1,-1.5l-.7,-1.1l-.8,-1.1l-.3,-.4l-.4,-.3l-.4,-.4l-.3,-.4l-.8,-.3h-.3l-.4,-.4l-.7,-.4h-.8l-.7,-.3h-3.3l-1.5,.3l-1.5,.4l-1.8,.4l-1.8,.3l-.4,-1.4l1.8,-.4l1.9,-.4l1.8,-.3l1.5,-.4h3.7l.3,.4h.8l.7,.3h.4l.7,.4l.4,.4l.7,.3l.4,.4l.7,.4l.4,.3l.3,.4l1.1,1.1l.8,1.5l.7,1.4l.7,1.5Z" class="g1_20" />
<path d="M664.4,527.8h1.1l4,6.1l-1.4,.7l-3.7,-6.2h1.1l-1.1,-.6Zm0,0l.4,-1.1l.7,1.1h-1.1Zm-3.3,6.4l-.7,-.3l4,-6.1l1.1,.6l-4,6.2l-.4,-.4Zm2.9,78.9V529.5h1.5v83.6H664Z" class="g2_20" />
<path d="M665.1,585.2H750v-1.5H665.1v1.5Z" class="g2_20" />
<path d="M785.4,558.8H664.8V557H785.4v1.8Zm1.5,-.4l-.8,-1.1v1.1l-6.2,-3.6l.7,-1.5l6.3,4v1.1Zm0,0v-1.1l1.1,.4l-1.1,.7Zm-6.6,3.3l-.4,-.7l6.2,-3.7l.8,1.1l-6.3,4.1l-.3,-.8Z" class="g2_20" />
<path d="M656.2,553.1c1.1,0,2.2,.4,3.1,1.3c.7,.9,1.3,2,1.3,3.3c0,1.3,-.6,2.4,-1.3,3.3c-.9,.9,-2,1.5,-3.3,1.5c-1.3,0,-2.2,-.6,-3.1,-1.5c-1,-.7,-1.3,-2,-1.3,-3.3c0,-1.5,.5,-2.6,1.4,-3.5c1,-.7,1.9,-1.1,3.2,-1.1Zm-.2,.4c-.8,0,-1.5,.4,-2,.9c-.6,.7,-1,1.8,-1,3.3c0,1.5,.4,2.6,1.1,3.3c.4,.6,1.1,.9,1.9,.9c.9,0,1.6,-.3,2.2,-.9c.5,-.7,.7,-1.8,.7,-3.1c0,-1.7,-.2,-2.8,-.9,-3.5c-.4,-.5,-1.1,-.9,-2,-.9Z" class="g2_20" />
<path d="M656.9,533.1c-.8,.4,-1.1,.8,-1.3,.8c-.2,.2,-.4,.2,-.7,.2c-.4,0,-.8,-.2,-1.1,-.4c-.2,-.4,-.4,-.8,-.4,-1.1c0,-.4,.2,-.6,.2,-.8c.2,-.3,.5,-.7,.9,-.9c.5,-.3,1.3,-.5,2.4,-.9v-.4c0,-.5,-.2,-.9,-.4,-1.1c-.2,-.3,-.4,-.3,-.7,-.3c-.4,0,-.6,0,-.8,.2c-.1,.1,-.1,.3,-.1,.5v.4c0,.2,-.2,.3,-.2,.3c-.2,.2,-.4,.2,-.4,.2c-.2,0,-.4,0,-.5,-.2c0,0,-.2,-.1,-.2,-.3c0,-.4,.3,-.8,.7,-1.1c.4,-.4,.9,-.4,1.7,-.4c.5,0,.9,0,1.2,.2c.2,.2,.4,.4,.6,.5c.2,.4,.2,.8,.2,1.3v2c0,.6,0,1,0,1.1q0,.2,.2,.2c0,0,0,.2,.1,.2l.2,-.2c0,0,.2,-.2,.6,-.3v.3c-.6,.6,-1.1,1,-1.5,1c-.2,0,-.4,0,-.5,-.2c-.2,-.2,-.2,-.4,-.2,-.8Zm0,-.5v-2.2c-.8,.2,-1.1,.3,-1.3,.5c-.4,.2,-.7,.4,-.7,.6c-.2,.2,-.4,.5,-.4,.7c0,.4,.2,.6,.4,.7c.1,.2,.3,.4,.5,.4c.4,0,.9,-.2,1.5,-.7Z" class="g2_20" />
<path d="M794.2,554.2v1.9h1.3v.5h-1.3v3.8c0,.6,0,.8,0,1c.2,.2,.4,.2,.6,.2q.1,0,.3,-.2c.2,0,.4,-.2,.4,-.4h.2c0,.4,-.4,.7,-.6,.9c-.3,.2,-.5,.4,-.9,.4c-.2,0,-.4,0,-.5,-.2c-.2,0,-.4,-.2,-.6,-.4c0,-.3,0,-.5,0,-1.1v-4H792v-.2c.4,-.2,.6,-.3,.7,-.5c.4,-.2,.6,-.6,.8,-.8c.2,-.1,.2,-.5,.3,-.9Z" class="g2_20" />
<g fill="#000000" >
<use xlink:href="#f0_c" transform="matrix(10,0,0,10,68.8,721)" />
<use xlink:href="#f0_25" transform="matrix(10,0,0,10,73.9,721)" />
<use xlink:href="#f0_25" transform="matrix(10,0,0,10,77.9,721)" />
<use xlink:href="#f0_25" transform="matrix(10,0,0,10,82.1,721)" />
<use xlink:href="#f0_d" transform="matrix(10,0,0,10,86.4,721)" />
</g>
<path d="M243.1,731.7H101.2v-1.5H243.1v1.5Zm1.8,0l-.7,-1.5v1.5l-6.2,-4l.7,-1.5l6.2,4v1.5Zm0,0v-1.5l1.1,.8l-1.1,.7Zm-6.6,3.3l-.3,-.7l6.2,-4.1l.7,1.5l-6.2,4l-.4,-.7Z" class="g1_20" />
<path d="M128.5,668.2h1.1l4.1,6.3l-1.5,.7l-3.7,-5.9h1.1l-1.1,-1.1Zm0,0l.8,-.7l.3,.7h-1.1Zm-3.3,6.7l-.7,-.4l4,-6.3l1.1,1.1l-3.6,5.9l-.8,-.3Zm3,97.8V670.1H130V772.7h-1.8Z" class="g1_20" />
<path d="M218.2,667.9L174,754.8" class="g3_20" />
<path d="M229.2,689.9l-.8,-1.5l1.5,-.7l.7,1.1l-1.4,1.1Zm-2.6,1.4l-.7,-1.4l1.1,-.8l.7,1.5l-1.1,.7Zm-2.6,1.5l-1.1,-1.5l1.5,-.7l.7,1.5l-1.1,.7Zm-2.9,1.5l-.7,-1.5l1.4,-.7l.8,1.4l-1.5,.8Zm-2.6,1.4l-.7,-1.1l1.5,-1.1l.7,1.5l-1.5,.7Zm-2.5,1.5l-.8,-1.1l1.1,-.7l1.1,1.1l-1.4,.7Zm-2.6,1.5l-.7,-1.1l1.1,-.8l.7,1.2l-1.1,.7Zm-2.9,1.8l-.8,-1.4l1.5,-.8l.7,1.5l-1.4,.7Zm-2.6,1.5l-.7,-1.5l1.4,-.7l.8,1.5l-1.5,.7Zm-2.6,1.5l-.7,-1.5l1.5,-.7l.7,1.4l-1.5,.8Zm-2.5,1.4l-.8,-1.1l1.1,-1.1l.8,1.5l-1.1,.7Zm-2.6,1.5l-.7,-1.1l1.1,-.7l.7,1.1l-1.1,.7Zm-2.9,1.5l-.8,-1.1L198,706l.7,1.1l-1.4,.8Zm-2.6,1.8l-.7,-1.5l1.4,-.7l.8,1.5l-1.5,.7Zm-2.6,1.5l-.7,-1.5l1.5,-.7l.7,1.4l-1.5,.8Zm-2.5,1.4l-.8,-1.4l1.1,-.8l.8,1.5l-1.1,.7Zm-2.6,1.5l-.7,-1.1l1.1,-1.1l.7,1.4l-1.1,.8Zm-2.9,1.4l-.8,-1.1l1.5,-.7l.7,1.1l-1.4,.7Zm-2.6,1.5l-.7,-1.1l1.4,-.7l.8,1.1l-1.5,.7Zm-2.6,1.8l-.7,-1.4l1.1,-.8l1.1,1.5l-1.5,.7Zm-2.5,1.5l-.6,-1.5l.9,-.7l.8,1.5l-1.1,.7Zm-2.4,1.5l-1.1,-1.5l1.4,-.7l.8,1.4l-1.1,.8Zm-3,1.4l-.7,-1.1l1.5,-1.1l.7,1.5l-1.5,.7Zm-2.5,1.5l-.8,-1.1l1.5,-.7l.7,1.1l-1.4,.7Zm-2.6,1.5l-.7,-1.1l1.1,-.8l.7,1.2l-1.1,.7Zm-2.6,1.8l-.7,-1.4l1.1,-.8l.7,1.5l-1.1,.7Zm-2.9,1.5l-.7,-1.5l1.4,-.7l.8,1.5l-1.5,.7Zm-2.6,1.5l-.7,-1.5l1.5,-.7l.7,1.4l-1.5,.8Zm-2.5,1.4l-.8,-1.1l1.5,-1.1l.7,1.5l-1.4,.7Zm-2.6,1.5l-.7,-1.1l1.1,-.7l.7,1.1l-1.1,.7Zm-2.6,1.5l-.7,-1.1l1.1,-.8l.7,1.1l-1.1,.8Zm-2.9,1.8l-.7,-1.5l1.4,-.7l.8,1.5l-1.5,.7Zm-2.6,1.5l-.7,-1.5l1.5,-.7l.7,1.4l-1.5,.8Zm-2.5,1.4l-.8,-1.4l1.1,-.8l1.1,1.5l-1.4,.7Zm-2.6,1.5l-.7,-1.1l1.1,-1.1l.7,1.5l-1.1,.7Zm-2.9,1.4l-.8,-1.1l1.5,-.7l.7,1.1l-1.4,.7Zm-3,0l1.1,-.3l.8,1.1l-1.1,.7l-.8,-1.5Z" class="g0_20" />
<path d="M212.7,673l1.4,.8l-.7,1.8l-.7,1.8l-1.1,2.2l-.8,1.8l-1.1,1.9l-.7,1.8l-1.1,1.5l-1.1,1.8l-.7,1.5l-1.1,1.8l-1.1,1.5l-1.1,1.4l-1.1,1.5l-1.1,1.5l-1.1,1.5l-1.1,1.4l-1.5,1.5l-1.1,1.1l-1.1,1.5l-1.1,1.1l-1.5,1l-1.1,1.1l-1.4,1.1l-1.1,1.1l-1.5,1.1l-1.1,1.1l-1.5,1.1l-1.4,.8l-1.1,1.1l-1.5,.7l-1.5,.7l-1.4,1.1l-2.4,1.5l-3,1.5l-2.9,1.4l-2.9,1.1l-3,1.1l-2.9,1.2l-2.9,1.1l-3,.7l-3.3,.7l-2.9,.8l-2.9,.7l-3.3,.4l-3,.7l-2.9,.4l-3.3,.3l-2.9,.4v-1.5l2.9,-.3l2.9,-.4l3,-.4l3.3,-.7L145,728l2.9,-.7l3,-.7l2.9,-.8l3.3,-.7L160,724l3,-1.1l2.9,-1.1l2.6,-1.1l2.9,-1.5l2.9,-1.5l2.4,-1.4l1.5,-.8l1.5,-.7l1.1,-1.1l1.4,-.7l1.5,-1.1l1.1,-.8l1.5,-1.1l1.1,-1.1l1.4,-1.1l1.1,-1.1l1.1,-1l1.5,-1.1l1.1,-1.1l1.1,-1.5l1.1,-1.1l1.5,-1.5l1.1,-1.1l1.1,-1.5l1.1,-1.4l1.1,-1.5l.7,-1.5l1.1,-1.4l1.1,-1.9l1.1,-1.4l.7,-1.9l1.1,-1.4l1.1,-1.9l.8,-1.8l1.1,-1.8l.7,-1.8l.7,-2.2l.8,-1.9Z" class="g1_20" />
<path d="M113.1,668.2h3.1v.2c-.2,0,-.3,.2,-.3,.2c0,0,-.2,.2,-.2,.4c0,0,.2,.2,.3,.5c0,0,.2,.2,.2,.4l.6,.7l.5,-.7c.4,-.6,.6,-.9,.6,-1.1c0,0,0,-.2,-.2,-.2c0,0,-.2,-.2,-.4,-.2v-.2h2.4v.2c-.3,.2,-.5,.2,-.7,.4c-.2,0,-.6,.5,-.9,1.1l-.9,1.1l1.6,2.6c.4,.5,.7,.9,.9,1.1c.2,.2,.4,.2,.8,.2v.1h-3.3v-.1c.1,0,.3,0,.5,-.2c0,0,.2,-.2,.2,-.2c0,-.2,-.2,-.6,-.6,-.9l-1.1,-1.5l-1.1,1.5c-.3,.3,-.3,.7,-.3,.7c0,.2,0,.4,0,.4c.1,.2,.3,.2,.5,.2v.1h-2.2v-.1c.2,0,.4,0,.4,-.2c.4,-.2,.5,-.6,1.1,-1.1l1.4,-2l-1.2,-1.9c-.6,-.5,-.8,-.9,-.9,-.9c-.2,-.2,-.6,-.4,-.8,-.4Z" class="g1_20" />
<path d="M230.8,734.3v2.2h1.7v.5h-1.7v4.4c0,.6,0,.7,.2,.9c.2,.2,.4,.2,.5,.2c.2,0,.4,0,.6,0c0,-.2,.2,-.4,.4,-.5h.2c-.2,.5,-.4,.9,-.8,1.1c-.4,.1,-.7,.3,-.9,.3c-.4,0,-.6,0,-.7,-.2c-.2,-.1,-.4,-.3,-.6,-.5c0,-.2,-.2,-.6,-.2,-1.1V737h-1.1v-.4c.4,0,.6,-.1,.9,-.5c.4,-.2,.6,-.6,.8,-.9c.2,-.2,.3,-.6,.5,-.9Z" class="g1_20" />
<path d="M173.6,731.3l-1.1,-1.1l.4,-.7l.4,-.4l.3,-.3l.4,-.8v-1.8l-.4,-.4v-.3l-.3,-.4l-.4,-.4l-.7,-.4l-.4,-.3l-.7,-.4l.7,-1.5l.7,.4l.8,.4l.3,.7l.8,.4l.3,.3l.4,.8l.3,.4v3.3l-.3,.7l-.4,.4l-.3,.7l-.8,.7Z" class="g1_20" />
<path d="M195.8,731.3v-1.4h.4v-.4h.3v-.4l.4,-.3v-3l-.4,-.7l-.3,-.8V724l-.4,-.4h-.4l-.3,-.4v-.3l-.4,-.4h-.4l-.3,-.4h-1.1l-.4,-.3h-.7v-1.5h.7l.7,.4h1.1l.4,.3l.7,.4l.4,.4l.4,.3l.3,.4l.4,.4l.4,.3l.3,.4l.4,1.1l.4,.8v3.6l-.4,.4v.4l-.4,.3l-.3,.4v.4l-.4,.3h-1.1Z" class="g1_20" />
<path d="M176,724.2v-1.5l.7,-1.1l.8,-.7h1.4l.4,.7l.7,1.1v2.9l-.7,1.1l-.7,.8h-1.1l-.4,-.4l-.4,-.4l-.3,-.3V726l-.4,-.7v-1.1Zm3.3,-.4v-1.1l-.4,-.7v-.4l-.3,-.4h-1.1l-.4,.4v1.1l-.4,1.1h2.6Zm-2.6,.4v.7l.4,.7v1.1h.4v.4h.7l.4,-.4l.3,-.3V726l.4,-.7v-1.1h-2.6Zm4.4,2.2l.8,-.4v2.9l.3,.4h-1.1l.4,-.4v-2.5h-.4Z" class="g1_20" />
<path d="M199.5,722.9l.3,-1.5l.4,-1.1l.7,-.7h1.5l.4,.7l.7,1.1v2.9l-.7,1.2l-.4,.7h-1.8v-.4l-.4,-.3l-.4,-.4v-.4l-.3,-.7v-1.1Zm3.3,0v-1.1l-.4,-1.1v-.4l-.4,-.4h-1.1l-.3,.4v1.5l-.4,1.1h2.6Zm-2.6,0l.4,1.1v1.1l.3,.4v.3H202v-.3l.4,-.4v-.4l.4,-.7v-1.1h-2.6Zm5.9,4.4v.7h-1.9l.8,-1.1l.3,-.3l.4,-.4v-.7h-.4v-.4h-.7l-.4,.4v.3v-.3l.4,-.4v-.4h.7l.4,.4l.4,.4v.3l-.4,.4v.4l-.4,.3l-.3,.4l-.4,.4h1.5v-.4Z" class="g1_20" />
<path d="M473.5,667.5l-68.9,50.1l-.7,-1.1l68.5,-49.9l1.1,.9Z" class="g0_20" />
<path d="M523.8,717.9H404.3v-1.4H523.8v1.4Zm1.8,0l-1.1,-1.1v1.1l-5.8,-4l.7,-1.1l6.2,4v1.1Zm0,0v-1.1l.7,.4l-.7,.7Zm-6.6,3.3l-.3,-.7l5.8,-3.7l1.1,1.1l-6.2,4.1l-.4,-.8Z" class="g1_20" />
<path d="M402.8,664.6h1.5l4,6.2l-1.5,.8l-4,-5.9h1.5l-1.5,-1.1Zm0,0l.7,-.8l.8,.8h-1.5Zm-3.3,6.6l-.4,-.4l3.7,-6.2l1.5,1.1l-4.1,5.9l-.7,-.4Zm3.3,98.1V666.4h1.5V769.3h-1.5Z" class="g1_20" />
<path d="M386.8,667h3.3v.1h-.2c-.1,0,-.3,.2,-.5,.2q0,.2,0,.4c0,.2,0,.4,0,.7l1.6,3.7l1.7,-3.9c.2,-.3,.2,-.5,.2,-.7v-.2q-.2,0,-.2,0c-.2,-.2,-.4,-.2,-.6,-.2V667h2.2v.1c-.1,.2,-.3,.2,-.5,.2c-.2,.2,-.4,.4,-.4,.8l-2.5,6h-.4l-2.4,-5.9c-.2,-.3,-.2,-.5,-.3,-.5c0,-.2,-.2,-.2,-.4,-.4c0,0,-.2,0,-.6,-.2Z" class="g1_20" />
<path d="M517.4,725.3v2.2H519v.5h-1.6v4.4c0,.6,.2,.8,.2,.9c.1,.2,.3,.2,.5,.2c.2,0,.4,0,.6,0c0,-.2,.1,-.3,.3,-.5h.2c-.2,.5,-.4,.9,-.7,1.1c-.4,.2,-.8,.3,-.9,.3c-.4,0,-.6,0,-.8,-.1c-.2,-.2,-.3,-.4,-.5,-.6c0,-.2,-.2,-.5,-.2,-1.1V728H515v-.3c.4,0,.5,-.2,.9,-.6c.4,-.2,.6,-.5,.7,-.9c.2,-.2,.4,-.6,.6,-.9Z" class="g1_20" />
<path d="M457.1,705.1l-.8,-.7V679.1h1.5v25.3l-.7,.7Zm.7,-.7v.7h-.7l.7,-.7Zm-35.6,-.8h34.9v1.5H422.2v-1.5Z" class="g0_20" />
<path d="M434,704.6l-1.1,-.8l.3,-.7l.4,-.4v-.3l.4,-.8v-1.4l-.4,-.4v-.4l-.4,-.3l-.3,-.4h-.4l-.4,-.4l-.3,-.3l.3,-1.5l.8,.3l.3,.4l.8,.4l.3,.4l.4,.3l.4,.8l.3,.3v3l-.3,.3l-.4,.8l-.4,.3l-.3,.8Z" class="g0_20" />
<path d="M438,698.3v-2.2l.7,-1.5l1.1,-.7l.7,-.4l1.1,.4l.8,.7l.7,1.5v4.1l-.7,1.1l-.8,.7l-1.1,.4h-.3l-.8,-.4l-.3,-.4l-.4,-.3l-.4,-.4v-.7l-.3,-.8v-1.1Zm4,-.3v-1.5l-.4,-1.1v-.8l-.3,-.3h-.4l-.4,-.4l-.3,.4h-.4l-.4,.3v.8l-.3,1.1V698H442Zm-2.9,.3v1.9l.3,.7v.4l.4,.3h.4v.4h.7l.4,-.4l.3,-.3l.4,-.8v-2.2h-2.9Z" class="g1_20" />
<path d="M665,689.7h74.4v-1.8H665v1.8Z" class="g0_20" />
<path d="M785.2,719H665.7v-1.4H785.2V719Zm1.9,0l-.8,-1.1V719l-6.2,-4l.7,-1.1l6.3,4V719Zm0,0v-1.1l1.1,.4l-1.1,.7Zm-6.6,3.3l-.4,-.7l6.2,-3.7l.8,1.1l-6.3,4.1l-.3,-.8Z" class="g1_20" />
<path d="M664.6,665.9h1.1l4.2,6.2l-1.1,.7L664.6,667h1.1l-1.1,-1.1Zm0,0l.7,-.8l.4,.8h-1.1Zm-3.3,6.6l-.8,-.4l4.1,-6.2l1.1,1.1l-3.7,5.8l-.7,-.3Zm3.3,97.9V667.7H666V770.4h-1.4Z" class="g1_20" />
<path d="M655.6,673.2c-.7,.6,-1.3,.9,-1.5,.9c-.1,.2,-.5,.2,-.7,.2c-.5,0,-.9,-.2,-1.3,-.4c-.3,-.3,-.3,-.9,-.3,-1.2c0,-.4,0,-.8,.1,-1c.2,-.3,.6,-.7,1.1,-.9c.4,-.3,1.3,-.7,2.6,-1.1v-.3c0,-.8,-.2,-1.1,-.4,-1.5c-.1,-.2,-.5,-.4,-.9,-.4c-.3,0,-.7,.2,-.9,.4c-.2,.2,-.2,.4,-.2,.5v.4c0,.4,0,.6,-.2,.6q-.1,.1,-.5,.1q-.2,0,-.4,-.1c-.2,-.2,-.2,-.4,-.2,-.6c0,-.4,.2,-.7,.8,-1.1c.3,-.4,.9,-.5,1.8,-.5c.6,0,1.1,0,1.5,.3c.3,0,.5,.4,.7,.6c0,.3,0,.7,0,1.4v2.2c0,.8,.2,1.1,.2,1.3q0,.2,0,.4q.2,0,.2,0q.1,0,.3,0c0,-.2,.2,-.4,.6,-.6v.4c-.6,.7,-1.1,1.1,-1.7,1.1c-.2,0,-.3,0,-.5,-.2c-.2,-.2,-.2,-.5,-.2,-.9Zm0,-.5v-2.6c-.9,.4,-1.3,.5,-1.5,.7c-.5,.2,-.7,.4,-.9,.6c-.2,.3,-.3,.5,-.3,.9c0,.4,.1,.5,.3,.9c.2,.2,.6,.4,.8,.4c.3,0,.9,-.4,1.6,-.9Z" class="g1_20" />
<path d="M776.6,723.1v2.2h1.6v.5h-1.6v4.4c0,.6,.2,.8,.2,.9c.2,.2,.3,.2,.5,.2c.2,0,.4,0,.6,0c0,-.2,.2,-.3,.3,-.5h.2c-.2,.5,-.3,.9,-.7,1.1c-.4,.2,-.7,.3,-.9,.3c-.4,0,-.6,0,-.7,-.1c-.2,-.2,-.4,-.4,-.6,-.6c0,-.2,-.2,-.5,-.2,-1.1v-4.6h-1.1v-.3c.4,0,.6,-.2,.9,-.6c.4,-.2,.6,-.6,.8,-.9c.2,-.2,.3,-.6,.5,-.9Z" class="g1_20" />
<g fill="#000000" >
<use xlink:href="#f1_2a" transform="matrix(10,0,0,10,99.7,806.7)" />
<use xlink:href="#f1_1x" transform="matrix(10,0,0,10,107.1,806.7)" />
<use xlink:href="#f1_2g" transform="matrix(10,0,0,10,114,806.7)" />
<use xlink:href="#f1_2h" transform="matrix(10,0,0,10,118.3,806.7)" />
<use xlink:href="#f1_2e" transform="matrix(10,0,0,10,125.6,806.7)" />
<use xlink:href="#f1_21" transform="matrix(10,0,0,10,130.7,806.7)" />
<use xlink:href="#f1_2b" transform="matrix(10,0,0,10,141.5,806.7)" />
<use xlink:href="#f1_22" transform="matrix(10,0,0,10,149.2,806.7)" />
<use xlink:href="#f1_2f" transform="matrix(10,0,0,10,157.7,806.7)" />
<use xlink:href="#f1_28" transform="matrix(10,0,0,10,163.7,806.7)" />
<use xlink:href="#f1_2b" transform="matrix(10,0,0,10,167.8,806.7)" />
<use xlink:href="#f1_2c" transform="matrix(10,0,0,10,175.5,806.7)" />
<use xlink:href="#f1_21" transform="matrix(10,0,0,10,183.3,806.7)" />
<use xlink:href="#f1_u" transform="matrix(10,0,0,10,193.8,806.7)" />
<use xlink:href="#f1_2c" transform="matrix(10,0,0,10,201.9,806.7)" />
<use xlink:href="#f1_2b" transform="matrix(10,0,0,10,209.7,806.7)" />
<use xlink:href="#f1_2f" transform="matrix(10,0,0,10,217.4,806.7)" />
<use xlink:href="#f1_25" transform="matrix(10,0,0,10,223.1,806.7)" />
<use xlink:href="#f1_2g" transform="matrix(10,0,0,10,227.3,806.7)" />
<use xlink:href="#f1_25" transform="matrix(10,0,0,10,231.6,806.7)" />
<use xlink:href="#f1_2i" transform="matrix(10,0,0,10,236,806.7)" />
<use xlink:href="#f1_21" transform="matrix(10,0,0,10,243.3,806.7)" />
<use xlink:href="#f1_2a" transform="matrix(10,0,0,10,384.8,806.7)" />
<use xlink:href="#f1_1x" transform="matrix(10,0,0,10,392.5,806.7)" />
<use xlink:href="#f1_2g" transform="matrix(10,0,0,10,399.3,806.7)" />
<use xlink:href="#f1_2h" transform="matrix(10,0,0,10,403.5,806.7)" />
<use xlink:href="#f1_2e" transform="matrix(10,0,0,10,410.9,806.7)" />
<use xlink:href="#f1_21" transform="matrix(10,0,0,10,416,806.7)" />
<use xlink:href="#f1_2b" transform="matrix(10,0,0,10,426.8,806.7)" />
<use xlink:href="#f1_22" transform="matrix(10,0,0,10,434.5,806.7)" />
<use xlink:href="#f1_2f" transform="matrix(10,0,0,10,443,806.7)" />
<use xlink:href="#f1_28" transform="matrix(10,0,0,10,449,806.7)" />
<use xlink:href="#f1_2b" transform="matrix(10,0,0,10,453.2,806.7)" />
<use xlink:href="#f1_2c" transform="matrix(10,0,0,10,460.8,806.7)" />
<use xlink:href="#f1_21" transform="matrix(10,0,0,10,468.6,806.7)" />
<use xlink:href="#f1_u" transform="matrix(10,0,0,10,479.3,806.7)" />
<use xlink:href="#f1_2c" transform="matrix(10,0,0,10,487.2,806.7)" />
<use xlink:href="#f1_2b" transform="matrix(10,0,0,10,495,806.7)" />
<use xlink:href="#f1_2f" transform="matrix(10,0,0,10,502.5,806.7)" />
<use xlink:href="#f1_25" transform="matrix(10,0,0,10,508.6,806.7)" />
<use xlink:href="#f1_2g" transform="matrix(10,0,0,10,512.8,806.7)" />
<use xlink:href="#f1_25" transform="matrix(10,0,0,10,517,806.7)" />
<use xlink:href="#f1_2i" transform="matrix(10,0,0,10,521.1,806.7)" />
<use xlink:href="#f1_21" transform="matrix(10,0,0,10,528.7,806.7)" />
<use xlink:href="#f1_29" transform="matrix(10,0,0,10,99.7,832.9)" />
<use xlink:href="#f1_1x" transform="matrix(10,0,0,10,111.3,832.9)" />
<use xlink:href="#f1_23" transform="matrix(10,0,0,10,117.9,832.9)" />
<use xlink:href="#f1_2a" transform="matrix(10,0,0,10,125.4,832.9)" />
<use xlink:href="#f1_25" transform="matrix(10,0,0,10,133.1,832.9)" />
<use xlink:href="#f1_2g" transform="matrix(10,0,0,10,137.3,832.9)" />
<use xlink:href="#f1_2h" transform="matrix(10,0,0,10,141.5,832.9)" />
<use xlink:href="#f1_20" transform="matrix(10,0,0,10,148.9,832.9)" />
<use xlink:href="#f1_21" transform="matrix(10,0,0,10,156.8,832.9)" />
<use xlink:href="#f1_2b" transform="matrix(10,0,0,10,167.2,832.9)" />
<use xlink:href="#f1_22" transform="matrix(10,0,0,10,175.1,832.9)" />
<use xlink:href="#f1_2f" transform="matrix(10,0,0,10,183.5,832.9)" />
<use xlink:href="#f1_28" transform="matrix(10,0,0,10,189.4,832.9)" />
<use xlink:href="#f1_2b" transform="matrix(10,0,0,10,193.6,832.9)" />
<use xlink:href="#f1_2c" transform="matrix(10,0,0,10,201.5,832.9)" />
<use xlink:href="#f1_21" transform="matrix(10,0,0,10,209,832.9)" />
<use xlink:href="#f1_u" transform="matrix(10,0,0,10,219.6,832.9)" />
<use xlink:href="#f1_19" transform="matrix(10,0,0,10,227.7,832.9)" />
<use xlink:href="#f1_2a" transform="matrix(10,0,0,10,232.9,832.9)" />
<use xlink:href="#f1_1z" transform="matrix(10,0,0,10,240.4,832.9)" />
<use xlink:href="#f1_2e" transform="matrix(10,0,0,10,247.2,832.9)" />
<use xlink:href="#f1_21" transform="matrix(10,0,0,10,252.5,832.9)" />
<use xlink:href="#f1_1x" transform="matrix(10,0,0,10,259.3,832.9)" />
<use xlink:href="#f1_2f" transform="matrix(10,0,0,10,266,832.9)" />
<use xlink:href="#f1_25" transform="matrix(10,0,0,10,271.7,832.9)" />
<use xlink:href="#f1_2a" transform="matrix(10,0,0,10,275.9,832.9)" />
<use xlink:href="#f1_23" transform="matrix(10,0,0,10,283.5,832.9)" />
<use xlink:href="#f1_29" transform="matrix(10,0,0,10,385,832.9)" />
<use xlink:href="#f1_1x" transform="matrix(10,0,0,10,396.6,832.9)" />
<use xlink:href="#f1_23" transform="matrix(10,0,0,10,403.4,832.9)" />
<use xlink:href="#f1_2a" transform="matrix(10,0,0,10,410.7,832.9)" />
<use xlink:href="#f1_25" transform="matrix(10,0,0,10,418.4,832.9)" />
<use xlink:href="#f1_2g" transform="matrix(10,0,0,10,422.4,832.9)" />
<use xlink:href="#f1_2h" transform="matrix(10,0,0,10,426.7,832.9)" />
<use xlink:href="#f1_20" transform="matrix(10,0,0,10,434.4,832.9)" />
<use xlink:href="#f1_21" transform="matrix(10,0,0,10,441.9,832.9)" />
<use xlink:href="#f1_2b" transform="matrix(10,0,0,10,452.5,832.9)" />
<use xlink:href="#f1_22" transform="matrix(10,0,0,10,460.4,832.9)" />
<use xlink:href="#f1_2f" transform="matrix(10,0,0,10,468.8,832.9)" />
<use xlink:href="#f1_28" transform="matrix(10,0,0,10,474.9,832.9)" />
<use xlink:href="#f1_2b" transform="matrix(10,0,0,10,479.1,832.9)" />
<use xlink:href="#f1_2c" transform="matrix(10,0,0,10,486.6,832.9)" />
<use xlink:href="#f1_21" transform="matrix(10,0,0,10,494.3,832.9)" />
<use xlink:href="#f1_u" transform="matrix(10,0,0,10,505.1,832.9)" />
<use xlink:href="#f1_1z" transform="matrix(10,0,0,10,513,832.9)" />
<use xlink:href="#f1_2b" transform="matrix(10,0,0,10,519.9,832.9)" />
<use xlink:href="#f1_2a" transform="matrix(10,0,0,10,527.5,832.9)" />
<use xlink:href="#f1_2f" transform="matrix(10,0,0,10,535.2,832.9)" />
<use xlink:href="#f1_2g" transform="matrix(10,0,0,10,540.8,832.9)" />
<use xlink:href="#f1_1x" transform="matrix(10,0,0,10,545.1,832.9)" />
<use xlink:href="#f1_2a" transform="matrix(10,0,0,10,552,832.9)" />
<use xlink:href="#f1_2g" transform="matrix(10,0,0,10,559.4,832.9)" />
<use xlink:href="#f0_c" transform="matrix(10,0,0,10,68.8,946.5)" />
<use xlink:href="#f0_25" transform="matrix(10,0,0,10,73.9,946.5)" />
<use xlink:href="#f0_2i" transform="matrix(10,0,0,10,77.9,946.5)" />
<use xlink:href="#f0_d" transform="matrix(10,0,0,10,85.6,946.5)" />
</g>
<path d="M131.3,943.6l-1.1,-.7v-.4l.3,-.4V940l-.3,-.4l-.4,-.4h-.4l-.3,-.3h-.8l-.7,-.4L128,937l.7,.4h.7l.8,.4l.3,.3l.4,.4l.4,.4l.3,.3l.4,.4v2.9l-.4,.7l-.3,.4Z" class="g1_20" />
<path d="M202.4,869.2l-79.6,74.1l-1.1,-1.1l79.6,-74.5l1.1,1.5Z" class="g0_20" />
<path d="M141.5,942.9l-1.4,-.7l1.8,-4.1l1.5,-3.6l1.8,-3.7l1.5,-3.3l1.8,-3.3l1.8,-2.9l.8,-1.5l1.1,-1.5l.7,-1.1l1.1,-1.4l.7,-1.5l1.1,-1.1l1.1,-1.1l.8,-1.1l1.1,-1.1l1.1,-1.1l1.1,-1.1l.7,-1.1l1.1,-1.1l1.1,-.7l1.1,-1.1l1.1,-.8l1.1,-.7l1.1,-1.1l1.1,-.7l1.1,-.8l1.5,-.7l1.1,-.7l1.1,-.8l1.4,-.3l2.2,-1.5l2.6,-1.1l2.6,-1.1l2.9,-.7l2.6,-.8l2.9,-1.1l2.9,-.7l3,-.4l3.3,-.7l3.3,-.8l3.3,-.3l3.3,-.4l3.3,-.4l3.6,-.7v1.5l-3.3,.7l-3.6,.4l-3.3,.4l-3.3,.7l-3,.4l-3.3,.7l-2.9,.7l-2.9,.4l-2.6,1.1l-2.9,.7l-2.6,.8l-2.6,1.1l-2.5,1.1l-2.6,1.1l-1.1,.7l-1.1,.7l-1.1,.8l-1.1,.7l-1.1,.7l-1.1,.8l-1.1,.7l-1.1,.7l-1.1,.8l-1.1,1.1l-1.1,.7l-1.1,1.1l-.7,1.1l-1.1,1.1l-1.1,.7l-1.1,1.1l-.8,1.1l-1.1,1.5l-.7,1.1l-1.1,1.1l-.7,1.5l-1.1,1.4l-.8,1.1l-1.1,1.5l-1.4,2.9l-1.9,3.3l-1.8,3.3l-1.5,3.7l-1.8,3.7l-1.5,4Z" class="g1_20" />
<path d="M233.9,943.6H101.6v-1.5H233.9v1.5Zm1.9,0l-1.1,-1.5v1.5l-5.9,-4l.7,-1.1l6.3,3.6v1.5Zm0,0v-1.5l.7,.8l-.7,.7Zm-6.6,3.3l-.4,-.7l5.9,-4.1l1.1,1.5l-6.3,4.1l-.3,-.8Z" class="g1_20" />
<path d="M139.7,880.5h1.1l4,5.9l-1.1,1.1l-4,-6.2h1.1l-1.1,-.8Zm0,0l.7,-1.1l.4,1.1h-1.1Zm-3.3,6.3l-.7,-.4l4,-5.9l1.1,.8l-3.7,6.2l-.7,-.7Zm2.9,98.4V882h1.9V985.2h-1.9Z" class="g1_20" />
<path d="M212.3,873.6L103,942.5" class="g3_20" />
<path d="M126,881.3h3.1v.2c-.2,0,-.2,.1,-.4,.1c0,0,-.2,.2,-.2,.4c0,0,.2,.2,.4,.6c0,0,.2,.1,.2,.3l.5,.8l.6,-.8c.3,-.5,.5,-.9,.5,-1.1c0,0,0,-.2,-.2,-.2c0,0,-.1,-.1,-.3,-.1v-.2h2.4v.2c-.2,0,-.6,.1,-.8,.3c-.2,0,-.5,.4,-.9,1.1L130,884l1.6,2.6c.4,.5,.8,.9,1,1.1c.1,.2,.3,.2,.7,.2v.3H130v-.3c.2,0,.4,0,.5,-.2c0,0,.2,-.2,.2,-.2c0,-.2,-.2,-.5,-.5,-.9l-1.1,-1.5l-1.1,1.5c-.2,.4,-.4,.7,-.4,.7c0,.2,0,.4,0,.4c.2,.2,.4,.2,.6,.2v.3H126v-.3c.1,0,.3,0,.5,-.2c.2,-.2,.4,-.6,.9,-1.1l1.5,-2l-1.3,-1.9c-.4,-.5,-.7,-.9,-.9,-.9c-.2,-.2,-.6,-.3,-.7,-.3Z" class="g1_20" />
<path d="M229.3,951.1v2.2H231v.6h-1.7v4.4c0,.5,.2,.7,.2,.9c.2,.2,.4,.2,.6,.2c.2,0,.3,0,.5,0c0,-.2,.2,-.4,.4,-.6h.2c-.2,.6,-.4,1,-.8,1.1c-.3,.2,-.7,.4,-.9,.4c-.3,0,-.5,0,-.7,-.2c-.2,-.2,-.4,-.3,-.6,-.5c0,-.2,-.1,-.6,-.1,-1.1v-4.6H227v-.4c.3,0,.5,-.2,.9,-.5c.3,-.2,.5,-.6,.7,-.9c.2,-.2,.4,-.6,.6,-1Z" class="g1_20" />
<path d="M116.6,942.9l-1.5,-.4l.4,-.3v-2.6l-.4,-.4l-.3,-.3v-.4h-.4l-.4,-.4h-1.8l-.4,-.3v-1.5h.8l.7,.4h.7l.4,.3h.7l.4,.4l.4,.4l.3,.3l.4,.8v.3l.4,.8v2.2l-.4,.7Z" class="g1_20" />
<path d="M117.7,937.8l.4,-1.9l.3,-1.1l.8,-.7h1.4l.8,.7l.3,1.1l.4,1.9l-.4,1.4l-.3,1.1l-.8,.8h-1.1l-.3,-.4h-.4l-.4,-.4l-.3,-.3v-.8l-.4,-.7v-.7Zm3.3,-.4v-2.2l-.4,-.4l-.3,-.3h-1.1v.3l-.4,.8v1.8H121Zm-2.2,.4v1.8l.4,.7l.3,.4h.8l.3,-.4V940l.4,-.4v-1.8h-2.2Z" class="g1_20" />
<path d="M132.4,937.8l.3,-1.9l.8,-1.1l.3,-.7h1.9l.7,.7l.4,1.1l.3,1.9l-.3,1.4l-.4,1.5l-.7,.4l-1.1,.3h-.4l-.4,-.3h-.3l-.4,-.4V940l-.4,-.4l-.3,-.7v-1.1Zm3.6,-.4v-1.1l-.3,-1.1v-.4l-.4,-.3h-.4l-.3,-.4v.4h-.4l-.4,.3v.8l-.3,.7v1.1H136Zm-2.5,.4v1.8l.3,.4v.3l.4,.4v.4h1.1v-.4l.4,-.4l.3,-.3v-2.2h-2.5Zm4.4,.7l1.1,-.4v3.7h.3h-1.4h.3l.4,-.4v-2.5h-.4v-.4l-.3,.4v-.4Z" class="g1_20" />
<path d="M480.3,940h-1.4v-.4l-.4,-.7v-.8l-.4,-.3v-.4l-.3,-.7l-.4,-.4l-.4,-.7l-.3,-.4l-.4,-.4l-.7,-.3l-.4,-.4l-.7,-.4l-.4,-.3l-.7,-.4l-.4,-.4l-.7,-.3h-.8l-.7,-.4h-1.1l-.7,-.4h-1.5l-.7,.4h-1.1l-.8,.4h-.7l-.7,.3l-.4,.4l-.7,.4l-.8,-1.1l.4,-.4l.7,-.4l.8,-.3l.7,-.4l1.1,-.4h.7l.8,-.3H469l.7,.3h1.5l.7,.4l.7,.4h.8l.7,.3l.7,.4l.8,.4l.3,.3l.8,.8l.3,.3l.8,.4l.3,.7l.4,.4l.4,.7l.3,.8l.4,.3l.4,.8v.7l.3,.7v.8Z" class="g0_20" />
<path d="M470.8,940.3L402.2,890.5l.8,-1.1l68.5,49.8l-.7,1.1Z" class="g0_20" />
<path d="M522.7,941.1H403v-1.9H522.7v1.9Zm1.8,-.4l-.7,-1.1v1.1l-6.4,-4l.7,-1.1l6.4,4v1.1Zm0,0v-1.1l1.1,.4l-1.1,.7Zm-6.8,3.3l-.3,-.7l6.4,-3.7l.7,1.1l-6.4,4l-.4,-.7Z" class="g1_20" />
<path d="M401.9,876.5H403l4,6.2l-1.5,.8l-3.6,-5.9H403l-1.1,-1.1Zm0,0l.3,-.7l.8,.7h-1.1Zm-3.3,6.6l-.8,-.4l4.1,-6.2l1.1,1.1l-3.7,5.9l-.7,-.4Zm2.9,97.9V878.4h1.8V981h-1.8Z" class="g1_20" />
<path d="M386.5,877.3h3.3v.1h-.2c-.2,0,-.4,.2,-.6,.2q0,.2,0,.4c0,.2,0,.4,0,.7l1.7,3.7l1.6,-3.9c.2,-.3,.2,-.5,.2,-.7v-.2q-.2,0,-.2,0c-.2,-.2,-.3,-.2,-.5,-.2v-.1H394v.1c-.2,.2,-.4,.2,-.6,.2c-.2,.2,-.3,.4,-.3,.8l-2.6,6h-.4l-2.3,-5.9c-.2,-.3,-.2,-.5,-.4,-.5c0,-.2,-.2,-.2,-.4,-.4q-.2,0,-.5,-.2Z" class="g1_20" />
<path d="M516.3,948v2.2h1.6v.6h-1.6v4.4c0,.5,.2,.7,.2,.9c.1,.2,.3,.2,.5,.2c.2,0,.4,0,.6,0c0,-.2,.1,-.4,.3,-.6h.2c-.2,.6,-.4,.9,-.7,1.1c-.4,.2,-.6,.4,-.9,.4c-.4,0,-.6,0,-.8,-.2c-.2,-.2,-.3,-.4,-.5,-.5c0,-.2,-.2,-.6,-.2,-1.1v-4.6h-1.1v-.4c.4,0,.5,-.2,.9,-.5c.4,-.2,.6,-.6,.7,-1c.2,-.1,.4,-.5,.6,-.9Z" class="g1_20" />
<path d="M474.5,926.8l.3,-2.2l.8,-1.5l.7,-.7h1.8l.8,.7l.7,1.5l.4,2.2l-.4,1.8l-.7,1.5l-.8,.7h-2.2l-.3,-.4l-.4,-.7v-.4l-.4,-.3l-.3,-1.1v-1.1Zm4,-.4v-2.6l-.4,-.7l-.3,-.4h-1.1l-.4,.4l-.4,.4v.3l-.3,1.1v1.5h2.9Zm-2.9,.4v1.1l.3,.7v.7l.4,.4v.4l.4,.3h.7l.4,-.3l.3,-.4l.4,-.7v-2.2h-2.9Z" class="g1_20" />
<path d="M665,964.9h74.4v-1.5H665v1.5Z" class="g0_20" />
<path d="M785.2,928.6H665.7v-1.5H785.2v1.5Zm1.9,-.4l-.8,-1.1v1.1l-6.2,-3.6l.7,-1.5l6.3,4v1.1Zm0,0v-1.1l1.1,.8l-1.1,.3Zm-6.6,3.3l-.4,-.3l6.2,-4.1l.8,1.1l-6.3,4.1l-.3,-.8Z" class="g1_20" />
<path d="M664.6,876.5h1.1l4.2,6.2l-1.1,.8l-4.2,-5.9h1.1l-1.1,-1.1Zm0,0l.7,-.7l.4,.7h-1.1Zm-3.3,6.6l-.8,-.4l4.1,-6.2l1.1,1.1l-3.7,5.9l-.7,-.4Zm3.3,97.9V878.4H666V981h-1.4Z" class="g1_20" />
<path d="M655.6,882.4c-.7,.5,-1.3,.9,-1.5,.9c-.1,.2,-.5,.2,-.7,.2c-.5,0,-.9,-.2,-1.3,-.4c-.3,-.4,-.3,-.9,-.3,-1.3c0,-.3,0,-.7,.1,-.9c.2,-.4,.6,-.7,1.1,-.9c.4,-.4,1.3,-.7,2.6,-1.1v-.4c0,-.7,-.2,-1.1,-.4,-1.4c-.1,-.2,-.5,-.4,-.9,-.4c-.3,0,-.7,.2,-.9,.4c-.2,.2,-.2,.3,-.2,.5v.4c0,.3,0,.5,-.2,.5q-.1,.2,-.5,.2q-.2,0,-.4,-.2c-.2,-.2,-.2,-.3,-.2,-.5c0,-.4,.2,-.7,.8,-1.1c.3,-.4,.9,-.6,1.8,-.6c.6,0,1.1,0,1.5,.4c.3,0,.5,.4,.7,.6c0,.3,0,.7,0,1.4v2.2c0,.7,.2,1.1,.2,1.3q0,.2,0,.4q.2,0,.2,0q.1,0,.3,0c0,-.2,.2,-.4,.6,-.6v.4c-.6,.7,-1.1,1.1,-1.7,1.1c-.2,0,-.3,0,-.5,-.2c-.2,-.2,-.2,-.6,-.2,-.9Zm0,-.6v-2.5c-.9,.3,-1.3,.5,-1.5,.7c-.5,.2,-.7,.4,-.9,.5c-.2,.4,-.3,.6,-.3,1c0,.3,.1,.5,.3,.9c.2,.2,.6,.3,.8,.3c.3,0,.9,-.3,1.6,-.9Z" class="g1_20" />
<path d="M776.6,932.3v2.2h1.6v.5h-1.6v4.4c0,.5,.2,.7,.2,.9c.2,.2,.3,.2,.5,.2c.2,0,.4,0,.6,0c0,-.2,.2,-.4,.3,-.6h.2c-.2,.6,-.3,1,-.7,1.1c-.4,.2,-.7,.4,-.9,.4c-.4,0,-.6,0,-.7,-.2c-.2,-.2,-.4,-.3,-.6,-.5c0,-.2,-.2,-.6,-.2,-1.1V935h-1.1v-.4c.4,0,.6,-.1,.9,-.5c.4,-.2,.6,-.6,.8,-.9c.2,-.2,.3,-.6,.5,-.9Z" class="g1_20" />
<g fill="#000000" >
<use xlink:href="#f1_2a" transform="matrix(10,0,0,10,99.7,1027)" />
<use xlink:href="#f1_1x" transform="matrix(10,0,0,10,107.1,1027)" />
<use xlink:href="#f1_2g" transform="matrix(10,0,0,10,114,1027)" />
<use xlink:href="#f1_2h" transform="matrix(10,0,0,10,118.3,1027)" />
<use xlink:href="#f1_2e" transform="matrix(10,0,0,10,125.6,1027)" />
<use xlink:href="#f1_21" transform="matrix(10,0,0,10,130.7,1027)" />
<use xlink:href="#f1_2b" transform="matrix(10,0,0,10,141.5,1027)" />
<use xlink:href="#f1_22" transform="matrix(10,0,0,10,149.2,1027)" />
<use xlink:href="#f1_2f" transform="matrix(10,0,0,10,157.7,1027)" />
<use xlink:href="#f1_28" transform="matrix(10,0,0,10,163.7,1027)" />
<use xlink:href="#f1_2b" transform="matrix(10,0,0,10,167.8,1027)" />
<use xlink:href="#f1_2c" transform="matrix(10,0,0,10,175.5,1027)" />
<use xlink:href="#f1_21" transform="matrix(10,0,0,10,183.3,1027)" />
<use xlink:href="#f1_u" transform="matrix(10,0,0,10,193.8,1027)" />
<use xlink:href="#f1_2c" transform="matrix(10,0,0,10,201.9,1027)" />
<use xlink:href="#f1_2b" transform="matrix(10,0,0,10,209.7,1027)" />
<use xlink:href="#f1_2f" transform="matrix(10,0,0,10,217.4,1027)" />
<use xlink:href="#f1_25" transform="matrix(10,0,0,10,223.1,1027)" />
<use xlink:href="#f1_2g" transform="matrix(10,0,0,10,227.3,1027)" />
<use xlink:href="#f1_25" transform="matrix(10,0,0,10,231.6,1027)" />
<use xlink:href="#f1_2i" transform="matrix(10,0,0,10,236,1027)" />
<use xlink:href="#f1_21" transform="matrix(10,0,0,10,243.3,1027)" />
<use xlink:href="#f1_2a" transform="matrix(10,0,0,10,384.8,1027)" />
<use xlink:href="#f1_1x" transform="matrix(10,0,0,10,392.5,1027)" />
<use xlink:href="#f1_2g" transform="matrix(10,0,0,10,399.3,1027)" />
<use xlink:href="#f1_2h" transform="matrix(10,0,0,10,403.5,1027)" />
<use xlink:href="#f1_2e" transform="matrix(10,0,0,10,410.9,1027)" />
<use xlink:href="#f1_21" transform="matrix(10,0,0,10,416,1027)" />
<use xlink:href="#f1_2b" transform="matrix(10,0,0,10,426.8,1027)" />
<use xlink:href="#f1_22" transform="matrix(10,0,0,10,434.5,1027)" />
<use xlink:href="#f1_2f" transform="matrix(10,0,0,10,443,1027)" />
<use xlink:href="#f1_28" transform="matrix(10,0,0,10,449,1027)" />
<use xlink:href="#f1_2b" transform="matrix(10,0,0,10,453.2,1027)" />
<use xlink:href="#f1_2c" transform="matrix(10,0,0,10,460.8,1027)" />
<use xlink:href="#f1_21" transform="matrix(10,0,0,10,468.6,1027)" />
<use xlink:href="#f1_u" transform="matrix(10,0,0,10,479.3,1027)" />
<use xlink:href="#f1_2a" transform="matrix(10,0,0,10,487.1,1027)" />
<use xlink:href="#f1_21" transform="matrix(10,0,0,10,494.7,1027)" />
<use xlink:href="#f1_23" transform="matrix(10,0,0,10,501.6,1027)" />
<use xlink:href="#f1_1x" transform="matrix(10,0,0,10,509,1027)" />
<use xlink:href="#f1_2g" transform="matrix(10,0,0,10,515.9,1027)" />
<use xlink:href="#f1_25" transform="matrix(10,0,0,10,520.2,1027)" />
<use xlink:href="#f1_2i" transform="matrix(10,0,0,10,524.4,1027)" />
<use xlink:href="#f1_21" transform="matrix(10,0,0,10,531.7,1027)" />
<use xlink:href="#f1_29" transform="matrix(10,0,0,10,99.7,1053.2)" />
<use xlink:href="#f1_1x" transform="matrix(10,0,0,10,111.3,1053.2)" />
<use xlink:href="#f1_23" transform="matrix(10,0,0,10,117.9,1053.2)" />
<use xlink:href="#f1_2a" transform="matrix(10,0,0,10,125.4,1053.2)" />
<use xlink:href="#f1_25" transform="matrix(10,0,0,10,133.1,1053.2)" />
<use xlink:href="#f1_2g" transform="matrix(10,0,0,10,137.3,1053.2)" />
<use xlink:href="#f1_2h" transform="matrix(10,0,0,10,141.5,1053.2)" />
<use xlink:href="#f1_20" transform="matrix(10,0,0,10,148.9,1053.2)" />
<use xlink:href="#f1_21" transform="matrix(10,0,0,10,156.8,1053.2)" />
<use xlink:href="#f1_2b" transform="matrix(10,0,0,10,167.2,1053.2)" />
<use xlink:href="#f1_22" transform="matrix(10,0,0,10,175.1,1053.2)" />
<use xlink:href="#f1_2f" transform="matrix(10,0,0,10,183.5,1053.2)" />
<use xlink:href="#f1_28" transform="matrix(10,0,0,10,189.4,1053.2)" />
<use xlink:href="#f1_2b" transform="matrix(10,0,0,10,193.6,1053.2)" />
<use xlink:href="#f1_2c" transform="matrix(10,0,0,10,201.5,1053.2)" />
<use xlink:href="#f1_21" transform="matrix(10,0,0,10,209,1053.2)" />
<use xlink:href="#f1_u" transform="matrix(10,0,0,10,219.6,1053.2)" />
<use xlink:href="#f1_20" transform="matrix(10,0,0,10,227.7,1053.2)" />
<use xlink:href="#f1_21" transform="matrix(10,0,0,10,235.6,1053.2)" />
<use xlink:href="#f1_1z" transform="matrix(10,0,0,10,242.4,1053.2)" />
<use xlink:href="#f1_2e" transform="matrix(10,0,0,10,249.2,1053.2)" />
<use xlink:href="#f1_21" transform="matrix(10,0,0,10,254.1,1053.2)" />
<use xlink:href="#f1_1x" transform="matrix(10,0,0,10,261.1,1053.2)" />
<use xlink:href="#f1_2f" transform="matrix(10,0,0,10,267.9,1053.2)" />
<use xlink:href="#f1_25" transform="matrix(10,0,0,10,273.6,1053.2)" />
<use xlink:href="#f1_2a" transform="matrix(10,0,0,10,277.8,1053.2)" />
<use xlink:href="#f1_23" transform="matrix(10,0,0,10,285.5,1053.2)" />
<use xlink:href="#f1_29" transform="matrix(10,0,0,10,385,1053.2)" />
<use xlink:href="#f1_1x" transform="matrix(10,0,0,10,396.6,1053.2)" />
<use xlink:href="#f1_23" transform="matrix(10,0,0,10,403.2,1053.2)" />
<use xlink:href="#f1_2a" transform="matrix(10,0,0,10,410.7,1053.2)" />
<use xlink:href="#f1_25" transform="matrix(10,0,0,10,418.4,1053.2)" />
<use xlink:href="#f1_2g" transform="matrix(10,0,0,10,422.6,1053.2)" />
<use xlink:href="#f1_2h" transform="matrix(10,0,0,10,426.8,1053.2)" />
<use xlink:href="#f1_20" transform="matrix(10,0,0,10,434.2,1053.2)" />
<use xlink:href="#f1_21" transform="matrix(10,0,0,10,442.1,1053.2)" />
<use xlink:href="#f1_2b" transform="matrix(10,0,0,10,452.5,1053.2)" />
<use xlink:href="#f1_22" transform="matrix(10,0,0,10,460.4,1053.2)" />
<use xlink:href="#f1_2f" transform="matrix(10,0,0,10,468.8,1053.2)" />
<use xlink:href="#f1_28" transform="matrix(10,0,0,10,474.7,1053.2)" />
<use xlink:href="#f1_2b" transform="matrix(10,0,0,10,479.1,1053.2)" />
<use xlink:href="#f1_2c" transform="matrix(10,0,0,10,486.8,1053.2)" />
<use xlink:href="#f1_21" transform="matrix(10,0,0,10,494.3,1053.2)" />
<use xlink:href="#f1_u" transform="matrix(10,0,0,10,504.9,1053.2)" />
<use xlink:href="#f1_1z" transform="matrix(10,0,0,10,513,1053.2)" />
<use xlink:href="#f1_2b" transform="matrix(10,0,0,10,519.9,1053.2)" />
<use xlink:href="#f1_2a" transform="matrix(10,0,0,10,527.5,1053.2)" />
<use xlink:href="#f1_2f" transform="matrix(10,0,0,10,535.2,1053.2)" />
<use xlink:href="#f1_2g" transform="matrix(10,0,0,10,540.8,1053.2)" />
<use xlink:href="#f1_1x" transform="matrix(10,0,0,10,545.1,1053.2)" />
<use xlink:href="#f1_2a" transform="matrix(10,0,0,10,552,1053.2)" />
<use xlink:href="#f1_2g" transform="matrix(10,0,0,10,559.4,1053.2)" />
</g>
<path fill-rule="evenodd" d="M56.1,263.8H855.6v812.7H56.1V263.8L59,1073.6H852.5V266.9H59v806.7L56.1,263.8Z" class="g1_20" />
<path fill-rule="evenodd" d="M56.1,326.1H855.6v3.7H56.1v-3.7Z" class="g1_20" />
<path fill-rule="evenodd" d="M56.1,332.9H855.6v.8H56.1v-.8Z" class="g1_20" />
<path fill-rule="evenodd" d="M315.5,1076.4V263.8h1.9v812.6h-1.9Z" class="g1_20" />
<path fill-rule="evenodd" d="M612.9,1075.3V263.8h1.6v811.5h-1.6Z" class="g1_20" />
<path fill-rule="evenodd" d="M56.8,636.7H854.5v1.7H56.8v-1.7Z" class="g1_20" />
<path fill-rule="evenodd" d="M57.2,853.6H854.5v1.5H57.2v-1.5Z" class="g1_20" />
<path fill-rule="evenodd" d="M76.5,122.1H250.1v35.2H76.5V122.1l2.3,33H247.9V124.5H78.8v30.6l-2.3,-33Z" class="g1_20" />
<path fill-rule="evenodd" d="M55,486.2H854.5v1.7H55v-1.7Z" class="g1_20" />
<path fill-rule="evenodd" d="M54.1,68H856.2V96.4H54.1V68l1.5,27H854.7V69.7H55.6V95L54.1,68Z" class="g4_20" />
<path fill-rule="evenodd" d="M55.6,93.3H855.1v3H55.6v-3Z" class="g1_20" />
<path fill-rule="evenodd" d="M55.6,68.2H855.1v3.1H55.6V68.2Z" class="g1_20" />
<g fill="#000000" >
<use xlink:href="#f2_1b" transform="matrix(10,0,0,10,61.2,86.7)" />
<use xlink:href="#f2_19" transform="matrix(10,0,0,10,73.5,86.7)" />
<use xlink:href="#f2_1e" transform="matrix(10,0,0,10,79.6,86.7)" />
<use xlink:href="#f2_15" transform="matrix(10,0,0,10,90.8,86.7)" />
<use xlink:href="#f2_1d" transform="matrix(10,0,0,10,102.1,86.7)" />
<use xlink:href="#f2_11" transform="matrix(10,0,0,10,116.2,86.7)" />
<use xlink:href="#f2_1k" transform="matrix(10,0,0,10,127.6,86.7)" />
<use xlink:href="#f2_19" transform="matrix(10,0,0,10,138.2,86.7)" />
<use xlink:href="#f2_13" transform="matrix(10,0,0,10,144.5,86.7)" />
<use xlink:href="#f2_1j" transform="matrix(10,0,0,10,155.5,86.7)" />
</g>
<path fill-rule="evenodd" d="M55,1176.5H852.7v2.3H55v-2.3Z" class="g1_20" />
<defs>
<path d="M398,446c0,0,30,0,77,24c0,0,8,83,8,147c0,0,0,136,-31,253c0,0,-18,65,-53,95c0,0,-19,17,-49,17c0,0,-38,0,-59,-32c0,0,-29,-44,-29,-168c0,0,0,-207,49,-285c0,0,33,-51,87,-51ZM47,-20V0c0,0,124,28,210,84c0,0,86,55,137,136c0,0,50,81,70,187c0,0,-46,-24,-79,-33c0,0,-32,-9,-68,-9c0,0,-115,0,-192,83c0,0,-76,82,-76,226c0,0,0,100,41,184c0,0,42,83,119,129c0,0,76,46,159,46c0,0,89,0,168,-51c0,0,79,-51,126,-147c0,0,47,-96,47,-219c0,0,0,-160,-76,-306C633,310,556,164,405,75C405,75,254,-12,47,-20Z" 
id="f0_t"
transform="scale(0.001,-0.001)" />

<path d="M191,-18c0,0,-51,0,-87,36c0,0,-37,36,-37,87c0,0,0,52,37,88c0,0,36,37,87,37c0,0,52,0,89,-37c0,0,36,-36,36,-88c0,0,0,-51,-37,-87c0,0,-36,-36,-88,-36Z" 
id="f0_i"
transform="scale(0.001,-0.001)" />

<path d="M37,0V16c0,0,275,327,333,439c0,0,59,113,59,220c0,0,0,79,-49,131c0,0,-49,52,-119,52c0,0,-115,0,-178,-115l-28,9c0,0,40,143,123,212c0,0,82,69,189,69c0,0,77,0,141,-36c0,0,63,-36,99,-98c0,0,36,-63,36,-117c0,0,0,-99,-56,-202c0,0,-75,-138,-329,-384H477c0,0,81,0,105,6c0,0,24,7,40,23c0,0,15,16,41,67h27L633,0Z" 
id="f0_m"
transform="scale(0.001,-0.001)" />

<path d="M910,-21L225,820V176c0,0,0,-87,40,-118c0,0,40,-31,91,-31h24V0H21V27c0,0,83,1,116,35c0,0,33,33,33,114V891l-21,26c0,0,-32,41,-57,53c0,0,-24,13,-71,15v27H380L880,385V819c0,0,0,92,-26,124c0,0,-34,42,-116,42c-1,0,-3,0,-4,0v27h334V985c0,0,-64,-9,-86,-22c0,0,-22,-13,-35,-42c0,0,-12,-30,-12,-102V-21Z" 
id="f0_1e"
transform="scale(0.001,-0.001)" />

<path d="M381,31c0,0,33,0,56,19c0,0,29,25,38,71c0,0,15,71,15,286c0,0,0,127,-14,174c0,0,-14,48,-42,69c0,0,-19,16,-50,16c0,0,-38,0,-65,-29c0,0,-27,-29,-36,-113c0,0,-8,-85,-8,-235c0,0,0,-80,10,-150c0,0,8,-53,35,-80c0,0,27,-28,61,-28Zm2,-51c0,0,-157,0,-242,110c0,0,-85,110,-85,256c0,0,0,150,87,261c0,0,86,112,238,112c0,0,90,0,169,-47c0,0,78,-47,119,-134c0,0,40,-86,40,-189c0,0,0,-149,-75,-249c0,0,-91,-120,-251,-120Z" 
id="f0_2b"
transform="scale(0.001,-0.001)" />

<path d="M52,0V26c0,0,44,5,62,29c0,0,13,16,13,97V546c0,0,0,79,-14,98c0,0,-15,20,-61,26v27H336V607c0,0,54,59,104,85c0,0,49,27,106,27c0,0,68,0,113,-38c0,0,44,-38,59,-94c0,0,12,-42,12,-163V152c0,0,0,-81,15,-101c0,0,14,-19,61,-25V0H452V26c0,0,40,6,57,33c0,0,12,19,12,93V462c0,0,0,86,-7,109c0,0,-6,22,-22,35c0,0,-16,12,-36,12c0,0,-64,0,-120,-92V152c0,0,0,-79,15,-100c0,0,15,-20,55,-26V0Z" 
id="f0_2a"
transform="scale(0.001,-0.001)" />

<path d="M37,274V428H473V274Z" 
id="f0_h"
transform="scale(0.001,-0.001)" />

<path d="M549,-22c0,0,-132,0,-203,34c0,0,-98,47,-138,122c0,0,-41,75,-41,201V830c0,0,0,87,-9,109c0,0,-10,21,-34,34c0,0,-22,12,-82,12c-2,0,-4,0,-6,0v27H558V985H532c0,0,-59,0,-81,-13c0,0,-22,-12,-31,-34c0,0,-9,-21,-9,-108V335c0,0,0,-136,20,-180c0,0,21,-44,68,-73c0,0,47,-29,118,-29c0,0,82,0,140,37c0,0,58,37,87,102c0,0,29,64,29,226V830c0,0,0,68,-15,97c0,0,-14,29,-35,40c0,0,-34,18,-95,18v27h350V985h-21c0,0,-43,0,-71,-18c0,0,-28,-17,-41,-51c0,0,-10,-24,-10,-86V446c0,0,0,-178,-23,-258c0,0,-24,-79,-115,-145c0,0,-91,-65,-248,-65Z" 
id="f0_1l"
transform="scale(0.001,-0.001)" />

<path d="M32,0V26c0,0,46,2,69,27c0,0,14,18,14,92V551c0,0,0,75,-17,95c0,0,-17,21,-66,24v27H325V145c0,0,0,-74,17,-95c0,0,17,-21,68,-24V0ZM220,804c0,0,-48,0,-82,33c0,0,-33,34,-33,82c0,0,0,48,33,82c0,0,34,33,82,33c0,0,48,0,82,-33c0,0,33,-34,33,-82c0,0,0,-48,-34,-82c0,0,-34,-33,-81,-33Z" 
id="f0_25"
transform="scale(0.001,-0.001)" />

<path d="M49,0V26c0,0,47,1,67,11c0,0,20,10,28,28c0,0,7,18,7,75l-1,484H49v73H150v87c0,0,0,107,79,179c0,0,78,71,212,71c0,0,92,0,136,-34c0,0,45,-34,45,-76c0,0,0,-34,-28,-58c0,0,-28,-25,-73,-25c0,0,-39,0,-62,20c0,0,-22,20,-22,45c0,0,0,6,4,27c0,0,3,13,3,24c0,0,0,16,-9,23c0,0,-12,11,-29,11c0,0,-21,0,-36,-17c0,0,-15,-18,-15,-58l1,-130V697H460V624H356l1,-484c0,0,0,-70,15,-88c0,0,22,-26,81,-26c2,0,5,0,7,0V0Z" 
id="f0_22"
transform="scale(0.001,-0.001)" />

<path d="M57,0V26c0,0,45,4,61,25c0,0,16,22,16,113V550c0,0,0,59,-6,76c0,0,-7,21,-22,30c0,0,-14,10,-49,14v27H342l1,-158c0,0,69,109,121,144c0,0,52,36,100,36c0,0,42,0,66,-26c0,0,25,-26,25,-73c0,0,0,-50,-24,-77c0,0,-25,-28,-59,-28c0,0,-39,0,-68,25c0,0,-28,26,-33,29c0,0,-8,4,-17,4c0,0,-22,0,-41,-16c0,0,-31,-26,-46,-73c0,0,-24,-72,-24,-159V122c0,0,0,-42,5,-54c0,0,9,-21,27,-30c0,0,17,-9,59,-12V0Z" 
id="f0_2e"
transform="scale(0.001,-0.001)" />

<path d="M56,0V26c0,0,44,5,63,29c0,0,13,16,13,97V546c0,0,0,79,-15,98c0,0,-14,20,-61,26v27H341V606c0,0,57,63,106,88c0,0,49,25,108,25c0,0,67,0,112,-32c0,0,46,-31,71,-95c0,0,59,67,114,97c0,0,55,30,115,30c0,0,72,0,115,-34c0,0,43,-33,60,-84c0,0,16,-51,16,-163V152c0,0,0,-81,15,-100c0,0,14,-20,61,-26V0H873V26c0,0,42,4,63,33c0,0,13,20,13,93V452c0,0,0,93,-7,119c0,0,-8,25,-24,38c0,0,-16,12,-37,12c0,0,-32,0,-65,-24c0,0,-33,-23,-66,-70V152c0,0,0,-76,12,-95c0,0,17,-28,66,-31V0H466V26c0,0,29,2,46,15c0,0,17,13,23,31c0,0,5,18,5,80V452c0,0,0,95,-7,119c0,0,-8,24,-25,37c0,0,-18,14,-38,14c0,0,-30,0,-54,-16c0,0,-35,-23,-75,-79V152c0,0,0,-74,14,-98c0,0,15,-23,61,-28V0Z" 
id="f0_29"
transform="scale(0.001,-0.001)" />

<path d="M298,-9c0,0,-67,0,-113,36c0,0,-46,37,-58,83c0,0,-8,25,-8,137V624H28v26c0,0,94,66,161,139c0,0,66,73,115,163h25V697H494V624H329V193c0,0,0,-60,5,-78c0,0,6,-17,20,-28c0,0,14,-11,26,-11c0,0,48,0,92,75l22,-17C494,134,434,-9,298,-9Z" 
id="f0_2g"
transform="scale(0.001,-0.001)" />

<path d="M551,-22c0,0,-165,0,-251,56c0,0,-86,57,-122,154c0,0,-24,67,-24,250V833c0,0,0,93,-25,123c0,0,-26,29,-83,29H8v27H444V985H405c0,0,-62,0,-89,-40c0,0,-19,-27,-19,-112V392c0,0,0,-59,11,-135c0,0,11,-76,39,-118c0,0,29,-43,82,-70c0,0,53,-28,131,-28c0,0,99,0,178,43c0,0,78,44,107,111c0,0,29,68,29,229V833c0,0,0,95,-21,119c0,0,-29,33,-86,33H729v27h357V985h-38c0,0,-59,0,-91,-50c0,0,-16,-23,-16,-108V417c0,0,0,-152,-30,-236C911,181,881,97,792,37c0,0,-88,-59,-241,-59Z" 
id="f1_1l"
transform="scale(0.001,-0.001)" />

<path d="M21,0V26H35c0,0,53,0,71,27c0,0,18,27,18,101V408c0,0,0,123,-5,150c0,0,-6,27,-17,37c0,0,-12,10,-31,10c0,0,-21,0,-50,-11L10,620l206,83h32V558c0,0,120,145,229,145c0,0,56,0,96,-28c0,0,40,-28,64,-92c0,0,16,-45,16,-137V154c0,0,0,-65,11,-88c0,0,8,-19,26,-29c0,0,18,-11,68,-11V0H419V26h14c0,0,47,0,66,15c0,0,20,15,27,43c0,0,3,11,3,70V434c0,0,0,93,-24,135c0,0,-24,42,-81,42c0,0,-88,0,-176,-97V154c0,0,0,-69,9,-86c0,0,10,-21,28,-31c0,0,19,-11,75,-11V0Z" 
id="f1_2a"
transform="scale(0.001,-0.001)" />

<path d="M55,0V26c0,0,50,0,67,10c0,0,17,10,27,32c0,0,10,23,10,86V418c0,0,0,111,-6,144c0,0,-6,24,-17,33c0,0,-11,10,-30,10c0,0,-21,0,-51,-11L45,620l206,83h33V154c0,0,0,-64,9,-85c0,0,9,-22,27,-32c0,0,19,-11,67,-11V0ZM222,909c0,0,-32,0,-54,23c0,0,-22,22,-22,53c0,0,0,32,22,54c0,0,22,22,54,22c0,0,31,0,53,-22c0,0,22,-22,22,-54c0,0,0,-31,-22,-53c0,0,-22,-23,-53,-23Z" 
id="f1_25"
transform="scale(0.001,-0.001)" />

<path d="M63,0V26H93c0,0,30,0,54,15c0,0,25,15,34,41c0,0,10,25,10,99V630H58v53H191v45c0,0,0,102,33,173c0,0,32,71,100,114c0,0,68,44,152,44c0,0,79,0,145,-51c0,0,43,-33,43,-75c0,0,0,-22,-19,-42c0,0,-20,-20,-42,-20c0,0,-17,0,-36,12c0,0,-19,13,-47,53c0,0,-28,41,-51,55c0,0,-23,14,-51,14c0,0,-35,0,-58,-18c0,0,-24,-18,-35,-57c0,0,-10,-38,-10,-197V683H491V630H315V181c0,0,0,-96,21,-122c0,0,27,-33,73,-33h62V0Z" 
id="f1_22"
transform="scale(0.001,-0.001)" />

<path d="M406,32c0,0,72,0,119,60c0,0,47,59,47,205c0,0,0,181,-78,286c0,0,-53,71,-135,71c0,0,-40,0,-79,-23c0,0,-40,-24,-65,-83c0,0,-24,-58,-24,-151c0,0,0,-149,59,-257c0,0,59,-108,156,-108ZM374,-20c0,0,-154,0,-245,122c0,0,-77,104,-77,233c0,0,0,94,46,187c0,0,47,92,123,137c0,0,76,44,161,44c0,0,155,0,249,-118c0,0,80,-100,80,-231c0,0,0,-91,-44,-185C667,169,623,75,546,27c0,0,-77,-47,-172,-47Z" 
id="f1_2b"
transform="scale(0.001,-0.001)" />

<path d="M17,0V26c0,0,52,0,77,17c0,0,19,12,26,38c0,0,4,13,4,73V419c0,0,0,119,-5,142c0,0,-4,23,-17,33c0,0,-13,11,-33,11c0,0,-23,0,-52,-11l-7,26l207,83h31V549c0,0,86,154,176,154c0,0,41,0,68,-25c0,0,27,-25,27,-58c0,0,0,-29,-20,-49c0,0,-19,-20,-46,-20c0,0,-26,0,-58,25c0,0,-33,26,-48,26c0,0,-14,0,-29,-15c0,0,-34,-30,-70,-101V159c0,0,0,-56,15,-85c0,0,9,-20,34,-34c0,0,24,-14,71,-14V0Z" 
id="f1_2e"
transform="scale(0.001,-0.001)" />

<path d="M23,0V26c0,0,47,0,66,10c0,0,19,11,28,33c0,0,10,22,10,85V416c0,0,0,112,-7,145c0,0,-5,25,-16,34c0,0,-11,10,-31,10c0,0,-21,0,-50,-11L12,620l207,83h32V557c0,0,75,75,88,86c0,0,34,29,72,44c0,0,39,16,77,16c0,0,64,0,110,-37c0,0,47,-38,62,-109c0,0,77,90,130,118c0,0,53,28,109,28c0,0,54,0,96,-28c0,0,42,-28,67,-91c0,0,16,-43,16,-136V154c0,0,0,-64,10,-88c0,0,8,-16,28,-28c0,0,20,-12,65,-12V0H844V26h14c0,0,44,0,69,18c0,0,17,12,24,38c0,0,3,13,3,72V448c0,0,0,83,-20,117c0,0,-29,48,-93,48c0,0,-39,0,-79,-20c0,0,-40,-19,-97,-73l-1,-8l2,-32V154c0,0,0,-70,8,-87c0,0,7,-17,29,-29c0,0,21,-12,73,-12V0H431V26c0,0,57,0,78,14c0,0,21,13,29,40c0,0,4,13,4,74V448c0,0,0,83,-25,120c0,0,-33,48,-91,48c0,0,-40,0,-80,-22c0,0,-61,-33,-95,-74V154c0,0,0,-67,10,-87c0,0,9,-20,27,-30c0,0,18,-11,74,-11V0Z" 
id="f1_29"
transform="scale(0.001,-0.001)" />

<path d="M58,0V26c0,0,47,0,64,10c0,0,18,10,28,32c0,0,9,23,9,86V775c0,0,0,116,-5,142c0,0,-5,27,-17,37c0,0,-11,9,-29,9c0,0,-20,0,-49,-12L46,978l204,83h34V154c0,0,0,-64,9,-85c0,0,9,-21,29,-32c0,0,19,-11,72,-11V0Z" 
id="f1_28"
transform="scale(0.001,-0.001)" />

<path d="M145,-328c0,0,-44,0,-73,25c0,0,-28,25,-28,58c0,0,0,31,21,50c0,0,20,19,56,19c0,0,25,0,67,-16c0,0,30,-11,38,-11c0,0,22,0,49,23c0,0,26,23,53,89L376,28L131,542c0,0,-11,24,-36,58c0,0,-19,27,-30,36c0,0,-18,12,-56,21v26H328V657H312c0,0,-33,0,-50,-15c0,0,-17,-14,-17,-36c0,0,0,-30,25,-81L437,179L589,557c0,0,12,31,12,62c0,0,0,13,-5,20c0,0,-6,8,-19,13c0,0,-12,5,-44,5v26H754V657c0,0,-27,-3,-42,-12c0,0,-15,-9,-33,-34c0,0,-7,-10,-25,-58L376,-128c0,0,-40,-99,-105,-150c0,0,-66,-50,-126,-50Z" 
id="f1_2l"
transform="scale(0.001,-0.001)" />

<path d="M286,72c0,0,57,0,149,75V407c0,0,-113,-45,-145,-64c0,0,-59,-32,-85,-68c0,0,-25,-36,-25,-78c0,0,0,-54,32,-89c0,0,32,-36,74,-36ZM217,-13c0,0,-71,0,-116,48c0,0,-46,48,-46,127c0,0,0,50,22,87c0,0,31,50,106,95c0,0,76,45,252,109v26c0,0,0,102,-32,140c0,0,-32,38,-94,38c0,0,-47,0,-74,-25c0,0,-28,-25,-28,-58l1,-43c0,0,0,-34,-17,-53c0,0,-18,-18,-47,-18c0,0,-28,0,-45,19c0,0,-18,19,-18,53c0,0,0,64,66,117c0,0,65,54,184,54c0,0,91,0,149,-31c0,0,44,-23,65,-72c0,0,13,-32,13,-131V238c0,0,0,-98,4,-120c0,0,4,-22,12,-29c0,0,9,-8,20,-8c0,0,12,0,21,5c0,0,16,10,61,55V99C676,99,592,-12,516,-12c0,0,-37,0,-58,24c0,0,-22,26,-23,86C435,98,330,17,303,5c0,0,-40,-18,-86,-18Z" 
id="f1_1x"
transform="scale(0.001,-0.001)" />

<path d="M342,-20c0,0,-116,0,-203,97c0,0,-86,98,-86,264c0,0,0,161,96,261c0,0,95,101,230,101c0,0,100,0,165,-53c0,0,65,-54,65,-111c0,0,0,-29,-18,-46c0,0,-18,-18,-51,-18c0,0,-44,0,-66,29c0,0,-13,15,-17,59c0,0,-4,45,-30,68c0,0,-26,22,-73,22c0,0,-74,0,-120,-55c0,0,-60,-73,-60,-193c0,0,0,-122,60,-216c0,0,60,-93,162,-93c0,0,73,0,131,49c0,0,41,35,80,126l22,-10C629,261,601,125,521,52c0,0,-81,-72,-179,-72Z" 
id="f1_1z"
transform="scale(0.001,-0.001)" />

<path d="M479,469c0,0,-4,66,-16,93c0,0,-18,42,-55,65c0,0,-37,24,-78,24c0,0,-62,0,-111,-48c0,0,-48,-48,-57,-134ZM355,-20c0,0,-123,0,-211,95c0,0,-87,96,-87,258c0,0,0,175,90,273c0,0,89,98,225,98c0,0,115,0,189,-76c0,0,74,-75,74,-202H162c0,0,0,-152,74,-239c0,0,75,-86,175,-86c0,0,67,0,117,36c0,0,50,37,83,127l24,-15c0,0,-16,-102,-91,-186c0,0,-76,-83,-189,-83Z" 
id="f1_21"
transform="scale(0.001,-0.001)" />

<path d="M255,-10c0,0,-35,0,-68,18c0,0,-32,19,-48,55c0,0,-16,35,-16,109V632H15v24c0,0,41,16,84,56c0,0,43,39,77,92c0,0,17,29,48,104h23V683H407V632H247V188c0,0,0,-66,19,-90c0,0,19,-23,49,-23c0,0,24,0,47,16c0,0,23,15,36,45h29c0,0,-26,-73,-74,-110c0,0,-47,-36,-98,-36Z" 
id="f1_2g"
transform="scale(0.001,-0.001)" />

<path d="M399,62c0,0,68,0,131,68V481c0,0,-5,51,-27,93c0,0,-22,42,-59,63c0,0,-37,21,-72,21c0,0,-65,0,-117,-59c0,0,-67,-77,-67,-226c0,0,0,-151,65,-231c0,0,66,-80,146,-80ZM330,-20c0,0,-112,0,-196,93c0,0,-83,94,-83,240c0,0,0,147,92,269c0,0,93,122,238,122c0,0,90,0,149,-58V773c0,0,0,117,-6,144c0,0,-5,27,-17,37c0,0,-12,9,-30,9c0,0,-20,0,-52,-12l-9,27l204,83h33V270c0,0,0,-120,6,-146c0,0,5,-27,18,-37c0,0,12,-11,28,-11c0,0,21,0,54,13l9,-26L564,-20H530V78C530,78,480,25,432,2c0,0,-47,-22,-102,-22Z" 
id="f1_20"
transform="scale(0.001,-0.001)" />

<path d="M678,393L506,802L330,393ZM11,0V27c0,0,63,12,82,30c0,0,38,35,84,145l356,832h27L912,193c0,0,43,-101,77,-132c0,0,35,-30,97,-34V0H687V27c0,0,60,3,82,21c0,0,21,17,21,41c0,0,0,33,-30,104L700,338H307L239,179c0,0,-26,-59,-26,-88c0,0,0,-23,22,-41c0,0,22,-17,95,-23V0Z" 
id="f1_11"
transform="scale(0.001,-0.001)" />

<path d="M25,0V27H61c0,0,64,0,91,39c0,0,16,24,16,109V837c0,0,0,67,-15,97c0,0,-10,22,-38,36c0,0,-28,15,-90,15v27H312L678,220l363,792h285V985h-35c0,0,-64,0,-91,-39c0,0,-17,-24,-17,-109V175c0,0,0,-93,21,-116c0,0,28,-32,87,-32h35V0H898V27h36c0,0,64,0,90,39c0,0,17,24,17,109V852L649,0H625L234,852V175c0,0,0,-93,20,-116c0,0,27,-32,87,-32h35V0Z" 
id="f1_1d"
transform="scale(0.001,-0.001)" />

<path d="M411,-239c0,0,134,0,198,48c0,0,64,47,64,100c0,0,0,39,-38,55c0,0,-39,16,-154,19c0,0,-167,5,-258,17c0,0,-35,-37,-53,-70c0,0,-17,-32,-17,-60c0,0,0,-36,43,-62c0,0,74,-47,215,-47ZM380,257c0,0,56,0,93,43c0,0,36,42,36,133c0,0,0,118,-51,185c0,0,-38,49,-98,49c0,0,-55,0,-92,-44c0,0,-37,-44,-37,-135c0,0,0,-117,50,-182c0,0,39,-49,99,-49ZM345,-328c0,0,-144,0,-243,64c0,0,-56,38,-56,78c0,0,0,18,8,36c0,0,13,27,52,76c0,0,5,7,76,80c0,0,-39,23,-55,41c0,0,-16,19,-16,42c0,0,0,26,22,61c0,0,21,35,98,100c0,0,-63,30,-97,85c0,0,-33,55,-33,121c0,0,0,101,76,174c0,0,77,73,196,73c0,0,98,0,170,-48H688c0,0,32,0,37,-2c0,0,6,-2,8,-6c0,0,4,-7,4,-24c0,0,0,-20,-4,-27c0,0,-2,-4,-7,-6c0,0,-6,-2,-38,-2H599c0,0,41,-54,41,-137c0,0,0,-96,-73,-163c0,0,-73,-68,-196,-68c0,0,-51,0,-104,15c0,0,-33,-28,-44,-49c0,0,-12,-22,-12,-37c0,0,0,-12,13,-24c0,0,12,-12,48,-17c0,0,21,-4,104,-6c0,0,154,-4,199,-11c0,0,70,-10,111,-51c0,0,42,-41,42,-102c0,0,0,-84,-79,-158c0,0,-117,-108,-304,-108Z" 
id="f1_23"
transform="scale(0.001,-0.001)" />

<path d="M292,-20c0,0,-57,0,-100,33c0,0,-42,33,-58,85c0,0,-17,52,-17,148V551c0,0,0,49,-10,68c0,0,-11,18,-31,29c0,0,-19,9,-68,9c-2,0,-4,0,-6,0v26H242V226c0,0,0,-95,33,-125c0,0,33,-30,80,-30c0,0,32,0,73,21c0,0,40,20,96,76V555c0,0,0,59,-21,80c0,0,-22,21,-89,22v26H647V269c0,0,0,-119,6,-145c0,0,6,-27,18,-37c0,0,12,-11,29,-11c0,0,23,0,52,13L763,63L558,-20H524V124C524,124,436,29,390,4c0,0,-47,-24,-98,-24Z" 
id="f1_2h"
transform="scale(0.001,-0.001)" />

<path d="M553,-21L174,849c0,0,-29,67,-41,82c0,0,-19,24,-46,37c0,0,-27,13,-73,17v27H427V985c0,0,-70,-7,-91,-24c0,0,-21,-17,-21,-44c0,0,0,-38,34,-117L607,207L846,793c0,0,35,86,35,120c0,0,0,22,-22,41c0,0,-21,20,-73,28c0,0,-4,1,-13,3v27h311V985c0,0,-53,-10,-81,-35c0,0,-39,-37,-70,-112L581,-21Z" 
id="f1_1m"
transform="scale(0.001,-0.001)" />

<path d="M312,-20c0,0,-62,0,-143,22c0,0,-25,8,-40,8c0,0,-18,0,-27,-19H77V234h25c0,0,21,-105,80,-158c0,0,59,-53,132,-53c0,0,51,0,84,31c0,0,32,30,32,72c0,0,0,52,-36,87c0,0,-36,35,-144,88c0,0,-109,54,-142,97c0,0,-34,43,-34,107c0,0,0,85,58,141c0,0,58,57,150,57c0,0,40,0,97,-17c0,0,38,-11,51,-11c0,0,12,0,19,5c0,0,7,5,15,23h25V470H464c0,0,-28,110,-72,149c0,0,-45,40,-113,40c0,0,-53,0,-85,-28c0,0,-32,-27,-32,-61c0,0,0,-41,24,-71c0,0,23,-31,94,-65L389,381c0,0,152,-74,152,-194c0,0,0,-94,-71,-151c0,0,-70,-56,-158,-56Z" 
id="f1_2f"
transform="scale(0.001,-0.001)" />

<path d="M336,-20L117,554c0,0,-21,55,-42,74c0,0,-21,19,-66,29v26H296V657c0,0,-40,-3,-52,-14c0,0,-13,-12,-13,-33c0,0,0,-23,13,-56L390,162L537,481L498,581c0,0,-18,46,-47,63c0,0,-17,11,-61,13v26H716V657c0,0,-54,-2,-77,-20c0,0,-15,-12,-15,-39c0,0,0,-15,6,-30L785,177L929,554c0,0,15,40,15,65c0,0,0,14,-15,25c0,0,-14,12,-57,13v26h216V657c0,0,-65,-10,-95,-89L764,-20H733L563,415L363,-20Z" 
id="f1_2j"
transform="scale(0.001,-0.001)" />

<path d="M20,0V26c0,0,45,0,71,15c0,0,15,7,24,28c0,0,9,21,9,85V773c0,0,0,117,-5,144c0,0,-6,27,-17,37c0,0,-12,9,-31,9c0,0,-16,0,-51,-12L10,978l204,83h34V561c0,0,83,91,131,116c0,0,49,26,97,26c0,0,58,0,100,-32c0,0,42,-32,62,-101c0,0,14,-47,14,-174V154c0,0,0,-65,11,-89c0,0,7,-18,25,-28c0,0,18,-11,66,-11V0H418V26h15c0,0,48,0,67,15c0,0,18,15,26,43c0,0,2,12,2,70V396c0,0,0,112,-12,147c0,0,-11,35,-36,53c0,0,-26,17,-61,17c0,0,-37,0,-76,-19c0,0,-40,-20,-95,-79V154c0,0,0,-70,8,-87c0,0,8,-17,29,-29c0,0,22,-12,74,-12V0Z" 
id="f1_24"
transform="scale(0.001,-0.001)" />

<path d="M397,69c0,0,65,0,123,103V539c0,0,-55,105,-134,105c0,0,-28,0,-46,-15c0,0,-27,-23,-45,-81c0,0,-17,-58,-17,-178c0,0,0,-132,19,-195c0,0,19,-63,53,-91c0,0,17,-15,47,-15ZM332,-20c0,0,-133,0,-211,119c0,0,-62,97,-62,238c0,0,0,112,38,202c0,0,39,89,107,134c0,0,67,46,145,46c0,0,50,0,88,-20c0,0,39,-19,83,-67V842c0,0,0,80,-7,96c0,0,-8,22,-26,32c0,0,-18,11,-68,11v31H729V209c0,0,0,-81,5,-96c0,0,6,-25,22,-36c0,0,17,-12,58,-15V37L520,-20V90C520,90,467,26,426,3c0,0,-42,-23,-94,-23Z" 
id="f0_20"
transform="scale(0.001,-0.001)" />

<path d="M312,-20c0,0,-50,0,-134,30c0,0,-22,9,-30,9c0,0,-25,0,-41,-37H82L70,232H97c0,0,33,-99,91,-148c0,0,59,-49,111,-49c0,0,35,0,58,22c0,0,22,22,22,54c0,0,0,35,-22,61c0,0,-22,27,-100,80c0,0,-114,79,-147,120c0,0,-49,62,-49,136c0,0,0,80,55,145c0,0,56,66,161,66c0,0,56,0,109,-28c0,0,20,-11,33,-11c0,0,13,0,21,5c0,0,9,6,27,32h26L504,479H477c0,0,-45,106,-94,145c0,0,-48,39,-96,39c0,0,-31,0,-52,-21c0,0,-22,-20,-22,-47c0,0,0,-20,15,-39c0,0,24,-30,133,-105c0,0,110,-74,144,-126c0,0,35,-52,35,-116c0,0,0,-58,-29,-114C511,95,482,39,429,9c0,0,-53,-29,-117,-29Z" 
id="f0_2f"
transform="scale(0.001,-0.001)" />

<path d="M459,56c0,0,40,0,66,42c0,0,39,63,39,239c0,0,0,180,-42,247c0,0,-29,44,-76,44c0,0,-76,0,-124,-109V147c0,0,64,-91,137,-91ZM29,-326v28c0,0,46,1,69,26c0,0,14,17,14,89V551c0,0,0,75,-17,95c0,0,-17,21,-66,24v27H322V605c0,0,36,54,74,78c0,0,55,36,119,36c0,0,77,0,140,-49c0,0,63,-48,95,-134c0,0,33,-85,33,-184c0,0,0,-106,-34,-193c0,0,-34,-88,-98,-134c0,0,-65,-45,-144,-45c0,0,-57,0,-107,25c0,0,-37,19,-78,66V-188c0,0,0,-53,8,-73c0,0,9,-19,27,-28c0,0,18,-9,70,-9v-28Z" 
id="f0_2c"
transform="scale(0.001,-0.001)" />

<path d="M32,0V26c0,0,46,2,69,27c0,0,14,18,14,92V867c0,0,0,74,-17,94c0,0,-17,21,-66,24v27H325V145c0,0,0,-74,17,-95c0,0,17,-21,68,-24V0Z" 
id="f0_28"
transform="scale(0.001,-0.001)" />

<path d="M350,115c0,0,37,0,86,42V391c0,0,-90,-53,-134,-113c0,0,-29,-41,-29,-82c0,0,0,-34,24,-60c0,0,19,-21,53,-21ZM207,-9c0,0,-59,0,-99,38c0,0,-40,40,-40,99c0,0,0,80,69,143c0,0,69,64,299,170v70c0,0,0,79,-8,100c0,0,-9,20,-33,36c0,0,-23,15,-53,15c0,0,-49,0,-80,-22c0,0,-19,-13,-19,-31c0,0,0,-16,21,-39c0,0,28,-32,28,-62c0,0,0,-36,-27,-62c0,0,-27,-26,-71,-26c0,0,-47,0,-79,29c0,0,-32,28,-32,66c0,0,0,54,43,103c0,0,42,48,118,75c0,0,76,26,158,26c0,0,99,0,157,-42c0,0,58,-43,75,-92c0,0,11,-31,11,-144V170c0,0,0,-47,3,-60c0,0,4,-12,11,-18c0,0,8,-6,18,-6c0,0,19,0,39,28L738,96c0,0,-37,-56,-77,-81c0,0,-40,-24,-90,-24c0,0,-60,0,-94,27c0,0,-33,28,-41,85C436,103,309,-9,207,-9Z" 
id="f0_1x"
transform="scale(0.001,-0.001)" />

<path d="M365,-20c0,0,-139,0,-223,105c0,0,-83,105,-83,253c0,0,0,142,76,250c0,0,92,131,253,131c0,0,108,0,172,-55c0,0,63,-54,63,-121c0,0,0,-43,-25,-68c0,0,-26,-25,-68,-25c0,0,-44,0,-73,29c0,0,-28,29,-35,104c0,0,-5,47,-22,65c0,0,-17,19,-40,19c0,0,-36,0,-61,-38c0,0,-39,-58,-39,-176c0,0,0,-99,31,-188c0,0,32,-90,86,-134c0,0,41,-32,97,-32c0,0,36,0,69,17c0,0,33,17,78,65l23,-18C644,163,595,70,521,25c0,0,-73,-45,-156,-45Z" 
id="f0_1z"
transform="scale(0.001,-0.001)" />

<path d="M458,424c0,0,0,120,-13,165c0,0,-13,44,-40,67c0,0,-16,14,-42,14c0,0,-39,0,-63,-38c0,0,-44,-66,-44,-182V424ZM358,-20c0,0,-155,0,-235,119c0,0,-64,96,-64,239c0,0,0,174,94,277c0,0,94,104,221,104c0,0,106,0,184,-87c0,0,78,-87,84,-257H259c0,0,7,-139,74,-220c0,0,51,-62,124,-62c0,0,45,0,81,25c0,0,37,25,79,90l25,-16C642,192,585,76,517,28c0,0,-69,-48,-159,-48Z" 
id="f0_21"
transform="scale(0.001,-0.001)" />

<path d="M-12,307v90H775V307Z" 
id="f0_4y"
transform="scale(0.001,-0.001)" />

<path d="M393,-277c0,0,104,0,164,28c0,0,59,27,59,77c0,0,0,19,-11,32c0,0,-20,22,-61,30c0,0,-41,8,-218,8c0,0,-76,0,-101,-12c0,0,-42,-23,-42,-63c0,0,0,-38,44,-69c0,0,44,-31,166,-31ZM366,253c0,0,45,0,75,41c0,0,30,41,30,160c0,0,0,134,-33,183c0,0,-24,36,-68,36c0,0,-43,0,-73,-44c0,0,-30,-44,-30,-181c0,0,0,-112,29,-153c0,0,30,-42,70,-42Zm8,-581c0,0,-94,0,-171,18c0,0,-78,18,-112,51c0,0,-33,32,-33,68c0,0,0,34,25,61c0,0,26,28,96,46c0,0,-97,48,-97,132c0,0,0,51,40,100c0,0,39,48,125,84c0,0,-100,36,-145,96c0,0,-44,60,-44,138c0,0,0,103,83,178c0,0,84,75,215,75c0,0,70,0,144,-30H734V607H601c0,0,37,-36,51,-66c0,0,18,-40,18,-85c0,0,0,-74,-42,-129c0,0,-41,-55,-112,-86c0,0,-72,-31,-127,-31c0,0,-5,0,-90,4c0,0,-33,0,-56,-22c0,0,-23,-22,-23,-52c0,0,0,-27,21,-44c0,0,20,-17,66,-17l130,1c0,0,157,0,216,-34c0,0,84,-47,84,-146c0,0,0,-64,-39,-115c0,0,-38,-52,-102,-77c0,0,-96,-36,-222,-36Z" 
id="f0_23"
transform="scale(0.001,-0.001)" />

<path d="M52,0V26c0,0,44,5,62,29c0,0,13,16,13,97V860c0,0,0,80,-14,99c0,0,-15,20,-61,26v27H336V608c0,0,58,61,106,86c0,0,47,25,99,25c0,0,65,0,112,-38c0,0,47,-37,62,-87c0,0,15,-51,15,-170V152c0,0,0,-81,15,-100c0,0,15,-20,61,-26V0H452V26c0,0,37,6,56,30c0,0,13,20,13,96V463c0,0,0,86,-7,108c0,0,-6,22,-22,35c0,0,-16,12,-36,12c0,0,-30,0,-59,-21c0,0,-28,-20,-61,-72V152c0,0,0,-75,12,-94c0,0,14,-26,58,-32V0Z" 
id="f0_24"
transform="scale(0.001,-0.001)" />

<path d="M367,-20L133,520c0,0,-43,98,-67,124c0,0,-17,19,-50,26v27H386V670c0,0,-35,0,-48,-13c0,0,-18,-16,-18,-39c0,0,0,-27,33,-103L468,253l91,226c0,0,40,97,40,137c0,0,0,23,-17,38c0,0,-17,14,-59,16v27H750V670c0,0,-33,-5,-54,-25c0,0,-20,-20,-62,-118L402,-20Z" 
id="f0_2i"
transform="scale(0.001,-0.001)" />

<path d="M182,-328c0,0,-62,0,-101,35c0,0,-38,35,-38,85c0,0,0,44,26,72c0,0,27,28,66,28c0,0,37,0,60,-23c0,0,22,-24,23,-74c0,0,1,-29,7,-37c0,0,6,-8,17,-8c0,0,18,0,38,21c0,0,30,32,70,144l22,57L146,488c0,0,-50,118,-74,144c0,0,-25,27,-59,38v27H384V670c0,0,-36,-2,-51,-14c0,0,-15,-13,-15,-31c0,0,0,-28,37,-112L475,239l81,212c0,0,44,113,44,157c0,0,0,27,-18,44c0,0,-18,16,-65,18v27H750V670c0,0,-34,-4,-56,-27c0,0,-22,-22,-72,-155L422,-27c0,0,-75,-194,-111,-239c0,0,-52,-62,-129,-62Z" 
id="f0_2l"
transform="scale(0.001,-0.001)" />

<path d="M29,335v96H845V335Zm0,243v96H845V578Z" 
id="f0_x"
transform="scale(0.001,-0.001)" />

<path d="M34,0V26c0,0,51,0,93,28c0,0,42,28,123,147l58,85L188,509c0,0,-59,109,-88,133c0,0,-29,25,-65,28v27H419V669L362,656c0,0,-6,-6,-6,-18c0,0,0,-11,4,-23c0,0,2,-5,20,-40L435,473l27,41c0,0,60,82,60,115c0,0,0,15,-13,26c0,0,-13,11,-47,15v27H710V670c0,0,-46,-2,-85,-28c0,0,-40,-27,-89,-103L460,427L584,198c0,0,62,-121,99,-153c0,0,20,-17,55,-19V0H349V26c0,0,46,4,57,12c0,0,11,9,11,23c0,0,0,21,-24,66L332,240L281,165c0,0,-35,-52,-39,-62c0,0,-6,-14,-6,-25c0,0,0,-17,7,-29c0,0,7,-11,19,-17c0,0,13,-6,45,-6V0Z" 
id="f0_2k"
transform="scale(0.001,-0.001)" />

<path d="M491,-305c0,0,-180,60,-305,247C186,-58,61,127,61,368c0,0,0,239,124,423c0,0,125,184,306,243v-34c0,0,-78,-50,-115,-99c0,0,-50,-67,-79,-172c0,0,-36,-131,-36,-365c0,0,0,-221,33,-343c0,0,32,-122,88,-197c0,0,39,-52,109,-92v-37Z" 
id="f0_c"
transform="scale(0.001,-0.001)" />

<path d="M19,-305v34c0,0,77,52,114,100c0,0,50,67,79,171c0,0,36,131,36,365c0,0,0,221,-33,343c0,0,-32,122,-88,198c0,0,-39,52,-108,91v37c0,0,179,-60,304,-246c0,0,125,-186,125,-428c0,0,0,-238,-125,-421c0,0,-125,-184,-304,-244Z" 
id="f0_d"
transform="scale(0.001,-0.001)" />

<path d="M398,24c0,0,74,0,120,58c0,0,61,76,61,214c0,0,0,156,-69,240c0,0,-47,59,-113,59c0,0,-36,0,-71,-18c0,0,-27,-14,-88,-81V242c0,0,0,-83,6,-109c0,0,11,-43,51,-76c0,0,41,-33,103,-33ZM-4,-326v27H15c5,0,42,0,69,16c0,0,14,8,22,26c0,0,7,19,7,94V481c0,0,0,67,-6,85c0,0,-5,18,-18,27c0,0,-13,9,-36,9c0,0,-18,0,-45,-10L0,615l209,85h29V540c0,0,53,91,106,127c0,0,53,36,112,36c0,0,103,0,172,-80c0,0,84,-99,84,-257c0,0,0,-176,-102,-292c0,0,-83,-94,-210,-94c0,0,-55,0,-95,16c0,0,-30,10,-67,44V-167c0,0,0,-71,8,-90c0,0,9,-20,30,-31c0,0,21,-11,77,-11v-27Z" 
id="f1_2c"
transform="scale(0.001,-0.001)" />

<path d="M213,-20c0,0,-34,0,-58,24c0,0,-24,24,-24,58c0,0,0,34,24,58c0,0,24,25,58,25c0,0,35,0,59,-25c0,0,24,-24,24,-58c0,0,0,-34,-24,-58c0,0,-25,-24,-59,-24Zm3,559c0,0,-35,0,-59,24c0,0,-24,24,-24,58c0,0,0,35,24,59c0,0,24,24,59,24c0,0,34,0,58,-24c0,0,24,-24,24,-59c0,0,0,-34,-24,-58c0,0,-24,-24,-58,-24Z" 
id="f1_u"
transform="scale(0.001,-0.001)" />

<path d="M376,-20L133,556c0,0,-17,41,-31,58c0,0,-15,18,-39,30c0,0,-12,7,-50,13v26H335V657H314c0,0,-29,0,-44,-14c0,0,-16,-14,-15,-38c0,0,-1,-26,15,-62L429,165L588,557c0,0,17,42,17,64c0,0,0,10,-6,17c0,0,-8,11,-21,15c0,0,-13,4,-52,4v26H750V657c0,0,-39,-3,-54,-16c0,0,-26,-23,-47,-76L409,-20Z" 
id="f1_2i"
transform="scale(0.001,-0.001)" />

<path d="M38,0V27H74c0,0,63,0,91,37c0,0,18,24,18,115V833c0,0,0,77,-10,102c0,0,-7,18,-30,32c0,0,-33,18,-69,18H38v27H470V985H434c0,0,-62,0,-90,-37c0,0,-18,-24,-18,-115V179c0,0,0,-77,9,-102c0,0,8,-18,31,-32c0,0,32,-18,68,-18h36V0Z" 
id="f1_19"
transform="scale(0.001,-0.001)" />

<path d="M55,0l1,144H94c0,0,44,0,59,7c0,0,15,7,22,23c0,0,6,12,6,61V803c0,0,0,47,-7,62c0,0,-7,16,-22,24c0,0,-15,8,-54,8H56v143H564V897H531c0,0,-49,0,-60,-6c0,0,-18,-8,-26,-23c0,0,-8,-14,-8,-55V537L761,836c0,0,22,21,26,28c0,0,5,7,5,12c0,0,0,10,-9,15c0,0,-8,6,-43,6H698v143h470V897h-15c0,0,-33,0,-46,-4c0,0,-12,-3,-31,-14c0,0,-18,-11,-47,-37L778,625L1078,219c0,0,38,-52,56,-62c0,0,24,-13,69,-13h20V0H698V144h21c0,0,57,0,70,5c0,0,12,5,12,13c0,0,0,9,-23,43L594,466L437,330V225c0,0,0,-39,8,-54c0,0,7,-15,21,-21c0,0,14,-6,56,-6h42V0Z" 
id="f2_1b"
transform="scale(0.001,-0.001)" />

<path d="M52,0V144H93c0,0,44,0,58,6c0,0,13,6,20,20c0,0,6,14,6,55V803c0,0,0,49,-6,64c0,0,-7,15,-22,24c0,0,-10,6,-51,6H52v143H559V897H513c0,0,-40,0,-53,-7c0,0,-13,-8,-20,-23c0,0,-6,-15,-6,-58V233c0,0,0,-47,5,-61c0,0,6,-13,18,-19c0,0,16,-9,47,-9h55V0Z" 
id="f2_19"
transform="scale(0.001,-0.001)" />

<path d="M59,0V144h44c0,0,37,0,51,6c0,0,14,6,22,22c0,0,8,16,8,47V816c0,0,0,34,-8,50c0,0,-7,16,-20,24c0,0,-12,7,-42,7H59v143H480L786,433V805c0,0,0,48,-5,60c0,0,-8,17,-20,25c0,0,-13,7,-49,7H661v143h428V897h-47c0,0,-36,0,-51,-9c0,0,-15,-8,-21,-22c0,0,-6,-14,-6,-61V0H750L364,767V230c0,0,0,-46,5,-59c0,0,6,-12,20,-20c0,0,15,-7,50,-7h50V0Z" 
id="f2_1e"
transform="scale(0.001,-0.001)" />

<path d="M59,0V144H85c0,0,52,0,70,7c0,0,18,8,25,26c0,0,4,11,4,64V808c0,0,0,46,-7,60c0,0,-6,14,-19,22c0,0,-14,7,-53,7H59v143H928L1046,712L911,663c0,0,-34,81,-80,130c0,0,-46,49,-102,65c0,0,-55,16,-129,16H441V615h52c0,0,59,0,80,9c0,0,20,8,29,26c0,0,9,19,9,73v40H744V322H611v45c0,0,0,45,-11,66c0,0,-11,21,-29,29c0,0,-19,7,-83,7H441V230c0,0,0,-38,4,-47c0,0,3,-8,14,-12c0,0,11,-5,47,-5h87c0,0,98,0,165,28c0,0,67,28,120,91c0,0,53,63,81,149l136,-47L959,0Z" 
id="f2_15"
transform="scale(0.001,-0.001)" />

<path d="M59,0V144h42c0,0,39,0,54,7c0,0,15,7,22,22c0,0,7,15,7,57V813c0,0,0,40,-5,52c0,0,-7,17,-21,24c0,0,-13,8,-42,8H59v143H530L711,408l185,632h481V897h-52c0,0,-41,0,-57,-18c0,0,-16,-17,-16,-66V222c0,0,0,-39,4,-48c0,0,7,-15,19,-21c0,0,16,-9,43,-9h59V0H876V144h39c0,0,42,0,57,6c0,0,15,7,22,21c0,0,7,14,7,51V862L748,0H604L359,835V202c0,0,0,-22,8,-34c0,0,8,-12,22,-18c0,0,15,-6,47,-6h50V0Z" 
id="f2_1d"
transform="scale(0.001,-0.001)" />

<path d="M610,480L509,765L404,480ZM2,0V144c0,0,39,0,56,6c0,0,18,7,30,21c0,0,11,13,25,49l322,820H669L981,237c0,0,25,-64,45,-79c0,0,19,-14,68,-14c2,0,3,0,5,0V0H606V144h30c0,0,41,0,58,11c0,0,16,11,16,27c0,0,0,13,-14,55l-32,94H349L310,226c0,0,-12,-33,-12,-44c0,0,0,-11,8,-21c0,0,9,-10,28,-14c0,0,13,-3,71,-3V0Z" 
id="f2_11"
transform="scale(0.001,-0.001)" />

<path d="M280,0V144h30c0,0,51,0,66,6c0,0,14,6,21,22c0,0,8,17,8,67V851c0,0,0,26,-6,33c0,0,-6,7,-26,7c0,0,-38,0,-86,-29c0,0,-48,-29,-85,-82c0,0,-15,-21,-63,-118L2,711l128,365h99l10,-36H826l13,36h99L1067,711L928,662c0,0,-46,91,-66,119c0,0,-40,55,-92,86c0,0,-38,24,-77,24c0,0,-18,0,-24,-9c0,0,-7,-8,-7,-39V244c0,0,0,-53,4,-66c0,0,3,-13,12,-21c0,0,9,-8,25,-11c0,0,16,-2,84,-2V0Z" 
id="f2_1k"
transform="scale(0.001,-0.001)" />

<path d="M579,-17c0,0,-147,0,-266,70c0,0,-119,70,-189,197c0,0,-71,127,-71,277c0,0,0,149,69,271c0,0,69,123,187,191c0,0,119,69,265,69c0,0,149,0,260,-62l25,44H965L1067,667L928,627c0,0,-69,133,-130,189c0,0,-85,77,-185,77c0,0,-72,0,-135,-41c0,0,-63,-40,-100,-118c0,0,-37,-78,-37,-183c0,0,0,-161,85,-276c0,0,85,-116,222,-116c0,0,87,0,168,50c0,0,100,62,173,167l116,-86C1105,290,992,136,899,76c0,0,-144,-93,-320,-93Z" 
id="f2_13"
transform="scale(0.001,-0.001)" />

<path d="M567,-17c0,0,-83,0,-152,21c0,0,-70,21,-145,71L237,0H126L52,404l140,33c0,0,49,-123,153,-205c0,0,104,-82,228,-82c0,0,56,0,93,14c0,0,37,14,56,39c0,0,18,25,18,52c0,0,0,45,-43,77c0,0,-44,32,-154,63L369,446c0,0,-40,11,-107,42c0,0,-68,31,-104,64c0,0,-36,34,-60,86c0,0,-24,53,-24,111c0,0,0,83,46,153c0,0,46,69,138,113c0,0,92,43,204,43c0,0,135,0,244,-70l29,52H842L932,692L792,652c0,0,-69,125,-157,183c0,0,-88,58,-187,58c0,0,-64,0,-101,-26c0,0,-37,-27,-37,-59c0,0,0,-36,34,-67c0,0,32,-32,121,-56L665,626c0,0,166,-47,237,-126c0,0,70,-80,70,-186c0,0,0,-135,-107,-229C865,85,745,-17,567,-17Z" 
id="f2_1j"
transform="scale(0.001,-0.001)" />


</defs>
</svg>