<?xml version="1.0" encoding="UTF-8" standalone="no"?>
<!DOCTYPE svg PUBLIC "-//W3C//DTD SVG 1.1//EN"
"http://www.w3.org/Graphics/SVG/1.1/DTD/svg11.dtd">
<svg viewBox="0 0 909 1286" version="1.1" xmlns="http://www.w3.org/2000/svg" xmlns:xlink="http://www.w3.org/1999/xlink">
<defs>
<clipPath id="c0_83"><path d="M193.1,336.8V319.9h5.1v16.9Z" /></clipPath>
<clipPath id="c1_83"><path d="M670.8,336.6V319.7h5.1v16.9Z" /></clipPath>
<style type="text/css"><![CDATA[
.g0_83{
fill: none;
stroke: #000000;
stroke-width: 0.73333335;
stroke-linecap: round;
stroke-linejoin: round;
}
.g1_83{
}
.g2_83{
fill: #FFFFFF;
}
]]></style>
</defs>
<g fill="#000000" >
<use xlink:href="#f0_11" transform="matrix(10,0,0,10,110.7,133.6)" />
<use xlink:href="#f0_20" transform="matrix(10,0,0,10,121.4,133.6)" />
<use xlink:href="#f0_24" transform="matrix(10,0,0,10,129.2,133.6)" />
<use xlink:href="#f0_21" transform="matrix(10,0,0,10,136.6,133.6)" />
<use xlink:href="#f0_2f" transform="matrix(10,0,0,10,143.5,133.6)" />
<use xlink:href="#f0_25" transform="matrix(10,0,0,10,149.2,133.6)" />
<use xlink:href="#f0_2b" transform="matrix(10,0,0,10,153.4,133.6)" />
<use xlink:href="#f0_2a" transform="matrix(10,0,0,10,161.3,133.6)" />
<use xlink:href="#f0_y" transform="matrix(10,0,0,10,173.8,133.6)" />
<use xlink:href="#f0_13" transform="matrix(10,0,0,10,187.2,133.6)" />
<use xlink:href="#f0_2b" transform="matrix(10,0,0,10,197.5,133.6)" />
<use xlink:href="#f0_24" transform="matrix(10,0,0,10,205.2,133.6)" />
<use xlink:href="#f0_21" transform="matrix(10,0,0,10,212.7,133.6)" />
<use xlink:href="#f0_2f" transform="matrix(10,0,0,10,219.5,133.6)" />
<use xlink:href="#f0_25" transform="matrix(10,0,0,10,225.1,133.6)" />
<use xlink:href="#f0_2b" transform="matrix(10,0,0,10,229.4,133.6)" />
<use xlink:href="#f0_2a" transform="matrix(10,0,0,10,237.2,133.6)" />
<use xlink:href="#f0_11" transform="matrix(10,0,0,10,371.8,133.6)" />
<use xlink:href="#f0_20" transform="matrix(10,0,0,10,382.6,133.6)" />
<use xlink:href="#f0_24" transform="matrix(10,0,0,10,390.5,133.6)" />
<use xlink:href="#f0_21" transform="matrix(10,0,0,10,397.8,133.6)" />
<use xlink:href="#f0_2f" transform="matrix(10,0,0,10,404.8,133.6)" />
<use xlink:href="#f0_25" transform="matrix(10,0,0,10,410.5,133.6)" />
<use xlink:href="#f0_2b" transform="matrix(10,0,0,10,414.7,133.6)" />
<use xlink:href="#f0_2a" transform="matrix(10,0,0,10,422.6,133.6)" />
<use xlink:href="#f0_x" transform="matrix(10,0,0,10,435.1,133.6)" />
<use xlink:href="#f0_13" transform="matrix(10,0,0,10,448.6,133.6)" />
<use xlink:href="#f0_2b" transform="matrix(10,0,0,10,458.7,133.6)" />
<use xlink:href="#f0_24" transform="matrix(10,0,0,10,466.2,133.6)" />
<use xlink:href="#f0_21" transform="matrix(10,0,0,10,473.9,133.6)" />
<use xlink:href="#f0_2f" transform="matrix(10,0,0,10,480.5,133.6)" />
<use xlink:href="#f0_25" transform="matrix(10,0,0,10,486.6,133.6)" />
<use xlink:href="#f0_2b" transform="matrix(10,0,0,10,490.6,133.6)" />
<use xlink:href="#f0_2a" transform="matrix(10,0,0,10,498.5,133.6)" />
<use xlink:href="#f0_11" transform="matrix(10,0,0,10,585,133.6)" />
<use xlink:href="#f0_20" transform="matrix(10,0,0,10,595.8,133.6)" />
<use xlink:href="#f0_24" transform="matrix(10,0,0,10,603.4,133.6)" />
<use xlink:href="#f0_21" transform="matrix(10,0,0,10,611.1,133.6)" />
<use xlink:href="#f0_2f" transform="matrix(10,0,0,10,617.8,133.6)" />
<use xlink:href="#f0_25" transform="matrix(10,0,0,10,623.5,133.6)" />
<use xlink:href="#f0_2b" transform="matrix(10,0,0,10,627.7,133.6)" />
<use xlink:href="#f0_2a" transform="matrix(10,0,0,10,635.6,133.6)" />
<use xlink:href="#f0_w" transform="matrix(10,0,0,10,648.1,133.6)" />
<use xlink:href="#f0_13" transform="matrix(10,0,0,10,661.5,133.6)" />
<use xlink:href="#f0_2b" transform="matrix(10,0,0,10,671.6,133.6)" />
<use xlink:href="#f0_24" transform="matrix(10,0,0,10,679.4,133.6)" />
<use xlink:href="#f0_21" transform="matrix(10,0,0,10,686.8,133.6)" />
<use xlink:href="#f0_2f" transform="matrix(10,0,0,10,693.7,133.6)" />
<use xlink:href="#f0_25" transform="matrix(10,0,0,10,699.4,133.6)" />
<use xlink:href="#f0_2b" transform="matrix(10,0,0,10,703.6,133.6)" />
<use xlink:href="#f0_2a" transform="matrix(10,0,0,10,711.5,133.6)" />
<use xlink:href="#f0_l" transform="matrix(10,0,0,10,79.8,175.4)" />
<use xlink:href="#f0_i" transform="matrix(10,0,0,10,86,175.4)" />
<use xlink:href="#f0_1c" transform="matrix(10,0,0,10,110.7,175.4)" />
<use xlink:href="#f0_25" transform="matrix(10,0,0,10,119.9,175.4)" />
<use xlink:href="#f0_2d" transform="matrix(10,0,0,10,123.8,175.4)" />
<use xlink:href="#f0_2h" transform="matrix(10,0,0,10,131.6,175.4)" />
<use xlink:href="#f0_25" transform="matrix(10,0,0,10,139,175.4)" />
<use xlink:href="#f0_20" transform="matrix(10,0,0,10,143.2,175.4)" />
<use xlink:href="#f0_2j" transform="matrix(10,0,0,10,153.8,175.4)" />
<use xlink:href="#f0_25" transform="matrix(10,0,0,10,164.5,175.4)" />
<use xlink:href="#f0_28" transform="matrix(10,0,0,10,168.3,175.4)" />
<use xlink:href="#f0_28" transform="matrix(10,0,0,10,172.5,175.4)" />
<use xlink:href="#f0_2j" transform="matrix(10,0,0,10,179.5,175.4)" />
<use xlink:href="#f0_21" transform="matrix(10,0,0,10,190.1,175.4)" />
<use xlink:href="#f0_2g" transform="matrix(10,0,0,10,196.9,175.4)" />
<use xlink:href="#f0_2g" transform="matrix(10,0,0,10,203.9,175.4)" />
<use xlink:href="#f0_24" transform="matrix(10,0,0,10,208.1,175.4)" />
<use xlink:href="#f0_21" transform="matrix(10,0,0,10,215.4,175.4)" />
<use xlink:href="#f0_2f" transform="matrix(10,0,0,10,225,175.4)" />
<use xlink:href="#f0_2b" transform="matrix(10,0,0,10,231,175.4)" />
<use xlink:href="#f0_28" transform="matrix(10,0,0,10,238.5,175.4)" />
<use xlink:href="#f0_25" transform="matrix(10,0,0,10,242.8,175.4)" />
<use xlink:href="#f0_20" transform="matrix(10,0,0,10,247,175.4)" />
<use xlink:href="#f0_i" transform="matrix(10,0,0,10,254.5,175.4)" />
<use xlink:href="#f0_13" transform="matrix(10,0,0,10,371.8,175.4)" />
<use xlink:href="#f0_2e" transform="matrix(10,0,0,10,381.4,175.4)" />
<use xlink:href="#f0_25" transform="matrix(10,0,0,10,386.1,175.4)" />
<use xlink:href="#f0_2g" transform="matrix(10,0,0,10,389.8,175.4)" />
<use xlink:href="#f0_25" transform="matrix(10,0,0,10,393.8,175.4)" />
<use xlink:href="#f0_1z" transform="matrix(10,0,0,10,397.5,175.4)" />
<use xlink:href="#f0_1x" transform="matrix(10,0,0,10,403.9,175.4)" />
<use xlink:href="#f0_28" transform="matrix(10,0,0,10,410.2,175.4)" />
<use xlink:href="#f0_i" transform="matrix(10,0,0,10,413.8,175.4)" />
<use xlink:href="#f0_1c" transform="matrix(10,0,0,10,584.9,175.4)" />
<use xlink:href="#f0_25" transform="matrix(10,0,0,10,594.2,175.4)" />
<use xlink:href="#f0_2d" transform="matrix(10,0,0,10,598.3,175.4)" />
<use xlink:href="#f0_2h" transform="matrix(10,0,0,10,606.1,175.4)" />
<use xlink:href="#f0_25" transform="matrix(10,0,0,10,613.5,175.4)" />
<use xlink:href="#f0_20" transform="matrix(10,0,0,10,617.7,175.4)" />
<use xlink:href="#f0_2j" transform="matrix(10,0,0,10,628.5,175.4)" />
<use xlink:href="#f0_25" transform="matrix(10,0,0,10,639.1,175.4)" />
<use xlink:href="#f0_28" transform="matrix(10,0,0,10,643.4,175.4)" />
<use xlink:href="#f0_28" transform="matrix(10,0,0,10,647.4,175.4)" />
<use xlink:href="#f0_2a" transform="matrix(10,0,0,10,654.9,175.4)" />
<use xlink:href="#f0_2b" transform="matrix(10,0,0,10,662.3,175.4)" />
<use xlink:href="#f0_2g" transform="matrix(10,0,0,10,670.1,175.4)" />
<use xlink:href="#f0_2j" transform="matrix(10,0,0,10,677.1,175.4)" />
<use xlink:href="#f0_21" transform="matrix(10,0,0,10,687.9,175.4)" />
<use xlink:href="#f0_2g" transform="matrix(10,0,0,10,694.7,175.4)" />
<use xlink:href="#f0_2g" transform="matrix(10,0,0,10,702,175.4)" />
<use xlink:href="#f0_24" transform="matrix(10,0,0,10,706,175.4)" />
<use xlink:href="#f0_21" transform="matrix(10,0,0,10,713.7,175.4)" />
<use xlink:href="#f0_2f" transform="matrix(10,0,0,10,723.3,175.4)" />
<use xlink:href="#f0_2b" transform="matrix(10,0,0,10,729.3,175.4)" />
<use xlink:href="#f0_28" transform="matrix(10,0,0,10,737,175.4)" />
<use xlink:href="#f0_25" transform="matrix(10,0,0,10,741,175.4)" />
<use xlink:href="#f0_20" transform="matrix(10,0,0,10,745.3,175.4)" />
<use xlink:href="#f0_i" transform="matrix(10,0,0,10,753.1,175.4)" />
<use xlink:href="#f0_m" transform="matrix(10,0,0,10,79.8,200.7)" />
<use xlink:href="#f0_i" transform="matrix(10,0,0,10,86,200.7)" />
<use xlink:href="#f0_1d" transform="matrix(10,0,0,10,110.7,200.7)" />
<use xlink:href="#f0_21" transform="matrix(10,0,0,10,124.3,200.7)" />
<use xlink:href="#f0_2a" transform="matrix(10,0,0,10,130.9,200.7)" />
<use xlink:href="#f0_25" transform="matrix(10,0,0,10,138.4,200.7)" />
<use xlink:href="#f0_2f" transform="matrix(10,0,0,10,142.6,200.7)" />
<use xlink:href="#f0_1z" transform="matrix(10,0,0,10,148.7,200.7)" />
<use xlink:href="#f0_2h" transform="matrix(10,0,0,10,155.5,200.7)" />
<use xlink:href="#f0_2f" transform="matrix(10,0,0,10,163,200.7)" />
<use xlink:href="#f0_25" transform="matrix(10,0,0,10,174.4,200.7)" />
<use xlink:href="#f0_2f" transform="matrix(10,0,0,10,178.4,200.7)" />
<use xlink:href="#f0_1z" transform="matrix(10,0,0,10,189.8,200.7)" />
<use xlink:href="#f0_2b" transform="matrix(10,0,0,10,196.7,200.7)" />
<use xlink:href="#f0_2a" transform="matrix(10,0,0,10,204.2,200.7)" />
<use xlink:href="#f0_1z" transform="matrix(10,0,0,10,211.9,200.7)" />
<use xlink:href="#f0_1x" transform="matrix(10,0,0,10,218.5,200.7)" />
<use xlink:href="#f0_2i" transform="matrix(10,0,0,10,225.5,200.7)" />
<use xlink:href="#f0_21" transform="matrix(10,0,0,10,233,200.7)" />
<use xlink:href="#f0_i" transform="matrix(10,0,0,10,239.8,200.7)" />
<use xlink:href="#f0_1d" transform="matrix(10,0,0,10,371.8,200.7)" />
<use xlink:href="#f0_21" transform="matrix(10,0,0,10,385.4,200.7)" />
<use xlink:href="#f0_2a" transform="matrix(10,0,0,10,392.2,200.7)" />
<use xlink:href="#f0_25" transform="matrix(10,0,0,10,399.7,200.7)" />
<use xlink:href="#f0_2f" transform="matrix(10,0,0,10,403.9,200.7)" />
<use xlink:href="#f0_1z" transform="matrix(10,0,0,10,409.9,200.7)" />
<use xlink:href="#f0_2h" transform="matrix(10,0,0,10,416.7,200.7)" />
<use xlink:href="#f0_2f" transform="matrix(10,0,0,10,424.2,200.7)" />
<use xlink:href="#f0_25" transform="matrix(10,0,0,10,434.9,200.7)" />
<use xlink:href="#f0_2f" transform="matrix(10,0,0,10,439.1,200.7)" />
<use xlink:href="#f0_2c" transform="matrix(10,0,0,10,449.7,200.7)" />
<use xlink:href="#f0_28" transform="matrix(10,0,0,10,457.2,200.7)" />
<use xlink:href="#f0_1x" transform="matrix(10,0,0,10,461.5,200.7)" />
<use xlink:href="#f0_2a" transform="matrix(10,0,0,10,468.4,200.7)" />
<use xlink:href="#f0_21" transform="matrix(10,0,0,10,475.8,200.7)" />
<use xlink:href="#f0_i" transform="matrix(10,0,0,10,482.7,200.7)" />
<use xlink:href="#f0_1d" transform="matrix(10,0,0,10,584.9,200.7)" />
<use xlink:href="#f0_21" transform="matrix(10,0,0,10,598.4,200.7)" />
<use xlink:href="#f0_2a" transform="matrix(10,0,0,10,605.4,200.7)" />
<use xlink:href="#f0_25" transform="matrix(10,0,0,10,612.7,200.7)" />
<use xlink:href="#f0_2f" transform="matrix(10,0,0,10,616.9,200.7)" />
<use xlink:href="#f0_1z" transform="matrix(10,0,0,10,623,200.7)" />
<use xlink:href="#f0_2h" transform="matrix(10,0,0,10,629.6,200.7)" />
<use xlink:href="#f0_2f" transform="matrix(10,0,0,10,637.1,200.7)" />
<use xlink:href="#f0_25" transform="matrix(10,0,0,10,647.6,200.7)" />
<use xlink:href="#f0_2f" transform="matrix(10,0,0,10,651.8,200.7)" />
<use xlink:href="#f0_1z" transform="matrix(10,0,0,10,662.2,200.7)" />
<use xlink:href="#f0_2b" transform="matrix(10,0,0,10,669,200.7)" />
<use xlink:href="#f0_2a" transform="matrix(10,0,0,10,676.5,200.7)" />
<use xlink:href="#f0_2i" transform="matrix(10,0,0,10,684.2,200.7)" />
<use xlink:href="#f0_21" transform="matrix(10,0,0,10,691.5,200.7)" />
<use xlink:href="#f0_2k" transform="matrix(10,0,0,10,698.5,200.7)" />
<use xlink:href="#f0_i" transform="matrix(10,0,0,10,705.8,200.7)" />
<use xlink:href="#f0_n" transform="matrix(10,0,0,10,79.8,226.2)" />
<use xlink:href="#f0_i" transform="matrix(10,0,0,10,86,226.2)" />
<use xlink:href="#f0_11" transform="matrix(10,0,0,10,110.7,226.2)" />
<use xlink:href="#f0_2a" transform="matrix(10,0,0,10,121.5,226.2)" />
<use xlink:href="#f0_23" transform="matrix(10,0,0,10,128.9,226.2)" />
<use xlink:href="#f0_28" transform="matrix(10,0,0,10,136.4,226.2)" />
<use xlink:href="#f0_21" transform="matrix(10,0,0,10,140.6,226.2)" />
<use xlink:href="#f0_2b" transform="matrix(10,0,0,10,150.9,226.2)" />
<use xlink:href="#f0_22" transform="matrix(10,0,0,10,158.4,226.2)" />
<use xlink:href="#f0_1z" transform="matrix(10,0,0,10,166.7,226.2)" />
<use xlink:href="#f0_2b" transform="matrix(10,0,0,10,173.6,226.2)" />
<use xlink:href="#f0_2a" transform="matrix(10,0,0,10,181.1,226.2)" />
<use xlink:href="#f0_2g" transform="matrix(10,0,0,10,188.8,226.2)" />
<use xlink:href="#f0_1x" transform="matrix(10,0,0,10,192.9,226.2)" />
<use xlink:href="#f0_1z" transform="matrix(10,0,0,10,199.7,226.2)" />
<use xlink:href="#f0_2g" transform="matrix(10,0,0,10,206.6,226.2)" />
<use xlink:href="#f0_25" transform="matrix(10,0,0,10,214,226.2)" />
<use xlink:href="#f0_2f" transform="matrix(10,0,0,10,218.4,226.2)" />
<use xlink:href="#f0_1x" transform="matrix(10,0,0,10,227.3,226.2)" />
<use xlink:href="#f0_1z" transform="matrix(10,0,0,10,234.3,226.2)" />
<use xlink:href="#f0_2h" transform="matrix(10,0,0,10,240.9,226.2)" />
<use xlink:href="#f0_2g" transform="matrix(10,0,0,10,248.4,226.2)" />
<use xlink:href="#f0_21" transform="matrix(10,0,0,10,252.7,226.2)" />
<use xlink:href="#f1_c" transform="matrix(10,0,0,10,262.9,226.2)" />
<use xlink:href="#f1_2d" transform="matrix(10,0,0,10,268,226.2)" />
<use xlink:href="#f0_x" transform="matrix(10,0,0,10,279.2,226.2)" />
<use xlink:href="#f0_t" transform="matrix(10,0,0,10,291.1,226.2)" />
<use xlink:href="#f0_k" transform="matrix(10,0,0,10,298.7,226.2)" />
<use xlink:href="#f0_3o" transform="matrix(10,0,0,10,306.5,226.2)" />
<use xlink:href="#f0_d" transform="matrix(10,0,0,10,312.6,226.2)" />
<use xlink:href="#f0_i" transform="matrix(10,0,0,10,317.5,226.2)" />
<use xlink:href="#f0_11" transform="matrix(10,0,0,10,372,226.2)" />
<use xlink:href="#f0_2a" transform="matrix(10,0,0,10,382.8,226.2)" />
<use xlink:href="#f0_23" transform="matrix(10,0,0,10,390.1,226.2)" />
<use xlink:href="#f0_28" transform="matrix(10,0,0,10,397.6,226.2)" />
<use xlink:href="#f0_21" transform="matrix(10,0,0,10,401.9,226.2)" />
<use xlink:href="#f0_2b" transform="matrix(10,0,0,10,412.3,226.2)" />
<use xlink:href="#f0_22" transform="matrix(10,0,0,10,419.8,226.2)" />
<use xlink:href="#f0_1z" transform="matrix(10,0,0,10,428.6,226.2)" />
<use xlink:href="#f0_2b" transform="matrix(10,0,0,10,435.4,226.2)" />
<use xlink:href="#f0_2a" transform="matrix(10,0,0,10,443.1,226.2)" />
<use xlink:href="#f0_2g" transform="matrix(10,0,0,10,450.6,226.2)" />
<use xlink:href="#f0_1x" transform="matrix(10,0,0,10,454.9,226.2)" />
<use xlink:href="#f0_1z" transform="matrix(10,0,0,10,461.6,226.2)" />
<use xlink:href="#f0_2g" transform="matrix(10,0,0,10,468.4,226.2)" />
<use xlink:href="#f0_25" transform="matrix(10,0,0,10,475.9,226.2)" />
<use xlink:href="#f0_2f" transform="matrix(10,0,0,10,480.2,226.2)" />
<use xlink:href="#f0_t" transform="matrix(10,0,0,10,489.9,226.2)" />
<use xlink:href="#f0_k" transform="matrix(10,0,0,10,497.6,226.2)" />
<use xlink:href="#f0_3o" transform="matrix(10,0,0,10,505.1,226.2)" />
<use xlink:href="#f0_i" transform="matrix(10,0,0,10,511.3,226.2)" />
<use xlink:href="#f0_11" transform="matrix(10,0,0,10,584.9,226.2)" />
<use xlink:href="#f0_2a" transform="matrix(10,0,0,10,595.7,226.2)" />
<use xlink:href="#f0_23" transform="matrix(10,0,0,10,603.4,226.2)" />
<use xlink:href="#f0_28" transform="matrix(10,0,0,10,610.7,226.2)" />
<use xlink:href="#f0_21" transform="matrix(10,0,0,10,614.9,226.2)" />
<use xlink:href="#f0_2b" transform="matrix(10,0,0,10,625.4,226.2)" />
<use xlink:href="#f0_22" transform="matrix(10,0,0,10,632.9,226.2)" />
<use xlink:href="#f0_1z" transform="matrix(10,0,0,10,641.3,226.2)" />
<use xlink:href="#f0_2b" transform="matrix(10,0,0,10,648.3,226.2)" />
<use xlink:href="#f0_2a" transform="matrix(10,0,0,10,655.8,226.2)" />
<use xlink:href="#f0_2g" transform="matrix(10,0,0,10,663.5,226.2)" />
<use xlink:href="#f0_1x" transform="matrix(10,0,0,10,667.7,226.2)" />
<use xlink:href="#f0_1z" transform="matrix(10,0,0,10,674.5,226.2)" />
<use xlink:href="#f0_2g" transform="matrix(10,0,0,10,681.3,226.2)" />
<use xlink:href="#f0_25" transform="matrix(10,0,0,10,689,226.2)" />
<use xlink:href="#f0_2f" transform="matrix(10,0,0,10,693.2,226.2)" />
<use xlink:href="#f0_2b" transform="matrix(10,0,0,10,702.7,226.2)" />
<use xlink:href="#f0_1y" transform="matrix(10,0,0,10,710.2,226.2)" />
<use xlink:href="#f0_2g" transform="matrix(10,0,0,10,718.1,226.2)" />
<use xlink:href="#f0_2h" transform="matrix(10,0,0,10,722.3,226.2)" />
<use xlink:href="#f0_2f" transform="matrix(10,0,0,10,729.7,226.2)" />
<use xlink:href="#f0_21" transform="matrix(10,0,0,10,735.7,226.2)" />
<use xlink:href="#f1_c" transform="matrix(10,0,0,10,745.8,226.2)" />
<use xlink:href="#f1_2d" transform="matrix(10,0,0,10,751.1,226.2)" />
<use xlink:href="#f0_x" transform="matrix(10,0,0,10,762.5,226.2)" />
<use xlink:href="#f0_t" transform="matrix(10,0,0,10,774.4,226.2)" />
<use xlink:href="#f0_k" transform="matrix(10,0,0,10,782.1,226.2)" />
<use xlink:href="#f0_3o" transform="matrix(10,0,0,10,790,226.2)" />
<use xlink:href="#f0_d" transform="matrix(10,0,0,10,795.9,226.2)" />
<use xlink:href="#f0_i" transform="matrix(10,0,0,10,801,226.2)" />
<use xlink:href="#f0_o" transform="matrix(10,0,0,10,79.8,251.5)" />
<use xlink:href="#f0_i" transform="matrix(10,0,0,10,86,251.5)" />
<use xlink:href="#f0_1g" transform="matrix(10,0,0,10,110.7,251.5)" />
<use xlink:href="#f0_2e" transform="matrix(10,0,0,10,119,251.5)" />
<use xlink:href="#f0_21" transform="matrix(10,0,0,10,123.7,251.5)" />
<use xlink:href="#f0_2f" transform="matrix(10,0,0,10,130.4,251.5)" />
<use xlink:href="#f0_2f" transform="matrix(10,0,0,10,135.8,251.5)" />
<use xlink:href="#f0_2h" transform="matrix(10,0,0,10,141.3,251.5)" />
<use xlink:href="#f0_2e" transform="matrix(10,0,0,10,148.7,251.5)" />
<use xlink:href="#f0_21" transform="matrix(10,0,0,10,153.3,251.5)" />
<use xlink:href="#f0_1y" transform="matrix(10,0,0,10,163.9,251.5)" />
<use xlink:href="#f0_21" transform="matrix(10,0,0,10,171.2,251.5)" />
<use xlink:href="#f0_28" transform="matrix(10,0,0,10,177.6,251.5)" />
<use xlink:href="#f0_2b" transform="matrix(10,0,0,10,181.5,251.5)" />
<use xlink:href="#f0_2j" transform="matrix(10,0,0,10,189.2,251.5)" />
<use xlink:href="#f0_2g" transform="matrix(10,0,0,10,203.3,251.5)" />
<use xlink:href="#f0_24" transform="matrix(10,0,0,10,207.2,251.5)" />
<use xlink:href="#f0_21" transform="matrix(10,0,0,10,214.3,251.5)" />
<use xlink:href="#f0_29" transform="matrix(10,0,0,10,225,251.5)" />
<use xlink:href="#f0_21" transform="matrix(10,0,0,10,236,251.5)" />
<use xlink:href="#f0_2a" transform="matrix(10,0,0,10,242.4,251.5)" />
<use xlink:href="#f0_25" transform="matrix(10,0,0,10,249.9,251.5)" />
<use xlink:href="#f0_2f" transform="matrix(10,0,0,10,253.7,251.5)" />
<use xlink:href="#f0_1z" transform="matrix(10,0,0,10,259.6,251.5)" />
<use xlink:href="#f0_2h" transform="matrix(10,0,0,10,266,251.5)" />
<use xlink:href="#f0_2f" transform="matrix(10,0,0,10,273.4,251.5)" />
<use xlink:href="#f0_25" transform="matrix(10,0,0,10,283.3,251.5)" />
<use xlink:href="#f0_2f" transform="matrix(10,0,0,10,286.9,251.5)" />
<use xlink:href="#f0_1g" transform="matrix(10,0,0,10,371.8,251.5)" />
<use xlink:href="#f0_2e" transform="matrix(10,0,0,10,380.6,251.5)" />
<use xlink:href="#f0_21" transform="matrix(10,0,0,10,385.6,251.5)" />
<use xlink:href="#f0_2f" transform="matrix(10,0,0,10,392.5,251.5)" />
<use xlink:href="#f0_2f" transform="matrix(10,0,0,10,398.2,251.5)" />
<use xlink:href="#f0_2h" transform="matrix(10,0,0,10,404.3,251.5)" />
<use xlink:href="#f0_2e" transform="matrix(10,0,0,10,411.6,251.5)" />
<use xlink:href="#f0_21" transform="matrix(10,0,0,10,416.7,251.5)" />
<use xlink:href="#f0_1y" transform="matrix(10,0,0,10,427.7,251.5)" />
<use xlink:href="#f0_21" transform="matrix(10,0,0,10,435.6,251.5)" />
<use xlink:href="#f0_28" transform="matrix(10,0,0,10,442.4,251.5)" />
<use xlink:href="#f0_2b" transform="matrix(10,0,0,10,446.4,251.5)" />
<use xlink:href="#f0_2j" transform="matrix(10,0,0,10,454.3,251.5)" />
<use xlink:href="#f0_2g" transform="matrix(10,0,0,10,469,251.5)" />
<use xlink:href="#f0_24" transform="matrix(10,0,0,10,473.2,251.5)" />
<use xlink:href="#f0_21" transform="matrix(10,0,0,10,480.9,251.5)" />
<use xlink:href="#f0_1g" transform="matrix(10,0,0,10,584.8,251.5)" />
<use xlink:href="#f0_2e" transform="matrix(10,0,0,10,593.6,251.5)" />
<use xlink:href="#f0_21" transform="matrix(10,0,0,10,598.6,251.5)" />
<use xlink:href="#f0_2f" transform="matrix(10,0,0,10,605.6,251.5)" />
<use xlink:href="#f0_2f" transform="matrix(10,0,0,10,611.2,251.5)" />
<use xlink:href="#f0_2h" transform="matrix(10,0,0,10,617.3,251.5)" />
<use xlink:href="#f0_2e" transform="matrix(10,0,0,10,624.6,251.5)" />
<use xlink:href="#f0_21" transform="matrix(10,0,0,10,629.7,251.5)" />
<use xlink:href="#f0_1y" transform="matrix(10,0,0,10,641.1,251.5)" />
<use xlink:href="#f0_21" transform="matrix(10,0,0,10,648.6,251.5)" />
<use xlink:href="#f0_28" transform="matrix(10,0,0,10,655.6,251.5)" />
<use xlink:href="#f0_2b" transform="matrix(10,0,0,10,659.6,251.5)" />
<use xlink:href="#f0_2j" transform="matrix(10,0,0,10,667.5,251.5)" />
<use xlink:href="#f0_2g" transform="matrix(10,0,0,10,682.6,251.5)" />
<use xlink:href="#f0_24" transform="matrix(10,0,0,10,686.8,251.5)" />
<use xlink:href="#f0_21" transform="matrix(10,0,0,10,694.1,251.5)" />
<use xlink:href="#f0_29" transform="matrix(10,0,0,10,705.5,251.5)" />
<use xlink:href="#f0_21" transform="matrix(10,0,0,10,717,251.5)" />
<use xlink:href="#f0_2a" transform="matrix(10,0,0,10,723.8,251.5)" />
<use xlink:href="#f0_25" transform="matrix(10,0,0,10,731.1,251.5)" />
<use xlink:href="#f0_2f" transform="matrix(10,0,0,10,735.4,251.5)" />
<use xlink:href="#f0_1z" transform="matrix(10,0,0,10,741.4,251.5)" />
<use xlink:href="#f0_2h" transform="matrix(10,0,0,10,748.2,251.5)" />
<use xlink:href="#f0_2f" transform="matrix(10,0,0,10,755.5,251.5)" />
<use xlink:href="#f0_28" transform="matrix(10,0,0,10,110.7,276.8)" />
<use xlink:href="#f0_21" transform="matrix(10,0,0,10,115,276.8)" />
<use xlink:href="#f0_2f" transform="matrix(10,0,0,10,121.7,276.8)" />
<use xlink:href="#f0_2f" transform="matrix(10,0,0,10,127.4,276.8)" />
<use xlink:href="#f0_21" transform="matrix(10,0,0,10,133.5,276.8)" />
<use xlink:href="#f0_2e" transform="matrix(10,0,0,10,140.3,276.8)" />
<use xlink:href="#f0_2g" transform="matrix(10,0,0,10,149.1,276.8)" />
<use xlink:href="#f0_24" transform="matrix(10,0,0,10,153.1,276.8)" />
<use xlink:href="#f0_1x" transform="matrix(10,0,0,10,160.8,276.8)" />
<use xlink:href="#f0_2a" transform="matrix(10,0,0,10,167.4,276.8)" />
<use xlink:href="#f0_1x" transform="matrix(10,0,0,10,178.8,276.8)" />
<use xlink:href="#f0_1y" transform="matrix(10,0,0,10,185.6,276.8)" />
<use xlink:href="#f0_2b" transform="matrix(10,0,0,10,193.1,276.8)" />
<use xlink:href="#f0_2i" transform="matrix(10,0,0,10,200.9,276.8)" />
<use xlink:href="#f0_21" transform="matrix(10,0,0,10,208.3,276.8)" />
<use xlink:href="#f0_25" transform="matrix(10,0,0,10,218.9,276.8)" />
<use xlink:href="#f0_2g" transform="matrix(10,0,0,10,223.1,276.8)" />
<use xlink:href="#f0_1y" transform="matrix(10,0,0,10,231,276.8)" />
<use xlink:href="#f0_2l" transform="matrix(10,0,0,10,238.9,276.8)" />
<use xlink:href="#f0_c" transform="matrix(10,0,0,10,249.7,276.8)" />
<use xlink:href="#f0_m" transform="matrix(10,0,0,10,255,276.8)" />
<use xlink:href="#f0_1k" transform="matrix(10,0,0,10,262.6,276.8)" />
<use xlink:href="#f0_j" transform="matrix(10,0,0,10,272.3,276.8)" />
<use xlink:href="#f0_2e" transform="matrix(10,0,0,10,276.5,276.8)" />
<use xlink:href="#f0_d" transform="matrix(10,0,0,10,281.6,276.8)" />
<use xlink:href="#f0_g" transform="matrix(10,0,0,10,286.6,276.8)" />
<use xlink:href="#f0_29" transform="matrix(10,0,0,10,371.8,276.8)" />
<use xlink:href="#f0_21" transform="matrix(10,0,0,10,383.4,276.8)" />
<use xlink:href="#f0_2a" transform="matrix(10,0,0,10,390.3,276.8)" />
<use xlink:href="#f0_25" transform="matrix(10,0,0,10,397.7,276.8)" />
<use xlink:href="#f0_2f" transform="matrix(10,0,0,10,401.9,276.8)" />
<use xlink:href="#f0_1z" transform="matrix(10,0,0,10,407.9,276.8)" />
<use xlink:href="#f0_2h" transform="matrix(10,0,0,10,414.7,276.8)" />
<use xlink:href="#f0_2f" transform="matrix(10,0,0,10,422.1,276.8)" />
<use xlink:href="#f0_25" transform="matrix(10,0,0,10,432.3,276.8)" />
<use xlink:href="#f0_2f" transform="matrix(10,0,0,10,436.4,276.8)" />
<use xlink:href="#f0_2f" transform="matrix(10,0,0,10,446.8,276.8)" />
<use xlink:href="#f0_1x" transform="matrix(10,0,0,10,452.7,276.8)" />
<use xlink:href="#f0_29" transform="matrix(10,0,0,10,459.5,276.8)" />
<use xlink:href="#f0_21" transform="matrix(10,0,0,10,471,276.8)" />
<use xlink:href="#f0_1x" transform="matrix(10,0,0,10,482,276.8)" />
<use xlink:href="#f0_2f" transform="matrix(10,0,0,10,488.8,276.8)" />
<use xlink:href="#f0_29" transform="matrix(10,0,0,10,584.9,276.8)" />
<use xlink:href="#f0_2b" transform="matrix(10,0,0,10,596.4,276.8)" />
<use xlink:href="#f0_2e" transform="matrix(10,0,0,10,604.3,276.8)" />
<use xlink:href="#f0_21" transform="matrix(10,0,0,10,609.4,276.8)" />
<use xlink:href="#f0_2g" transform="matrix(10,0,0,10,619.3,276.8)" />
<use xlink:href="#f0_24" transform="matrix(10,0,0,10,623.5,276.8)" />
<use xlink:href="#f0_21" transform="matrix(10,0,0,10,631.2,276.8)" />
<use xlink:href="#f0_2a" transform="matrix(10,0,0,10,638,276.8)" />
<use xlink:href="#f0_1x" transform="matrix(10,0,0,10,648.8,276.8)" />
<use xlink:href="#f0_1y" transform="matrix(10,0,0,10,655.6,276.8)" />
<use xlink:href="#f0_2b" transform="matrix(10,0,0,10,663.1,276.8)" />
<use xlink:href="#f0_2i" transform="matrix(10,0,0,10,671,276.8)" />
<use xlink:href="#f0_21" transform="matrix(10,0,0,10,678.3,276.8)" />
<use xlink:href="#f0_25" transform="matrix(10,0,0,10,688.2,276.8)" />
<use xlink:href="#f0_2g" transform="matrix(10,0,0,10,692.5,276.8)" />
<use xlink:href="#f0_1y" transform="matrix(10,0,0,10,700.2,276.8)" />
<use xlink:href="#f0_2l" transform="matrix(10,0,0,10,707.7,276.8)" />
<use xlink:href="#f0_c" transform="matrix(10,0,0,10,718.3,276.8)" />
<use xlink:href="#f0_m" transform="matrix(10,0,0,10,723.6,276.8)" />
<use xlink:href="#f0_1k" transform="matrix(10,0,0,10,731.3,276.8)" />
<use xlink:href="#f0_j" transform="matrix(10,0,0,10,740.7,276.8)" />
<use xlink:href="#f0_2e" transform="matrix(10,0,0,10,744.9,276.8)" />
<use xlink:href="#f0_d" transform="matrix(10,0,0,10,750.2,276.8)" />
<use xlink:href="#f0_g" transform="matrix(10,0,0,10,755.4,276.8)" />
<use xlink:href="#f0_25" transform="matrix(10,0,0,10,110.7,319.2)" />
<use xlink:href="#f0_i" transform="matrix(10,0,0,10,114.8,319.2)" />
<use xlink:href="#f0_21" transform="matrix(10,0,0,10,118.4,319.2)" />
<use xlink:href="#f0_i" transform="matrix(10,0,0,10,124.9,319.2)" />
</g>
<path d="M186.3,317.5H205" class="g0_83" />
<g fill="#000000" >
<use xlink:href="#f0_k" transform="matrix(6,0,0,6,165.9,326.1)" />
<use xlink:href="#f0_m" transform="matrix(10,0,0,10,187.2,311.8)" />
<use xlink:href="#f0_1k" transform="matrix(10,0,0,10,194.7,311.8)" />
<use xlink:href="#f0_1g" transform="matrix(10,0,0,10,134,321.6)" />
<use xlink:href="#f0_1g" transform="matrix(10,0,0,10,158.8,321.6)" />
</g>
<g clip-path="url(#c0_83)">
<g fill="#000000" >
<use xlink:href="#f0_2e" transform="matrix(10,0,0,10,193.1,333.5)" />
</g>
</g>
<g fill="#000000" >
<use xlink:href="#f1_x" transform="matrix(10,0,0,10,146.5,321.6)" />
<use xlink:href="#f1_h" transform="matrix(10,0,0,10,174.9,321.6)" />
<use xlink:href="#f0_i" transform="matrix(10,0,0,10,208.8,319.2)" />
<use xlink:href="#f0_1x" transform="matrix(10,0,0,10,371.8,319.2)" />
<use xlink:href="#f0_1y" transform="matrix(10,0,0,10,378.8,319.2)" />
<use xlink:href="#f0_2b" transform="matrix(10,0,0,10,386.3,319.2)" />
<use xlink:href="#f0_2i" transform="matrix(10,0,0,10,394,319.2)" />
<use xlink:href="#f0_21" transform="matrix(10,0,0,10,401.5,319.2)" />
<use xlink:href="#f0_25" transform="matrix(10,0,0,10,411.2,319.2)" />
<use xlink:href="#f0_2g" transform="matrix(10,0,0,10,415.4,319.2)" />
<use xlink:href="#f0_g" transform="matrix(10,0,0,10,419.7,319.2)" />
<use xlink:href="#f0_25" transform="matrix(10,0,0,10,426.6,319.2)" />
<use xlink:href="#f0_i" transform="matrix(10,0,0,10,430.7,319.2)" />
<use xlink:href="#f0_21" transform="matrix(10,0,0,10,434.7,319.2)" />
<use xlink:href="#f0_i" transform="matrix(10,0,0,10,441.5,319.2)" />
<use xlink:href="#f0_1g" transform="matrix(10,0,0,10,448.1,319.2)" />
<use xlink:href="#f0_x" transform="matrix(10,0,0,10,459.6,319.2)" />
<use xlink:href="#f0_1g" transform="matrix(10,0,0,10,471.2,319.2)" />
<use xlink:href="#f0_k" transform="matrix(5.8,0,0,5.8,480,324.3)" />
<use xlink:href="#f0_i" transform="matrix(5.8,0,0,5.8,484.4,324.3)" />
<use xlink:href="#f0_25" transform="matrix(10,0,0,10,585,319.2)" />
<use xlink:href="#f0_i" transform="matrix(10,0,0,10,589.1,319.2)" />
<use xlink:href="#f0_21" transform="matrix(10,0,0,10,592.4,319.2)" />
<use xlink:href="#f0_i" transform="matrix(10,0,0,10,599.1,319.2)" />
<use xlink:href="#f0_g" transform="matrix(10,0,0,10,602.6,319.2)" />
</g>
<path d="M664.2,317.3h18.9" class="g0_83" />
<g fill="#000000" >
<use xlink:href="#f0_k" transform="matrix(6,0,0,6,643.7,326)" />
<use xlink:href="#f0_m" transform="matrix(10,0,0,10,665.3,311.7)" />
<use xlink:href="#f0_1k" transform="matrix(10,0,0,10,672.7,311.7)" />
<use xlink:href="#f0_1g" transform="matrix(10,0,0,10,611.8,321.4)" />
<use xlink:href="#f0_1g" transform="matrix(10,0,0,10,636.5,321.4)" />
</g>
<g clip-path="url(#c1_83)">
<g fill="#000000" >
<use xlink:href="#f0_2e" transform="matrix(10,0,0,10,670.8,333.3)" />
</g>
</g>
<g fill="#000000" >
<use xlink:href="#f1_x" transform="matrix(10,0,0,10,624.3,321.4)" />
<use xlink:href="#f1_f" transform="matrix(10,0,0,10,652.7,321.4)" />
<use xlink:href="#f0_i" transform="matrix(10,0,0,10,686.6,319.2)" />
<use xlink:href="#f0_p" transform="matrix(10,0,0,10,79.7,361.2)" />
<use xlink:href="#f0_i" transform="matrix(10,0,0,10,86,361.2)" />
<use xlink:href="#f0_19" transform="matrix(10,0,0,10,110.7,361.2)" />
<use xlink:href="#f0_2a" transform="matrix(10,0,0,10,115.5,361.2)" />
<use xlink:href="#f0_1z" transform="matrix(10,0,0,10,125.4,361.2)" />
<use xlink:href="#f0_1x" transform="matrix(10,0,0,10,131.8,361.2)" />
<use xlink:href="#f0_2c" transform="matrix(10,0,0,10,138.6,361.2)" />
<use xlink:href="#f0_25" transform="matrix(10,0,0,10,145.9,361.2)" />
<use xlink:href="#f0_28" transform="matrix(10,0,0,10,149.8,361.2)" />
<use xlink:href="#f0_28" transform="matrix(10,0,0,10,153.6,361.2)" />
<use xlink:href="#f0_1x" transform="matrix(10,0,0,10,157.7,361.2)" />
<use xlink:href="#f0_2e" transform="matrix(10,0,0,10,164.1,361.2)" />
<use xlink:href="#f0_2l" transform="matrix(10,0,0,10,168.9,361.2)" />
<use xlink:href="#f0_2g" transform="matrix(10,0,0,10,178.6,361.2)" />
<use xlink:href="#f0_24" transform="matrix(10,0,0,10,182.4,361.2)" />
<use xlink:href="#f0_21" transform="matrix(10,0,0,10,189.6,361.2)" />
<use xlink:href="#f0_2e" transform="matrix(10,0,0,10,196.2,361.2)" />
<use xlink:href="#f0_21" transform="matrix(10,0,0,10,201,361.2)" />
<use xlink:href="#f0_2j" transform="matrix(10,0,0,10,210.1,361.2)" />
<use xlink:href="#f0_25" transform="matrix(10,0,0,10,220.6,361.2)" />
<use xlink:href="#f0_28" transform="matrix(10,0,0,10,224.4,361.2)" />
<use xlink:href="#f0_28" transform="matrix(10,0,0,10,228.5,361.2)" />
<use xlink:href="#f0_1y" transform="matrix(10,0,0,10,234.9,361.2)" />
<use xlink:href="#f0_21" transform="matrix(10,0,0,10,242.2,361.2)" />
<use xlink:href="#f0_1x" transform="matrix(10,0,0,10,251.6,361.2)" />
<use xlink:href="#f0_2f" transform="matrix(10,0,0,10,258,361.2)" />
<use xlink:href="#f0_1z" transform="matrix(10,0,0,10,263.8,361.2)" />
<use xlink:href="#f0_21" transform="matrix(10,0,0,10,270.3,361.2)" />
<use xlink:href="#f0_2a" transform="matrix(10,0,0,10,276.5,361.2)" />
<use xlink:href="#f0_20" transform="matrix(10,0,0,10,283.8,361.2)" />
<use xlink:href="#f0_i" transform="matrix(10,0,0,10,291.4,361.2)" />
<use xlink:href="#f0_1e" transform="matrix(10,0,0,10,372,361.2)" />
<use xlink:href="#f0_2b" transform="matrix(10,0,0,10,382.8,361.2)" />
<use xlink:href="#f0_1z" transform="matrix(10,0,0,10,392.9,361.2)" />
<use xlink:href="#f0_1x" transform="matrix(10,0,0,10,399.7,361.2)" />
<use xlink:href="#f0_2c" transform="matrix(10,0,0,10,406.3,361.2)" />
<use xlink:href="#f0_25" transform="matrix(10,0,0,10,413.8,361.2)" />
<use xlink:href="#f0_28" transform="matrix(10,0,0,10,417.7,361.2)" />
<use xlink:href="#f0_28" transform="matrix(10,0,0,10,421.9,361.2)" />
<use xlink:href="#f0_1x" transform="matrix(10,0,0,10,425.7,361.2)" />
<use xlink:href="#f0_2e" transform="matrix(10,0,0,10,432.5,361.2)" />
<use xlink:href="#f0_25" transform="matrix(10,0,0,10,437.5,361.2)" />
<use xlink:href="#f0_2g" transform="matrix(10,0,0,10,441.3,361.2)" />
<use xlink:href="#f0_2l" transform="matrix(10,0,0,10,445.6,361.2)" />
<use xlink:href="#f0_i" transform="matrix(10,0,0,10,451.8,361.2)" />
<use xlink:href="#f0_19" transform="matrix(10,0,0,10,585,361.2)" />
<use xlink:href="#f0_2a" transform="matrix(10,0,0,10,589.6,361.2)" />
<use xlink:href="#f0_1z" transform="matrix(10,0,0,10,599.7,361.2)" />
<use xlink:href="#f0_1x" transform="matrix(10,0,0,10,606.3,361.2)" />
<use xlink:href="#f0_2c" transform="matrix(10,0,0,10,612.9,361.2)" />
<use xlink:href="#f0_25" transform="matrix(10,0,0,10,620,361.2)" />
<use xlink:href="#f0_28" transform="matrix(10,0,0,10,623.9,361.2)" />
<use xlink:href="#f0_28" transform="matrix(10,0,0,10,628.1,361.2)" />
<use xlink:href="#f0_1x" transform="matrix(10,0,0,10,631.8,361.2)" />
<use xlink:href="#f0_2e" transform="matrix(10,0,0,10,638.6,361.2)" />
<use xlink:href="#f0_2l" transform="matrix(10,0,0,10,643.3,361.2)" />
<use xlink:href="#f0_2g" transform="matrix(10,0,0,10,653.2,361.2)" />
<use xlink:href="#f0_24" transform="matrix(10,0,0,10,657.1,361.2)" />
<use xlink:href="#f0_21" transform="matrix(10,0,0,10,664.2,361.2)" />
<use xlink:href="#f0_2e" transform="matrix(10,0,0,10,670.7,361.2)" />
<use xlink:href="#f0_21" transform="matrix(10,0,0,10,675.6,361.2)" />
<use xlink:href="#f0_2j" transform="matrix(10,0,0,10,685,361.2)" />
<use xlink:href="#f0_25" transform="matrix(10,0,0,10,695.4,361.2)" />
<use xlink:href="#f0_28" transform="matrix(10,0,0,10,699.1,361.2)" />
<use xlink:href="#f0_28" transform="matrix(10,0,0,10,703.3,361.2)" />
<use xlink:href="#f0_1y" transform="matrix(10,0,0,10,709.9,361.2)" />
<use xlink:href="#f0_21" transform="matrix(10,0,0,10,717.2,361.2)" />
<use xlink:href="#f0_20" transform="matrix(10,0,0,10,726.8,361.2)" />
<use xlink:href="#f0_21" transform="matrix(10,0,0,10,734.1,361.2)" />
<use xlink:href="#f0_2f" transform="matrix(10,0,0,10,740.3,361.2)" />
<use xlink:href="#f0_1z" transform="matrix(10,0,0,10,746,361.2)" />
<use xlink:href="#f0_21" transform="matrix(10,0,0,10,752.6,361.2)" />
<use xlink:href="#f0_2a" transform="matrix(10,0,0,10,759,361.2)" />
<use xlink:href="#f0_20" transform="matrix(10,0,0,10,766.4,361.2)" />
<use xlink:href="#f0_i" transform="matrix(10,0,0,10,773.5,361.2)" />
</g>
<path fill-rule="evenodd" d="M55.7,109.8H855.1V383.2H55.7V109.8l1.5,271.9H853.6V111.3H57.2V381.7L55.7,109.8Z" class="g1_83" />
<path fill-rule="evenodd" d="M55.7,148H855.1v1.2H55.7V148Z" class="g1_83" />
<path fill-rule="evenodd" d="M346,381.3V109.8h1.6V381.3H346Z" class="g1_83" />
<path fill-rule="evenodd" d="M554.9,382.3V109.8h1.5V382.3h-1.5Z" class="g1_83" />
<path fill-rule="evenodd" d="M54.1,68H856.2V96.4H54.1V68l1.5,27H854.7V69.7H55.6V95L54.1,68Z" class="g2_83" />
<path fill-rule="evenodd" d="M55.6,93.3H855.1v3H55.6v-3Z" class="g1_83" />
<path fill-rule="evenodd" d="M55.6,68.2H855.1v3.1H55.6V68.2Z" class="g1_83" />
<g fill="#000000" >
<use xlink:href="#f2_16" transform="matrix(10,0,0,10,61.4,86.7)" />
<use xlink:href="#f2_1c" transform="matrix(10,0,0,10,71.5,86.7)" />
<use xlink:href="#f2_1l" transform="matrix(10,0,0,10,81.2,86.7)" />
<use xlink:href="#f2_19" transform="matrix(10,0,0,10,92.6,86.7)" />
<use xlink:href="#f2_14" transform="matrix(10,0,0,10,98.6,86.7)" />
<use xlink:href="#f2_1d" transform="matrix(10,0,0,10,116.6,86.7)" />
<use xlink:href="#f2_15" transform="matrix(10,0,0,10,130.9,86.7)" />
<use xlink:href="#f2_13" transform="matrix(10,0,0,10,141.9,86.7)" />
<use xlink:href="#f2_18" transform="matrix(10,0,0,10,152.9,86.7)" />
<use xlink:href="#f2_11" transform="matrix(10,0,0,10,165.4,86.7)" />
<use xlink:href="#f2_1e" transform="matrix(10,0,0,10,176.6,86.7)" />
<use xlink:href="#f2_19" transform="matrix(10,0,0,10,187.6,86.7)" />
<use xlink:href="#f2_13" transform="matrix(10,0,0,10,193.8,86.7)" />
<use xlink:href="#f2_1j" transform="matrix(10,0,0,10,204.8,86.7)" />
</g>
<path fill-rule="evenodd" d="M55,412.6H855.9v2.3H55v-2.3Z" class="g1_83" />
<defs>
<path d="M678,393L506,802L330,393ZM11,0V27c0,0,63,12,82,30c0,0,38,35,84,145l356,832h27L912,193c0,0,43,-101,77,-132c0,0,35,-30,97,-34V0H687V27c0,0,60,3,82,21c0,0,21,17,21,41c0,0,0,33,-30,104L700,338H307L239,179c0,0,-26,-59,-26,-88c0,0,0,-23,22,-41c0,0,22,-17,95,-23V0Z" 
id="f0_11"
transform="scale(0.001,-0.001)" />

<path d="M399,62c0,0,68,0,131,68V481c0,0,-5,51,-27,93c0,0,-22,42,-59,63c0,0,-37,21,-72,21c0,0,-65,0,-117,-59c0,0,-67,-77,-67,-226c0,0,0,-151,65,-231c0,0,66,-80,146,-80ZM330,-20c0,0,-112,0,-196,93c0,0,-83,94,-83,240c0,0,0,147,92,269c0,0,93,122,238,122c0,0,90,0,149,-58V773c0,0,0,117,-6,144c0,0,-5,27,-17,37c0,0,-12,9,-30,9c0,0,-20,0,-52,-12l-9,27l204,83h33V270c0,0,0,-120,6,-146c0,0,5,-27,18,-37c0,0,12,-11,28,-11c0,0,21,0,54,13l9,-26L564,-20H530V78C530,78,480,25,432,2c0,0,-47,-22,-102,-22Z" 
id="f0_20"
transform="scale(0.001,-0.001)" />

<path d="M20,0V26c0,0,45,0,71,15c0,0,15,7,24,28c0,0,9,21,9,85V773c0,0,0,117,-5,144c0,0,-6,27,-17,37c0,0,-12,9,-31,9c0,0,-16,0,-51,-12L10,978l204,83h34V561c0,0,83,91,131,116c0,0,49,26,97,26c0,0,58,0,100,-32c0,0,42,-32,62,-101c0,0,14,-47,14,-174V154c0,0,0,-65,11,-89c0,0,7,-18,25,-28c0,0,18,-11,66,-11V0H418V26h15c0,0,48,0,67,15c0,0,18,15,26,43c0,0,2,12,2,70V396c0,0,0,112,-12,147c0,0,-11,35,-36,53c0,0,-26,17,-61,17c0,0,-37,0,-76,-19c0,0,-40,-20,-95,-79V154c0,0,0,-70,8,-87c0,0,8,-17,29,-29c0,0,22,-12,74,-12V0Z" 
id="f0_24"
transform="scale(0.001,-0.001)" />

<path d="M479,469c0,0,-4,66,-16,93c0,0,-18,42,-55,65c0,0,-37,24,-78,24c0,0,-62,0,-111,-48c0,0,-48,-48,-57,-134ZM355,-20c0,0,-123,0,-211,95c0,0,-87,96,-87,258c0,0,0,175,90,273c0,0,89,98,225,98c0,0,115,0,189,-76c0,0,74,-75,74,-202H162c0,0,0,-152,74,-239c0,0,75,-86,175,-86c0,0,67,0,117,36c0,0,50,37,83,127l24,-15c0,0,-16,-102,-91,-186c0,0,-76,-83,-189,-83Z" 
id="f0_21"
transform="scale(0.001,-0.001)" />

<path d="M312,-20c0,0,-62,0,-143,22c0,0,-25,8,-40,8c0,0,-18,0,-27,-19H77V234h25c0,0,21,-105,80,-158c0,0,59,-53,132,-53c0,0,51,0,84,31c0,0,32,30,32,72c0,0,0,52,-36,87c0,0,-36,35,-144,88c0,0,-109,54,-142,97c0,0,-34,43,-34,107c0,0,0,85,58,141c0,0,58,57,150,57c0,0,40,0,97,-17c0,0,38,-11,51,-11c0,0,12,0,19,5c0,0,7,5,15,23h25V470H464c0,0,-28,110,-72,149c0,0,-45,40,-113,40c0,0,-53,0,-85,-28c0,0,-32,-27,-32,-61c0,0,0,-41,24,-71c0,0,23,-31,94,-65L389,381c0,0,152,-74,152,-194c0,0,0,-94,-71,-151c0,0,-70,-56,-158,-56Z" 
id="f0_2f"
transform="scale(0.001,-0.001)" />

<path d="M55,0V26c0,0,50,0,67,10c0,0,17,10,27,32c0,0,10,23,10,86V418c0,0,0,111,-6,144c0,0,-6,24,-17,33c0,0,-11,10,-30,10c0,0,-21,0,-51,-11L45,620l206,83h33V154c0,0,0,-64,9,-85c0,0,9,-22,27,-32c0,0,19,-11,67,-11V0ZM222,909c0,0,-32,0,-54,23c0,0,-22,22,-22,53c0,0,0,32,22,54c0,0,22,22,54,22c0,0,31,0,53,-22c0,0,22,-22,22,-54c0,0,0,-31,-22,-53c0,0,-22,-23,-53,-23Z" 
id="f0_25"
transform="scale(0.001,-0.001)" />

<path d="M406,32c0,0,72,0,119,60c0,0,47,59,47,205c0,0,0,181,-78,286c0,0,-53,71,-135,71c0,0,-40,0,-79,-23c0,0,-40,-24,-65,-83c0,0,-24,-58,-24,-151c0,0,0,-149,59,-257c0,0,59,-108,156,-108ZM374,-20c0,0,-154,0,-245,122c0,0,-77,104,-77,233c0,0,0,94,46,187c0,0,47,92,123,137c0,0,76,44,161,44c0,0,155,0,249,-118c0,0,80,-100,80,-231c0,0,0,-91,-44,-185C667,169,623,75,546,27c0,0,-77,-47,-172,-47Z" 
id="f0_2b"
transform="scale(0.001,-0.001)" />

<path d="M21,0V26H35c0,0,53,0,71,27c0,0,18,27,18,101V408c0,0,0,123,-5,150c0,0,-6,27,-17,37c0,0,-12,10,-31,10c0,0,-21,0,-50,-11L10,620l206,83h32V558c0,0,120,145,229,145c0,0,56,0,96,-28c0,0,40,-28,64,-92c0,0,16,-45,16,-137V154c0,0,0,-65,11,-88c0,0,8,-19,26,-29c0,0,18,-11,68,-11V0H419V26h14c0,0,47,0,66,15c0,0,20,15,27,43c0,0,3,11,3,70V434c0,0,0,93,-24,135c0,0,-24,42,-81,42c0,0,-88,0,-176,-97V154c0,0,0,-69,9,-86c0,0,10,-21,28,-31c0,0,19,-11,75,-11V0Z" 
id="f0_2a"
transform="scale(0.001,-0.001)" />

<path d="M28,140v64L719,504L28,806v68L830,524V488L28,140Z" 
id="f0_y"
transform="scale(0.001,-0.001)" />

<path d="M548,-21c0,0,-251,0,-389,185C159,164,56,303,56,490c0,0,0,152,68,278c0,0,67,127,186,197c0,0,119,69,260,69c0,0,109,0,216,-53c0,0,31,-17,44,-17c0,0,20,0,35,14c0,0,20,21,28,56h26L943,690H919c0,0,-46,155,-131,224c0,0,-86,68,-206,68c0,0,-100,0,-181,-51c0,0,-81,-52,-128,-163c0,0,-46,-112,-46,-279c0,0,0,-137,44,-238c0,0,44,-101,132,-154c0,0,88,-54,201,-54c0,0,99,0,174,42c0,0,75,42,165,167l23,-14C966,238,890,103,789,40c0,0,-102,-61,-241,-61Z" 
id="f0_13"
transform="scale(0.001,-0.001)" />

<path d="M27,354v62H831V354Zm0,243v62H831V597Z" 
id="f0_x"
transform="scale(0.001,-0.001)" />

<path d="M833,140L30,491v36L833,875V810L143,510L833,207V140Z" 
id="f0_w"
transform="scale(0.001,-0.001)" />

<path d="M197,0V27c0,0,71,2,92,13c0,0,21,10,29,29c0,0,9,18,9,109V725c0,0,0,110,-8,141c0,0,-5,24,-19,35c0,0,-14,11,-33,11c0,0,-28,0,-77,-23l-11,23l246,121h25V178c0,0,0,-85,7,-106c0,0,7,-21,29,-32c0,0,23,-11,91,-13V0Z" 
id="f0_l"
transform="scale(0.001,-0.001)" />

<path d="M191,-20c0,0,-34,0,-58,24c0,0,-24,24,-24,58c0,0,0,35,24,59c0,0,24,24,58,24c0,0,35,0,59,-24c0,0,24,-25,24,-59c0,0,0,-34,-24,-58c0,0,-25,-24,-59,-24Z" 
id="f0_i"
transform="scale(0.001,-0.001)" />

<path d="M31,0V27H69c0,0,64,0,91,42c0,0,16,24,16,110V833c0,0,0,95,-21,119c0,0,-29,33,-86,33H31v27H488V985c0,0,-1,0,-2,0c-12,0,-81,-1,-111,-15c0,0,-32,-16,-44,-40c0,0,-12,-24,-12,-115V180c0,0,0,-62,12,-85c0,0,9,-16,27,-23c0,0,19,-7,117,-7h74c0,0,116,0,163,17c0,0,48,17,86,61c0,0,39,43,78,138l25,-6L814,0Z" 
id="f0_1c"
transform="scale(0.001,-0.001)" />

<path d="M384,85c0,0,44,0,78,19c0,0,35,19,68,62V487c0,0,0,55,-15,87c0,0,-14,33,-51,55c0,0,-38,22,-85,22c0,0,-84,0,-143,-71c0,0,-60,-70,-60,-214c0,0,0,-138,61,-209c0,0,61,-72,147,-72Zm35,-411v27h15c0,0,41,0,63,12c0,0,15,8,24,30c0,0,9,21,9,83V119C530,119,462,39,411,9c0,0,-50,-29,-105,-29c0,0,-99,0,-177,90c0,0,-78,90,-78,241c0,0,0,174,103,283c0,0,103,109,248,109c0,0,43,0,78,-12c0,0,36,-12,65,-35c0,0,43,20,83,47h25V-174c0,0,0,-66,9,-85c0,0,9,-19,28,-30c0,0,19,-10,74,-10v-27Z" 
id="f0_2d"
transform="scale(0.001,-0.001)" />

<path d="M292,-20c0,0,-57,0,-100,33c0,0,-42,33,-58,85c0,0,-17,52,-17,148V551c0,0,0,49,-10,68c0,0,-11,18,-31,29c0,0,-19,9,-68,9c-2,0,-4,0,-6,0v26H242V226c0,0,0,-95,33,-125c0,0,33,-30,80,-30c0,0,32,0,73,21c0,0,40,20,96,76V555c0,0,0,59,-21,80c0,0,-22,21,-89,22v26H647V269c0,0,0,-119,6,-145c0,0,6,-27,18,-37c0,0,12,-11,29,-11c0,0,23,0,52,13L763,63L558,-20H524V124C524,124,436,29,390,4c0,0,-47,-24,-98,-24Z" 
id="f0_2h"
transform="scale(0.001,-0.001)" />

<path d="M336,-20L117,554c0,0,-21,55,-42,74c0,0,-21,19,-66,29v26H296V657c0,0,-40,-3,-52,-14c0,0,-13,-12,-13,-33c0,0,0,-23,13,-56L390,162L537,481L498,581c0,0,-18,46,-47,63c0,0,-17,11,-61,13v26H716V657c0,0,-54,-2,-77,-20c0,0,-15,-12,-15,-39c0,0,0,-15,6,-30L785,177L929,554c0,0,15,40,15,65c0,0,0,14,-15,25c0,0,-14,12,-57,13v26h216V657c0,0,-65,-10,-95,-89L764,-20H733L563,415L363,-20Z" 
id="f0_2j"
transform="scale(0.001,-0.001)" />

<path d="M58,0V26c0,0,47,0,64,10c0,0,18,10,28,32c0,0,9,23,9,86V775c0,0,0,116,-5,142c0,0,-5,27,-17,37c0,0,-11,9,-29,9c0,0,-20,0,-49,-12L46,978l204,83h34V154c0,0,0,-64,9,-85c0,0,9,-21,29,-32c0,0,19,-11,72,-11V0Z" 
id="f0_28"
transform="scale(0.001,-0.001)" />

<path d="M255,-10c0,0,-35,0,-68,18c0,0,-32,19,-48,55c0,0,-16,35,-16,109V632H15v24c0,0,41,16,84,56c0,0,43,39,77,92c0,0,17,29,48,104h23V683H407V632H247V188c0,0,0,-66,19,-90c0,0,19,-23,49,-23c0,0,24,0,47,16c0,0,23,15,36,45h29c0,0,-26,-73,-74,-110c0,0,-47,-36,-98,-36Z" 
id="f0_2g"
transform="scale(0.001,-0.001)" />

<path d="M17,0V26c0,0,52,0,77,17c0,0,19,12,26,38c0,0,4,13,4,73V419c0,0,0,119,-5,142c0,0,-4,23,-17,33c0,0,-13,11,-33,11c0,0,-23,0,-52,-11l-7,26l207,83h31V549c0,0,86,154,176,154c0,0,41,0,68,-25c0,0,27,-25,27,-58c0,0,0,-29,-20,-49c0,0,-19,-20,-46,-20c0,0,-26,0,-58,25c0,0,-33,26,-48,26c0,0,-14,0,-29,-15c0,0,-34,-30,-70,-101V159c0,0,0,-56,15,-85c0,0,9,-20,34,-34c0,0,24,-14,71,-14V0Z" 
id="f0_2e"
transform="scale(0.001,-0.001)" />

<path d="M342,-20c0,0,-116,0,-203,97c0,0,-86,98,-86,264c0,0,0,161,96,261c0,0,95,101,230,101c0,0,100,0,165,-53c0,0,65,-54,65,-111c0,0,0,-29,-18,-46c0,0,-18,-18,-51,-18c0,0,-44,0,-66,29c0,0,-13,15,-17,59c0,0,-4,45,-30,68c0,0,-26,22,-73,22c0,0,-74,0,-120,-55c0,0,-60,-73,-60,-193c0,0,0,-122,60,-216c0,0,60,-93,162,-93c0,0,73,0,131,49c0,0,41,35,80,126l22,-10C629,261,601,125,521,52c0,0,-81,-72,-179,-72Z" 
id="f0_1z"
transform="scale(0.001,-0.001)" />

<path d="M286,72c0,0,57,0,149,75V407c0,0,-113,-45,-145,-64c0,0,-59,-32,-85,-68c0,0,-25,-36,-25,-78c0,0,0,-54,32,-89c0,0,32,-36,74,-36ZM217,-13c0,0,-71,0,-116,48c0,0,-46,48,-46,127c0,0,0,50,22,87c0,0,31,50,106,95c0,0,76,45,252,109v26c0,0,0,102,-32,140c0,0,-32,38,-94,38c0,0,-47,0,-74,-25c0,0,-28,-25,-28,-58l1,-43c0,0,0,-34,-17,-53c0,0,-18,-18,-47,-18c0,0,-28,0,-45,19c0,0,-18,19,-18,53c0,0,0,64,66,117c0,0,65,54,184,54c0,0,91,0,149,-31c0,0,44,-23,65,-72c0,0,13,-32,13,-131V238c0,0,0,-98,4,-120c0,0,4,-22,12,-29c0,0,9,-8,20,-8c0,0,12,0,21,5c0,0,16,10,61,55V99C676,99,592,-12,516,-12c0,0,-37,0,-58,24c0,0,-22,26,-23,86C435,98,330,17,303,5c0,0,-40,-18,-86,-18Z" 
id="f0_1x"
transform="scale(0.001,-0.001)" />

<path d="M33,0V27c0,0,264,241,371,393c0,0,108,152,108,278c0,0,0,96,-59,158c0,0,-59,62,-141,62c0,0,-75,0,-134,-43c0,0,-59,-44,-88,-128H63c0,0,18,138,95,212c0,0,77,74,193,74c0,0,123,0,205,-80c0,0,83,-79,83,-186c0,0,0,-77,-36,-154c0,0,-55,-121,-179,-256C424,357,238,154,191,112H455c0,0,81,0,114,6c0,0,32,6,58,25c0,0,27,18,46,52h27L630,0Z" 
id="f0_m"
transform="scale(0.001,-0.001)" />

<path d="M25,0V27H61c0,0,64,0,91,39c0,0,16,24,16,109V837c0,0,0,67,-15,97c0,0,-10,22,-38,36c0,0,-28,15,-90,15v27H312L678,220l363,792h285V985h-35c0,0,-64,0,-91,-39c0,0,-17,-24,-17,-109V175c0,0,0,-93,21,-116c0,0,28,-32,87,-32h35V0H898V27h36c0,0,64,0,90,39c0,0,17,24,17,109V852L649,0H625L234,852V175c0,0,0,-93,20,-116c0,0,27,-32,87,-32h35V0Z" 
id="f0_1d"
transform="scale(0.001,-0.001)" />

<path d="M376,-20L133,556c0,0,-17,41,-31,58c0,0,-15,18,-39,30c0,0,-12,7,-50,13v26H335V657H314c0,0,-29,0,-44,-14c0,0,-16,-14,-15,-38c0,0,-1,-26,15,-62L429,165L588,557c0,0,17,42,17,64c0,0,0,10,-6,17c0,0,-8,11,-21,15c0,0,-13,4,-52,4v26H750V657c0,0,-39,-3,-54,-16c0,0,-26,-23,-47,-76L409,-20Z" 
id="f0_2i"
transform="scale(0.001,-0.001)" />

<path d="M398,24c0,0,74,0,120,58c0,0,61,76,61,214c0,0,0,156,-69,240c0,0,-47,59,-113,59c0,0,-36,0,-71,-18c0,0,-27,-14,-88,-81V242c0,0,0,-83,6,-109c0,0,11,-43,51,-76c0,0,41,-33,103,-33ZM-4,-326v27H15c5,0,42,0,69,16c0,0,14,8,22,26c0,0,7,19,7,94V481c0,0,0,67,-6,85c0,0,-5,18,-18,27c0,0,-13,9,-36,9c0,0,-18,0,-45,-10L0,615l209,85h29V540c0,0,53,91,106,127c0,0,53,36,112,36c0,0,103,0,172,-80c0,0,84,-99,84,-257c0,0,0,-176,-102,-292c0,0,-83,-94,-210,-94c0,0,-55,0,-95,16c0,0,-30,10,-67,44V-167c0,0,0,-71,8,-90c0,0,9,-20,30,-31c0,0,21,-11,77,-11v-27Z" 
id="f0_2c"
transform="scale(0.001,-0.001)" />

<path d="M25,0V26c0,0,27,4,47,19c0,0,29,22,96,111L311,346L182,535c0,0,-55,81,-86,102c0,0,-30,20,-75,20v26H341V657c0,0,-30,0,-42,-10c0,0,-13,-11,-13,-28c0,0,0,-19,27,-56c0,0,8,-12,25,-37l48,-78l56,77c0,0,55,74,55,94c0,0,0,16,0,27c0,0,0,11,0,11v26H674V657c0,0,-37,-2,-64,-20c0,0,-37,-26,-100,-111L416,402L587,156c0,0,63,-91,89,-109c0,0,27,-18,70,-21V0H423V26c0,0,34,0,53,15c0,0,14,11,14,28c0,0,0,17,-48,87L341,302L232,157c0,0,-50,-69,-50,-82c0,0,0,-18,17,-32c0,0,17,-15,50,-17V0Z" 
id="f0_2k"
transform="scale(0.001,-0.001)" />

<path d="M238,-17c0,0,-103,0,-139,25C99,8,62,33,62,62c0,0,0,22,17,38c0,0,18,16,42,16c0,0,19,0,38,-6c0,0,13,-3,58,-27c0,0,45,-23,62,-28c0,0,27,-8,59,-8c0,0,76,0,132,59c0,0,56,59,56,140c0,0,0,59,-26,115c0,0,-19,41,-42,63c0,0,-32,30,-88,54c0,0,-56,25,-114,25H232v22c0,0,59,8,118,42c0,0,59,35,86,85c0,0,27,49,27,108c0,0,0,76,-48,124c0,0,-48,47,-120,47c0,0,-116,0,-193,-124L77,819c0,0,44,102,110,158c0,0,66,56,164,56c0,0,122,0,187,-80c0,0,49,-58,49,-126c0,0,0,-110,-139,-228c0,0,93,-36,141,-104c0,0,48,-68,48,-160c0,0,0,-131,-84,-227C553,108,444,-17,238,-17Z" 
id="f0_n"
transform="scale(0.001,-0.001)" />

<path d="M411,-239c0,0,134,0,198,48c0,0,64,47,64,100c0,0,0,39,-38,55c0,0,-39,16,-154,19c0,0,-167,5,-258,17c0,0,-35,-37,-53,-70c0,0,-17,-32,-17,-60c0,0,0,-36,43,-62c0,0,74,-47,215,-47ZM380,257c0,0,56,0,93,43c0,0,36,42,36,133c0,0,0,118,-51,185c0,0,-38,49,-98,49c0,0,-55,0,-92,-44c0,0,-37,-44,-37,-135c0,0,0,-117,50,-182c0,0,39,-49,99,-49ZM345,-328c0,0,-144,0,-243,64c0,0,-56,38,-56,78c0,0,0,18,8,36c0,0,13,27,52,76c0,0,5,7,76,80c0,0,-39,23,-55,41c0,0,-16,19,-16,42c0,0,0,26,22,61c0,0,21,35,98,100c0,0,-63,30,-97,85c0,0,-33,55,-33,121c0,0,0,101,76,174c0,0,77,73,196,73c0,0,98,0,170,-48H688c0,0,32,0,37,-2c0,0,6,-2,8,-6c0,0,4,-7,4,-24c0,0,0,-20,-4,-27c0,0,-2,-4,-7,-6c0,0,-6,-2,-38,-2H599c0,0,41,-54,41,-137c0,0,0,-96,-73,-163c0,0,-73,-68,-196,-68c0,0,-51,0,-104,15c0,0,-33,-28,-44,-49c0,0,-12,-22,-12,-37c0,0,0,-12,13,-24c0,0,12,-12,48,-17c0,0,21,-4,104,-6c0,0,154,-4,199,-11c0,0,70,-10,111,-51c0,0,42,-41,42,-102c0,0,0,-84,-79,-158c0,0,-117,-108,-304,-108Z" 
id="f0_23"
transform="scale(0.001,-0.001)" />

<path d="M63,0V26H93c0,0,30,0,54,15c0,0,25,15,34,41c0,0,10,25,10,99V630H58v53H191v45c0,0,0,102,33,173c0,0,32,71,100,114c0,0,68,44,152,44c0,0,79,0,145,-51c0,0,43,-33,43,-75c0,0,0,-22,-19,-42c0,0,-20,-20,-42,-20c0,0,-17,0,-36,12c0,0,-19,13,-47,53c0,0,-28,41,-51,55c0,0,-23,14,-51,14c0,0,-35,0,-58,-18c0,0,-24,-18,-35,-57c0,0,-10,-38,-10,-197V683H491V630H315V181c0,0,0,-96,21,-122c0,0,27,-33,73,-33h62V0Z" 
id="f0_22"
transform="scale(0.001,-0.001)" />

<path d="M412,-328c0,0,-195,96,-303,284C109,-44,0,142,0,365c0,0,0,232,114,422c0,0,114,191,298,273v-31c0,0,-92,-51,-151,-139c0,0,-59,-88,-88,-223c0,0,-29,-136,-29,-282c0,0,0,-167,27,-301c0,0,26,-133,82,-221c0,0,55,-89,159,-159v-32Z" 
id="f1_c"
transform="scale(0.001,-0.001)" />

<path d="M338,28c0,0,48,0,91,45c0,0,43,45,65,144c0,0,22,99,26,276H143c0,0,3,-133,20,-239c0,0,13,-80,44,-140c0,0,19,-36,54,-61c0,0,36,-25,77,-25ZM522,543c0,0,-1,194,-37,312c0,0,-29,90,-76,129c0,0,-34,28,-79,28c0,0,-51,0,-93,-39c0,0,-43,-40,-65,-132c0,0,-22,-93,-29,-298ZM329,-21c0,0,-68,0,-124,31c0,0,-56,33,-99,95c0,0,-43,62,-66,131C40,236,0,356,0,489c0,0,0,294,119,453c0,0,91,119,217,119c0,0,122,0,209,-115c0,0,121,-160,121,-436c0,0,0,-263,-119,-415C547,95,455,-21,329,-21Z" 
id="f1_2d"
transform="scale(0.001,-0.001)" />

<path d="M379,437c0,0,34,0,81,16c0,0,47,17,83,47c0,0,14,97,14,155c0,0,0,72,-25,156c0,0,-25,83,-70,128c0,0,-45,45,-103,45c0,0,-66,0,-116,-60c0,0,-50,-59,-50,-177c0,0,0,-157,66,-246c0,0,49,-64,120,-64ZM80,-20V7c0,0,97,1,181,45c0,0,83,44,161,153c0,0,78,109,109,240c0,0,-117,-75,-212,-75c0,0,-107,0,-183,82c0,0,-76,82,-76,219c0,0,0,132,76,236c0,0,92,126,240,126c0,0,124,0,213,-103c0,0,109,-128,109,-315c0,0,0,-169,-82,-314C616,301,533,155,385,59c0,0,-120,-79,-262,-79Z" 
id="f0_t"
transform="scale(0.001,-0.001)" />

<path d="M379,29c0,0,41,0,84,37c0,0,43,36,65,121c0,0,34,128,34,362c0,0,0,173,-35,288c0,0,-27,86,-69,122c0,0,-31,25,-74,25c0,0,-51,0,-90,-46c0,0,-54,-62,-73,-195c0,0,-20,-132,-20,-261c0,0,0,-209,52,-341c0,0,42,-112,126,-112Zm-2,-46c0,0,-145,0,-241,170c0,0,-81,144,-81,347c0,0,0,173,52,298c0,0,52,125,139,186c0,0,67,49,139,49c0,0,116,0,208,-119c0,0,116,-147,116,-398c0,0,0,-176,-51,-299C658,217,608,94,529,38c0,0,-79,-55,-152,-55Z" 
id="f0_k"
transform="scale(0.001,-0.001)" />

<path d="M302,639c0,0,69,0,118,49c0,0,48,49,48,118c0,0,0,69,-48,117c0,0,-49,49,-118,49c0,0,-69,0,-118,-49c0,0,-48,-48,-48,-117c0,0,0,-69,48,-118c0,0,49,-49,118,-49Zm0,-63c0,0,-94,0,-162,67c0,0,-67,67,-67,162c0,0,0,95,67,162c0,0,67,67,162,67c0,0,96,0,163,-67c0,0,67,-67,67,-162c0,0,0,-95,-67,-162c0,0,-67,-67,-163,-67Z" 
id="f0_3o"
transform="scale(0.001,-0.001)" />

<path d="M35,-326v29c0,0,92,51,151,139c0,0,60,87,89,221c0,0,28,136,28,282c0,0,0,159,-24,290c0,0,-19,103,-47,165c0,0,-28,62,-75,119c0,0,-46,57,-122,110v31c0,0,113,-56,188,-132c0,0,107,-109,165,-255c0,0,58,-147,58,-306c0,0,0,-231,-114,-420c0,0,-113,-191,-297,-273Z" 
id="f0_d"
transform="scale(0.001,-0.001)" />

<path d="M397,34c0,0,67,0,126,75c0,0,58,74,58,216c0,0,0,131,-58,201c0,0,-59,70,-133,70c0,0,-39,0,-79,-20c0,0,-29,-14,-75,-59V109c0,0,37,-37,78,-56c0,0,40,-19,83,-19ZM358,-20c0,0,-59,0,-121,21c0,0,-61,22,-126,65V773c0,0,0,117,-5,144c0,0,-6,27,-18,37c0,0,-12,9,-29,9c0,0,-21,0,-53,-12l-9,27l205,83h34V564c0,0,98,139,213,139c0,0,105,0,183,-90c0,0,78,-90,78,-245c0,0,0,-182,-121,-293c0,0,-103,-95,-231,-95Z" 
id="f0_1y"
transform="scale(0.001,-0.001)" />

<path d="M452,373V875L97,373ZM452,0V267H23v95l470,671h82V373H711V267H575V0Z" 
id="f0_o"
transform="scale(0.001,-0.001)" />

<path d="M435,502c0,0,78,0,134,60c0,0,57,60,57,155c0,0,0,66,-27,122c0,0,-27,56,-76,84c0,0,-50,28,-112,28c0,0,-38,0,-98,-14V517c0,0,39,-8,70,-12c0,0,31,-3,52,-3ZM25,0V27H63c0,0,65,0,92,42c0,0,15,23,15,110V833c0,0,0,96,-20,119c0,0,-29,33,-87,33H25v27H396c0,0,136,0,214,-28c0,0,78,-28,132,-94c0,0,54,-67,54,-158c0,0,0,-124,-82,-202c0,0,-82,-77,-231,-77c0,0,-36,0,-79,5c0,0,-43,5,-91,16V179c0,0,0,-96,21,-119c0,0,28,-33,85,-33h39V0Z" 
id="f0_1g"
transform="scale(0.001,-0.001)" />

<path d="M23,0V26c0,0,47,0,66,10c0,0,19,11,28,33c0,0,10,22,10,85V416c0,0,0,112,-7,145c0,0,-5,25,-16,34c0,0,-11,10,-31,10c0,0,-21,0,-50,-11L12,620l207,83h32V557c0,0,75,75,88,86c0,0,34,29,72,44c0,0,39,16,77,16c0,0,64,0,110,-37c0,0,47,-38,62,-109c0,0,77,90,130,118c0,0,53,28,109,28c0,0,54,0,96,-28c0,0,42,-28,67,-91c0,0,16,-43,16,-136V154c0,0,0,-64,10,-88c0,0,8,-16,28,-28c0,0,20,-12,65,-12V0H844V26h14c0,0,44,0,69,18c0,0,17,12,24,38c0,0,3,13,3,72V448c0,0,0,83,-20,117c0,0,-29,48,-93,48c0,0,-39,0,-79,-20c0,0,-40,-19,-97,-73l-1,-8l2,-32V154c0,0,0,-70,8,-87c0,0,7,-17,29,-29c0,0,21,-12,73,-12V0H431V26c0,0,57,0,78,14c0,0,21,13,29,40c0,0,4,13,4,74V448c0,0,0,83,-25,120c0,0,-33,48,-91,48c0,0,-40,0,-80,-22c0,0,-61,-33,-95,-74V154c0,0,0,-67,10,-87c0,0,9,-20,27,-30c0,0,18,-11,74,-11V0Z" 
id="f0_29"
transform="scale(0.001,-0.001)" />

<path d="M145,-328c0,0,-44,0,-73,25c0,0,-28,25,-28,58c0,0,0,31,21,50c0,0,20,19,56,19c0,0,25,0,67,-16c0,0,30,-11,38,-11c0,0,22,0,49,23c0,0,26,23,53,89L376,28L131,542c0,0,-11,24,-36,58c0,0,-19,27,-30,36c0,0,-18,12,-56,21v26H328V657H312c0,0,-33,0,-50,-15c0,0,-17,-14,-17,-36c0,0,0,-30,25,-81L437,179L589,557c0,0,12,31,12,62c0,0,0,13,-5,20c0,0,-6,8,-19,13c0,0,-12,5,-44,5v26H754V657c0,0,-27,-3,-42,-12c0,0,-15,-9,-33,-34c0,0,-7,-10,-25,-58L376,-128c0,0,-40,-99,-105,-150c0,0,-66,-50,-126,-50Z" 
id="f0_2l"
transform="scale(0.001,-0.001)" />

<path d="M474,-326c0,0,-112,57,-188,133c0,0,-107,108,-165,254c0,0,-58,147,-58,305c0,0,0,231,114,421c0,0,114,191,297,273v-31c0,0,-92,-51,-151,-139c0,0,-59,-88,-88,-223c0,0,-30,-135,-30,-281c0,0,0,-160,25,-290c0,0,20,-102,47,-164c0,0,28,-62,75,-120c0,0,47,-57,122,-109v-29Z" 
id="f0_c"
transform="scale(0.001,-0.001)" />

<path d="M253,0V27h36c0,0,64,0,91,39c0,0,16,24,16,109V948H274c0,0,-71,0,-100,-10c0,0,-39,-14,-67,-54c0,0,-27,-41,-33,-109H46l12,237H883L894,775H865c0,0,-8,62,-22,89c0,0,-23,43,-61,64c0,0,-39,20,-101,20H539V175c0,0,0,-93,20,-116c0,0,28,-32,87,-32h36V0Z" 
id="f0_1k"
transform="scale(0.001,-0.001)" />

<path d="M2,-20L369,1061h59L62,-20Z" 
id="f0_j"
transform="scale(0.001,-0.001)" />

<path d="M82,-253v33c0,0,77,25,119,78c0,0,42,54,42,114c0,0,0,14,-7,23c0,0,-5,6,-11,6c0,0,-8,0,-35,-14c0,0,-14,-7,-28,-7c0,0,-37,0,-58,21C104,1,82,23,82,61c0,0,0,36,28,62c0,0,28,27,68,27c0,0,49,0,88,-43c0,0,38,-43,38,-113c0,0,0,-77,-53,-143c0,0,-53,-66,-169,-104Z" 
id="f0_g"
transform="scale(0.001,-0.001)" />

<path d="M0,214v74H784V214ZM0,494v72H784V494Z" 
id="f1_x"
transform="scale(0.001,-0.001)" />

<path d="M0,356v74H784V356Z" 
id="f1_h"
transform="scale(0.001,-0.001)" />

<path d="M355,0V355H0v72H355V784h72V427H782V355H427V0Z" 
id="f1_f"
transform="scale(0.001,-0.001)" />

<path d="M247,-17c0,0,-91,0,-132,30c0,0,-42,31,-42,68c0,0,0,21,17,37c0,0,18,16,44,17c0,0,19,0,34,-6c0,0,14,-7,49,-31c0,0,56,-39,113,-39c0,0,88,0,154,66c0,0,66,66,66,161c0,0,0,92,-59,171c0,0,-59,80,-163,123c0,0,-81,34,-221,39l194,393H663L605,885H301L234,750c0,0,198,-29,313,-147c0,0,100,-102,100,-239c0,0,0,-80,-33,-148c0,0,-32,-68,-81,-116c0,0,-50,-47,-110,-77c0,0,-86,-40,-176,-40Z" 
id="f0_p"
transform="scale(0.001,-0.001)" />

<path d="M38,0V27H74c0,0,63,0,91,37c0,0,18,24,18,115V833c0,0,0,77,-10,102c0,0,-7,18,-30,32c0,0,-33,18,-69,18H38v27H470V985H434c0,0,-62,0,-90,-37c0,0,-18,-24,-18,-115V179c0,0,0,-77,9,-102c0,0,8,-18,31,-32c0,0,32,-18,68,-18h36V0Z" 
id="f0_19"
transform="scale(0.001,-0.001)" />

<path d="M911,-16L244,799V175c0,0,0,-93,21,-116c0,0,28,-32,86,-32h36V0H36V27H71c0,0,65,0,92,39c0,0,16,24,16,109V879c0,0,-44,52,-67,68c0,0,-23,17,-67,31c0,0,-21,7,-64,7v27H253L873,253V837c0,0,0,93,-21,116c0,0,-28,32,-87,32H730v27h351V985h-36c0,0,-64,0,-91,-39c0,0,-16,-24,-16,-109V-16Z" 
id="f0_1e"
transform="scale(0.001,-0.001)" />

<path d="M59,0V144H92c0,0,57,0,74,14c0,0,18,15,18,59V815c0,0,0,41,-7,55c0,0,-7,13,-22,20c0,0,-16,7,-63,7H59v143H919L1037,709L902,662c0,0,-33,72,-63,109c0,0,-29,37,-70,61c0,0,-41,25,-89,33c0,0,-32,5,-114,5H438V594h66c0,0,37,0,58,12c0,0,22,11,31,29c0,0,9,18,9,60v55H736V284H602v67c0,0,0,29,-5,43c0,0,-7,18,-19,29c0,0,-12,11,-27,15c0,0,-15,5,-55,5H438V224c0,0,0,-39,7,-53c0,0,6,-14,21,-21c0,0,15,-6,58,-6h42V0Z" 
id="f2_16"
transform="scale(0.001,-0.001)" />

<path d="M63,0V144h49c0,0,31,0,46,8c0,0,16,8,23,22c0,0,7,14,7,48V812c0,0,0,37,-7,53c0,0,-7,17,-20,24c0,0,-13,8,-44,8H63v143H570V897H526c0,0,-37,0,-47,-4c0,0,-18,-8,-26,-23c0,0,-8,-15,-8,-49V226c0,0,0,-36,3,-44c0,0,4,-8,14,-13c0,0,10,-5,40,-5c0,0,100,0,161,26c0,0,61,27,110,84c0,0,49,58,84,158L994,385L857,0Z" 
id="f2_1c"
transform="scale(0.001,-0.001)" />

<path d="M561,-17c0,0,-97,0,-173,29c0,0,-76,29,-133,84c0,0,-57,55,-80,116c0,0,-22,61,-22,181V794c0,0,0,56,-6,72c0,0,-6,16,-20,23c0,0,-13,8,-52,8H27v143H536V897H486c0,0,-35,0,-49,-9c0,0,-15,-8,-22,-23c0,0,-6,-15,-6,-62V424c0,0,0,-106,21,-158c0,0,21,-52,64,-79c0,0,43,-28,105,-28c0,0,61,0,109,30c0,0,48,30,68,76c0,0,21,46,21,152V834c0,0,0,26,-7,37c0,0,-9,15,-24,21c0,0,-10,5,-53,5H673v143h429V897h-34c0,0,-49,0,-61,-6c0,0,-18,-9,-26,-26c0,0,-6,-12,-6,-62V393c0,0,0,-114,-33,-191C942,202,896,98,797,40c0,0,-100,-57,-236,-57Z" 
id="f2_1l"
transform="scale(0.001,-0.001)" />

<path d="M52,0V144H93c0,0,44,0,58,6c0,0,13,6,20,20c0,0,6,14,6,55V803c0,0,0,49,-6,64c0,0,-7,15,-22,24c0,0,-10,6,-51,6H52v143H559V897H513c0,0,-40,0,-53,-7c0,0,-13,-8,-20,-23c0,0,-6,-15,-6,-58V233c0,0,0,-47,5,-61c0,0,6,-13,18,-19c0,0,16,-9,47,-9h55V0Z" 
id="f2_19"
transform="scale(0.001,-0.001)" />

<path d="M514,166c0,0,122,0,191,38c0,0,69,38,111,121c0,0,43,83,43,199c0,0,0,113,-40,197c0,0,-40,84,-99,119c0,0,-59,34,-168,34H437V226c0,0,0,-33,4,-40c0,0,6,-12,17,-16c0,0,12,-4,56,-4ZM55,0V144H91c0,0,46,0,60,7c0,0,15,8,24,26c0,0,6,14,6,61V807c0,0,0,48,-6,62c0,0,-7,13,-21,21c0,0,-15,7,-62,7H56v143H601c0,0,186,0,296,-59c0,0,110,-58,175,-174c0,0,65,-116,65,-278c0,0,0,-112,-33,-201c0,0,-33,-89,-99,-160c0,0,-66,-71,-141,-107C864,61,807,34,703,17C703,17,599,0,536,0Z" 
id="f2_14"
transform="scale(0.001,-0.001)" />

<path d="M59,0V144h42c0,0,39,0,54,7c0,0,15,7,22,22c0,0,7,15,7,57V813c0,0,0,40,-5,52c0,0,-7,17,-21,24c0,0,-13,8,-42,8H59v143H530L711,408l185,632h481V897h-52c0,0,-41,0,-57,-18c0,0,-16,-17,-16,-66V222c0,0,0,-39,4,-48c0,0,7,-15,19,-21c0,0,16,-9,43,-9h59V0H876V144h39c0,0,42,0,57,6c0,0,15,7,22,21c0,0,7,14,7,51V862L748,0H604L359,835V202c0,0,0,-22,8,-34c0,0,8,-12,22,-18c0,0,15,-6,47,-6h50V0Z" 
id="f2_1d"
transform="scale(0.001,-0.001)" />

<path d="M59,0V144H85c0,0,52,0,70,7c0,0,18,8,25,26c0,0,4,11,4,64V808c0,0,0,46,-7,60c0,0,-6,14,-19,22c0,0,-14,7,-53,7H59v143H928L1046,712L911,663c0,0,-34,81,-80,130c0,0,-46,49,-102,65c0,0,-55,16,-129,16H441V615h52c0,0,59,0,80,9c0,0,20,8,29,26c0,0,9,19,9,73v40H744V322H611v45c0,0,0,45,-11,66c0,0,-11,21,-29,29c0,0,-19,7,-83,7H441V230c0,0,0,-38,4,-47c0,0,3,-8,14,-12c0,0,11,-5,47,-5h87c0,0,98,0,165,28c0,0,67,28,120,91c0,0,53,63,81,149l136,-47L959,0Z" 
id="f2_15"
transform="scale(0.001,-0.001)" />

<path d="M579,-17c0,0,-147,0,-266,70c0,0,-119,70,-189,197c0,0,-71,127,-71,277c0,0,0,149,69,271c0,0,69,123,187,191c0,0,119,69,265,69c0,0,149,0,260,-62l25,44H965L1067,667L928,627c0,0,-69,133,-130,189c0,0,-85,77,-185,77c0,0,-72,0,-135,-41c0,0,-63,-40,-100,-118c0,0,-37,-78,-37,-183c0,0,0,-161,85,-276c0,0,85,-116,222,-116c0,0,87,0,168,50c0,0,100,62,173,167l116,-86C1105,290,992,136,899,76c0,0,-144,-93,-320,-93Z" 
id="f2_13"
transform="scale(0.001,-0.001)" />

<path d="M54,0V144H88c0,0,44,0,61,7c0,0,17,8,24,21c0,0,6,14,6,59V797c0,0,0,53,-6,69c0,0,-7,16,-20,23c0,0,-14,8,-53,8H54v143H561V897H515c0,0,-39,0,-53,-8c0,0,-14,-8,-20,-23c0,0,-6,-14,-6,-63V622H815V817c0,0,0,36,-4,48c0,0,-6,18,-20,25c0,0,-14,7,-63,7H688v143h510V897h-43c0,0,-43,0,-57,-7c0,0,-14,-8,-20,-21c0,0,-5,-14,-5,-66V239c0,0,0,-52,7,-67c0,0,7,-16,21,-22c0,0,15,-6,67,-6h30V0H688V144h34c0,0,47,0,64,7c0,0,17,8,23,22c0,0,6,14,6,66V460H436V239c0,0,0,-52,5,-65c0,0,7,-18,22,-24c0,0,16,-6,63,-6h35V0Z" 
id="f2_18"
transform="scale(0.001,-0.001)" />

<path d="M610,480L509,765L404,480ZM2,0V144c0,0,39,0,56,6c0,0,18,7,30,21c0,0,11,13,25,49l322,820H669L981,237c0,0,25,-64,45,-79c0,0,19,-14,68,-14c2,0,3,0,5,0V0H606V144h30c0,0,41,0,58,11c0,0,16,11,16,27c0,0,0,13,-14,55l-32,94H349L310,226c0,0,-12,-33,-12,-44c0,0,0,-11,8,-21c0,0,9,-10,28,-14c0,0,13,-3,71,-3V0Z" 
id="f2_11"
transform="scale(0.001,-0.001)" />

<path d="M59,0V144h44c0,0,37,0,51,6c0,0,14,6,22,22c0,0,8,16,8,47V816c0,0,0,34,-8,50c0,0,-7,16,-20,24c0,0,-12,7,-42,7H59v143H480L786,433V805c0,0,0,48,-5,60c0,0,-8,17,-20,25c0,0,-13,7,-49,7H661v143h428V897h-47c0,0,-36,0,-51,-9c0,0,-15,-8,-21,-22c0,0,-6,-14,-6,-61V0H750L364,767V230c0,0,0,-46,5,-59c0,0,6,-12,20,-20c0,0,15,-7,50,-7h50V0Z" 
id="f2_1e"
transform="scale(0.001,-0.001)" />

<path d="M567,-17c0,0,-83,0,-152,21c0,0,-70,21,-145,71L237,0H126L52,404l140,33c0,0,49,-123,153,-205c0,0,104,-82,228,-82c0,0,56,0,93,14c0,0,37,14,56,39c0,0,18,25,18,52c0,0,0,45,-43,77c0,0,-44,32,-154,63L369,446c0,0,-40,11,-107,42c0,0,-68,31,-104,64c0,0,-36,34,-60,86c0,0,-24,53,-24,111c0,0,0,83,46,153c0,0,46,69,138,113c0,0,92,43,204,43c0,0,135,0,244,-70l29,52H842L932,692L792,652c0,0,-69,125,-157,183c0,0,-88,58,-187,58c0,0,-64,0,-101,-26c0,0,-37,-27,-37,-59c0,0,0,-36,34,-67c0,0,32,-32,121,-56L665,626c0,0,166,-47,237,-126c0,0,70,-80,70,-186c0,0,0,-135,-107,-229C865,85,745,-17,567,-17Z" 
id="f2_1j"
transform="scale(0.001,-0.001)" />


</defs>
</svg>