<?xml version="1.0" encoding="UTF-8" standalone="no"?>
<!DOCTYPE svg PUBLIC "-//W3C//DTD SVG 1.1//EN"
"http://www.w3.org/Graphics/SVG/1.1/DTD/svg11.dtd">
<svg viewBox="0 0 909 1286" version="1.1" xmlns="http://www.w3.org/2000/svg" xmlns:xlink="http://www.w3.org/1999/xlink">
<defs>
<style type="text/css"><![CDATA[
.g0_61{
fill: #FFFFFF;
}
.g1_61{
}
.g2_61{
fill: none;
stroke: #000000;
stroke-width: 0.7608333;
stroke-linecap: round;
stroke-linejoin: miter;
}
.g3_61{
fill: none;
stroke: #000000;
stroke-width: 1.5216666;
stroke-linecap: round;
stroke-linejoin: miter;
}
.g4_61{
fill: none;
stroke: #000000;
stroke-width: 0.76847225;
stroke-linecap: round;
stroke-linejoin: miter;
}
.g5_61{
fill: none;
stroke: #000000;
stroke-width: 1.5369445;
stroke-linecap: round;
stroke-linejoin: miter;
}
.g6_61{
fill: none;
stroke: #000000;
stroke-width: 0.7669444;
stroke-linecap: round;
stroke-linejoin: miter;
}
.g7_61{
fill: none;
stroke: #000000;
stroke-width: 1.5323611;
stroke-linecap: round;
stroke-linejoin: miter;
}
.g8_61{
fill: none;
stroke: #000000;
stroke-width: 0.7593056;
stroke-linecap: round;
stroke-linejoin: miter;
}
.g9_61{
fill: none;
stroke: #000000;
stroke-width: 1.5201389;
stroke-linecap: round;
stroke-linejoin: miter;
}
]]></style>
</defs>
<path fill-rule="evenodd" d="M53.9,90.9H856.2v28.4H53.9V90.9l1.5,26.7H854.5V92.3H55.4v25.3L53.9,90.9Z" class="g0_61" />
<g fill="#000000" >
<use xlink:href="#f0_a" transform="matrix(10,0,0,10,694.7,109.2)" />
<use xlink:href="#f0_9" transform="matrix(10,0,0,10,706.4,109.2)" />
<use xlink:href="#f0_b" transform="matrix(10,0,0,10,718.3,109.2)" />
<use xlink:href="#f0_5" transform="matrix(10,0,0,10,728.8,109.2)" />
<use xlink:href="#f0_b" transform="matrix(10,0,0,10,739.7,109.2)" />
<use xlink:href="#f0_6" transform="matrix(10,0,0,10,750.2,109.2)" />
<use xlink:href="#f0_9" transform="matrix(10,0,0,10,756.1,109.2)" />
<use xlink:href="#f0_8" transform="matrix(10,0,0,10,768,109.2)" />
<use xlink:href="#f0_7" transform="matrix(10,0,0,10,782.6,109.2)" />
<use xlink:href="#f0_9" transform="matrix(10,0,0,10,796.7,109.2)" />
<use xlink:href="#f0_b" transform="matrix(10,0,0,10,808.8,109.2)" />
<use xlink:href="#f0_6" transform="matrix(10,0,0,10,819.3,109.2)" />
<use xlink:href="#f0_9" transform="matrix(10,0,0,10,825.2,109.2)" />
<use xlink:href="#f0_8" transform="matrix(10,0,0,10,837.1,109.2)" />
</g>
<path fill-rule="evenodd" d="M55.2,116H854.7v3.1H55.2V116Z" class="g1_61" />
<path fill-rule="evenodd" d="M55.2,91.1H854.7v3.1H55.2V91.1Z" class="g1_61" />
<path fill-rule="evenodd" d="M55.5,445.6H854.8v2.3H55.5v-2.3Z" class="g1_61" />
<g fill="#000000" >
<use xlink:href="#f1_9" transform="matrix(10,0,0,10,99.5,152.2)" />
<use xlink:href="#f1_i" transform="matrix(10,0,0,10,108.7,152.2)" />
<use xlink:href="#f1_t" transform="matrix(10,0,0,10,116.9,152.2)" />
<use xlink:href="#f1_p" transform="matrix(10,0,0,10,124.6,152.2)" />
<use xlink:href="#f1_j" transform="matrix(10,0,0,10,130.3,152.2)" />
<use xlink:href="#f1_e" transform="matrix(10,0,0,10,134.3,152.2)" />
<use xlink:href="#f1_d" transform="matrix(10,0,0,10,140.9,152.2)" />
<use xlink:href="#f1_k" transform="matrix(10,0,0,10,148.6,152.2)" />
<use xlink:href="#f1_a" transform="matrix(10,0,0,10,155.4,152.2)" />
<use xlink:href="#f1_r" transform="matrix(10,0,0,10,167,152.2)" />
<use xlink:href="#f1_d" transform="matrix(10,0,0,10,175.4,152.2)" />
<use xlink:href="#f1_m" transform="matrix(10,0,0,10,182.9,152.2)" />
<use xlink:href="#f1_q" transform="matrix(10,0,0,10,191.2,152.2)" />
<use xlink:href="#f1_j" transform="matrix(10,0,0,10,196.1,152.2)" />
<use xlink:href="#f1_q" transform="matrix(10,0,0,10,200.3,152.2)" />
<use xlink:href="#f1_t" transform="matrix(10,0,0,10,205.3,152.2)" />
<use xlink:href="#f1_b" transform="matrix(10,0,0,10,305.8,152.2)" />
<use xlink:href="#f1_n" transform="matrix(10,0,0,10,316.6,152.2)" />
<use xlink:href="#f1_k" transform="matrix(10,0,0,10,324.3,152.2)" />
<use xlink:href="#f1_k" transform="matrix(10,0,0,10,328.3,152.2)" />
<use xlink:href="#f1_j" transform="matrix(10,0,0,10,332.5,152.2)" />
<use xlink:href="#f1_m" transform="matrix(10,0,0,10,336.6,152.2)" />
<use xlink:href="#f1_h" transform="matrix(10,0,0,10,345,152.2)" />
<use xlink:href="#f1_c" transform="matrix(10,0,0,10,501.7,152.2)" />
<use xlink:href="#f1_k" transform="matrix(10,0,0,10,510.2,152.2)" />
<use xlink:href="#f1_j" transform="matrix(10,0,0,10,514.4,152.2)" />
<use xlink:href="#f1_f" transform="matrix(10,0,0,10,518.6,152.2)" />
<use xlink:href="#f1_j" transform="matrix(10,0,0,10,527.2,152.2)" />
<use xlink:href="#f1_m" transform="matrix(10,0,0,10,531.4,152.2)" />
<use xlink:href="#f1_h" transform="matrix(10,0,0,10,539.9,152.2)" />
<use xlink:href="#f1_8" transform="matrix(10,0,0,10,697.6,152.2)" />
<use xlink:href="#f1_d" transform="matrix(10,0,0,10,706.7,152.2)" />
<use xlink:href="#f1_k" transform="matrix(10,0,0,10,714.2,152.2)" />
<use xlink:href="#f1_k" transform="matrix(10,0,0,10,718.3,152.2)" />
<use xlink:href="#f1_j" transform="matrix(10,0,0,10,722.3,152.2)" />
<use xlink:href="#f1_m" transform="matrix(10,0,0,10,726.3,152.2)" />
<use xlink:href="#f1_h" transform="matrix(10,0,0,10,734.6,152.2)" />
<use xlink:href="#f2_s" transform="matrix(10,0,0,10,99.5,194.4)" />
<use xlink:href="#f2_10" transform="matrix(10,0,0,10,108.7,194.4)" />
<use xlink:href="#f2_16" transform="matrix(10,0,0,10,115.3,194.4)" />
<use xlink:href="#f2_19" transform="matrix(10,0,0,10,119.3,194.4)" />
<use xlink:href="#f2_y" transform="matrix(10,0,0,10,126.8,194.4)" />
<use xlink:href="#f2_14" transform="matrix(10,0,0,10,133.4,194.4)" />
<use xlink:href="#f2_1e" transform="matrix(10,0,0,10,137.4,194.4)" />
<use xlink:href="#f2_1j" transform="matrix(10,0,0,10,141.5,194.4)" />
<use xlink:href="#f3_3" transform="matrix(9.7,0,0,13.4,353.5,194.9)" />
<use xlink:href="#f3_4" transform="matrix(9.7,0,0,13.4,382.1,194.9)" />
</g>
<path d="M344.1,193.4l1.9,-1.2" class="g2_61" />
<path d="M346,192.6l2.6,6.4" class="g3_61" />
<path d="M349,199l3.8,-19h50.7" class="g2_61" />
<g fill="#000000" >
<use xlink:href="#f3_a" transform="matrix(9.8,0,0,9.9,394.3,195)" />
<use xlink:href="#f3_8" transform="matrix(9.8,0,0,9.9,331.3,195)" />
<use xlink:href="#f2_8" transform="matrix(9.8,0,0,9.9,388.1,195)" />
<use xlink:href="#f2_12" transform="matrix(9.8,0,0,9.9,365.8,195)" />
<use xlink:href="#f2_13" transform="matrix(9.8,0,0,9.9,373.3,195)" />
<use xlink:href="#f2_b" transform="matrix(9.8,0,0,9.9,358.2,195)" />
<use xlink:href="#f2_s" transform="matrix(9.8,0,0,9.9,308.6,195)" />
<use xlink:href="#f2_p" transform="matrix(5.9,0,0,5.9,319,198.7)" />
</g>
<path d="M538.1,193.5l1.9,-1.1" class="g4_61" />
<path d="M540,192.7l2.7,6.5" class="g5_61" />
<path d="M543.1,199.2L547,180h27.2" class="g4_61" />
<g fill="#000000" >
<use xlink:href="#f2_12" transform="matrix(9.8,0,0,9.9,557.3,195)" />
<use xlink:href="#f2_13" transform="matrix(9.8,0,0,9.9,564.8,195)" />
<use xlink:href="#f2_b" transform="matrix(9.8,0,0,9.9,547.9,195)" />
<use xlink:href="#f2_s" transform="matrix(9.8,0,0,9.9,504.7,195)" />
<use xlink:href="#f2_q" transform="matrix(5.9,0,0,5.9,514.7,198.7)" />
<use xlink:href="#f3_8" transform="matrix(9.8,0,0,9.9,525.2,195)" />
</g>
<path d="M734.5,193.5l1.9,-1.1" class="g4_61" />
<path d="M736.4,192.7l2.7,6.5" class="g5_61" />
<path d="M739.5,199.2L743.3,180h27.3" class="g4_61" />
<g fill="#000000" >
<use xlink:href="#f2_12" transform="matrix(9.8,0,0,9.9,753.7,195)" />
<use xlink:href="#f2_13" transform="matrix(9.8,0,0,9.9,761.2,195)" />
<use xlink:href="#f2_b" transform="matrix(9.8,0,0,9.9,744.3,195)" />
<use xlink:href="#f2_s" transform="matrix(9.8,0,0,9.9,700.5,195)" />
<use xlink:href="#f2_l" transform="matrix(5.9,0,0,5.9,710.9,198.7)" />
<use xlink:href="#f3_8" transform="matrix(9.8,0,0,9.9,721.6,195)" />
<use xlink:href="#f2_j" transform="matrix(10,0,0,10,99.6,228.4)" />
<use xlink:href="#f2_y" transform="matrix(10,0,0,10,110.5,228.4)" />
<use xlink:href="#f2_y" transform="matrix(10,0,0,10,117.3,228.4)" />
<use xlink:href="#f2_10" transform="matrix(10,0,0,10,124.2,228.4)" />
<use xlink:href="#f2_16" transform="matrix(10,0,0,10,131.2,228.4)" />
<use xlink:href="#f2_10" transform="matrix(10,0,0,10,135.4,228.4)" />
<use xlink:href="#f2_1c" transform="matrix(10,0,0,10,142.3,228.4)" />
<use xlink:href="#f2_w" transform="matrix(10,0,0,10,147.5,228.4)" />
<use xlink:href="#f2_1e" transform="matrix(10,0,0,10,154.4,228.4)" />
<use xlink:href="#f2_14" transform="matrix(10,0,0,10,158.8,228.4)" />
<use xlink:href="#f2_19" transform="matrix(10,0,0,10,163,228.4)" />
<use xlink:href="#f2_18" transform="matrix(10,0,0,10,170.9,228.4)" />
<use xlink:href="#f2_w" transform="matrix(10,0,0,10,305.8,228.4)" />
<use xlink:href="#f2_p" transform="matrix(5.8,0,0,5.8,312.6,233.5)" />
<use xlink:href="#f2_i" transform="matrix(10,0,0,10,321.8,228.4)" />
<use xlink:href="#f2_12" transform="matrix(10,0,0,10,333.8,228.4)" />
<use xlink:href="#f2_1d" transform="matrix(10,0,0,10,345,228.4)" />
<use xlink:href="#f2_14" transform="matrix(10,0,0,10,351.1,228.4)" />
<use xlink:href="#f2_18" transform="matrix(10,0,0,10,355.3,228.4)" />
<use xlink:href="#f3_c" transform="matrix(10,0,0,10,366.3,228.4)" />
<use xlink:href="#f2_8" transform="matrix(10,0,0,10,374.2,228.4)" />
<use xlink:href="#f3_a" transform="matrix(10,0,0,10,378.4,228.4)" />
<use xlink:href="#f2_w" transform="matrix(10,0,0,10,501.8,228.4)" />
<use xlink:href="#f2_q" transform="matrix(5.8,0,0,5.8,508.6,233.5)" />
<use xlink:href="#f2_i" transform="matrix(10,0,0,10,516.8,228.4)" />
<use xlink:href="#f2_12" transform="matrix(10,0,0,10,529.1,228.4)" />
<use xlink:href="#f2_1d" transform="matrix(10,0,0,10,540.1,228.4)" />
<use xlink:href="#f2_14" transform="matrix(10,0,0,10,546.1,228.4)" />
<use xlink:href="#f2_18" transform="matrix(10,0,0,10,550.4,228.4)" />
<use xlink:href="#f3_c" transform="matrix(10,0,0,10,561.6,228.4)" />
<use xlink:href="#f2_w" transform="matrix(10,0,0,10,697.6,228.4)" />
<use xlink:href="#f2_l" transform="matrix(5.8,0,0,5.8,704.4,233.5)" />
<use xlink:href="#f2_i" transform="matrix(10,0,0,10,712.5,228.4)" />
<use xlink:href="#f2_12" transform="matrix(10,0,0,10,724.5,228.4)" />
<use xlink:href="#f2_r" transform="matrix(10,0,0,10,99.6,264.9)" />
<use xlink:href="#f2_14" transform="matrix(10,0,0,10,109.1,264.9)" />
<use xlink:href="#f2_17" transform="matrix(10,0,0,10,113.4,264.9)" />
<use xlink:href="#f2_10" transform="matrix(10,0,0,10,125,264.9)" />
<use xlink:href="#f2_19" transform="matrix(10,0,0,10,135.4,264.9)" />
<use xlink:href="#f2_11" transform="matrix(10,0,0,10,143.3,264.9)" />
<use xlink:href="#f2_z" transform="matrix(10,0,0,10,151.7,264.9)" />
<use xlink:href="#f2_10" transform="matrix(10,0,0,10,159.6,264.9)" />
<use xlink:href="#f2_1d" transform="matrix(10,0,0,10,166.4,264.9)" />
<use xlink:href="#f2_y" transform="matrix(10,0,0,10,172.4,264.9)" />
<use xlink:href="#f2_10" transform="matrix(10,0,0,10,179.2,264.9)" />
<use xlink:href="#f2_18" transform="matrix(10,0,0,10,186.1,264.9)" />
<use xlink:href="#f2_z" transform="matrix(10,0,0,10,193.6,264.9)" />
<use xlink:href="#f3_3" transform="matrix(9.7,0,0,13.4,399.3,265.3)" />
<use xlink:href="#f3_4" transform="matrix(9.7,0,0,13.4,437.7,265.3)" />
</g>
<path d="M381.9,263.8l2,-1.2" class="g6_61" />
<path d="M383.9,263l2.6,6.4" class="g7_61" />
<path d="M386.9,269.4l3.9,-19h51.7" class="g6_61" />
<g fill="#000000" >
<use xlink:href="#f2_12" transform="matrix(9.8,0,0,9.9,429.2,265.4)" />
<use xlink:href="#f2_8" transform="matrix(9.8,0,0,9.9,422.5,265.4)" />
<use xlink:href="#f2_13" transform="matrix(9.8,0,0,9.9,411.9,265.4)" />
<use xlink:href="#f2_b" transform="matrix(9.8,0,0,9.9,404,265.4)" />
<use xlink:href="#f2_1d" transform="matrix(9.8,0,0,9.9,352.9,265.4)" />
<use xlink:href="#f2_14" transform="matrix(9.8,0,0,9.9,358.8,265.4)" />
<use xlink:href="#f2_18" transform="matrix(9.8,0,0,9.9,362.9,265.4)" />
<use xlink:href="#f2_8" transform="matrix(9.8,0,0,9.9,346.5,265.4)" />
<use xlink:href="#f2_a" transform="matrix(9.8,0,0,9.9,337.9,265.4)" />
<use xlink:href="#f2_1e" transform="matrix(9.8,0,0,9.9,309,265.4)" />
<use xlink:href="#f2_p" transform="matrix(5.9,0,0,5.9,314.9,269.1)" />
<use xlink:href="#f3_a" transform="matrix(9.8,0,0,9.9,391,265.4)" />
<use xlink:href="#f3_c" transform="matrix(9.8,0,0,9.9,373.3,265.4)" />
<use xlink:href="#f3_8" transform="matrix(9.8,0,0,9.9,327.3,265.4)" />
<use xlink:href="#f3_3" transform="matrix(9.7,0,0,13.4,532.8,265.3)" />
<use xlink:href="#f3_4" transform="matrix(9.7,0,0,13.4,579.7,265.3)" />
</g>
<path d="M586.1,263.8l1.9,-1.2" class="g6_61" />
<path d="M588,263l2.7,6.4" class="g7_61" />
<path d="M591.1,269.4l3.8,-19H630" class="g6_61" />
<g fill="#000000" >
<use xlink:href="#f2_12" transform="matrix(9.9,0,0,9.9,621,265.4)" />
<use xlink:href="#f2_8" transform="matrix(9.9,0,0,9.9,614.3,265.4)" />
<use xlink:href="#f2_13" transform="matrix(9.9,0,0,9.9,603.7,265.4)" />
<use xlink:href="#f2_b" transform="matrix(9.9,0,0,9.9,595.8,265.4)" />
<use xlink:href="#f2_1d" transform="matrix(9.9,0,0,9.9,550.8,265.4)" />
<use xlink:href="#f2_14" transform="matrix(9.9,0,0,9.9,556.7,265.4)" />
<use xlink:href="#f2_18" transform="matrix(9.9,0,0,9.9,560.9,265.4)" />
<use xlink:href="#f2_8" transform="matrix(9.9,0,0,9.9,544.4,265.4)" />
<use xlink:href="#f2_a" transform="matrix(9.9,0,0,9.9,535.7,265.4)" />
<use xlink:href="#f2_1e" transform="matrix(9.9,0,0,9.9,504.7,265.4)" />
<use xlink:href="#f2_q" transform="matrix(5.9,0,0,5.9,510.2,269.1)" />
<use xlink:href="#f3_c" transform="matrix(9.9,0,0,9.9,571.2,265.4)" />
<use xlink:href="#f3_8" transform="matrix(9.9,0,0,9.9,520.7,265.4)" />
</g>
<path d="M729.8,263.8l1.9,-1.2" class="g8_61" />
<path d="M731.7,263l2.7,6.4" class="g9_61" />
<path d="M734.8,269.4l3.8,-19h34.7" class="g8_61" />
<g fill="#000000" >
<use xlink:href="#f2_12" transform="matrix(9.9,0,0,9.9,764.4,265.4)" />
<use xlink:href="#f2_8" transform="matrix(9.9,0,0,9.9,757.8,265.4)" />
<use xlink:href="#f2_13" transform="matrix(9.9,0,0,9.9,747.3,265.4)" />
<use xlink:href="#f2_b" transform="matrix(9.9,0,0,9.9,739.5,265.4)" />
<use xlink:href="#f2_1e" transform="matrix(9.9,0,0,9.9,700.6,265.4)" />
<use xlink:href="#f2_l" transform="matrix(5.9,0,0,5.9,706.4,269.1)" />
<use xlink:href="#f3_8" transform="matrix(9.9,0,0,9.9,717,265.4)" />
<use xlink:href="#f2_3" transform="matrix(10,0,0,10,99.6,308.9)" />
<use xlink:href="#f2_1h" transform="matrix(10,0,0,10,104.7,308.9)" />
<use xlink:href="#f2_13" transform="matrix(10,0,0,10,115.1,308.9)" />
<use xlink:href="#f2_10" transform="matrix(10,0,0,10,122.7,308.9)" />
<use xlink:href="#f2_1c" transform="matrix(10,0,0,10,129.4,308.9)" />
<use xlink:href="#f2_10" transform="matrix(10,0,0,10,134.5,308.9)" />
<use xlink:href="#f3_a" transform="matrix(10,0,0,10,144.1,308.9)" />
<use xlink:href="#f2_i" transform="matrix(10,0,0,10,155.7,308.9)" />
<use xlink:href="#f2_u" transform="matrix(10,0,0,10,166.8,308.9)" />
<use xlink:href="#f2_a" transform="matrix(10,0,0,10,172,308.9)" />
<use xlink:href="#f2_5" transform="matrix(10,0,0,10,182.4,308.9)" />
<use xlink:href="#f2_m" transform="matrix(10,0,0,10,193.8,308.9)" />
<use xlink:href="#f2_8" transform="matrix(10,0,0,10,198.9,308.9)" />
<use xlink:href="#f2_n" transform="matrix(10,0,0,10,203.1,308.9)" />
<use xlink:href="#f2_1c" transform="matrix(10,0,0,10,216.5,308.9)" />
<use xlink:href="#f2_b" transform="matrix(5.8,0,0,5.8,221.7,303.7)" />
<use xlink:href="#f2_v" transform="matrix(10,0,0,10,225.9,308.9)" />
<use xlink:href="#f2_4" transform="matrix(10,0,0,10,230.8,308.9)" />
<use xlink:href="#f4_2" transform="matrix(12,0,-4.1,12,54.8,341.3)" />
<use xlink:href="#f2_s" transform="matrix(10,0,0,10,99.6,341.3)" />
<use xlink:href="#f2_10" transform="matrix(10,0,0,10,108.9,341.3)" />
<use xlink:href="#f2_16" transform="matrix(10,0,0,10,115.8,341.3)" />
<use xlink:href="#f2_19" transform="matrix(10,0,0,10,120.1,341.3)" />
<use xlink:href="#f2_y" transform="matrix(10,0,0,10,127.9,341.3)" />
<use xlink:href="#f2_14" transform="matrix(10,0,0,10,134.7,341.3)" />
<use xlink:href="#f2_1e" transform="matrix(10,0,0,10,139.1,341.3)" />
<use xlink:href="#f2_1j" transform="matrix(10,0,0,10,143.3,341.3)" />
<use xlink:href="#f2_19" transform="matrix(10,0,0,10,154.1,341.3)" />
<use xlink:href="#f2_11" transform="matrix(10,0,0,10,161.8,341.3)" />
<use xlink:href="#f2_11" transform="matrix(10,0,0,10,170.4,341.3)" />
<use xlink:href="#f2_w" transform="matrix(10,0,0,10,175.4,341.3)" />
<use xlink:href="#f2_16" transform="matrix(10,0,0,10,182.3,341.3)" />
<use xlink:href="#f2_16" transform="matrix(10,0,0,10,186.6,341.3)" />
<use xlink:href="#f2_14" transform="matrix(10,0,0,10,190.9,341.3)" />
<use xlink:href="#f2_18" transform="matrix(10,0,0,10,195.1,341.3)" />
<use xlink:href="#f2_12" transform="matrix(10,0,0,10,202.8,341.3)" />
<use xlink:href="#f2_w" transform="matrix(10,0,0,10,213.7,341.3)" />
<use xlink:href="#f2_18" transform="matrix(10,0,0,10,220.6,341.3)" />
<use xlink:href="#f2_z" transform="matrix(10,0,0,10,228.1,341.3)" />
<use xlink:href="#f2_1d" transform="matrix(10,0,0,10,239.5,341.3)" />
<use xlink:href="#f2_16" transform="matrix(10,0,0,10,245.4,341.3)" />
<use xlink:href="#f2_14" transform="matrix(10,0,0,10,249.8,341.3)" />
<use xlink:href="#f2_z" transform="matrix(10,0,0,10,254,341.3)" />
<use xlink:href="#f2_14" transform="matrix(10,0,0,10,261.8,341.3)" />
<use xlink:href="#f2_18" transform="matrix(10,0,0,10,266.1,341.3)" />
<use xlink:href="#f2_12" transform="matrix(10,0,0,10,273.8,341.3)" />
<use xlink:href="#f2_x" transform="matrix(10,0,0,10,284.6,341.3)" />
<use xlink:href="#f2_19" transform="matrix(10,0,0,10,292.5,341.3)" />
<use xlink:href="#f2_z" transform="matrix(10,0,0,10,300.2,341.3)" />
<use xlink:href="#f2_14" transform="matrix(10,0,0,10,308.1,341.3)" />
<use xlink:href="#f2_10" transform="matrix(10,0,0,10,312.3,341.3)" />
<use xlink:href="#f2_1d" transform="matrix(10,0,0,10,319,341.3)" />
<use xlink:href="#f2_w" transform="matrix(10,0,0,10,328.5,341.3)" />
<use xlink:href="#f2_1c" transform="matrix(10,0,0,10,335.5,341.3)" />
<use xlink:href="#f2_10" transform="matrix(10,0,0,10,340.6,341.3)" />
<use xlink:href="#f2_10" transform="matrix(10,0,0,10,350.9,341.3)" />
<use xlink:href="#f2_1b" transform="matrix(10,0,0,10,357.6,341.3)" />
<use xlink:href="#f2_1f" transform="matrix(10,0,0,10,365.5,341.3)" />
<use xlink:href="#f2_w" transform="matrix(10,0,0,10,373,341.3)" />
<use xlink:href="#f2_16" transform="matrix(10,0,0,10,380,341.3)" />
<use xlink:href="#f2_w" transform="matrix(10,0,0,10,387.8,341.3)" />
<use xlink:href="#f2_18" transform="matrix(10,0,0,10,394.6,341.3)" />
<use xlink:href="#f2_z" transform="matrix(10,0,0,10,402.1,341.3)" />
<use xlink:href="#f2_14" transform="matrix(10,0,0,10,413.3,341.3)" />
<use xlink:href="#f2_1d" transform="matrix(10,0,0,10,417.7,341.3)" />
<use xlink:href="#f2_17" transform="matrix(10,0,0,10,427,341.3)" />
<use xlink:href="#f2_19" transform="matrix(10,0,0,10,438.8,341.3)" />
<use xlink:href="#f2_1c" transform="matrix(10,0,0,10,446.5,341.3)" />
<use xlink:href="#f2_10" transform="matrix(10,0,0,10,451.8,341.3)" />
<use xlink:href="#f2_1e" transform="matrix(10,0,0,10,462,341.3)" />
<use xlink:href="#f2_13" transform="matrix(10,0,0,10,466.2,341.3)" />
<use xlink:href="#f2_w" transform="matrix(10,0,0,10,473.8,341.3)" />
<use xlink:href="#f2_18" transform="matrix(10,0,0,10,480.7,341.3)" />
<use xlink:href="#f2_1c" transform="matrix(10,0,0,10,491.9,341.3)" />
<use xlink:href="#f2_19" transform="matrix(10,0,0,10,497,341.3)" />
<use xlink:href="#f2_16" transform="matrix(10,0,0,10,504.7,341.3)" />
<use xlink:href="#f2_16" transform="matrix(10,0,0,10,509.1,341.3)" />
<use xlink:href="#f2_14" transform="matrix(10,0,0,10,513.3,341.3)" />
<use xlink:href="#f2_18" transform="matrix(10,0,0,10,517.7,341.3)" />
<use xlink:href="#f2_12" transform="matrix(10,0,0,10,525.2,341.3)" />
<use xlink:href="#f2_1d" transform="matrix(10,0,0,10,532.9,341.3)" />
<use xlink:href="#f2_7" transform="matrix(10,0,0,10,538.8,341.3)" />
<use xlink:href="#f4_2" transform="matrix(12,0,-4.1,12,54.8,369.7)" />
<use xlink:href="#f2_j" transform="matrix(10,0,0,10,99.6,369.7)" />
<use xlink:href="#f2_y" transform="matrix(10,0,0,10,110.4,369.7)" />
<use xlink:href="#f2_y" transform="matrix(10,0,0,10,117.1,369.7)" />
<use xlink:href="#f2_10" transform="matrix(10,0,0,10,123.9,369.7)" />
<use xlink:href="#f2_16" transform="matrix(10,0,0,10,130.8,369.7)" />
<use xlink:href="#f2_10" transform="matrix(10,0,0,10,135,369.7)" />
<use xlink:href="#f2_1c" transform="matrix(10,0,0,10,141.8,369.7)" />
<use xlink:href="#f2_w" transform="matrix(10,0,0,10,146.9,369.7)" />
<use xlink:href="#f2_1e" transform="matrix(10,0,0,10,153.7,369.7)" />
<use xlink:href="#f2_14" transform="matrix(10,0,0,10,157.9,369.7)" />
<use xlink:href="#f2_19" transform="matrix(10,0,0,10,162.3,369.7)" />
<use xlink:href="#f2_18" transform="matrix(10,0,0,10,170,369.7)" />
<use xlink:href="#f2_14" transform="matrix(10,0,0,10,180.4,369.7)" />
<use xlink:href="#f2_1d" transform="matrix(10,0,0,10,184.6,369.7)" />
<use xlink:href="#f2_17" transform="matrix(10,0,0,10,193.3,369.7)" />
<use xlink:href="#f2_w" transform="matrix(10,0,0,10,205,369.7)" />
<use xlink:href="#f2_1i" transform="matrix(10,0,0,10,211.8,369.7)" />
<use xlink:href="#f2_14" transform="matrix(10,0,0,10,219.3,369.7)" />
<use xlink:href="#f2_17" transform="matrix(10,0,0,10,223.5,369.7)" />
<use xlink:href="#f2_1f" transform="matrix(10,0,0,10,235.1,369.7)" />
<use xlink:href="#f2_17" transform="matrix(10,0,0,10,242.6,369.7)" />
<use xlink:href="#f2_14" transform="matrix(10,0,0,10,257.2,369.7)" />
<use xlink:href="#f2_18" transform="matrix(10,0,0,10,261.5,369.7)" />
<use xlink:href="#f2_y" transform="matrix(10,0,0,10,271.9,369.7)" />
<use xlink:href="#f2_w" transform="matrix(10,0,0,10,278.7,369.7)" />
<use xlink:href="#f2_1d" transform="matrix(10,0,0,10,285.4,369.7)" />
<use xlink:href="#f2_10" transform="matrix(10,0,0,10,291.5,369.7)" />
<use xlink:href="#f2_19" transform="matrix(10,0,0,10,301.2,369.7)" />
<use xlink:href="#f2_11" transform="matrix(10,0,0,10,308.9,369.7)" />
<use xlink:href="#f2_11" transform="matrix(10,0,0,10,316.6,369.7)" />
<use xlink:href="#f2_w" transform="matrix(10,0,0,10,321.5,369.7)" />
<use xlink:href="#f2_16" transform="matrix(10,0,0,10,328.5,369.7)" />
<use xlink:href="#f2_16" transform="matrix(10,0,0,10,332.7,369.7)" />
<use xlink:href="#f2_14" transform="matrix(10,0,0,10,336.9,369.7)" />
<use xlink:href="#f2_18" transform="matrix(10,0,0,10,341.1,369.7)" />
<use xlink:href="#f2_12" transform="matrix(10,0,0,10,348.6,369.7)" />
<use xlink:href="#f2_w" transform="matrix(10,0,0,10,359.1,369.7)" />
<use xlink:href="#f2_18" transform="matrix(10,0,0,10,366,369.7)" />
<use xlink:href="#f2_z" transform="matrix(10,0,0,10,373.5,369.7)" />
<use xlink:href="#f2_17" transform="matrix(10,0,0,10,384.2,369.7)" />
<use xlink:href="#f2_14" transform="matrix(10,0,0,10,395.7,369.7)" />
<use xlink:href="#f2_18" transform="matrix(10,0,0,10,400,369.7)" />
<use xlink:href="#f2_14" transform="matrix(10,0,0,10,407.7,369.7)" />
<use xlink:href="#f2_17" transform="matrix(10,0,0,10,411.9,369.7)" />
<use xlink:href="#f2_1f" transform="matrix(10,0,0,10,423.4,369.7)" />
<use xlink:href="#f2_17" transform="matrix(10,0,0,10,430.9,369.7)" />
<use xlink:href="#f2_14" transform="matrix(10,0,0,10,445.4,369.7)" />
<use xlink:href="#f2_18" transform="matrix(10,0,0,10,449.6,369.7)" />
<use xlink:href="#f2_y" transform="matrix(10,0,0,10,460.1,369.7)" />
<use xlink:href="#f2_w" transform="matrix(10,0,0,10,466.8,369.7)" />
<use xlink:href="#f2_1d" transform="matrix(10,0,0,10,473.6,369.7)" />
<use xlink:href="#f2_10" transform="matrix(10,0,0,10,479.5,369.7)" />
<use xlink:href="#f2_19" transform="matrix(10,0,0,10,489.2,369.7)" />
<use xlink:href="#f2_11" transform="matrix(10,0,0,10,497.1,369.7)" />
<use xlink:href="#f2_1c" transform="matrix(10,0,0,10,505,369.7)" />
<use xlink:href="#f2_19" transform="matrix(10,0,0,10,510.1,369.7)" />
<use xlink:href="#f2_16" transform="matrix(10,0,0,10,517.8,369.7)" />
<use xlink:href="#f2_16" transform="matrix(10,0,0,10,522,369.7)" />
<use xlink:href="#f2_14" transform="matrix(10,0,0,10,526.4,369.7)" />
<use xlink:href="#f2_18" transform="matrix(10,0,0,10,530.6,369.7)" />
<use xlink:href="#f2_12" transform="matrix(10,0,0,10,538.1,369.7)" />
<use xlink:href="#f2_7" transform="matrix(10,0,0,10,545.6,369.7)" />
<use xlink:href="#f4_2" transform="matrix(12,0,-4.1,12,54.8,398.1)" />
<use xlink:href="#f2_l" transform="matrix(10,0,0,10,99.6,398.1)" />
<use xlink:href="#f2_w" transform="matrix(10,0,0,10,108,398.1)" />
<use xlink:href="#f2_16" transform="matrix(10,0,0,10,114.9,398.1)" />
<use xlink:href="#f2_16" transform="matrix(10,0,0,10,119.2,398.1)" />
<use xlink:href="#f2_14" transform="matrix(10,0,0,10,123.5,398.1)" />
<use xlink:href="#f2_18" transform="matrix(10,0,0,10,127.7,398.1)" />
<use xlink:href="#f2_12" transform="matrix(10,0,0,10,135.3,398.1)" />
<use xlink:href="#f2_x" transform="matrix(10,0,0,10,146.5,398.1)" />
<use xlink:href="#f2_19" transform="matrix(10,0,0,10,154.3,398.1)" />
<use xlink:href="#f2_z" transform="matrix(10,0,0,10,162,398.1)" />
<use xlink:href="#f2_1j" transform="matrix(10,0,0,10,169.9,398.1)" />
<use xlink:href="#f2_1c" transform="matrix(10,0,0,10,180.7,398.1)" />
<use xlink:href="#f2_10" transform="matrix(10,0,0,10,186,398.1)" />
<use xlink:href="#f2_w" transform="matrix(10,0,0,10,192.8,398.1)" />
<use xlink:href="#f2_y" transform="matrix(10,0,0,10,199.7,398.1)" />
<use xlink:href="#f2_13" transform="matrix(10,0,0,10,206.5,398.1)" />
<use xlink:href="#f2_10" transform="matrix(10,0,0,10,214,398.1)" />
<use xlink:href="#f2_1d" transform="matrix(10,0,0,10,221,398.1)" />
<use xlink:href="#f2_1e" transform="matrix(10,0,0,10,230.5,398.1)" />
<use xlink:href="#f2_13" transform="matrix(10,0,0,10,234.7,398.1)" />
<use xlink:href="#f2_10" transform="matrix(10,0,0,10,242.2,398.1)" />
<use xlink:href="#f2_x" transform="matrix(10,0,0,10,252.5,398.1)" />
<use xlink:href="#f2_19" transform="matrix(10,0,0,10,260.4,398.1)" />
<use xlink:href="#f2_1e" transform="matrix(10,0,0,10,268.1,398.1)" />
<use xlink:href="#f2_1e" transform="matrix(10,0,0,10,272.3,398.1)" />
<use xlink:href="#f2_19" transform="matrix(10,0,0,10,276.7,398.1)" />
<use xlink:href="#f2_17" transform="matrix(10,0,0,10,284.4,398.1)" />
<use xlink:href="#f2_11" transform="matrix(10,0,0,10,299.6,398.1)" />
<use xlink:href="#f2_14" transform="matrix(10,0,0,10,304.7,398.1)" />
<use xlink:href="#f2_1c" transform="matrix(10,0,0,10,308.9,398.1)" />
<use xlink:href="#f2_1d" transform="matrix(10,0,0,10,314,398.1)" />
<use xlink:href="#f2_1e" transform="matrix(10,0,0,10,320.1,398.1)" />
<use xlink:href="#f2_1h" transform="matrix(10,0,0,10,328,398.1)" />
<use xlink:href="#f2_13" transform="matrix(10,0,0,10,338.6,398.1)" />
<use xlink:href="#f2_14" transform="matrix(10,0,0,10,346.1,398.1)" />
<use xlink:href="#f2_16" transform="matrix(10,0,0,10,350.5,398.1)" />
<use xlink:href="#f2_10" transform="matrix(10,0,0,10,354.7,398.1)" />
<use xlink:href="#f2_1c" transform="matrix(10,0,0,10,365.1,398.1)" />
<use xlink:href="#f2_19" transform="matrix(10,0,0,10,370.3,398.1)" />
<use xlink:href="#f2_16" transform="matrix(10,0,0,10,378.2,398.1)" />
<use xlink:href="#f2_16" transform="matrix(10,0,0,10,382.4,398.1)" />
<use xlink:href="#f2_14" transform="matrix(10,0,0,10,386.8,398.1)" />
<use xlink:href="#f2_18" transform="matrix(10,0,0,10,391,398.1)" />
<use xlink:href="#f2_12" transform="matrix(10,0,0,10,398.7,398.1)" />
<use xlink:href="#f2_16" transform="matrix(10,0,0,10,409.7,398.1)" />
<use xlink:href="#f2_w" transform="matrix(10,0,0,10,414.1,398.1)" />
<use xlink:href="#f2_1d" transform="matrix(10,0,0,10,420.8,398.1)" />
<use xlink:href="#f2_1e" transform="matrix(10,0,0,10,426.9,398.1)" />
<use xlink:href="#f2_7" transform="matrix(10,0,0,10,431.1,398.1)" />
</g>
<path fill-rule="evenodd" d="M85.6,131.6H808.3V281.9H85.6V131.6l1.7,148.8H806.8V133H87.3V280.4L85.6,131.6Z" class="g1_61" />
<path fill-rule="evenodd" d="M85.8,168.2H808.5v1.5H85.8v-1.5Z" class="g1_61" />
<path fill-rule="evenodd" d="M277,281.2V131.6h1.5V281.2H277Z" class="g1_61" />
<path fill-rule="evenodd" d="M468.6,281.2V131.6h1.5V281.2h-1.5Z" class="g1_61" />
<path fill-rule="evenodd" d="M670.5,281.2V132.5h1.4V281.2h-1.4Z" class="g1_61" />
<defs>
<path d="M593,600c0,0,92,0,137,17c0,0,45,17,68,48c0,0,22,31,22,76c0,0,0,41,-21,71c0,0,-21,29,-60,43c0,0,-40,14,-128,14H439V600ZM55,0V144h46c0,0,37,0,52,8c0,0,16,7,23,23c0,0,4,9,4,56V816c0,0,0,35,-6,49c0,0,-5,15,-18,19c0,0,-18,8,-41,8H55v148H697c0,0,62,0,135,-11c0,0,74,-11,133,-49c0,0,60,-38,92,-96c0,0,33,-59,33,-132c0,0,0,-118,-84,-192c0,0,-85,-73,-201,-96L1019,215l9,-11c0,0,21,-25,38,-38c0,0,17,-12,34,-17c0,0,18,-5,48,-5h45V0H859L526,448H439V241c0,0,0,-54,6,-69c0,0,6,-14,19,-21c0,0,13,-7,52,-7h48V0Z" 
id="f0_a"
transform="scale(0.001,-0.001)" />

<path d="M611,148c0,0,117,0,187,88c0,0,83,105,83,281c0,0,0,124,-35,208c0,0,-36,84,-96,126c0,0,-61,42,-132,42c0,0,-118,0,-189,-89c0,0,-88,-112,-88,-289c0,0,0,-176,82,-279c0,0,71,-88,188,-88ZM608,-17c0,0,-231,0,-378,126C230,109,53,262,53,518c0,0,0,237,155,389c0,0,156,151,407,151c0,0,248,0,401,-151c0,0,153,-150,153,-386c0,0,0,-159,-70,-282c0,0,-70,-123,-193,-190c0,0,-124,-66,-298,-66Z" 
id="f0_9"
transform="scale(0.001,-0.001)" />

<path d="M280,0V144h30c0,0,51,0,66,6c0,0,14,6,21,22c0,0,8,17,8,67V851c0,0,0,26,-6,33c0,0,-6,7,-26,7c0,0,-38,0,-86,-29c0,0,-48,-29,-85,-82c0,0,-15,-21,-63,-118L2,711l128,365h99l10,-36H826l13,36h99L1067,711L928,662c0,0,-46,91,-66,119c0,0,-40,55,-92,86c0,0,-38,24,-77,24c0,0,-18,0,-24,-9c0,0,-7,-8,-7,-39V244c0,0,0,-53,4,-66c0,0,3,-13,12,-21c0,0,9,-8,25,-11c0,0,16,-2,84,-2V0Z" 
id="f0_b"
transform="scale(0.001,-0.001)" />

<path d="M610,480L509,765L404,480ZM2,0V144c0,0,39,0,56,6c0,0,18,7,30,21c0,0,11,13,25,49l322,820H669L981,237c0,0,25,-64,45,-79c0,0,19,-14,68,-14c2,0,3,0,5,0V0H606V144h30c0,0,41,0,58,11c0,0,16,11,16,27c0,0,0,13,-14,55l-32,94H349L310,226c0,0,-12,-33,-12,-44c0,0,0,-11,8,-21c0,0,9,-10,28,-14c0,0,13,-3,71,-3V0Z" 
id="f0_5"
transform="scale(0.001,-0.001)" />

<path d="M52,0V144H93c0,0,44,0,58,6c0,0,13,6,20,20c0,0,6,14,6,55V803c0,0,0,49,-6,64c0,0,-7,15,-22,24c0,0,-10,6,-51,6H52v143H559V897H513c0,0,-40,0,-53,-7c0,0,-13,-8,-20,-23c0,0,-6,-15,-6,-58V233c0,0,0,-47,5,-61c0,0,6,-13,18,-19c0,0,16,-9,47,-9h55V0Z" 
id="f0_6"
transform="scale(0.001,-0.001)" />

<path d="M59,0V144h44c0,0,37,0,51,6c0,0,14,6,22,22c0,0,8,16,8,47V816c0,0,0,34,-8,50c0,0,-7,16,-20,24c0,0,-12,7,-42,7H59v143H480L786,433V805c0,0,0,48,-5,60c0,0,-8,17,-20,25c0,0,-13,7,-49,7H661v143h428V897h-47c0,0,-36,0,-51,-9c0,0,-15,-8,-21,-22c0,0,-6,-14,-6,-61V0H750L364,767V230c0,0,0,-46,5,-59c0,0,6,-12,20,-20c0,0,15,-7,50,-7h50V0Z" 
id="f0_8"
transform="scale(0.001,-0.001)" />

<path d="M59,0V144h42c0,0,39,0,54,7c0,0,15,7,22,22c0,0,7,15,7,57V813c0,0,0,40,-5,52c0,0,-7,17,-21,24c0,0,-13,8,-42,8H59v143H530L711,408l185,632h481V897h-52c0,0,-41,0,-57,-18c0,0,-16,-17,-16,-66V222c0,0,0,-39,4,-48c0,0,7,-15,19,-21c0,0,16,-9,43,-9h59V0H876V144h39c0,0,42,0,57,6c0,0,15,7,22,21c0,0,7,14,7,51V862L748,0H604L359,835V202c0,0,0,-22,8,-34c0,0,8,-12,22,-18c0,0,15,-6,47,-6h50V0Z" 
id="f0_7"
transform="scale(0.001,-0.001)" />

<path d="M450,515c0,0,91,0,141,54c0,0,49,54,49,167c0,0,0,113,-49,165c0,0,-50,52,-148,52H413V516c0,0,24,-1,37,-1ZM39,0V27c0,0,70,0,95,13c0,0,25,14,35,35c0,0,10,21,10,103V834c0,0,0,82,-10,104c0,0,-10,21,-36,34c0,0,-25,13,-94,13v27H480c0,0,218,0,313,-78c0,0,94,-77,94,-194c0,0,0,-99,-61,-169c0,0,-61,-70,-169,-95c0,0,-72,-18,-244,-18V178c0,0,0,-82,10,-104c0,0,10,-21,35,-34c0,0,26,-13,94,-13V0Z" 
id="f1_9"
transform="scale(0.001,-0.001)" />

<path d="M52,0V26c0,0,44,5,62,29c0,0,13,16,13,97V860c0,0,0,80,-14,99c0,0,-15,20,-61,26v27H336V608c0,0,58,61,106,86c0,0,47,25,99,25c0,0,65,0,112,-38c0,0,47,-37,62,-87c0,0,15,-51,15,-170V152c0,0,0,-81,15,-100c0,0,15,-20,61,-26V0H452V26c0,0,37,6,56,30c0,0,13,20,13,96V463c0,0,0,86,-7,108c0,0,-6,22,-22,35c0,0,-16,12,-36,12c0,0,-30,0,-59,-21c0,0,-28,-20,-61,-72V152c0,0,0,-75,12,-94c0,0,14,-26,58,-32V0Z" 
id="f1_i"
transform="scale(0.001,-0.001)" />

<path d="M182,-328c0,0,-62,0,-101,35c0,0,-38,35,-38,85c0,0,0,44,26,72c0,0,27,28,66,28c0,0,37,0,60,-23c0,0,22,-24,23,-74c0,0,1,-29,7,-37c0,0,6,-8,17,-8c0,0,18,0,38,21c0,0,30,32,70,144l22,57L146,488c0,0,-50,118,-74,144c0,0,-25,27,-59,38v27H384V670c0,0,-36,-2,-51,-14c0,0,-15,-13,-15,-31c0,0,0,-28,37,-112L475,239l81,212c0,0,44,113,44,157c0,0,0,27,-18,44c0,0,-18,16,-65,18v27H750V670c0,0,-34,-4,-56,-27c0,0,-22,-22,-72,-155L422,-27c0,0,-75,-194,-111,-239c0,0,-52,-62,-129,-62Z" 
id="f1_t"
transform="scale(0.001,-0.001)" />

<path d="M312,-20c0,0,-50,0,-134,30c0,0,-22,9,-30,9c0,0,-25,0,-41,-37H82L70,232H97c0,0,33,-99,91,-148c0,0,59,-49,111,-49c0,0,35,0,58,22c0,0,22,22,22,54c0,0,0,35,-22,61c0,0,-22,27,-100,80c0,0,-114,79,-147,120c0,0,-49,62,-49,136c0,0,0,80,55,145c0,0,56,66,161,66c0,0,56,0,109,-28c0,0,20,-11,33,-11c0,0,13,0,21,5c0,0,9,6,27,32h26L504,479H477c0,0,-45,106,-94,145c0,0,-48,39,-96,39c0,0,-31,0,-52,-21c0,0,-22,-20,-22,-47c0,0,0,-20,15,-39c0,0,24,-30,133,-105c0,0,110,-74,144,-126c0,0,35,-52,35,-116c0,0,0,-58,-29,-114C511,95,482,39,429,9c0,0,-53,-29,-117,-29Z" 
id="f1_p"
transform="scale(0.001,-0.001)" />

<path d="M32,0V26c0,0,46,2,69,27c0,0,14,18,14,92V551c0,0,0,75,-17,95c0,0,-17,21,-66,24v27H325V145c0,0,0,-74,17,-95c0,0,17,-21,68,-24V0ZM220,804c0,0,-48,0,-82,33c0,0,-33,34,-33,82c0,0,0,48,33,82c0,0,34,33,82,33c0,0,48,0,82,-33c0,0,33,-34,33,-82c0,0,0,-48,-34,-82c0,0,-34,-33,-81,-33Z" 
id="f1_j"
transform="scale(0.001,-0.001)" />

<path d="M365,-20c0,0,-139,0,-223,105c0,0,-83,105,-83,253c0,0,0,142,76,250c0,0,92,131,253,131c0,0,108,0,172,-55c0,0,63,-54,63,-121c0,0,0,-43,-25,-68c0,0,-26,-25,-68,-25c0,0,-44,0,-73,29c0,0,-28,29,-35,104c0,0,-5,47,-22,65c0,0,-17,19,-40,19c0,0,-36,0,-61,-38c0,0,-39,-58,-39,-176c0,0,0,-99,31,-188c0,0,32,-90,86,-134c0,0,41,-32,97,-32c0,0,36,0,69,17c0,0,33,17,78,65l23,-18C644,163,595,70,521,25c0,0,-73,-45,-156,-45Z" 
id="f1_e"
transform="scale(0.001,-0.001)" />

<path d="M350,115c0,0,37,0,86,42V391c0,0,-90,-53,-134,-113c0,0,-29,-41,-29,-82c0,0,0,-34,24,-60c0,0,19,-21,53,-21ZM207,-9c0,0,-59,0,-99,38c0,0,-40,40,-40,99c0,0,0,80,69,143c0,0,69,64,299,170v70c0,0,0,79,-8,100c0,0,-9,20,-33,36c0,0,-23,15,-53,15c0,0,-49,0,-80,-22c0,0,-19,-13,-19,-31c0,0,0,-16,21,-39c0,0,28,-32,28,-62c0,0,0,-36,-27,-62c0,0,-27,-26,-71,-26c0,0,-47,0,-79,29c0,0,-32,28,-32,66c0,0,0,54,43,103c0,0,42,48,118,75c0,0,76,26,158,26c0,0,99,0,157,-42c0,0,58,-43,75,-92c0,0,11,-31,11,-144V170c0,0,0,-47,3,-60c0,0,4,-12,11,-18c0,0,8,-6,18,-6c0,0,19,0,39,28L738,96c0,0,-37,-56,-77,-81c0,0,-40,-24,-90,-24c0,0,-60,0,-94,27c0,0,-33,28,-41,85C436,103,309,-9,207,-9Z" 
id="f1_d"
transform="scale(0.001,-0.001)" />

<path d="M32,0V26c0,0,46,2,69,27c0,0,14,18,14,92V867c0,0,0,74,-17,94c0,0,-17,21,-66,24v27H325V145c0,0,0,-74,17,-95c0,0,17,-21,68,-24V0Z" 
id="f1_k"
transform="scale(0.001,-0.001)" />

<path d="M597,33c0,0,114,0,177,86c0,0,92,123,92,370c0,0,0,243,-57,352c0,0,-72,138,-212,138c0,0,-134,0,-207,-140c0,0,-61,-117,-61,-333c0,0,0,-260,92,-385c0,0,64,-88,176,-88ZM880,-275c0,0,-138,0,-248,68c0,0,-109,68,-164,199c0,0,-184,38,-296,179C172,171,60,312,60,507c0,0,0,227,152,377c0,0,152,150,386,150c0,0,234,0,385,-150c0,0,152,-151,152,-377c0,0,0,-197,-119,-342C1016,165,897,20,730,-8c0,0,35,-99,107,-149c0,0,72,-50,181,-50c0,0,30,0,64,6v-46c0,0,-113,-28,-202,-28Z" 
id="f1_a"
transform="scale(0.001,-0.001)" />

<path d="M304,-20c0,0,-59,0,-105,36c0,0,-45,36,-61,84c0,0,-16,49,-16,169V546c0,0,0,79,-14,98c0,0,-15,20,-61,26v27H331V221c0,0,0,-74,8,-96c0,0,7,-21,22,-33c0,0,15,-11,35,-11c0,0,27,0,49,14c0,0,30,20,71,78V546c0,0,0,79,-14,98c0,0,-15,20,-61,26v27H726V152c0,0,0,-81,14,-100c0,0,15,-20,61,-26V0H516V93C516,93,466,34,416,7c0,0,-50,-27,-112,-27Z" 
id="f1_r"
transform="scale(0.001,-0.001)" />

<path d="M52,0V26c0,0,44,5,62,29c0,0,13,16,13,97V546c0,0,0,79,-14,98c0,0,-15,20,-61,26v27H336V607c0,0,54,59,104,85c0,0,49,27,106,27c0,0,68,0,113,-38c0,0,44,-38,59,-94c0,0,12,-42,12,-163V152c0,0,0,-81,15,-101c0,0,14,-19,61,-25V0H452V26c0,0,40,6,57,33c0,0,12,19,12,93V462c0,0,0,86,-7,109c0,0,-6,22,-22,35c0,0,-16,12,-36,12c0,0,-64,0,-120,-92V152c0,0,0,-79,15,-100c0,0,15,-20,55,-26V0Z" 
id="f1_m"
transform="scale(0.001,-0.001)" />

<path d="M298,-9c0,0,-67,0,-113,36c0,0,-46,37,-58,83c0,0,-8,25,-8,137V624H28v26c0,0,94,66,161,139c0,0,66,73,115,163h25V697H494V624H329V193c0,0,0,-60,5,-78c0,0,6,-17,20,-28c0,0,14,-11,26,-11c0,0,48,0,92,75l22,-17C494,134,434,-9,298,-9Z" 
id="f1_q"
transform="scale(0.001,-0.001)" />

<path d="M448,514c0,0,104,0,155,19c0,0,52,19,81,69c0,0,30,50,30,129c0,0,0,116,-54,171c0,0,-54,55,-174,55H406V514ZM28,0V27c0,0,70,0,95,13c0,0,25,14,35,35c0,0,10,21,10,103V834c0,0,0,82,-10,104c0,0,-10,21,-35,34c0,0,-25,13,-95,13v27H498c0,0,184,0,269,-25c0,0,85,-26,138,-94c0,0,54,-68,54,-160c0,0,0,-112,-80,-185c0,0,-52,-46,-145,-69L977,135c0,0,48,-66,68,-82c0,0,31,-23,72,-26V0H798L472,462H406V178c0,0,0,-82,10,-104c0,0,10,-21,35,-34c0,0,25,-13,95,-13V0Z" 
id="f1_b"
transform="scale(0.001,-0.001)" />

<path d="M381,31c0,0,33,0,56,19c0,0,29,25,38,71c0,0,15,71,15,286c0,0,0,127,-14,174c0,0,-14,48,-42,69c0,0,-19,16,-50,16c0,0,-38,0,-65,-29c0,0,-27,-29,-36,-113c0,0,-8,-85,-8,-235c0,0,0,-80,10,-150c0,0,8,-53,35,-80c0,0,27,-28,61,-28Zm2,-51c0,0,-157,0,-242,110c0,0,-85,110,-85,256c0,0,0,150,87,261c0,0,86,112,238,112c0,0,90,0,169,-47c0,0,78,-47,119,-134c0,0,40,-86,40,-189c0,0,0,-149,-75,-249c0,0,-91,-120,-251,-120Z" 
id="f1_n"
transform="scale(0.001,-0.001)" />

<path d="M393,-277c0,0,104,0,164,28c0,0,59,27,59,77c0,0,0,19,-11,32c0,0,-20,22,-61,30c0,0,-41,8,-218,8c0,0,-76,0,-101,-12c0,0,-42,-23,-42,-63c0,0,0,-38,44,-69c0,0,44,-31,166,-31ZM366,253c0,0,45,0,75,41c0,0,30,41,30,160c0,0,0,134,-33,183c0,0,-24,36,-68,36c0,0,-43,0,-73,-44c0,0,-30,-44,-30,-181c0,0,0,-112,29,-153c0,0,30,-42,70,-42Zm8,-581c0,0,-94,0,-171,18c0,0,-78,18,-112,51c0,0,-33,32,-33,68c0,0,0,34,25,61c0,0,26,28,96,46c0,0,-97,48,-97,132c0,0,0,51,40,100c0,0,39,48,125,84c0,0,-100,36,-145,96c0,0,-44,60,-44,138c0,0,0,103,83,178c0,0,84,75,215,75c0,0,70,0,144,-30H734V607H601c0,0,37,-36,51,-66c0,0,18,-40,18,-85c0,0,0,-74,-42,-129c0,0,-41,-55,-112,-86c0,0,-72,-31,-127,-31c0,0,-5,0,-90,4c0,0,-33,0,-56,-22c0,0,-23,-22,-23,-52c0,0,0,-27,21,-44c0,0,20,-17,66,-17l130,1c0,0,157,0,216,-34c0,0,84,-47,84,-146c0,0,0,-64,-39,-115c0,0,-38,-52,-102,-77c0,0,-96,-36,-222,-36Z" 
id="f1_h"
transform="scale(0.001,-0.001)" />

<path d="M78,-22V359h28c0,0,32,-161,126,-246c0,0,94,-85,202,-85c0,0,84,0,133,46c0,0,50,45,50,106c0,0,0,36,-19,69c0,0,-19,34,-58,64c0,0,-39,30,-138,79c0,0,-138,68,-198,115c0,0,-60,48,-92,107c0,0,-33,59,-33,130c0,0,0,120,89,205c0,0,89,85,224,85c0,0,49,0,96,-11c0,0,35,-9,85,-34c0,0,51,-24,71,-24c0,0,19,0,30,12c0,0,12,12,21,57h23l8,-337H695c0,0,-21,127,-106,204c0,0,-85,78,-184,78c0,0,-76,0,-121,-41c0,0,-44,-41,-44,-94c0,0,0,-33,15,-59c0,0,22,-35,70,-70c0,0,35,-24,162,-87c0,0,178,-87,240,-165c0,0,61,-77,61,-177c0,0,0,-127,-99,-218c0,0,-99,-90,-251,-90c0,0,-48,0,-90,9c0,0,-43,10,-107,36c0,0,-36,15,-59,15c0,0,-20,0,-41,-15c0,0,-22,-15,-35,-45Z" 
id="f1_c"
transform="scale(0.001,-0.001)" />

<path d="M397,69c0,0,65,0,123,103V539c0,0,-55,105,-134,105c0,0,-28,0,-46,-15c0,0,-27,-23,-45,-81c0,0,-17,-58,-17,-178c0,0,0,-132,19,-195c0,0,19,-63,53,-91c0,0,17,-15,47,-15ZM332,-20c0,0,-133,0,-211,119c0,0,-62,97,-62,238c0,0,0,112,38,202c0,0,39,89,107,134c0,0,67,46,145,46c0,0,50,0,88,-20c0,0,39,-19,83,-67V842c0,0,0,80,-7,96c0,0,-8,22,-26,32c0,0,-18,11,-68,11v31H729V209c0,0,0,-81,5,-96c0,0,6,-25,22,-36c0,0,17,-12,58,-15V37L520,-20V90C520,90,467,26,426,3c0,0,-42,-23,-94,-23Z" 
id="f1_f"
transform="scale(0.001,-0.001)" />

<path d="M34,0V27H68c0,0,44,0,71,16c0,0,19,11,30,36c0,0,8,18,8,94V839c0,0,0,78,-8,97c0,0,-8,20,-33,34c0,0,-26,15,-68,15H34v27H887V722H857c0,0,-10,102,-53,151c0,0,-43,49,-125,69c0,0,-44,11,-165,11H420V538h29c0,0,67,0,109,20c0,0,43,20,72,68c0,0,30,48,39,129h26V247H669c0,0,-14,144,-77,190c0,0,-63,46,-143,46H420V173c0,0,0,-78,9,-97c0,0,9,-20,33,-34c0,0,25,-15,68,-15h33V0Z" 
id="f1_8"
transform="scale(0.001,-0.001)" />

<path d="M553,-21L174,849c0,0,-29,67,-41,82c0,0,-19,24,-46,37c0,0,-27,13,-73,17v27H427V985c0,0,-70,-7,-91,-24c0,0,-21,-17,-21,-44c0,0,0,-38,34,-117L607,207L846,793c0,0,35,86,35,120c0,0,0,22,-22,41c0,0,-21,20,-73,28c0,0,-4,1,-13,3v27h311V985c0,0,-53,-10,-81,-35c0,0,-39,-37,-70,-112L581,-21Z" 
id="f2_s"
transform="scale(0.001,-0.001)" />

<path d="M479,469c0,0,-4,66,-16,93c0,0,-18,42,-55,65c0,0,-37,24,-78,24c0,0,-62,0,-111,-48c0,0,-48,-48,-57,-134ZM355,-20c0,0,-123,0,-211,95c0,0,-87,96,-87,258c0,0,0,175,90,273c0,0,89,98,225,98c0,0,115,0,189,-76c0,0,74,-75,74,-202H162c0,0,0,-152,74,-239c0,0,75,-86,175,-86c0,0,67,0,117,36c0,0,50,37,83,127l24,-15c0,0,-16,-102,-91,-186c0,0,-76,-83,-189,-83Z" 
id="f2_10"
transform="scale(0.001,-0.001)" />

<path d="M58,0V26c0,0,47,0,64,10c0,0,18,10,28,32c0,0,9,23,9,86V775c0,0,0,116,-5,142c0,0,-5,27,-17,37c0,0,-11,9,-29,9c0,0,-20,0,-49,-12L46,978l204,83h34V154c0,0,0,-64,9,-85c0,0,9,-21,29,-32c0,0,19,-11,72,-11V0Z" 
id="f2_16"
transform="scale(0.001,-0.001)" />

<path d="M406,32c0,0,72,0,119,60c0,0,47,59,47,205c0,0,0,181,-78,286c0,0,-53,71,-135,71c0,0,-40,0,-79,-23c0,0,-40,-24,-65,-83c0,0,-24,-58,-24,-151c0,0,0,-149,59,-257c0,0,59,-108,156,-108ZM374,-20c0,0,-154,0,-245,122c0,0,-77,104,-77,233c0,0,0,94,46,187c0,0,47,92,123,137c0,0,76,44,161,44c0,0,155,0,249,-118c0,0,80,-100,80,-231c0,0,0,-91,-44,-185C667,169,623,75,546,27c0,0,-77,-47,-172,-47Z" 
id="f2_19"
transform="scale(0.001,-0.001)" />

<path d="M342,-20c0,0,-116,0,-203,97c0,0,-86,98,-86,264c0,0,0,161,96,261c0,0,95,101,230,101c0,0,100,0,165,-53c0,0,65,-54,65,-111c0,0,0,-29,-18,-46c0,0,-18,-18,-51,-18c0,0,-44,0,-66,29c0,0,-13,15,-17,59c0,0,-4,45,-30,68c0,0,-26,22,-73,22c0,0,-74,0,-120,-55c0,0,-60,-73,-60,-193c0,0,0,-122,60,-216c0,0,60,-93,162,-93c0,0,73,0,131,49c0,0,41,35,80,126l22,-10C629,261,601,125,521,52c0,0,-81,-72,-179,-72Z" 
id="f2_y"
transform="scale(0.001,-0.001)" />

<path d="M55,0V26c0,0,50,0,67,10c0,0,17,10,27,32c0,0,10,23,10,86V418c0,0,0,111,-6,144c0,0,-6,24,-17,33c0,0,-11,10,-30,10c0,0,-21,0,-51,-11L45,620l206,83h33V154c0,0,0,-64,9,-85c0,0,9,-22,27,-32c0,0,19,-11,67,-11V0ZM222,909c0,0,-32,0,-54,23c0,0,-22,22,-22,53c0,0,0,32,22,54c0,0,22,22,54,22c0,0,31,0,53,-22c0,0,22,-22,22,-54c0,0,0,-31,-22,-53c0,0,-22,-23,-53,-23Z" 
id="f2_14"
transform="scale(0.001,-0.001)" />

<path d="M255,-10c0,0,-35,0,-68,18c0,0,-32,19,-48,55c0,0,-16,35,-16,109V632H15v24c0,0,41,16,84,56c0,0,43,39,77,92c0,0,17,29,48,104h23V683H407V632H247V188c0,0,0,-66,19,-90c0,0,19,-23,49,-23c0,0,24,0,47,16c0,0,23,15,36,45h29c0,0,-26,-73,-74,-110c0,0,-47,-36,-98,-36Z" 
id="f2_1e"
transform="scale(0.001,-0.001)" />

<path d="M145,-328c0,0,-44,0,-73,25c0,0,-28,25,-28,58c0,0,0,31,21,50c0,0,20,19,56,19c0,0,25,0,67,-16c0,0,30,-11,38,-11c0,0,22,0,49,23c0,0,26,23,53,89L376,28L131,542c0,0,-11,24,-36,58c0,0,-19,27,-30,36c0,0,-18,12,-56,21v26H328V657H312c0,0,-33,0,-50,-15c0,0,-17,-14,-17,-36c0,0,0,-30,25,-81L437,179L589,557c0,0,12,31,12,62c0,0,0,13,-5,20c0,0,-6,8,-19,13c0,0,-12,5,-44,5v26H754V657c0,0,-27,-3,-42,-12c0,0,-15,-9,-33,-34c0,0,-7,-10,-25,-58L376,-128c0,0,-40,-99,-105,-150c0,0,-66,-50,-126,-50Z" 
id="f2_1j"
transform="scale(0.001,-0.001)" />

<path d="M412,-328c0,0,-195,96,-303,284C109,-44,0,142,0,365c0,0,0,232,114,422c0,0,114,191,298,273v-31c0,0,-92,-51,-151,-139c0,0,-59,-88,-88,-223c0,0,-29,-136,-29,-282c0,0,0,-167,27,-301c0,0,26,-133,82,-221c0,0,55,-89,159,-159v-32Z" 
id="f3_3"
transform="scale(0.001,-0.001)" />

<path d="M34,-328v32c0,0,92,50,151,138c0,0,59,88,88,222c0,0,29,135,29,283c0,0,0,165,-27,300c0,0,-26,134,-82,222c0,0,-56,89,-159,160v31c0,0,194,-96,303,-284c0,0,108,-187,108,-410c0,0,0,-232,-114,-422c0,0,-114,-191,-297,-272Z" 
id="f3_4"
transform="scale(0.001,-0.001)" />

<path d="M363,28c0,0,75,0,126,63c0,0,51,62,51,197c0,0,0,85,-24,149c0,0,-24,63,-86,139c0,0,-51,-17,-89,-17c0,0,-44,0,-63,14c0,0,-18,13,-18,29c0,0,0,14,14,25c0,0,14,11,46,11c0,0,36,0,110,-19c0,0,53,104,53,196c0,0,0,94,-47,146c0,0,-46,51,-115,51c0,0,-86,0,-134,-73c0,0,-31,-49,-31,-156V118c0,0,72,-51,126,-73c0,0,40,-17,81,-17ZM0,-328c0,0,20,92,24,126c0,0,10,104,10,152V712c0,0,0,133,26,198c0,0,27,64,96,108c0,0,69,43,165,43c0,0,133,0,213,-72c0,0,80,-71,80,-170c0,0,0,-63,-33,-120c0,0,-32,-57,-100,-99c0,0,200,-95,200,-297c0,0,0,-89,-42,-167C639,136,598,59,524,18c0,0,-73,-39,-150,-39c0,0,-50,0,-99,17c0,0,-49,16,-119,63V-66c0,0,0,-121,-30,-262Z" 
id="f3_a"
transform="scale(0.001,-0.001)" />

<path d="M0,214v74H784V214ZM0,494v72H784V494Z" 
id="f3_8"
transform="scale(0.001,-0.001)" />

<path d="M2,-20L369,1061h59L62,-20Z" 
id="f2_8"
transform="scale(0.001,-0.001)" />

<path d="M411,-239c0,0,134,0,198,48c0,0,64,47,64,100c0,0,0,39,-38,55c0,0,-39,16,-154,19c0,0,-167,5,-258,17c0,0,-35,-37,-53,-70c0,0,-17,-32,-17,-60c0,0,0,-36,43,-62c0,0,74,-47,215,-47ZM380,257c0,0,56,0,93,43c0,0,36,42,36,133c0,0,0,118,-51,185c0,0,-38,49,-98,49c0,0,-55,0,-92,-44c0,0,-37,-44,-37,-135c0,0,0,-117,50,-182c0,0,39,-49,99,-49ZM345,-328c0,0,-144,0,-243,64c0,0,-56,38,-56,78c0,0,0,18,8,36c0,0,13,27,52,76c0,0,5,7,76,80c0,0,-39,23,-55,41c0,0,-16,19,-16,42c0,0,0,26,22,61c0,0,21,35,98,100c0,0,-63,30,-97,85c0,0,-33,55,-33,121c0,0,0,101,76,174c0,0,77,73,196,73c0,0,98,0,170,-48H688c0,0,32,0,37,-2c0,0,6,-2,8,-6c0,0,4,-7,4,-24c0,0,0,-20,-4,-27c0,0,-2,-4,-7,-6c0,0,-6,-2,-38,-2H599c0,0,41,-54,41,-137c0,0,0,-96,-73,-163c0,0,-73,-68,-196,-68c0,0,-51,0,-104,15c0,0,-33,-28,-44,-49c0,0,-12,-22,-12,-37c0,0,0,-12,13,-24c0,0,12,-12,48,-17c0,0,21,-4,104,-6c0,0,154,-4,199,-11c0,0,70,-10,111,-51c0,0,42,-41,42,-102c0,0,0,-84,-79,-158c0,0,-117,-108,-304,-108Z" 
id="f2_12"
transform="scale(0.001,-0.001)" />

<path d="M20,0V26c0,0,45,0,71,15c0,0,15,7,24,28c0,0,9,21,9,85V773c0,0,0,117,-5,144c0,0,-6,27,-17,37c0,0,-12,9,-31,9c0,0,-16,0,-51,-12L10,978l204,83h34V561c0,0,83,91,131,116c0,0,49,26,97,26c0,0,58,0,100,-32c0,0,42,-32,62,-101c0,0,14,-47,14,-174V154c0,0,0,-65,11,-89c0,0,7,-18,25,-28c0,0,18,-11,66,-11V0H418V26h15c0,0,48,0,67,15c0,0,18,15,26,43c0,0,2,12,2,70V396c0,0,0,112,-12,147c0,0,-11,35,-36,53c0,0,-26,17,-61,17c0,0,-37,0,-76,-19c0,0,-40,-20,-95,-79V154c0,0,0,-70,8,-87c0,0,8,-17,29,-29c0,0,22,-12,74,-12V0Z" 
id="f2_13"
transform="scale(0.001,-0.001)" />

<path d="M33,0V27c0,0,264,241,371,393c0,0,108,152,108,278c0,0,0,96,-59,158c0,0,-59,62,-141,62c0,0,-75,0,-134,-43c0,0,-59,-44,-88,-128H63c0,0,18,138,95,212c0,0,77,74,193,74c0,0,123,0,205,-80c0,0,83,-79,83,-186c0,0,0,-77,-36,-154c0,0,-55,-121,-179,-256C424,357,238,154,191,112H455c0,0,81,0,114,6c0,0,32,6,58,25c0,0,27,18,46,52h27L630,0Z" 
id="f2_b"
transform="scale(0.001,-0.001)" />

<path d="M356,519c0,0,145,0,218,63c0,0,74,63,74,160c0,0,0,95,-60,154c0,0,-59,59,-157,59c0,0,-43,0,-117,-13V520c0,0,14,0,25,0c0,0,10,-1,17,-1ZM26,0V27H64c0,0,64,0,92,42c0,0,15,23,15,110V833c0,0,0,96,-21,119c0,0,-29,33,-86,33H26v27H395c0,0,161,0,238,-24c0,0,76,-23,129,-86c0,0,54,-63,54,-151c0,0,0,-93,-61,-162c0,0,-61,-68,-189,-97L775,202c0,0,72,-100,123,-133c0,0,52,-33,134,-42V0H762L419,473c0,0,-38,-1,-61,-1c0,0,-10,0,-21,0c0,0,-11,0,-23,1V179c0,0,0,-96,21,-119c0,0,28,-33,84,-33h40V0Z" 
id="f2_p"
transform="scale(0.001,-0.001)" />

<path d="M107,-21V325h27c0,0,19,-109,52,-163c0,0,33,-54,100,-90c0,0,68,-36,148,-36c0,0,93,0,148,49c0,0,54,50,54,117c0,0,0,37,-21,75c0,0,-20,38,-64,71c0,0,-29,22,-159,95c0,0,-130,72,-185,115c0,0,-55,44,-83,96c0,0,-28,52,-28,114c0,0,0,109,83,188c0,0,84,78,213,78c0,0,81,0,171,-39c0,0,42,-19,59,-19c0,0,20,0,32,11c0,0,12,12,20,47h27V684H674c0,0,-14,101,-48,161c0,0,-35,60,-100,95c0,0,-64,35,-133,35c0,0,-77,0,-128,-47c0,0,-51,-48,-51,-108c0,0,0,-46,32,-84c0,0,47,-56,221,-149c0,0,142,-76,194,-117c0,0,51,-41,80,-96c0,0,28,-55,28,-115c0,0,0,-115,-90,-198c0,0,-89,-82,-229,-82c0,0,-44,0,-83,6c0,0,-23,4,-95,27c0,0,-73,24,-93,24c0,0,-18,0,-29,-11c0,0,-11,-12,-16,-46Z" 
id="f2_q"
transform="scale(0.001,-0.001)" />

<path d="M24,0V27H60c0,0,63,0,91,37c0,0,18,24,18,115V833c0,0,0,77,-10,102c0,0,-7,18,-30,32c0,0,-32,18,-69,18H24v27H776L787,790H761c0,0,-20,71,-45,104c0,0,-26,33,-64,48c0,0,-37,15,-117,15H312V558H497c0,0,63,0,93,28c0,0,29,28,39,111h27V355H629c0,0,-1,59,-16,87c0,0,-14,27,-40,41c0,0,-26,14,-76,14H312V179c0,0,0,-77,10,-102c0,0,7,-18,31,-32c0,0,33,-18,69,-18h37V0Z" 
id="f2_l"
transform="scale(0.001,-0.001)" />

<path d="M678,393L506,802L330,393ZM11,0V27c0,0,63,12,82,30c0,0,38,35,84,145l356,832h27L912,193c0,0,43,-101,77,-132c0,0,35,-30,97,-34V0H687V27c0,0,60,3,82,21c0,0,21,17,21,41c0,0,0,33,-30,104L700,338H307L239,179c0,0,-26,-59,-26,-88c0,0,0,-23,22,-41c0,0,22,-17,95,-23V0Z" 
id="f2_j"
transform="scale(0.001,-0.001)" />

<path d="M17,0V26c0,0,52,0,77,17c0,0,19,12,26,38c0,0,4,13,4,73V419c0,0,0,119,-5,142c0,0,-4,23,-17,33c0,0,-13,11,-33,11c0,0,-23,0,-52,-11l-7,26l207,83h31V549c0,0,86,154,176,154c0,0,41,0,68,-25c0,0,27,-25,27,-58c0,0,0,-29,-20,-49c0,0,-19,-20,-46,-20c0,0,-26,0,-58,25c0,0,-33,26,-48,26c0,0,-14,0,-29,-15c0,0,-34,-30,-70,-101V159c0,0,0,-56,15,-85c0,0,9,-20,34,-34c0,0,24,-14,71,-14V0Z" 
id="f2_1c"
transform="scale(0.001,-0.001)" />

<path d="M286,72c0,0,57,0,149,75V407c0,0,-113,-45,-145,-64c0,0,-59,-32,-85,-68c0,0,-25,-36,-25,-78c0,0,0,-54,32,-89c0,0,32,-36,74,-36ZM217,-13c0,0,-71,0,-116,48c0,0,-46,48,-46,127c0,0,0,50,22,87c0,0,31,50,106,95c0,0,76,45,252,109v26c0,0,0,102,-32,140c0,0,-32,38,-94,38c0,0,-47,0,-74,-25c0,0,-28,-25,-28,-58l1,-43c0,0,0,-34,-17,-53c0,0,-18,-18,-47,-18c0,0,-28,0,-45,19c0,0,-18,19,-18,53c0,0,0,64,66,117c0,0,65,54,184,54c0,0,91,0,149,-31c0,0,44,-23,65,-72c0,0,13,-32,13,-131V238c0,0,0,-98,4,-120c0,0,4,-22,12,-29c0,0,9,-8,20,-8c0,0,12,0,21,5c0,0,16,10,61,55V99C676,99,592,-12,516,-12c0,0,-37,0,-58,24c0,0,-22,26,-23,86C435,98,330,17,303,5c0,0,-40,-18,-86,-18Z" 
id="f2_w"
transform="scale(0.001,-0.001)" />

<path d="M21,0V26H35c0,0,53,0,71,27c0,0,18,27,18,101V408c0,0,0,123,-5,150c0,0,-6,27,-17,37c0,0,-12,10,-31,10c0,0,-21,0,-50,-11L10,620l206,83h32V558c0,0,120,145,229,145c0,0,56,0,96,-28c0,0,40,-28,64,-92c0,0,16,-45,16,-137V154c0,0,0,-65,11,-88c0,0,8,-19,26,-29c0,0,18,-11,68,-11V0H419V26h14c0,0,47,0,66,15c0,0,20,15,27,43c0,0,3,11,3,70V434c0,0,0,93,-24,135c0,0,-24,42,-81,42c0,0,-88,0,-176,-97V154c0,0,0,-69,9,-86c0,0,10,-21,28,-31c0,0,19,-11,75,-11V0Z" 
id="f2_18"
transform="scale(0.001,-0.001)" />

<path d="M27,354v62H831V354Zm0,243v62H831V597Z" 
id="f2_i"
transform="scale(0.001,-0.001)" />

<path d="M312,-20c0,0,-62,0,-143,22c0,0,-25,8,-40,8c0,0,-18,0,-27,-19H77V234h25c0,0,21,-105,80,-158c0,0,59,-53,132,-53c0,0,51,0,84,31c0,0,32,30,32,72c0,0,0,52,-36,87c0,0,-36,35,-144,88c0,0,-109,54,-142,97c0,0,-34,43,-34,107c0,0,0,85,58,141c0,0,58,57,150,57c0,0,40,0,97,-17c0,0,38,-11,51,-11c0,0,12,0,19,5c0,0,7,5,15,23h25V470H464c0,0,-28,110,-72,149c0,0,-45,40,-113,40c0,0,-53,0,-85,-28c0,0,-32,-27,-32,-61c0,0,0,-41,24,-71c0,0,23,-31,94,-65L389,381c0,0,152,-74,152,-194c0,0,0,-94,-71,-151c0,0,-70,-56,-158,-56Z" 
id="f2_1d"
transform="scale(0.001,-0.001)" />

<path d="M338,28c0,0,48,0,91,45c0,0,43,45,65,144c0,0,22,99,26,276H143c0,0,3,-133,20,-239c0,0,13,-80,44,-140c0,0,19,-36,54,-61c0,0,36,-25,77,-25ZM522,543c0,0,-1,194,-37,312c0,0,-29,90,-76,129c0,0,-34,28,-79,28c0,0,-51,0,-93,-39c0,0,-43,-40,-65,-132c0,0,-22,-93,-29,-298ZM329,-21c0,0,-68,0,-124,31c0,0,-56,33,-99,95c0,0,-43,62,-66,131C40,236,0,356,0,489c0,0,0,294,119,453c0,0,91,119,217,119c0,0,122,0,209,-115c0,0,121,-160,121,-436c0,0,0,-263,-119,-415C547,95,455,-21,329,-21Z" 
id="f3_c"
transform="scale(0.001,-0.001)" />

<path d="M253,0V27h36c0,0,64,0,91,39c0,0,16,24,16,109V948H274c0,0,-71,0,-100,-10c0,0,-39,-14,-67,-54c0,0,-27,-41,-33,-109H46l12,237H883L894,775H865c0,0,-8,62,-22,89c0,0,-23,43,-61,64c0,0,-39,20,-101,20H539V175c0,0,0,-93,20,-116c0,0,28,-32,87,-32h36V0Z" 
id="f2_r"
transform="scale(0.001,-0.001)" />

<path d="M23,0V26c0,0,47,0,66,10c0,0,19,11,28,33c0,0,10,22,10,85V416c0,0,0,112,-7,145c0,0,-5,25,-16,34c0,0,-11,10,-31,10c0,0,-21,0,-50,-11L12,620l207,83h32V557c0,0,75,75,88,86c0,0,34,29,72,44c0,0,39,16,77,16c0,0,64,0,110,-37c0,0,47,-38,62,-109c0,0,77,90,130,118c0,0,53,28,109,28c0,0,54,0,96,-28c0,0,42,-28,67,-91c0,0,16,-43,16,-136V154c0,0,0,-64,10,-88c0,0,8,-16,28,-28c0,0,20,-12,65,-12V0H844V26h14c0,0,44,0,69,18c0,0,17,12,24,38c0,0,3,13,3,72V448c0,0,0,83,-20,117c0,0,-29,48,-93,48c0,0,-39,0,-79,-20c0,0,-40,-19,-97,-73l-1,-8l2,-32V154c0,0,0,-70,8,-87c0,0,7,-17,29,-29c0,0,21,-12,73,-12V0H431V26c0,0,57,0,78,14c0,0,21,13,29,40c0,0,4,13,4,74V448c0,0,0,83,-25,120c0,0,-33,48,-91,48c0,0,-40,0,-80,-22c0,0,-61,-33,-95,-74V154c0,0,0,-67,10,-87c0,0,9,-20,27,-30c0,0,18,-11,74,-11V0Z" 
id="f2_17"
transform="scale(0.001,-0.001)" />

<path d="M63,0V26H93c0,0,30,0,54,15c0,0,25,15,34,41c0,0,10,25,10,99V630H58v53H191v45c0,0,0,102,33,173c0,0,32,71,100,114c0,0,68,44,152,44c0,0,79,0,145,-51c0,0,43,-33,43,-75c0,0,0,-22,-19,-42c0,0,-20,-20,-42,-20c0,0,-17,0,-36,12c0,0,-19,13,-47,53c0,0,-28,41,-51,55c0,0,-23,14,-51,14c0,0,-35,0,-58,-18c0,0,-24,-18,-35,-57c0,0,-10,-38,-10,-197V683H491V630H315V181c0,0,0,-96,21,-122c0,0,27,-33,73,-33h62V0Z" 
id="f2_11"
transform="scale(0.001,-0.001)" />

<path d="M399,62c0,0,68,0,131,68V481c0,0,-5,51,-27,93c0,0,-22,42,-59,63c0,0,-37,21,-72,21c0,0,-65,0,-117,-59c0,0,-67,-77,-67,-226c0,0,0,-151,65,-231c0,0,66,-80,146,-80ZM330,-20c0,0,-112,0,-196,93c0,0,-83,94,-83,240c0,0,0,147,92,269c0,0,93,122,238,122c0,0,90,0,149,-58V773c0,0,0,117,-6,144c0,0,-5,27,-17,37c0,0,-12,9,-30,9c0,0,-20,0,-52,-12l-9,27l204,83h33V270c0,0,0,-120,6,-146c0,0,5,-27,18,-37c0,0,12,-11,28,-11c0,0,21,0,54,13l9,-26L564,-20H530V78C530,78,480,25,432,2c0,0,-47,-22,-102,-22Z" 
id="f2_z"
transform="scale(0.001,-0.001)" />

<path d="M197,0V27c0,0,71,2,92,13c0,0,21,10,29,29c0,0,9,18,9,109V725c0,0,0,110,-8,141c0,0,-5,24,-19,35c0,0,-14,11,-33,11c0,0,-28,0,-77,-23l-11,23l246,121h25V178c0,0,0,-85,7,-106c0,0,7,-21,29,-32c0,0,23,-11,91,-13V0Z" 
id="f2_a"
transform="scale(0.001,-0.001)" />

<path d="M474,-326c0,0,-112,57,-188,133c0,0,-107,108,-165,254c0,0,-58,147,-58,305c0,0,0,231,114,421c0,0,114,191,297,273v-31c0,0,-92,-51,-151,-139c0,0,-59,-88,-88,-223c0,0,-30,-135,-30,-281c0,0,0,-160,25,-290c0,0,20,-102,47,-164c0,0,28,-62,75,-120c0,0,47,-57,122,-109v-29Z" 
id="f2_3"
transform="scale(0.001,-0.001)" />

<path d="M336,-20L117,554c0,0,-21,55,-42,74c0,0,-21,19,-66,29v26H296V657c0,0,-40,-3,-52,-14c0,0,-13,-12,-13,-33c0,0,0,-23,13,-56L390,162L537,481L498,581c0,0,-18,46,-47,63c0,0,-17,11,-61,13v26H716V657c0,0,-54,-2,-77,-20c0,0,-15,-12,-15,-39c0,0,0,-15,6,-30L785,177L929,554c0,0,15,40,15,65c0,0,0,14,-15,25c0,0,-14,12,-57,13v26h216V657c0,0,-65,-10,-95,-89L764,-20H733L563,415L363,-20Z" 
id="f2_1h"
transform="scale(0.001,-0.001)" />

<path d="M125,-302V1034H453V975H237V-243H453v-59Z" 
id="f2_u"
transform="scale(0.001,-0.001)" />

<path d="M399,105V477H27v62H399V909h60V539H831V477H459V105Z" 
id="f2_5"
transform="scale(0.001,-0.001)" />

<path d="M38,0V27H74c0,0,63,0,91,37c0,0,18,24,18,115V833c0,0,0,77,-10,102c0,0,-7,18,-30,32c0,0,-33,18,-69,18H38v27H470V985H434c0,0,-62,0,-90,-37c0,0,-18,-24,-18,-115V179c0,0,0,-77,9,-102c0,0,8,-18,31,-32c0,0,32,-18,68,-18h36V0Z" 
id="f2_m"
transform="scale(0.001,-0.001)" />

<path d="M25,0V27H61c0,0,64,0,91,39c0,0,16,24,16,109V837c0,0,0,67,-15,97c0,0,-10,22,-38,36c0,0,-28,15,-90,15v27H312L678,220l363,792h285V985h-35c0,0,-64,0,-91,-39c0,0,-17,-24,-17,-109V175c0,0,0,-93,21,-116c0,0,28,-32,87,-32h35V0H898V27h36c0,0,64,0,90,39c0,0,17,24,17,109V852L649,0H625L234,852V175c0,0,0,-93,20,-116c0,0,27,-32,87,-32h35V0Z" 
id="f2_n"
transform="scale(0.001,-0.001)" />

<path d="M56,-302v60H272V975H56v59H383V-302Z" 
id="f2_v"
transform="scale(0.001,-0.001)" />

<path d="M35,-326v29c0,0,92,51,151,139c0,0,60,87,89,221c0,0,28,136,28,282c0,0,0,159,-24,290c0,0,-19,103,-47,165c0,0,-28,62,-75,119c0,0,-46,57,-122,110v31c0,0,113,-56,188,-132c0,0,107,-109,165,-255c0,0,58,-147,58,-306c0,0,0,-231,-114,-420c0,0,-113,-191,-297,-273Z" 
id="f2_4"
transform="scale(0.001,-0.001)" />

<path d="M352,-21L0,421L352,862L697,420L352,-21Z" 
id="f4_2"
transform="scale(0.001,-0.001)" />

<path d="M397,34c0,0,67,0,126,75c0,0,58,74,58,216c0,0,0,131,-58,201c0,0,-59,70,-133,70c0,0,-39,0,-79,-20c0,0,-29,-14,-75,-59V109c0,0,37,-37,78,-56c0,0,40,-19,83,-19ZM358,-20c0,0,-59,0,-121,21c0,0,-61,22,-126,65V773c0,0,0,117,-5,144c0,0,-6,27,-18,37c0,0,-12,9,-29,9c0,0,-21,0,-53,-12l-9,27l205,83h34V564c0,0,98,139,213,139c0,0,105,0,183,-90c0,0,78,-90,78,-245c0,0,0,-182,-121,-293c0,0,-103,-95,-231,-95Z" 
id="f2_x"
transform="scale(0.001,-0.001)" />

<path d="M384,85c0,0,44,0,78,19c0,0,35,19,68,62V487c0,0,0,55,-15,87c0,0,-14,33,-51,55c0,0,-38,22,-85,22c0,0,-84,0,-143,-71c0,0,-60,-70,-60,-214c0,0,0,-138,61,-209c0,0,61,-72,147,-72Zm35,-411v27h15c0,0,41,0,63,12c0,0,15,8,24,30c0,0,9,21,9,83V119C530,119,462,39,411,9c0,0,-50,-29,-105,-29c0,0,-99,0,-177,90c0,0,-78,90,-78,241c0,0,0,174,103,283c0,0,103,109,248,109c0,0,43,0,78,-12c0,0,36,-12,65,-35c0,0,43,20,83,47h25V-174c0,0,0,-66,9,-85c0,0,9,-19,28,-30c0,0,19,-10,74,-10v-27Z" 
id="f2_1b"
transform="scale(0.001,-0.001)" />

<path d="M292,-20c0,0,-57,0,-100,33c0,0,-42,33,-58,85c0,0,-17,52,-17,148V551c0,0,0,49,-10,68c0,0,-11,18,-31,29c0,0,-19,9,-68,9c-2,0,-4,0,-6,0v26H242V226c0,0,0,-95,33,-125c0,0,33,-30,80,-30c0,0,32,0,73,21c0,0,40,20,96,76V555c0,0,0,59,-21,80c0,0,-22,21,-89,22v26H647V269c0,0,0,-119,6,-145c0,0,6,-27,18,-37c0,0,12,-11,29,-11c0,0,23,0,52,13L763,63L558,-20H524V124C524,124,436,29,390,4c0,0,-47,-24,-98,-24Z" 
id="f2_1f"
transform="scale(0.001,-0.001)" />

<path d="M191,-20c0,0,-34,0,-58,24c0,0,-24,24,-24,58c0,0,0,35,24,59c0,0,24,24,58,24c0,0,35,0,59,-24c0,0,24,-25,24,-59c0,0,0,-34,-24,-58c0,0,-25,-24,-59,-24Z" 
id="f2_7"
transform="scale(0.001,-0.001)" />

<path d="M25,0V26c0,0,27,4,47,19c0,0,29,22,96,111L311,346L182,535c0,0,-55,81,-86,102c0,0,-30,20,-75,20v26H341V657c0,0,-30,0,-42,-10c0,0,-13,-11,-13,-28c0,0,0,-19,27,-56c0,0,8,-12,25,-37l48,-78l56,77c0,0,55,74,55,94c0,0,0,16,0,27c0,0,0,11,0,11v26H674V657c0,0,-37,-2,-64,-20c0,0,-37,-26,-100,-111L416,402L587,156c0,0,63,-91,89,-109c0,0,27,-18,70,-21V0H423V26c0,0,34,0,53,15c0,0,14,11,14,28c0,0,0,17,-48,87L341,302L232,157c0,0,-50,-69,-50,-82c0,0,0,-18,17,-32c0,0,17,-15,50,-17V0Z" 
id="f2_1i"
transform="scale(0.001,-0.001)" />


</defs>
</svg>